<svg width="158" height="227" viewBox="0 0 158 227" fill="none" xmlns="http://www.w3.org/2000/svg">
<path d="M36.1078 223.149C35.0104 223.15 33.9185 222.994 32.865 222.687C31.9582 222.453 31.1032 222.051 30.3438 221.503L31.4544 219.071C32.1112 219.536 32.8358 219.897 33.6027 220.141C34.4209 220.414 35.2777 220.554 36.1402 220.555C36.669 220.568 37.1967 220.499 37.7048 220.352C38.041 220.254 38.3456 220.069 38.5885 219.817C38.7799 219.591 38.8809 219.302 38.8722 219.006C38.8779 218.831 38.8402 218.657 38.7624 218.5C38.6846 218.343 38.5691 218.208 38.4263 218.106C38.0528 217.838 37.632 217.643 37.186 217.531C36.6915 217.385 36.1564 217.247 35.5646 217.125C34.9728 217.004 34.3972 216.842 33.8135 216.655C33.2443 216.482 32.6994 216.237 32.1921 215.926C31.706 215.63 31.3018 215.218 31.0166 214.726C30.7063 214.161 30.555 213.522 30.5789 212.877C30.5746 212.09 30.8 211.318 31.2274 210.656C31.7143 209.934 32.4019 209.37 33.2055 209.035C34.2621 208.605 35.3975 208.404 36.5374 208.443C37.4284 208.441 38.3161 208.55 39.1803 208.767C39.9856 208.951 40.7552 209.266 41.4583 209.699L40.4287 212.205C39.8112 211.848 39.1487 211.575 38.4588 211.394C37.8256 211.215 37.1711 211.122 36.5131 211.118C35.9862 211.103 35.4604 211.174 34.9566 211.329C34.6206 211.434 34.3222 211.634 34.0973 211.905C33.9168 212.136 33.8197 212.422 33.8216 212.715C33.8168 212.893 33.8548 213.068 33.9324 213.228C34.01 213.387 34.125 213.526 34.2675 213.631C34.6211 213.884 35.0203 214.066 35.443 214.166C35.9294 214.296 36.4726 214.426 37.0644 214.547C37.6562 214.669 38.248 214.839 38.8236 215.026C39.389 215.206 39.9327 215.448 40.445 215.747C40.964 216.053 41.3895 216.495 41.6753 217.025C41.9611 217.555 42.0964 218.153 42.0663 218.755C42.0735 219.534 41.8446 220.297 41.4097 220.944C40.914 221.664 40.2217 222.227 39.4154 222.565C38.3657 222.988 37.239 223.187 36.1078 223.149Z" fill="#5784BA"/>
<path d="M45.7073 210.478C45.1823 210.5 44.6687 210.32 44.2724 209.975C44.0943 209.819 43.9526 209.625 43.8573 209.408C43.7621 209.191 43.7156 208.956 43.7212 208.719C43.7156 208.482 43.7621 208.246 43.8573 208.029C43.9526 207.812 44.0943 207.618 44.2724 207.462C44.6657 207.111 45.1807 206.928 45.7073 206.951C46.2279 206.931 46.7381 207.101 47.1423 207.43C47.3211 207.578 47.4636 207.766 47.5591 207.978C47.6546 208.19 47.7006 208.421 47.6935 208.654C47.7009 208.899 47.6562 209.142 47.5626 209.369C47.469 209.595 47.3285 209.799 47.1504 209.967C46.7546 210.319 46.2366 210.503 45.7073 210.478ZM44.1265 222.906V212.002H47.2882V222.906H44.1265Z" fill="#5784BA"/>
<path d="M64.1911 211.856C64.9884 211.84 65.7779 212.015 66.4935 212.367C67.168 212.719 67.7172 213.271 68.0662 213.947C68.4763 214.798 68.6712 215.736 68.6337 216.679V222.922H65.472V217.166C65.5293 216.474 65.3397 215.785 64.937 215.22C64.7486 215.007 64.5143 214.839 64.2517 214.73C63.9891 214.62 63.7051 214.572 63.421 214.588C62.9815 214.58 62.5477 214.689 62.1644 214.904C61.8044 215.124 61.5213 215.449 61.3537 215.836C61.1361 216.348 61.0337 216.902 61.0538 217.458V222.93H57.8921V217.174C57.9493 216.483 57.7597 215.793 57.357 215.228C57.1633 215.013 56.9234 214.844 56.6552 214.735C56.3871 214.625 56.0977 214.578 55.8086 214.596C55.3743 214.589 54.946 214.698 54.5682 214.912C54.2113 215.135 53.929 215.46 53.7576 215.844C53.536 216.355 53.4334 216.91 53.4576 217.466V222.938H50.2959V212.002H53.3117V214.961L52.7442 214.11C53.0912 213.387 53.6591 212.794 54.3656 212.415C55.0671 212.044 55.8497 211.851 56.6436 211.856C57.5791 211.834 58.4988 212.1 59.2784 212.618C59.6684 212.887 60.0015 213.23 60.2589 213.628C60.5162 214.026 60.6927 214.47 60.7781 214.936L59.6675 214.628C60.0299 213.796 60.6381 213.095 61.4105 212.618C62.2427 212.097 63.2096 211.832 64.1911 211.856Z" fill="#5784BA"/>
<path d="M76.0998 223.068C75.2592 223.083 74.4266 222.903 73.6677 222.541C72.9723 222.181 72.4058 221.615 72.0463 220.919C71.6293 220.062 71.4289 219.116 71.4626 218.163V212.002H74.6243V217.677C74.5653 218.397 74.7699 219.114 75.1999 219.695C75.4096 219.91 75.6627 220.078 75.9423 220.187C76.2219 220.296 76.5216 220.344 76.8213 220.328C77.2749 220.338 77.723 220.226 78.1184 220.003C78.5121 219.778 78.8285 219.439 79.0264 219.031C79.2631 218.524 79.3769 217.968 79.3588 217.409V212.002H82.4961V222.906H79.4966V219.882L80.0479 220.774C79.7013 221.5 79.1338 222.099 78.4265 222.484C77.7144 222.877 76.9128 223.078 76.0998 223.068Z" fill="#5784BA"/>
<path d="M85.415 222.906V207.867H88.5767V222.906H85.415Z" fill="#5784BA"/>
<path d="M93.1243 210.478C92.5993 210.5 92.0857 210.32 91.6894 209.975C91.5112 209.819 91.3695 209.625 91.2743 209.408C91.179 209.191 91.1326 208.956 91.1381 208.719C91.1326 208.482 91.179 208.246 91.2743 208.029C91.3695 207.812 91.5112 207.618 91.6894 207.462C92.0889 207.126 92.6032 206.957 93.1243 206.992C93.6449 206.971 94.1551 207.141 94.5593 207.47C94.738 207.619 94.8806 207.806 94.9761 208.019C95.0716 208.231 95.1176 208.462 95.1105 208.694C95.1178 208.939 95.0732 209.183 94.9796 209.409C94.886 209.635 94.7455 209.839 94.5674 210.008C94.1654 210.345 93.6481 210.514 93.1243 210.478ZM91.503 222.906V212.002H94.6646V222.906H91.503Z" fill="#5784BA"/>
<path d="M96.3193 214.677V212.245H103.875V214.677H96.3193ZM97.9894 222.906V211.759C97.961 211.217 98.0434 210.675 98.2316 210.166C98.4198 209.658 98.7097 209.192 99.0838 208.8C99.5039 208.417 99.9968 208.123 100.533 207.935C101.069 207.747 101.638 207.669 102.205 207.705C102.649 207.706 103.092 207.752 103.526 207.843C103.914 207.921 104.284 208.066 104.621 208.273L103.81 210.583C103.633 210.457 103.435 210.361 103.226 210.299C103.004 210.227 102.771 210.191 102.537 210.194C102.343 210.181 102.148 210.208 101.965 210.275C101.782 210.342 101.615 210.447 101.475 210.583C101.193 210.922 101.056 211.359 101.094 211.799V212.812L101.2 214.15V222.906H97.9894Z" fill="#5784BA"/>
<path d="M107.036 227C106.485 226.993 105.938 226.903 105.414 226.732C104.909 226.587 104.44 226.339 104.036 226.003L105.195 223.733C105.428 223.961 105.703 224.14 106.006 224.26C106.311 224.38 106.635 224.444 106.963 224.446C107.337 224.465 107.707 224.353 108.009 224.13C108.328 223.843 108.575 223.484 108.73 223.084L109.298 221.746L109.541 221.406L113.473 212.002H116.488L111.567 223.57C111.295 224.333 110.886 225.039 110.36 225.654C109.949 226.114 109.435 226.469 108.86 226.692C108.275 226.903 107.657 227.007 107.036 227ZM108.9 223.327L104.036 211.978H107.279L111.065 221.114L108.9 223.327Z" fill="#5784BA"/>
<path d="M69.9879 7.22119H67.3369" stroke="url(#paint0_linear_447_11197)" stroke-width="10" stroke-miterlimit="10"/>
<path d="M157.891 152.951C157.937 154.064 157.76 155.175 157.369 156.219C156.979 157.262 156.383 158.217 155.618 159.026C154.852 159.835 153.932 160.483 152.911 160.931C151.891 161.378 150.791 161.616 149.677 161.632C148.563 161.647 147.458 161.438 146.426 161.019C145.393 160.599 144.456 159.977 143.668 159.189C142.881 158.401 142.26 157.463 141.841 156.43C141.422 155.398 141.215 154.292 141.231 153.178L139.982 66.9368L125.544 93.6897L124.166 96.2352L123.825 96.8513L122.431 99.4537C122.317 99.5915 122.212 99.7212 122.09 99.8509C122.026 99.9296 121.956 100.003 121.88 100.07C121.774 100.189 121.66 100.3 121.539 100.402C121.398 100.538 121.249 100.665 121.093 100.783H121.053C120.907 100.897 120.753 101.01 120.591 101.116C120.428 101.221 120.291 101.318 120.129 101.416L120.031 101.464L119.796 101.602L119.545 101.724C119.171 101.897 118.787 102.046 118.394 102.169C118.198 102.238 117.997 102.292 117.794 102.332C117.591 102.38 117.388 102.421 117.178 102.453H116.926L116.61 102.494H116.253H115.937C114.762 102.468 113.606 102.193 112.544 101.689C111.482 101.185 110.539 100.462 109.776 99.5672L108.301 97.0054L107.976 96.4217L106.525 93.9166L99.0668 80.9942L91.3166 67.5692L91.6165 88.0148L91.6976 93.868V93.941C89.0636 92.3714 86.2488 91.1273 83.315 90.2361C80.612 89.4144 77.8242 88.9031 75.0054 88.712L74.7136 68.7204L74.2677 37.9871V35.8144C74.2569 33.9996 74.8395 32.2309 75.9266 30.7777C77.0137 29.3244 78.5459 28.2662 80.29 27.7641C82.034 27.262 83.8944 27.3435 85.5878 27.9962C87.2812 28.649 88.715 29.8372 89.6709 31.3799L89.8978 31.7691L90.8545 33.3904L108.69 64.2372L115.872 76.6327L139.593 32.6608L140.517 30.9584L140.688 30.626C141.585 29.0297 142.983 27.7733 144.666 27.0511C146.348 26.3289 148.222 26.1811 149.998 26.6304C151.773 27.0797 153.351 28.1013 154.487 29.5371C155.624 30.9729 156.256 32.7431 156.285 34.5741V36.7467L157.891 152.951Z" fill="#00A6FB"/>
<path d="M8.78027 23.2729L21.0136 35.5144" stroke="#5784BA" stroke-width="6" stroke-miterlimit="10"/>
<path d="M6.91564 25.324C9.07819 25.324 10.8313 23.5709 10.8313 21.4083C10.8313 19.2458 9.07819 17.4927 6.91564 17.4927C4.75309 17.4927 3 19.2458 3 21.4083C3 23.5709 4.75309 25.324 6.91564 25.324Z" stroke="#5784BA" stroke-width="6" stroke-miterlimit="10"/>
<path d="M109.938 143.92C109.565 174.726 75.7918 193.591 48.3256 181.747L45.253 193.096C62.9585 193.096 81.0856 194.604 96.3266 183.709C117.55 168.549 124.417 138.545 108.868 116.705C99.0667 102.923 83.469 95.1407 66.6391 94.8164L72.7193 100.897C72.6962 99.2912 72.0482 97.758 70.9129 96.6227C69.7776 95.4874 68.2445 94.8395 66.6391 94.8164C45.8935 94.5327 26.5909 80.3699 23.3644 59.2352C20.5432 40.7109 31.7064 22.8919 48.6012 15.5713C54.2973 13.1579 60.4204 11.9142 66.6066 11.9142C72.7929 11.9142 78.916 13.1579 84.6121 15.5713L87.6765 4.22166C80.8748 4.22166 74.065 4.22166 67.2633 4.22166C55.0644 4.15905 43.2087 8.25681 33.6521 15.8389C12.4444 32.7904 9.80963 64.0912 27.1665 84.6828C36.8948 96.2027 51.6656 102.364 66.5985 102.518L60.5184 96.4378C60.5455 98.0419 61.1948 99.5727 62.3292 100.707C63.4636 101.842 64.9944 102.491 66.5985 102.518C89.5897 102.964 109.565 120.353 109.914 143.96C110.011 151.776 122.171 151.8 122.074 143.96C121.677 113.706 96.2293 90.9332 66.5985 90.3576L72.6787 96.4378C72.6557 94.8324 72.0077 93.2992 70.8724 92.1639C69.7371 91.0286 68.2039 90.3807 66.5985 90.3576C44.9855 90.0982 26.2018 72.8872 27.6854 50.6337C29.0554 30.0503 48.0175 16.455 67.5552 16.3983C74.2515 16.3983 80.9478 16.3983 87.6441 16.3983C93.2379 16.3983 96.5049 7.55361 90.7166 5.04857C65.9662 -5.66876 36.8056 0.849192 20.6567 22.9648C5.84535 43.2321 8.39091 71.6955 25.5776 89.6766C36.2706 100.864 51.2603 106.742 66.6229 106.952L60.5427 100.872C60.5698 102.476 61.2191 104.007 62.3535 105.142C63.4879 106.276 65.0188 106.925 66.6229 106.952C89.3627 107.431 109.589 127.463 104.579 151.005C100.526 169.886 83.2501 180.92 64.6934 180.944C58.2079 180.944 51.7224 180.944 45.2368 180.944C39.6431 180.944 36.3841 189.781 42.1724 192.294C60.3886 200.141 81.7909 199.225 98.3776 187.811C105.573 182.955 111.489 176.433 115.621 168.8C119.754 161.167 121.982 152.648 122.115 143.969C122.188 136.089 110.027 136.089 109.938 143.92Z" fill="#00A6FB"/>
<path d="M24.3777 133.138L11.2041 120.531" stroke="#5784BA" stroke-width="6" stroke-miterlimit="10"/>
<path d="M59.3752 154.272L47.1338 142.031" stroke="#5784BA" stroke-width="6" stroke-miterlimit="10"/>
<path d="M8.08264 120.953C10.2452 120.953 11.9983 119.2 11.9983 117.038C11.9983 114.875 10.2452 113.122 8.08264 113.122C5.92009 113.122 4.16699 114.875 4.16699 117.038C4.16699 119.2 5.92009 120.953 8.08264 120.953Z" stroke="#5784BA" stroke-width="6" stroke-miterlimit="10"/>
<path d="M62.6754 159.355C64.838 159.355 66.591 157.602 66.591 155.44C66.591 153.277 64.838 151.524 62.6754 151.524C60.5129 151.524 58.7598 153.277 58.7598 155.44C58.7598 157.602 60.5129 159.355 62.6754 159.355Z" stroke="#5784BA" stroke-width="6" stroke-miterlimit="10"/>
<path d="M42.3994 144.893L54.6409 132.651" stroke="#5784BA" stroke-width="6" stroke-miterlimit="10"/>
<path d="M39.3434 150.689C41.5059 150.689 43.259 148.936 43.259 146.774C43.259 144.611 41.5059 142.858 39.3434 142.858C37.1808 142.858 35.4277 144.611 35.4277 146.774C35.4277 148.936 37.1808 150.689 39.3434 150.689Z" stroke="#5784BA" stroke-width="6" stroke-miterlimit="10"/>
<path d="M76.4322 132.351L22.6348 132.424" stroke="#5784BA" stroke-width="6" stroke-miterlimit="10"/>
<path d="M80.3238 136.259C82.4864 136.259 84.2395 134.506 84.2395 132.343C84.2395 130.181 82.4864 128.428 80.3238 128.428C78.1613 128.428 76.4082 130.181 76.4082 132.343C76.4082 134.506 78.1613 136.259 80.3238 136.259Z" stroke="#5784BA" stroke-width="6" stroke-miterlimit="10"/>
<defs>
<linearGradient id="paint0_linear_447_11197" x1="-nan" y1="-nan" x2="-nan" y2="-nan" gradientUnits="userSpaceOnUse">
<stop stop-color="#03045E"/>
<stop offset="1" stop-color="#EA698B"/>
</linearGradient>
</defs>
</svg>
