<svg width="34" height="32" viewBox="0 0 34 32" fill="none" xmlns="http://www.w3.org/2000/svg">
<path d="M19.5 11.6742C19.5 10.9838 18.9404 10.4242 18.25 10.4242H8.25C7.55964 10.4242 7 10.9838 7 11.6742C7 12.3645 7.55964 12.9242 8.25 12.9242H18.25C18.9404 12.9242 19.5 12.3645 19.5 11.6742Z" fill="#F8F9FA"/>
<path d="M17.8333 16.6742C17.8333 15.9838 17.2737 15.4242 16.5833 15.4242H8.25C7.55964 15.4242 7 15.9838 7 16.6742C7 17.3645 7.55964 17.9242 8.25 17.9242H16.5833C17.2737 17.9242 17.8333 17.3645 17.8333 16.6742Z" fill="#F8F9FA"/>
<path d="M18.25 20.4242C18.9404 20.4242 19.5 20.9838 19.5 21.6742C19.5 22.3645 18.9404 22.9242 18.25 22.9242H8.25C7.55964 22.9242 7 22.3645 7 21.6742C7 20.9838 7.55964 20.4242 8.25 20.4242H18.25Z" fill="#F8F9FA"/>
<path fill-rule="evenodd" clip-rule="evenodd" d="M7 31.6742H28.6667C31.198 31.6742 33.25 29.6221 33.25 27.0908V17.9242C33.25 17.2338 32.6904 16.6742 32 16.6742H26.5833V3.66282C26.5833 1.29048 23.9018 -0.0894619 21.9714 1.28943L21.6796 1.49782C20.3788 2.42697 18.6168 2.42385 17.3099 1.49034C15.1368 -0.0618834 12.1966 -0.0618834 10.0235 1.49034C8.71653 2.42385 6.95451 2.42697 5.65369 1.49782L5.36194 1.28943C3.43149 -0.0894622 0.75 1.29048 0.75 3.66282V25.4242C0.75 28.876 3.54822 31.6742 7 31.6742ZM11.4765 3.52467C12.7804 2.59334 14.5529 2.59334 15.8568 3.52467C18.0268 5.07471 20.9566 5.08655 23.1327 3.53215L23.4245 3.32376C23.7003 3.12678 24.0833 3.32391 24.0833 3.66282V27.0908C24.0833 27.841 24.2636 28.5491 24.5831 29.1742H7C4.92893 29.1742 3.25 27.4952 3.25 25.4242V3.66282C3.25 3.32391 3.63307 3.12678 3.90885 3.32376L4.20059 3.53215C6.37675 5.08655 9.3065 5.07471 11.4765 3.52467ZM26.5833 27.0908V19.1742H30.75V27.0908C30.75 28.2414 29.8173 29.1742 28.6667 29.1742C27.5161 29.1742 26.5833 28.2414 26.5833 27.0908Z" fill="#F8F9FA"/>
</svg>
