<svg width="1198" height="2004" viewBox="0 0 1198 2004" fill="none" xmlns="http://www.w3.org/2000/svg">
<path d="M550 1160V1993.5" stroke="#00A6FB" stroke-width="6" stroke-linecap="round"/>
<path d="M515 1109.5H465.342C460.986 1109.5 457.431 1112.99 457.344 1117.34L440 1988.5" stroke="#00A6FB" stroke-width="6"/>
<path d="M623 1158V1987" stroke="#00A6FB" stroke-width="6"/>
<path d="M386.5 967.5H290C285.582 967.5 282 971.082 282 975.5V2003" stroke="#00A6FB" stroke-width="6"/>
<path d="M448 847H328.471C324.064 847 320.487 843.436 320.471 839.029L318 153.5" stroke="#00A6FB" stroke-width="6" stroke-linecap="round"/>
<path d="M753.5 763.5V587C753.5 582.582 757.082 579 761.5 579H1194.5" stroke="#00A6FB" stroke-width="6" stroke-linecap="round"/>
<path d="M451 907H292.5C288.082 907 284.5 903.418 284.5 899V155" stroke="#00A6FB" stroke-width="6" stroke-linecap="round"/>
<path d="M592 699V104.5" stroke="#00A6FB" stroke-width="6" stroke-linecap="round"/>
<path d="M634.5 683.5V99.5" stroke="#00A6FB" stroke-width="6" stroke-linecap="round"/>
<path d="M873.5 837.5V740.5C873.5 736.082 877.082 732.5 881.5 732.5H1192.5" stroke="#00A6FB" stroke-width="6" stroke-linecap="round"/>
<path d="M922.5 909H1186" stroke="#00A6FB" stroke-width="6" stroke-linecap="round"/>
<path d="M913.5 942.5H1194.5" stroke="#00A6FB" stroke-width="6" stroke-linecap="round"/>
<path d="M702.5 1209.5L688 1996.5" stroke="#00A6FB" stroke-width="6" stroke-linecap="round"/>
<path d="M749 1186.5V1979" stroke="#00A6FB" stroke-width="6" stroke-linecap="round"/>
<path d="M798 1166V1972.5" stroke="#00A6FB" stroke-width="6" stroke-linecap="round"/>
<path d="M451.5 1064.5H395C390.582 1064.5 387 1068.08 387 1072.5V1988.5" stroke="#00A6FB" stroke-width="6" stroke-linecap="round"/>
<path d="M489.5 722V137.5" stroke="#00A6FB" stroke-width="6" stroke-linecap="round"/>
<path fill-rule="evenodd" clip-rule="evenodd" d="M638.453 696.967C636.391 697.366 636.384 702.132 638.399 731.213C638.963 739.362 638.983 746.507 638.442 747.091C637.901 747.673 630.29 750.343 621.527 753.02C612.764 755.698 605.209 758.276 604.738 758.749C604.265 759.222 605.589 765.165 607.679 771.956C612.135 786.443 612.461 789.029 609.89 789.55C608.403 789.853 606.384 784.54 600.758 765.515C596.783 752.081 592.101 735.712 590.35 729.14C587.909 719.977 586.613 717.045 584.791 716.571C581.934 715.827 580.991 711.69 593.737 755.821C599.217 774.787 603.552 790.452 603.372 790.629C603.193 790.808 594.407 792.836 583.848 795.135C569.714 798.213 564.417 798.934 563.768 797.869C563.283 797.073 558.872 782.583 553.966 765.669C549.06 748.756 544.49 734.557 543.81 734.116C541.403 732.554 505.636 724.325 504.443 725.059C501.756 726.712 503.468 729.128 507.885 729.917C510.445 730.374 518.794 732.442 526.441 734.513L540.342 738.28L545.276 753.266C551.772 772.999 559.454 799.761 558.806 800.405C558.524 800.687 556.993 801.067 555.404 801.251C552.684 801.567 552.167 800.394 546.567 781.215C537.213 749.178 534.975 742.645 532.997 741.612C528.123 739.07 501.597 732.964 500.437 734.118C499.216 735.333 500.464 735.788 514.709 739.306C517.61 740.022 522.623 741.453 525.851 742.484C531.683 744.347 531.735 744.413 534.342 753.122C537.92 765.08 546.659 799.51 546.659 801.653C546.659 802.609 545.403 803.671 543.867 804.012C490.674 815.823 459.184 825.154 452.606 831.057C448.806 834.467 445.57 842.011 443.025 853.393C440.328 865.461 440.381 865.706 459.393 927.518C463.153 939.741 466.745 951.374 467.377 953.368C468.007 955.361 468.097 957.408 467.576 957.916C466.682 958.788 432.095 969.161 422.427 971.457C418.572 972.372 416.283 971.824 406.385 967.615C393.535 962.149 392.804 961.978 392.804 964.421C392.804 965.417 397.943 968.32 405.08 971.352L417.356 976.567L433.308 971.571C442.081 968.823 454.228 965.157 460.302 963.425C466.375 961.693 471.629 959.994 471.975 959.649C472.923 958.707 475.935 961.541 475.935 963.375C475.935 964.257 474.12 965.358 471.903 965.822C469.686 966.287 456.8 969.942 443.271 973.945C429.742 977.949 417.69 981.224 416.49 981.224C415.289 981.224 408.949 979.055 402.4 976.403C391.337 971.925 390.36 971.729 388.611 973.651C386.878 975.557 388.01 976.194 402.999 981.753L419.268 987.786L433.643 983.2C445.293 979.482 459.187 974.689 470.581 970.456C471.459 970.13 472.644 972.07 473.517 975.259C474.322 978.201 477.084 987.062 479.654 994.95L484.328 1009.29L477.34 1010.78C463.999 1013.62 436.849 1019.97 436.314 1020.37C436.017 1020.59 436.391 1021.39 437.143 1022.13C438.139 1023.12 445.478 1021.75 464.158 1017.09C478.264 1013.56 490.594 1010.98 491.557 1011.34C495.833 1012.98 493.006 1015.61 484.552 1017.87L475.799 1020.21L467.123 1040.52C460.355 1056.36 458.705 1061.37 459.617 1063.31C460.782 1065.79 460.786 1065.79 461.726 1063.33C463.639 1058.31 473.232 1035.98 475.865 1030.41C477.646 1026.64 479.584 1024.41 481.487 1023.94C483.083 1023.54 485.204 1022.9 486.198 1022.52C487.591 1021.99 488.788 1024.74 491.428 1034.55C499.555 1064.76 501.38 1070.95 510.104 1097.92C523.454 1139.19 532.741 1156.39 546.039 1164.47C551.757 1167.95 553.068 1168.23 562.789 1168.08C577.31 1167.87 617.499 1159.38 659.293 1147.71C671.767 1144.23 682.133 1141.6 682.329 1141.86C682.761 1142.44 692.714 1181.67 694.738 1190.76C695.787 1195.47 696.598 1196.94 697.759 1196.22C698.994 1195.46 697.952 1190.06 693.053 1171.88C689.591 1159.03 685.945 1145.78 684.951 1142.43C682.806 1135.2 682.627 1129.84 684.492 1128.7C685.234 1128.24 686.465 1128.49 687.227 1129.24C688.595 1130.61 695.684 1156.59 700.566 1178.15C701.951 1184.26 703.38 1190.23 703.744 1191.42C704.716 1194.6 706.87 1194.05 706.143 1190.8C704.473 1183.35 693.966 1141.04 693.456 1139.71C692.654 1137.63 727.879 1126.57 729.662 1128.34C730.193 1128.87 737.206 1155.6 740.705 1170.43C741.567 1174.08 744.007 1175.26 743.26 1171.66C737.287 1142.91 735.508 1135.59 731.361 1122.67C728.999 1115.31 729.558 1112.31 733.039 1113.64C734.656 1114.26 735.904 1117.65 741.357 1136.26L743.917 1145L750.444 1146.54C777.022 1152.82 788.132 1155 789.044 1154.11C789.625 1153.55 789.066 1152.79 787.803 1152.43C786.039 1151.93 753.014 1143.03 745.709 1141.09C744.423 1140.75 739.433 1124.72 740.376 1123.96C740.63 1123.76 746.422 1122.17 753.246 1120.43C773.282 1115.33 789.5 1110.99 804.738 1106.64C812.586 1104.39 823.689 1101.27 829.411 1099.7L839.815 1096.84L844.999 1088.73C847.85 1084.26 851.823 1077 853.827 1072.59C857.115 1065.35 857.461 1063.35 857.364 1052.22C857.261 1040.25 856.943 1038.9 847.03 1008.39C841.404 991.07 835.673 973.847 834.295 970.113C830.778 960.589 826.151 946.477 825.64 943.716C825.316 941.966 826.431 940.963 830.174 939.635C839.14 936.452 860.181 930.605 862.573 930.631C863.861 930.644 871.879 933.967 880.389 938.014C893.788 944.384 896.013 945.107 896.974 943.397C898.379 940.899 898.457 940.945 878.261 932.351L861.795 925.343L842.995 931.125C824.556 936.794 822.222 936.988 822.128 932.849C822.1 931.642 869.104 917.477 910.514 906.215C911.707 905.89 912.685 905.185 912.685 904.648C912.685 903.221 875.433 913.094 845.063 922.571C835.509 925.553 826.277 928.332 824.547 928.748C821.502 929.48 821.268 929.083 817.255 916.383C814.915 908.979 813.582 902.821 814.197 902.249C815.535 901.002 846.256 891.083 860.398 887.331C872.216 884.197 871.16 885.553 878.61 863.935C882.265 853.326 882.42 851.374 879.606 851.417C879.121 851.425 876.441 857.993 873.648 866.014L868.572 880.599L861.78 882.334C858.045 883.288 845.243 887.026 833.33 890.64C811.16 897.366 809.77 897.454 809.72 892.138C809.703 890.165 822.855 885.445 853.976 876.254L862.889 873.622L866.67 863.224C871.545 849.816 872.501 846.036 870.745 847.117C869.998 847.576 867.895 852.798 866.072 858.721C864.248 864.645 862.125 870.148 861.354 870.95C860.583 871.753 849.344 875.462 836.378 879.191C823.412 882.921 811.826 886.352 810.632 886.815C809.438 887.278 808.461 887.416 808.461 887.123C808.461 886.829 805.68 875.796 802.282 862.607C795.621 836.76 795.853 837.681 789.06 810.235C781.711 780.551 772.745 766.265 758.914 762.205C747.955 758.987 744.655 759.389 705.477 768.693C696.947 770.719 684.384 773.532 677.56 774.945C670.736 776.357 659.01 778.959 651.504 780.727C643.997 782.495 633.2 784.902 627.51 786.076L617.164 788.212L615.935 785.022C613.725 779.288 609.521 762.7 610.125 762.097C610.45 761.775 616.991 759.615 624.661 757.298C632.33 754.981 639.693 752.106 641.022 750.909C643.908 748.31 644.045 741.913 641.803 714.526C640.587 699.661 640.015 696.665 638.453 696.967ZM630.407 719.403L631.31 741.543L620.934 744.639C604.544 749.529 606.289 750.409 601.692 734.917C599.476 727.448 597.633 720.346 597.596 719.137C597.533 717.002 594.333 714.847 593.079 716.094C592.456 716.715 600.846 751.592 601.861 752.602C602.369 753.107 632.359 744.502 633.278 743.587C634.323 742.547 631.814 697.261 630.712 697.261C629.94 697.261 629.831 705.26 630.407 719.403ZM751.361 782.144C753.735 783.33 756.817 786.001 758.21 788.076C762.221 794.057 775.941 836.873 788.649 883.072C795.347 907.417 802.078 930.416 809.131 953.053C811.391 960.306 815.255 975.029 817.718 985.77C820.181 996.511 823.885 1012.4 825.948 1021.07C828.013 1029.75 829.382 1037.84 828.993 1039.07C828.026 1042.09 822.512 1047 816.526 1050.16C812.489 1052.29 780.407 1062.31 764.413 1066.44C762.366 1066.96 755.945 1068.82 750.145 1070.55C744.344 1072.29 729.827 1076.54 717.885 1080C689.065 1088.35 652.306 1099.17 621.105 1108.48C582.549 1119.99 578.111 1120.97 571.168 1119.52C564.117 1118.05 558.027 1114.3 554.287 1109.11C552.777 1107.02 546.204 1088.91 539.678 1068.88C533.154 1048.85 521.676 1013.57 514.173 990.484C506.67 967.397 494.187 929.062 486.433 905.295C478.68 881.529 471.792 859.647 471.129 856.669C469.052 847.365 473.021 841.18 483.82 836.886C492.593 833.398 529.826 824.024 547.9 820.752C550.971 820.196 565.208 817.128 579.539 813.935C593.87 810.743 609.145 807.347 613.483 806.393C617.821 805.438 621.771 804.409 622.26 804.108C623.991 803.044 676.572 790.933 694.93 787.371C737.084 779.191 744.147 778.536 751.361 782.144ZM717.264 791.681C706.327 793.422 680.77 798.815 635.374 808.964C608.873 814.887 580.193 820.728 569.613 822.356C557.414 824.233 507.355 835.815 493.719 839.917C482.861 843.181 477.176 847.794 477.176 853.338C477.176 858.03 481.627 873.786 487.694 890.577C497.59 917.963 522.629 990.716 529.938 1013.32C533.78 1025.21 539.747 1042.43 543.196 1051.6C546.647 1060.76 549.921 1069.65 550.474 1071.35C553.992 1082.17 559.069 1095.25 560.721 1097.76C563.479 1101.94 572.718 1106.03 579.781 1106.19C583.082 1106.27 589.96 1105.34 595.067 1104.14C607.095 1101.3 687.102 1078.76 688.727 1077.75C689.409 1077.32 690.894 1076.83 692.026 1076.66C695.989 1076.04 721.915 1068.81 723.922 1067.75C725.038 1067.17 737.675 1063.25 752.006 1059.05C793.793 1046.78 808.809 1041.93 813.144 1039.27C819.229 1035.54 819.961 1032.26 817.063 1021.7C811.476 1001.34 809.377 993.533 806.021 980.607C804.082 973.138 798.841 954.248 794.375 938.63C789.91 923.012 784.818 904.4 783.06 897.27C781.301 890.14 778.212 879.028 776.193 872.578C774.174 866.127 769.118 849.737 764.957 836.156C752.753 796.333 752.549 795.817 747.79 792.657C742.855 789.38 733.587 789.085 717.264 791.681ZM742.454 795.288C748.275 798.282 749.81 801.155 755.052 818.871C757.866 828.378 760.746 838.101 761.453 840.477C762.16 842.854 763.395 847.357 764.196 850.483C764.998 853.608 766.348 856.993 767.194 858.004C768.041 859.014 768.416 860.158 768.028 860.545C767.638 860.933 768.221 864.214 769.324 867.839C770.427 871.464 775.455 888.875 780.499 906.53C785.541 924.185 793.852 953.075 798.965 970.73C812.955 1019.03 813.877 1023 812.298 1028.24C811.265 1031.68 809.636 1033.39 805.06 1035.85C799.526 1038.82 778.937 1045.37 753.246 1052.33C747.105 1054 737.892 1056.68 732.774 1058.3C727.656 1059.91 709.789 1065.15 693.069 1069.93C652.077 1081.66 625.938 1089.2 608.077 1094.45C584.203 1101.46 579.847 1102.46 576.372 1101.77C571.138 1100.73 564.093 1096.04 562.155 1092.31C561.173 1090.42 554.259 1070.91 546.791 1048.94C533.347 1009.4 506.91 932.334 493.706 894.183C480.578 856.257 480.246 854.532 484.937 848.807C487.426 845.769 490.166 844.873 510.677 840.38C523.302 837.616 534.748 835.128 536.112 834.851C537.477 834.576 541.107 833.776 544.177 833.073C547.248 832.37 568.186 827.895 590.706 823.13C634.47 813.866 662.685 807.809 702.375 799.158C728.991 793.356 737.166 792.567 742.454 795.288ZM474.065 939.247C477.695 950.451 484.313 971.008 488.774 984.928C493.233 998.849 501.701 1025.24 507.59 1043.57C513.48 1061.91 520.244 1083.02 522.623 1090.49C537.029 1135.72 538.016 1138.08 545.747 1145.87C552.378 1152.55 552.865 1153.42 552.133 1157.3C551.698 1159.61 550.897 1161.78 550.355 1162.11C549.813 1162.45 546.666 1160.59 543.361 1157.98C531.488 1148.6 523.679 1129.94 500.918 1056.54C489.977 1021.25 490.146 1022.05 493.222 1019.91C497.934 1016.63 496.182 1010.17 490.143 1008.57C487.028 1007.74 486.291 1006.6 484.364 999.667C483.149 995.295 480.707 987.09 478.936 981.434C476.188 972.657 475.935 970.624 477.207 967.568C479.148 962.907 477.847 958.018 474.232 956.379C471.823 955.286 470.54 952.137 466.331 936.975C463.567 927.021 458.407 908.598 454.865 896.035C451.321 883.473 448.2 869.861 447.929 865.787C447.419 858.141 451.605 869.907 474.065 939.247ZM893.617 916.407C883.471 919.396 874.854 922.156 874.468 922.54C873.387 923.616 875.146 924.79 888.105 931.652C894.717 935.153 900.451 937.496 900.847 936.859C901.244 936.221 896.69 933.054 890.73 929.821L879.89 923.942L898.151 918.945C908.193 916.196 916.224 913.389 915.995 912.708C915.235 910.432 912.184 910.936 893.617 916.407ZM452.671 1025.26C442.359 1027.74 439.953 1028.74 439.953 1030.56C439.953 1032.66 440.572 1032.61 450.126 1029.85C455.721 1028.23 460.993 1026.91 461.843 1026.91C462.874 1026.91 462.147 1029.88 459.656 1035.86C456.31 1043.89 451.12 1057.75 451.12 1058.65C451.12 1058.85 451.611 1059.01 452.213 1059.01C453.249 1059.01 467.25 1025.61 467.25 1023.14C467.25 1021.69 467.977 1021.58 452.671 1025.26ZM841.217 1080.3C839.244 1083.72 831.415 1094.25 830.215 1095.1C827.166 1097.26 827.384 1095.62 830.951 1089.56C833.049 1086 835.633 1082.11 836.694 1080.92C838.914 1078.43 842.584 1077.93 841.217 1080.3ZM830.066 1084.62C828.826 1086.49 826.629 1090.23 825.182 1092.94C822.58 1097.8 822.401 1097.89 808.372 1101.37C794.731 1104.74 766.791 1112.36 750.324 1117.19C739.624 1120.33 737.954 1120.19 736.949 1116.11C735.955 1112.06 734.544 1110.95 731.436 1111.76C727.641 1112.75 726.515 1115.01 727.725 1119.2L728.828 1123.03L719.944 1125.63C715.058 1127.05 706.687 1129.54 701.34 1131.16L691.62 1134.09L690.338 1130.43C689.238 1127.29 688.511 1126.83 685.169 1127.15C681.579 1127.5 681.254 1127.91 680.91 1132.59L680.536 1137.66L673.465 1139.21C669.575 1140.06 659.972 1142.72 652.124 1145.11C634.267 1150.54 618.613 1154.46 598.981 1158.4C580.459 1162.13 578.545 1162.22 579.357 1159.32C581.872 1150.35 576.111 1152.75 633.513 1136.76C655.691 1130.59 686.4 1121.99 701.755 1117.66C717.109 1113.33 743.631 1105.89 760.691 1101.11C777.752 1096.34 800.365 1089.96 810.942 1086.93C821.52 1083.91 830.657 1081.39 831.247 1081.33C831.838 1081.27 831.306 1082.76 830.066 1084.62ZM744.359 1151.77C744.788 1153.38 746.062 1158.44 747.189 1163.02C748.317 1167.61 749.723 1171.36 750.312 1171.36C751.784 1171.36 751.704 1170.75 748.25 1155.61C747.422 1151.99 748.015 1152.02 768.465 1156.57C777.692 1158.62 785.521 1160.02 785.862 1159.69C786.202 1159.35 785.704 1158.84 784.753 1158.56C778.209 1156.65 771.339 1155.02 760.612 1152.83C753.831 1151.45 747.225 1149.99 745.931 1149.58C743.953 1148.97 743.703 1149.32 744.359 1151.77ZM567.628 1156.44C567.313 1161.43 565.663 1164.56 563.353 1164.55C561.481 1164.54 561.027 1163.84 561.365 1161.47C561.997 1157.02 563.617 1154.48 565.824 1154.48C566.885 1154.48 567.696 1155.36 567.628 1156.44Z" fill="#00A6FB"/>
<path d="M429 1025.92H345C340.582 1025.92 337 1029.51 337 1033.92V2004" stroke="#00A6FB" stroke-width="6"/>
<ellipse cx="634" cy="692.461" rx="12" ry="12.4613" fill="#FFF502"/>
<ellipse cx="589.5" cy="708.91" rx="12.5" ry="11.9628" fill="#FFF502"/>
<ellipse cx="498.5" cy="727.353" rx="12.5" ry="12.4613" fill="#FFF502"/>
<ellipse cx="393.5" cy="965.612" rx="12.5" ry="12.4613" fill="#FFF502"/>
<ellipse cx="441.5" cy="1023.93" rx="12.5" ry="11.9628" fill="#FFF502"/>
<ellipse cx="454.5" cy="1062.31" rx="12.5" ry="12.4613" fill="#FFF502"/>
<ellipse cx="700.5" cy="1196.89" rx="12.5" ry="12.4613" fill="#FFF502"/>
<ellipse cx="748" cy="1176.95" rx="12" ry="12.4613" fill="#FFF502"/>
<ellipse cx="795" cy="1157.52" rx="12" ry="11.9628" fill="#FFF502"/>
<ellipse cx="899.5" cy="941.188" rx="12.5" ry="11.9628" fill="#FFF502"/>
<ellipse cx="911.5" cy="906.795" rx="12.5" ry="12.4613" fill="#FFF502"/>
<ellipse cx="874.5" cy="845.984" rx="12.5" ry="12.4613" fill="#FFF502"/>
<path d="M582.217 707.913C581.137 704.8 584.256 701.064 588 702.112" stroke="#F8F9FA" stroke-width="2" stroke-linecap="round"/>
<path d="M386.217 966.11C385.137 962.997 388.256 959.261 392 960.309" stroke="#F8F9FA" stroke-width="2" stroke-linecap="round"/>
<path d="M637.623 684.722C639.268 684.104 643.202 686.979 643.394 692.515" stroke="#F8F9FA" stroke-width="2" stroke-linecap="round"/>
<path d="M877.174 838.691C878.819 838.073 882.753 840.948 882.945 846.484" stroke="#F8F9FA" stroke-width="2" stroke-linecap="round"/>
<path d="M918.531 901.702C920.243 902.097 921.915 906.666 918.994 911.377" stroke="#F8F9FA" stroke-width="2" stroke-linecap="round"/>
<path d="M901.97 933.831C903.63 933.366 907.64 935.633 907.884 939.931" stroke="#F8F9FA" stroke-width="2" stroke-linecap="round"/>
<path d="M502.777 718.81C504.422 718.192 508.356 721.068 508.548 726.603" stroke="#F8F9FA" stroke-width="2" stroke-linecap="round"/>
<path d="M448.245 1028.54C448.45 1030.28 444.702 1033.4 439.267 1032.25" stroke="#F8F9FA" stroke-width="2" stroke-linecap="round"/>
<path d="M450.222 1069.5C448.512 1069.91 444.971 1066.56 445.477 1061.05" stroke="#F8F9FA" stroke-width="2" stroke-linecap="round"/>
<path d="M696.927 1205.45C695.218 1205.86 691.676 1202.51 692.183 1197" stroke="#F8F9FA" stroke-width="2" stroke-linecap="round"/>
<path d="M752.221 1169.91C753.956 1169.62 757.24 1173.22 756.328 1178.68" stroke="#F8F9FA" stroke-width="2" stroke-linecap="round"/>
<path d="M800.57 1151.37C802.305 1151.09 805.59 1154.68 804.678 1160.15" stroke="#F8F9FA" stroke-width="2" stroke-linecap="round"/>
<path d="M845.5 1084.74H1110.5C1114.92 1084.74 1118.5 1088.32 1118.5 1092.74V1948.5" stroke="#00A6FB" stroke-width="6"/>
<path d="M606.752 977.768C603.296 977.768 600.075 977.213 597.088 976.104C594.144 974.952 591.584 973.331 589.408 971.24C587.232 969.149 585.525 966.696 584.288 963.88C583.093 961.064 582.496 957.971 582.496 954.6C582.496 951.229 583.093 948.136 584.288 945.32C585.525 942.504 587.232 940.051 589.408 937.96C591.627 935.869 594.208 934.269 597.152 933.16C600.096 932.008 603.317 931.432 606.816 931.432C610.699 931.432 614.197 932.115 617.312 933.48C620.469 934.803 623.115 936.765 625.248 939.368L618.592 945.512C617.056 943.763 615.349 942.461 613.472 941.608C611.595 940.712 609.547 940.264 607.328 940.264C605.237 940.264 603.317 940.605 601.568 941.288C599.819 941.971 598.304 942.952 597.024 944.232C595.744 945.512 594.741 947.027 594.016 948.776C593.333 950.525 592.992 952.467 592.992 954.6C592.992 956.733 593.333 958.675 594.016 960.424C594.741 962.173 595.744 963.688 597.024 964.968C598.304 966.248 599.819 967.229 601.568 967.912C603.317 968.595 605.237 968.936 607.328 968.936C609.547 968.936 611.595 968.509 613.472 967.656C615.349 966.76 617.056 965.416 618.592 963.624L625.248 969.768C623.115 972.371 620.469 974.355 617.312 975.72C614.197 977.085 610.677 977.768 606.752 977.768ZM632.25 977V932.2H651.642C655.652 932.2 659.108 932.861 662.01 934.184C664.911 935.464 667.151 937.32 668.73 939.752C670.308 942.184 671.098 945.085 671.098 948.456C671.098 951.784 670.308 954.664 668.73 957.096C667.151 959.528 664.911 961.405 662.01 962.728C659.108 964.008 655.652 964.648 651.642 964.648H638.01L642.618 959.976V977H632.25ZM642.618 961.128L638.01 956.2H651.066C654.266 956.2 656.655 955.517 658.234 954.152C659.812 952.787 660.602 950.888 660.602 948.456C660.602 945.981 659.812 944.061 658.234 942.696C656.655 941.331 654.266 940.648 651.066 940.648H638.01L642.618 935.72V961.128ZM698.154 977.768C691.796 977.768 686.826 975.997 683.242 972.456C679.658 968.915 677.866 963.859 677.866 957.288V932.2H688.234V956.904C688.234 961.171 689.108 964.243 690.858 966.12C692.607 967.997 695.06 968.936 698.218 968.936C701.375 968.936 703.828 967.997 705.578 966.12C707.327 964.243 708.201 961.171 708.201 956.904V932.2H718.442V957.288C718.442 963.859 716.65 968.915 713.066 972.456C709.482 975.997 704.511 977.768 698.154 977.768Z" fill="#FFF502"/>
<path d="M693 771.5V0.5" stroke="#00A6FB" stroke-width="6"/>
<path d="M850 1032H1194.5" stroke="#00A6FB" stroke-width="6"/>
<path d="M796.5 838V680.5C796.5 676.082 800.082 672.5 804.5 672.5H1191" stroke="#00A6FB" stroke-width="6"/>
<path d="M487 818.5H421C416.582 818.5 413 814.918 413 810.5V142" stroke="#00A6FB" stroke-width="6"/>
<path d="M829 1099V1135.51C829 1139.93 832.582 1143.51 837 1143.51H954C958.418 1143.51 962 1147.1 962 1151.51V1964.5" stroke="#00A6FB" stroke-width="6"/>
</svg>
