<svg width="550" height="550" viewBox="0 0 1193 1080" fill="none" xmlns="http://www.w3.org/2000/svg">
<path fill-rule="evenodd" clip-rule="evenodd" d="M638.453 290.52C636.391 290.92 636.384 295.701 638.399 324.873C638.963 333.046 638.983 340.213 638.442 340.799C637.901 341.384 630.29 344.061 621.527 346.747C612.764 349.434 605.209 352.02 604.738 352.494C604.265 352.968 605.589 358.93 607.679 365.742C612.135 380.274 612.46 382.868 609.89 383.391C608.403 383.695 606.384 378.365 600.758 359.281C596.783 345.805 592.101 329.386 590.35 322.793C587.909 313.601 586.613 310.66 584.791 310.184C581.934 309.439 580.991 305.289 593.737 349.556C599.217 368.582 603.552 384.295 603.372 384.474C603.193 384.653 594.407 386.687 583.848 388.993C569.714 392.08 564.417 392.803 563.768 391.736C563.283 390.937 558.872 376.402 553.966 359.436C549.06 342.47 544.49 328.226 543.81 327.784C541.403 326.218 505.636 317.963 504.443 318.699C501.756 320.357 503.468 322.781 507.885 323.572C510.445 324.03 518.794 326.105 526.441 328.183L540.342 331.962L545.276 346.994C551.772 366.788 559.454 393.633 558.806 394.28C558.524 394.562 556.993 394.943 555.404 395.128C552.684 395.445 552.167 394.269 546.567 375.03C537.213 342.893 534.975 336.339 532.997 335.304C528.123 332.754 501.597 326.629 500.437 327.787C499.216 329.005 500.464 329.461 514.709 332.991C517.61 333.709 522.623 335.144 525.851 336.178C531.683 338.047 531.735 338.113 534.342 346.849C537.92 358.845 546.659 393.382 546.659 395.532C546.659 396.49 545.403 397.555 543.867 397.897C490.674 409.746 459.184 419.106 452.606 425.027C448.806 428.448 445.57 436.015 443.025 447.432C440.328 459.538 440.381 459.783 459.393 521.788C463.153 534.049 466.745 545.717 467.377 547.718C468.007 549.718 468.097 551.771 467.576 552.28C466.682 553.154 432.095 563.56 422.427 565.864C418.572 566.781 416.283 566.231 406.385 562.009C393.535 556.527 392.804 556.355 392.804 558.806C392.804 559.805 397.943 562.717 405.08 565.758L417.356 570.99L433.308 565.977C442.081 563.221 454.228 559.544 460.302 557.806C466.375 556.069 471.629 554.364 471.975 554.019C472.923 553.074 475.935 555.916 475.935 557.757C475.935 558.641 474.12 559.746 471.903 560.211C469.686 560.677 456.8 564.344 443.271 568.359C429.742 572.375 417.69 575.661 416.49 575.661C415.289 575.661 408.949 573.485 402.4 570.825C391.337 566.333 390.36 566.136 388.611 568.064C386.878 569.976 388.01 570.616 402.999 576.191L419.268 582.243L433.643 577.643C445.293 573.914 459.187 569.106 470.581 564.859C471.459 564.532 472.644 566.478 473.517 569.677C474.322 572.628 477.084 581.516 479.654 589.429L484.328 603.817L477.34 605.311C463.999 608.162 436.849 614.528 436.314 614.929C436.017 615.152 436.391 615.947 437.143 616.697C438.139 617.692 445.478 616.316 464.158 611.633C478.264 608.098 490.594 605.505 491.557 605.874C495.833 607.513 493.006 610.155 484.552 612.42L475.799 614.765L467.123 635.138C460.355 651.035 458.705 656.059 459.617 658.004C460.782 660.492 460.786 660.492 461.726 658.019C463.639 652.989 473.232 630.591 475.865 625.004C477.646 621.223 479.584 618.984 481.487 618.507C483.083 618.107 485.204 617.468 486.198 617.088C487.591 616.554 488.788 619.317 491.428 629.156C499.555 659.457 501.38 665.665 510.104 692.719C523.454 734.116 532.741 751.37 546.039 759.478C551.757 762.966 553.068 763.25 562.789 763.102C577.31 762.883 617.499 754.374 659.293 742.669C671.767 739.175 682.133 736.535 682.329 736.798C682.761 737.379 692.714 776.725 694.738 785.85C695.787 790.576 696.598 792.047 697.759 791.327C698.994 790.561 697.952 785.149 693.053 766.908C689.591 754.018 685.945 740.724 684.951 737.364C682.806 730.118 682.627 724.741 684.492 723.59C685.234 723.133 686.465 723.381 687.227 724.141C688.595 725.507 695.684 751.571 700.566 773.196C701.951 779.326 703.38 785.316 703.744 786.509C704.716 789.704 706.87 789.148 706.143 785.89C704.473 778.411 693.966 735.971 693.456 734.644C692.654 732.554 727.879 721.455 729.662 723.235C730.193 723.764 737.206 750.578 740.705 765.455C741.567 769.119 744.007 770.301 743.26 766.694C737.286 737.851 735.509 730.506 731.361 717.548C728.999 710.168 729.558 707.155 733.039 708.488C734.656 709.108 735.904 712.513 741.357 731.182L743.917 739.945L750.444 741.492C777.022 747.794 788.132 749.979 789.044 749.086C789.625 748.518 789.066 747.76 787.803 747.401C786.039 746.901 753.014 737.974 745.709 736.023C744.423 735.68 739.433 719.601 740.376 718.842C740.63 718.636 746.422 717.044 753.246 715.301C773.282 710.186 789.5 705.828 804.738 701.463C812.586 699.214 823.689 696.083 829.411 694.506L839.815 691.637L844.999 683.498C847.85 679.021 851.823 671.735 853.827 667.307C857.115 660.045 857.461 658.046 857.364 646.873C857.261 634.868 856.943 633.517 847.03 602.907C841.404 585.538 835.673 568.261 834.295 564.515C830.778 554.961 826.151 540.806 825.64 538.037C825.316 536.28 826.431 535.275 830.174 533.942C839.14 530.749 860.181 524.884 862.573 524.91C863.861 524.924 871.879 528.256 880.389 532.316C893.788 538.707 896.013 539.431 896.974 537.716C898.379 535.21 898.457 535.256 878.261 526.635L861.795 519.606L842.995 525.405C824.556 531.092 822.222 531.287 822.128 527.136C822.1 525.924 869.104 511.715 910.514 500.418C911.707 500.093 912.685 499.385 912.685 498.847C912.685 497.415 875.433 507.319 845.063 516.825C835.509 519.816 826.277 522.604 824.547 523.021C821.502 523.756 821.268 523.357 817.255 510.618C814.915 503.191 813.582 497.014 814.197 496.44C815.535 495.189 846.256 485.24 860.398 481.476C872.216 478.332 871.16 479.693 878.61 458.007C882.265 447.365 882.42 445.407 879.606 445.45C879.121 445.458 876.441 452.046 873.648 460.093L868.572 474.723L861.78 476.463C858.045 477.42 845.243 481.17 833.331 484.795C811.16 491.542 809.77 491.63 809.72 486.297C809.703 484.318 822.855 479.584 853.976 470.365L862.889 467.724L866.67 457.294C871.545 443.844 872.501 440.052 870.745 441.137C869.998 441.598 867.895 446.835 866.072 452.777C864.248 458.719 862.125 464.239 861.354 465.044C860.583 465.849 849.344 469.569 836.378 473.311C823.412 477.052 811.826 480.494 810.632 480.958C809.438 481.423 808.461 481.561 808.461 481.267C808.461 480.972 805.68 469.905 802.282 456.675C795.621 430.747 795.853 431.671 789.06 404.14C781.711 374.364 772.745 360.034 758.914 355.96C747.955 352.733 744.655 353.135 705.477 362.469C696.947 364.501 684.384 367.323 677.56 368.74C670.736 370.157 659.01 372.766 651.504 374.54C643.997 376.313 633.2 378.728 627.51 379.906L617.164 382.049L615.935 378.848C613.725 373.097 609.521 356.457 610.125 355.853C610.45 355.529 616.991 353.362 624.661 351.039C632.33 348.714 639.693 345.83 641.022 344.63C643.908 342.023 644.045 335.605 641.803 308.134C640.587 293.222 640.015 290.217 638.453 290.52ZM630.407 313.025L631.31 335.235L620.934 338.34C604.544 343.245 606.289 344.128 601.692 328.588C599.476 321.095 597.633 313.972 597.596 312.759C597.533 310.617 594.333 308.456 593.079 309.706C592.456 310.329 600.846 345.315 601.861 346.328C602.369 346.834 632.359 338.202 633.278 337.284C634.323 336.242 631.814 290.815 630.712 290.815C629.94 290.815 629.831 298.839 630.407 313.025ZM751.361 375.962C753.735 377.152 756.817 379.831 758.21 381.912C762.221 387.911 775.941 430.861 788.649 477.203C795.347 501.625 802.078 524.695 809.131 547.402C811.391 554.678 815.255 569.446 817.718 580.221C820.181 590.996 823.885 606.931 825.948 615.632C828.013 624.335 829.382 632.457 828.993 633.682C828.026 636.721 822.512 641.644 816.526 644.81C812.489 646.946 780.407 656.998 764.413 661.137C762.366 661.667 755.945 663.526 750.145 665.267C744.344 667.009 729.827 671.273 717.885 674.743C689.065 683.117 652.306 693.969 621.105 703.313C582.549 714.86 578.111 715.845 571.168 714.391C564.117 712.915 558.027 709.146 554.287 703.945C552.777 701.844 546.204 683.686 539.678 663.592C533.154 643.498 521.676 608.109 514.173 584.949C506.67 561.79 494.187 523.336 486.433 499.496C478.68 475.655 471.792 453.706 471.129 450.719C469.052 441.386 473.021 435.181 483.82 430.874C492.593 427.375 529.826 417.971 547.9 414.689C550.971 414.132 565.208 411.055 579.539 407.852C593.87 404.649 609.145 401.244 613.483 400.286C617.821 399.328 621.771 398.296 622.26 397.994C623.991 396.926 676.572 384.778 694.93 381.205C737.084 372.999 744.147 372.343 751.361 375.962ZM717.264 385.529C706.327 387.275 680.77 392.685 635.374 402.865C608.873 408.807 580.193 414.666 569.613 416.298C557.414 418.182 507.355 429.8 493.719 433.914C482.861 437.189 477.176 441.816 477.176 447.377C477.176 452.084 481.627 467.889 487.694 484.732C497.59 512.203 522.629 585.182 529.938 607.861C533.78 619.781 539.747 637.058 543.196 646.253C546.647 655.449 549.921 664.366 550.474 666.069C553.992 676.916 559.069 690.038 560.721 692.554C563.479 696.755 572.718 700.858 579.781 701.018C583.082 701.094 589.96 700.165 595.067 698.956C607.095 696.109 687.103 673.496 688.727 672.485C689.409 672.06 690.894 671.569 692.026 671.393C695.989 670.776 721.915 663.515 723.922 662.46C725.038 661.873 737.675 657.943 752.006 653.724C793.793 641.423 808.809 636.552 813.144 633.887C819.229 630.148 819.961 626.857 817.063 616.265C811.476 595.843 809.378 588.008 806.021 575.042C804.082 567.549 798.841 548.601 794.375 532.934C789.91 517.268 784.818 498.598 783.06 491.446C781.301 484.294 778.212 473.147 776.193 466.676C774.174 460.205 769.118 443.765 764.957 430.142C752.753 390.195 752.549 389.678 747.79 386.507C742.855 383.22 733.587 382.924 717.264 385.529ZM742.454 389.146C748.275 392.149 749.81 395.031 755.052 412.803C757.866 422.339 760.746 432.092 761.453 434.476C762.16 436.86 763.395 441.377 764.196 444.513C764.998 447.647 766.348 451.043 767.194 452.058C768.041 453.071 768.416 454.219 768.028 454.606C767.638 454.995 768.221 458.287 769.324 461.923C770.427 465.559 775.455 483.024 780.499 500.734C785.541 518.444 793.852 547.424 798.965 565.134C812.955 613.58 813.876 617.568 812.298 622.825C811.265 626.271 809.636 627.986 805.06 630.452C799.526 633.433 778.937 640.007 753.246 646.993C747.105 648.663 737.892 651.355 732.774 652.973C727.656 654.592 709.789 659.844 693.069 664.643C652.077 676.41 625.938 683.973 608.077 689.234C584.203 696.267 579.847 697.278 576.372 696.583C571.138 695.539 564.093 690.837 562.155 687.095C561.173 685.2 554.259 665.623 546.791 643.588C533.347 603.929 506.91 526.619 493.706 488.349C480.578 450.305 480.246 448.575 484.937 442.832C487.426 439.784 490.166 438.885 510.677 434.379C523.302 431.606 534.748 429.11 536.112 428.833C537.477 428.557 541.107 427.754 544.177 427.049C547.248 426.343 568.186 421.855 590.706 417.075C634.47 407.783 662.685 401.707 702.375 393.029C728.991 387.208 737.166 386.417 742.454 389.146ZM474.065 533.553C477.695 544.792 484.313 565.413 488.774 579.376C493.233 593.34 501.701 619.812 507.59 638.203C513.48 656.594 520.244 677.772 522.623 685.265C537.029 730.638 538.016 733.008 545.747 740.817C552.378 747.515 552.865 748.39 552.133 752.287C551.698 754.606 550.897 756.777 550.355 757.112C549.813 757.446 546.666 755.58 543.361 752.963C531.488 743.562 523.679 724.84 500.918 651.207C489.977 615.813 490.146 616.618 493.222 614.468C497.934 611.174 496.182 604.699 490.143 603.087C487.028 602.256 486.291 601.116 484.364 594.161C483.149 589.776 480.707 581.545 478.936 575.872C476.188 567.067 475.935 565.028 477.207 561.962C479.148 557.287 477.847 552.383 474.232 550.738C471.823 549.642 470.54 546.483 466.331 531.275C463.567 521.289 458.407 502.809 454.865 490.207C451.321 477.606 448.2 463.952 447.929 459.865C447.419 452.195 451.605 463.998 474.065 533.553ZM893.617 510.642C883.471 513.64 874.854 516.409 874.468 516.794C873.387 517.873 875.146 519.051 888.105 525.934C894.717 529.447 900.451 531.797 900.847 531.158C901.244 530.518 896.69 527.341 890.73 524.098L879.89 518.2L898.151 513.188C908.193 510.43 916.224 507.615 915.995 506.931C915.235 504.649 912.184 505.154 893.617 510.642ZM452.671 619.838C442.359 622.326 439.953 623.329 439.953 625.147C439.953 627.252 440.572 627.208 450.126 624.437C455.721 622.813 460.993 621.484 461.843 621.484C462.874 621.484 462.147 624.469 459.656 630.463C456.31 638.518 451.12 652.422 451.12 653.331C451.12 653.526 451.611 653.684 452.213 653.684C453.249 653.684 467.25 620.185 467.25 617.706C467.25 616.253 467.977 616.146 452.671 619.838ZM841.217 675.048C839.244 678.477 831.415 689.038 830.215 689.891C827.166 692.054 827.384 690.417 830.951 684.336C833.049 680.761 835.633 676.858 836.694 675.667C838.914 673.174 842.584 672.671 841.217 675.048ZM830.066 679.382C828.827 681.255 826.629 685.007 825.182 687.719C822.58 692.598 822.401 692.689 808.372 696.176C794.731 699.565 766.791 707.205 750.324 712.049C739.624 715.196 737.954 715.061 736.949 710.963C735.955 706.908 734.544 705.792 731.436 706.605C727.641 707.594 726.515 709.859 727.725 714.069L728.828 717.911L719.944 720.513C715.058 721.944 706.687 724.44 701.34 726.06L691.62 729.004L690.338 725.334C689.238 722.181 688.511 721.718 685.169 722.041C681.579 722.39 681.254 722.806 680.91 727.499L680.536 732.579L673.465 734.138C669.575 734.995 659.972 737.657 652.124 740.053C634.267 745.504 618.613 749.433 598.981 753.391C580.459 757.127 578.545 757.216 579.357 754.309C581.872 745.309 576.111 747.717 633.513 731.682C655.691 725.488 686.4 716.865 701.755 712.523C717.109 708.18 743.631 700.71 760.691 695.922C777.752 691.134 800.365 684.734 810.942 681.699C821.52 678.664 830.657 676.135 831.247 676.079C831.838 676.022 831.306 677.51 830.066 679.382ZM744.359 746.737C744.788 748.347 746.062 753.427 747.189 758.024C748.317 762.622 749.723 766.384 750.312 766.384C751.784 766.384 751.704 765.775 748.25 750.594C747.422 746.96 748.015 746.987 768.465 751.551C777.692 753.611 785.521 755.017 785.862 754.677C786.202 754.336 785.704 753.83 784.753 753.551C778.209 751.632 771.339 749.996 760.612 747.801C753.831 746.414 747.225 744.949 745.931 744.545C743.953 743.927 743.703 744.276 744.359 746.737ZM567.628 751.42C567.313 756.431 565.663 759.571 563.353 759.559C561.481 759.549 561.027 758.842 561.365 756.463C561.997 752.003 563.617 749.458 565.824 749.458C566.885 749.458 567.696 750.341 567.628 751.42Z" fill="#00A6FB"/>
<ellipse cx="634" cy="286" rx="12" ry="12.5" fill="#FFF502"/>
<ellipse cx="589.5" cy="302.5" rx="12.5" ry="12" fill="#FFF502"/>
<circle cx="498.5" cy="321" r="12.5" fill="#FFF502"/>
<circle cx="393.5" cy="560" r="12.5" fill="#FFF502"/>
<ellipse cx="441.5" cy="618.5" rx="12.5" ry="12" fill="#FFF502"/>
<circle cx="454.5" cy="657" r="12.5" fill="#FFF502"/>
<circle cx="700.5" cy="792" r="12.5" fill="#FFF502"/>
<ellipse cx="748" cy="772" rx="12" ry="12.5" fill="#FFF502"/>
<circle cx="795" cy="752.5" r="12" fill="#FFF502"/>
<ellipse cx="899.5" cy="535.5" rx="12.5" ry="12" fill="#FFF502"/>
<circle cx="911.5" cy="501" r="12.5" fill="#FFF502"/>
<circle cx="874.5" cy="440" r="12.5" fill="#FFF502"/>
<path d="M582.217 301.5C581.137 298.377 584.256 294.629 588 295.681" stroke="#F8F9FA" stroke-width="2" stroke-linecap="round"/>
<path d="M386.217 560.5C385.137 557.377 388.256 553.629 392 554.681" stroke="#F8F9FA" stroke-width="2" stroke-linecap="round"/>
<path d="M637.624 278.236C639.268 277.617 643.203 280.501 643.395 286.054" stroke="#F8F9FA" stroke-width="2" stroke-linecap="round"/>
<path d="M877.174 432.684C878.819 432.064 882.753 434.949 882.945 440.501" stroke="#F8F9FA" stroke-width="2" stroke-linecap="round"/>
<path d="M918.53 495.891C920.242 496.288 921.915 500.871 918.994 505.597" stroke="#F8F9FA" stroke-width="2" stroke-linecap="round"/>
<path d="M901.97 528.12C903.63 527.654 907.64 529.927 907.884 534.239" stroke="#F8F9FA" stroke-width="2" stroke-linecap="round"/>
<path d="M502.777 312.431C504.421 311.811 508.356 314.696 508.548 320.248" stroke="#F8F9FA" stroke-width="2" stroke-linecap="round"/>
<path d="M448.245 623.126C448.451 624.872 444.703 627.995 439.268 626.842" stroke="#F8F9FA" stroke-width="2" stroke-linecap="round"/>
<path d="M450.222 664.213C448.513 664.621 444.971 661.266 445.478 655.733" stroke="#F8F9FA" stroke-width="2" stroke-linecap="round"/>
<path d="M696.927 800.582C695.218 800.991 691.677 797.636 692.183 792.103" stroke="#F8F9FA" stroke-width="2" stroke-linecap="round"/>
<path d="M752.221 764.928C753.955 764.647 757.24 768.253 756.328 773.734" stroke="#F8F9FA" stroke-width="2" stroke-linecap="round"/>
<path d="M800.57 746.333C802.305 746.051 805.59 749.658 804.678 755.138" stroke="#F8F9FA" stroke-width="2" stroke-linecap="round"/>
<path d="M606.752 571.268C603.296 571.268 600.075 570.713 597.088 569.604C594.144 568.452 591.584 566.831 589.408 564.74C587.232 562.649 585.525 560.196 584.288 557.38C583.093 554.564 582.496 551.471 582.496 548.1C582.496 544.729 583.093 541.636 584.288 538.82C585.525 536.004 587.232 533.551 589.408 531.46C591.627 529.369 594.208 527.769 597.152 526.66C600.096 525.508 603.317 524.932 606.816 524.932C610.699 524.932 614.197 525.615 617.312 526.98C620.469 528.303 623.115 530.265 625.248 532.868L618.592 539.012C617.056 537.263 615.349 535.961 613.472 535.108C611.595 534.212 609.547 533.764 607.328 533.764C605.237 533.764 603.317 534.105 601.568 534.788C599.819 535.471 598.304 536.452 597.024 537.732C595.744 539.012 594.741 540.527 594.016 542.276C593.333 544.025 592.992 545.967 592.992 548.1C592.992 550.233 593.333 552.175 594.016 553.924C594.741 555.673 595.744 557.188 597.024 558.468C598.304 559.748 599.819 560.729 601.568 561.412C603.317 562.095 605.237 562.436 607.328 562.436C609.547 562.436 611.595 562.009 613.472 561.156C615.349 560.26 617.056 558.916 618.592 557.124L625.248 563.268C623.115 565.871 620.469 567.855 617.312 569.22C614.197 570.585 610.677 571.268 606.752 571.268ZM632.25 570.5V525.7H651.642C655.652 525.7 659.108 526.361 662.01 527.684C664.911 528.964 667.151 530.82 668.73 533.252C670.308 535.684 671.098 538.585 671.098 541.956C671.098 545.284 670.308 548.164 668.73 550.596C667.151 553.028 664.911 554.905 662.01 556.228C659.108 557.508 655.652 558.148 651.642 558.148H638.01L642.618 553.476V570.5H632.25ZM642.618 554.628L638.01 549.7H651.066C654.266 549.7 656.655 549.017 658.234 547.652C659.812 546.287 660.602 544.388 660.602 541.956C660.602 539.481 659.812 537.561 658.234 536.196C656.655 534.831 654.266 534.148 651.066 534.148H638.01L642.618 529.22V554.628ZM698.154 571.268C691.796 571.268 686.826 569.497 683.242 565.956C679.658 562.415 677.866 557.359 677.866 550.788V525.7H688.234V550.404C688.234 554.671 689.108 557.743 690.858 559.62C692.607 561.497 695.06 562.436 698.218 562.436C701.375 562.436 703.828 561.497 705.578 559.62C707.327 557.743 708.201 554.671 708.201 550.404V525.7H718.442V550.788C718.442 557.359 716.65 562.415 713.066 565.956C709.482 569.497 704.511 571.268 698.154 571.268Z" fill="#FFF502"/>
</svg>
