<svg width="1198" height="1087" viewBox="0 0 1198 1087" fill="none" xmlns="http://www.w3.org/2000/svg">
<path d="M550 756V1076" stroke="#00A6FB" stroke-width="6" stroke-linecap="round"/>
<path d="M515 705.5H465.5C461.082 705.5 457.5 709.082 457.5 713.5V981.5" stroke="#00A6FB" stroke-width="6"/>
<path d="M623 754V1085.5" stroke="#00A6FB" stroke-width="6"/>
<path d="M386.5 563.5H290C285.582 563.5 282 567.082 282 571.5V929.5" stroke="#00A6FB" stroke-width="6"/>
<path d="M448 443H328.5C324.082 443 320.5 439.418 320.5 435V96" stroke="#00A6FB" stroke-width="6" stroke-linecap="round"/>
<path d="M753.5 359.5V183C753.5 178.582 757.082 175 761.5 175H1016" stroke="#00A6FB" stroke-width="6" stroke-linecap="round"/>
<path d="M451 503H292.5C288.082 503 284.5 499.418 284.5 495V186" stroke="#00A6FB" stroke-width="6" stroke-linecap="round"/>
<path d="M592 295V5" stroke="#00A6FB" stroke-width="6" stroke-linecap="round"/>
<path d="M634.5 279.5V5" stroke="#00A6FB" stroke-width="6" stroke-linecap="round"/>
<path d="M873.5 433.5V336.5C873.5 332.082 877.082 328.5 881.5 328.5H1192.5" stroke="#00A6FB" stroke-width="6" stroke-linecap="round"/>
<path d="M922.5 505H1186" stroke="#00A6FB" stroke-width="6" stroke-linecap="round"/>
<path d="M913.5 538.5H1194.5" stroke="#00A6FB" stroke-width="6" stroke-linecap="round"/>
<path d="M702.5 805.5L701 1082" stroke="#00A6FB" stroke-width="6" stroke-linecap="round"/>
<path d="M749 782.5V1079.5" stroke="#00A6FB" stroke-width="6" stroke-linecap="round"/>
<path d="M798 762V1084" stroke="#00A6FB" stroke-width="6" stroke-linecap="round"/>
<path d="M451.5 660.5H395C390.582 660.5 387 664.082 387 668.5V978" stroke="#00A6FB" stroke-width="6" stroke-linecap="round"/>
<path d="M489.5 318V3.5" stroke="#00A6FB" stroke-width="6" stroke-linecap="round"/>
<path fill-rule="evenodd" clip-rule="evenodd" d="M638.453 293.02C636.391 293.42 636.384 298.201 638.399 327.373C638.963 335.546 638.983 342.713 638.442 343.299C637.901 343.884 630.29 346.561 621.527 349.247C612.764 351.934 605.209 354.52 604.738 354.994C604.265 355.468 605.589 361.43 607.679 368.242C612.135 382.774 612.461 385.368 609.89 385.891C608.403 386.195 606.384 380.865 600.758 361.781C596.783 348.305 592.101 331.886 590.35 325.293C587.909 316.101 586.613 313.16 584.791 312.684C581.934 311.939 580.991 307.789 593.737 352.056C599.217 371.082 603.552 386.795 603.372 386.974C603.193 387.153 594.407 389.187 583.848 391.493C569.714 394.58 564.417 395.303 563.768 394.236C563.283 393.437 558.872 378.902 553.966 361.936C549.06 344.97 544.49 330.726 543.81 330.284C541.403 328.718 505.636 320.463 504.443 321.199C501.756 322.857 503.468 325.281 507.885 326.072C510.445 326.53 518.794 328.605 526.441 330.683L540.342 334.462L545.276 349.494C551.772 369.288 559.454 396.133 558.806 396.78C558.524 397.062 556.993 397.443 555.404 397.628C552.684 397.945 552.167 396.769 546.567 377.53C537.213 345.393 534.975 338.839 532.997 337.804C528.123 335.254 501.597 329.129 500.437 330.287C499.216 331.505 500.464 331.961 514.709 335.491C517.61 336.209 522.623 337.644 525.851 338.678C531.683 340.547 531.735 340.613 534.342 349.349C537.92 361.345 546.659 395.882 546.659 398.032C546.659 398.99 545.403 400.055 543.867 400.397C490.674 412.246 459.184 421.606 452.606 427.527C448.806 430.948 445.57 438.515 443.025 449.932C440.328 462.038 440.381 462.283 459.393 524.288C463.153 536.549 466.745 548.217 467.377 550.218C468.007 552.218 468.097 554.271 467.576 554.78C466.682 555.654 432.095 566.06 422.427 568.364C418.572 569.281 416.283 568.731 406.385 564.509C393.535 559.027 392.804 558.855 392.804 561.306C392.804 562.305 397.943 565.217 405.08 568.258L417.356 573.49L433.308 568.477C442.081 565.721 454.228 562.044 460.302 560.306C466.375 558.569 471.629 556.864 471.975 556.519C472.923 555.574 475.935 558.416 475.935 560.257C475.935 561.141 474.12 562.246 471.903 562.711C469.686 563.177 456.8 566.844 443.271 570.859C429.742 574.875 417.69 578.161 416.49 578.161C415.289 578.161 408.949 575.985 402.4 573.325C391.337 568.833 390.36 568.636 388.611 570.564C386.878 572.476 388.01 573.116 402.999 578.691L419.268 584.743L433.643 580.143C445.293 576.414 459.187 571.606 470.581 567.359C471.459 567.032 472.644 568.978 473.517 572.177C474.322 575.128 477.084 584.016 479.654 591.929L484.328 606.317L477.34 607.811C463.999 610.662 436.849 617.028 436.314 617.429C436.017 617.652 436.391 618.447 437.143 619.197C438.139 620.192 445.478 618.816 464.158 614.133C478.264 610.598 490.594 608.005 491.557 608.374C495.833 610.013 493.006 612.655 484.552 614.92L475.799 617.265L467.123 637.638C460.355 653.535 458.705 658.559 459.617 660.504C460.782 662.992 460.786 662.992 461.726 660.519C463.639 655.489 473.232 633.091 475.865 627.504C477.646 623.723 479.584 621.484 481.487 621.007C483.083 620.607 485.204 619.968 486.198 619.588C487.591 619.054 488.788 621.817 491.428 631.656C499.555 661.957 501.38 668.165 510.104 695.219C523.454 736.616 532.741 753.87 546.039 761.978C551.757 765.466 553.068 765.75 562.789 765.602C577.31 765.383 617.499 756.873 659.293 745.169C671.767 741.675 682.133 739.035 682.329 739.298C682.761 739.879 692.714 779.225 694.738 788.35C695.787 793.076 696.598 794.547 697.759 793.827C698.994 793.061 697.952 787.649 693.053 769.408C689.591 756.518 685.945 743.224 684.951 739.864C682.806 732.618 682.627 727.241 684.492 726.09C685.234 725.633 686.465 725.881 687.227 726.641C688.595 728.007 695.684 754.071 700.566 775.696C701.951 781.826 703.38 787.816 703.744 789.009C704.716 792.204 706.87 791.648 706.143 788.39C704.473 780.911 693.966 738.471 693.456 737.144C692.654 735.054 727.879 723.955 729.662 725.735C730.193 726.264 737.206 753.078 740.705 767.955C741.567 771.619 744.007 772.801 743.26 769.194C737.287 740.351 735.508 733.006 731.361 720.048C728.999 712.668 729.558 709.655 733.039 710.989C734.656 711.608 735.904 715.013 741.357 733.682L743.917 742.445L750.444 743.992C777.022 750.294 788.132 752.479 789.044 751.586C789.625 751.018 789.066 750.26 787.803 749.901C786.039 749.401 753.014 740.474 745.709 738.523C744.423 738.18 739.433 722.101 740.376 721.342C740.63 721.136 746.422 719.544 753.246 717.801C773.282 712.686 789.5 708.328 804.738 703.963C812.586 701.714 823.689 698.583 829.411 697.006L839.815 694.137L844.999 685.998C847.85 681.521 851.823 674.235 853.827 669.807C857.115 662.545 857.461 660.546 857.364 649.373C857.261 637.368 856.943 636.017 847.03 605.407C841.404 588.038 835.673 570.761 834.295 567.015C830.778 557.461 826.151 543.306 825.64 540.537C825.316 538.78 826.431 537.775 830.174 536.442C839.14 533.249 860.181 527.384 862.573 527.41C863.861 527.424 871.879 530.756 880.389 534.816C893.788 541.207 896.013 541.931 896.974 540.216C898.379 537.71 898.457 537.756 878.261 529.135L861.795 522.106L842.995 527.905C824.556 533.592 822.222 533.787 822.128 529.636C822.1 528.424 869.104 514.216 910.514 502.918C911.707 502.593 912.685 501.885 912.685 501.347C912.685 499.915 875.433 509.819 845.063 519.325C835.509 522.316 826.277 525.104 824.547 525.521C821.502 526.256 821.268 525.857 817.255 513.118C814.915 505.691 813.582 499.514 814.197 498.94C815.535 497.689 846.256 487.74 860.398 483.976C872.216 480.832 871.16 482.193 878.61 460.507C882.265 449.865 882.42 447.907 879.606 447.95C879.121 447.958 876.441 454.546 873.648 462.593L868.572 477.223L861.78 478.963C858.045 479.92 845.243 483.67 833.33 487.295C811.16 494.042 809.77 494.13 809.72 488.797C809.703 486.818 822.855 482.084 853.976 472.865L862.889 470.224L866.67 459.794C871.545 446.344 872.501 442.552 870.745 443.637C869.998 444.098 867.895 449.335 866.072 455.277C864.248 461.219 862.125 466.739 861.354 467.544C860.583 468.349 849.344 472.069 836.378 475.811C823.412 479.552 811.826 482.994 810.632 483.458C809.438 483.923 808.461 484.061 808.461 483.767C808.461 483.472 805.68 472.405 802.282 459.175C795.621 433.247 795.853 434.171 789.06 406.64C781.711 376.864 772.745 362.534 758.914 358.46C747.955 355.233 744.655 355.635 705.477 364.969C696.947 367.001 684.384 369.823 677.56 371.24C670.736 372.657 659.01 375.266 651.504 377.04C643.997 378.813 633.2 381.228 627.51 382.406L617.164 384.549L615.935 381.348C613.725 375.597 609.521 358.957 610.125 358.353C610.45 358.029 616.991 355.862 624.661 353.539C632.33 351.214 639.693 348.33 641.022 347.13C643.908 344.523 644.045 338.105 641.803 310.634C640.587 295.722 640.015 292.717 638.453 293.02ZM630.407 315.525L631.31 337.735L620.934 340.84C604.544 345.745 606.289 346.628 601.692 331.088C599.476 323.595 597.633 316.472 597.596 315.259C597.533 313.117 594.333 310.956 593.079 312.206C592.456 312.829 600.846 347.815 601.861 348.828C602.369 349.334 632.359 340.702 633.278 339.784C634.323 338.742 631.814 293.315 630.712 293.315C629.94 293.315 629.831 301.339 630.407 315.525ZM751.361 378.462C753.735 379.652 756.817 382.331 758.21 384.412C762.221 390.411 775.941 433.361 788.649 479.703C795.347 504.125 802.078 527.195 809.131 549.902C811.391 557.178 815.255 571.946 817.718 582.721C820.181 593.496 823.885 609.431 825.948 618.132C828.013 626.835 829.382 634.957 828.993 636.182C828.026 639.221 822.512 644.144 816.526 647.31C812.489 649.446 780.407 659.498 764.413 663.637C762.366 664.167 755.945 666.026 750.145 667.767C744.344 669.509 729.827 673.773 717.885 677.243C689.065 685.617 652.306 696.469 621.105 705.813C582.549 717.36 578.111 718.345 571.168 716.891C564.117 715.415 558.027 711.646 554.287 706.445C552.777 704.344 546.204 686.186 539.678 666.092C533.154 645.998 521.676 610.609 514.173 587.449C506.67 564.29 494.187 525.836 486.433 501.996C478.68 478.155 471.792 456.206 471.129 453.219C469.052 443.886 473.021 437.681 483.82 433.374C492.593 429.875 529.826 420.471 547.9 417.189C550.971 416.632 565.208 413.555 579.539 410.352C593.87 407.149 609.145 403.744 613.483 402.786C617.821 401.828 621.771 400.796 622.26 400.494C623.991 399.426 676.572 387.278 694.93 383.705C737.084 375.499 744.147 374.843 751.361 378.462ZM717.264 388.029C706.327 389.775 680.77 395.185 635.374 405.365C608.873 411.307 580.193 417.166 569.613 418.798C557.414 420.682 507.355 432.3 493.719 436.414C482.861 439.689 477.176 444.316 477.176 449.877C477.176 454.584 481.627 470.389 487.694 487.232C497.59 514.703 522.629 587.682 529.938 610.361C533.78 622.281 539.747 639.558 543.196 648.753C546.647 657.949 549.921 666.866 550.474 668.569C553.992 679.416 559.069 692.538 560.721 695.054C563.479 699.255 572.718 703.358 579.781 703.518C583.082 703.594 589.96 702.665 595.067 701.456C607.095 698.609 687.102 675.996 688.727 674.985C689.409 674.56 690.894 674.069 692.026 673.893C695.989 673.276 721.915 666.015 723.922 664.96C725.038 664.373 737.675 660.443 752.006 656.224C793.793 643.923 808.809 639.052 813.144 636.387C819.229 632.648 819.961 629.357 817.063 618.765C811.476 598.343 809.377 590.508 806.021 577.542C804.082 570.049 798.841 551.101 794.375 535.434C789.91 519.768 784.818 501.098 783.06 493.946C781.301 486.793 778.212 475.647 776.193 469.176C774.174 462.705 769.118 446.265 764.957 432.642C752.753 392.695 752.549 392.178 747.79 389.007C742.855 385.72 733.587 385.424 717.264 388.029ZM742.454 391.646C748.275 394.649 749.81 397.531 755.052 415.303C757.866 424.839 760.746 434.592 761.453 436.976C762.16 439.36 763.395 443.877 764.196 447.013C764.998 450.147 766.348 453.543 767.194 454.558C768.041 455.571 768.416 456.719 768.028 457.106C767.638 457.495 768.221 460.787 769.324 464.423C770.427 468.059 775.455 485.524 780.499 503.234C785.541 520.944 793.852 549.924 798.965 567.634C812.955 616.08 813.877 620.068 812.298 625.325C811.265 628.771 809.636 630.486 805.06 632.952C799.526 635.933 778.937 642.506 753.246 649.493C747.105 651.163 737.892 653.855 732.774 655.473C727.656 657.092 709.789 662.344 693.069 667.143C652.077 678.91 625.938 686.473 608.077 691.734C584.203 698.767 579.847 699.778 576.372 699.083C571.138 698.039 564.093 693.337 562.155 689.595C561.173 687.7 554.259 668.123 546.791 646.088C533.347 606.429 506.91 529.119 493.706 490.849C480.578 452.805 480.246 451.075 484.937 445.332C487.426 442.284 490.166 441.385 510.677 436.879C523.302 434.106 534.748 431.61 536.112 431.333C537.477 431.057 541.107 430.254 544.177 429.549C547.248 428.843 568.186 424.355 590.706 419.575C634.47 410.283 662.685 404.207 702.375 395.529C728.991 389.708 737.166 388.917 742.454 391.646ZM474.065 536.053C477.695 547.292 484.313 567.913 488.774 581.876C493.233 595.84 501.701 622.312 507.59 640.703C513.48 659.094 520.244 680.272 522.623 687.765C537.029 733.138 538.016 735.508 545.747 743.317C552.378 750.015 552.865 750.89 552.133 754.787C551.698 757.106 550.897 759.277 550.355 759.612C549.813 759.946 546.666 758.08 543.361 755.463C531.488 746.062 523.679 727.34 500.918 653.707C489.977 618.313 490.146 619.118 493.222 616.968C497.934 613.674 496.182 607.199 490.143 605.587C487.028 604.756 486.291 603.616 484.364 596.661C483.149 592.276 480.707 584.045 478.936 578.372C476.188 569.567 475.935 567.528 477.207 564.462C479.148 559.787 477.847 554.883 474.232 553.238C471.823 552.142 470.54 548.983 466.331 533.775C463.567 523.789 458.407 505.308 454.865 492.707C451.321 480.106 448.2 466.452 447.929 462.365C447.419 454.695 451.605 466.498 474.065 536.053ZM893.617 513.142C883.471 516.14 874.854 518.909 874.468 519.294C873.387 520.373 875.146 521.551 888.105 528.434C894.717 531.947 900.451 534.297 900.847 533.658C901.244 533.018 896.69 529.841 890.73 526.598L879.89 520.7L898.151 515.688C908.193 512.93 916.224 510.115 915.995 509.431C915.235 507.149 912.184 507.654 893.617 513.142ZM452.671 622.338C442.359 624.826 439.953 625.829 439.953 627.647C439.953 629.752 440.572 629.708 450.126 626.937C455.721 625.313 460.993 623.984 461.843 623.984C462.874 623.984 462.147 626.969 459.656 632.963C456.31 641.018 451.12 654.922 451.12 655.831C451.12 656.026 451.611 656.184 452.213 656.184C453.249 656.184 467.25 622.685 467.25 620.206C467.25 618.753 467.977 618.646 452.671 622.338ZM841.217 677.548C839.244 680.977 831.415 691.538 830.215 692.39C827.166 694.554 827.384 692.917 830.951 686.836C833.049 683.261 835.633 679.358 836.694 678.167C838.914 675.674 842.584 675.171 841.217 677.548ZM830.066 681.882C828.826 683.755 826.629 687.507 825.182 690.219C822.58 695.098 822.401 695.189 808.372 698.676C794.731 702.065 766.791 709.705 750.324 714.549C739.624 717.696 737.954 717.561 736.949 713.463C735.955 709.408 734.544 708.292 731.436 709.105C727.641 710.094 726.515 712.359 727.725 716.569L728.828 720.411L719.944 723.013C715.058 724.444 706.687 726.94 701.34 728.56L691.62 731.504L690.338 727.834C689.238 724.681 688.511 724.218 685.169 724.541C681.579 724.89 681.254 725.306 680.91 729.999L680.536 735.079L673.465 736.638C669.575 737.495 659.972 740.157 652.124 742.553C634.267 748.004 618.613 751.933 598.981 755.891C580.459 759.627 578.545 759.716 579.357 756.809C581.872 747.809 576.111 750.217 633.513 734.182C655.691 727.988 686.4 719.365 701.755 715.023C717.109 710.68 743.631 703.21 760.691 698.422C777.752 693.634 800.365 687.234 810.942 684.199C821.52 681.164 830.657 678.635 831.247 678.579C831.838 678.522 831.306 680.01 830.066 681.882ZM744.359 749.237C744.788 750.847 746.062 755.927 747.189 760.524C748.317 765.122 749.723 768.884 750.312 768.884C751.784 768.884 751.704 768.275 748.25 753.094C747.422 749.46 748.015 749.487 768.465 754.051C777.692 756.111 785.521 757.517 785.862 757.177C786.202 756.836 785.704 756.33 784.753 756.051C778.209 754.132 771.339 752.496 760.612 750.301C753.831 748.914 747.225 747.449 745.931 747.045C743.953 746.427 743.703 746.776 744.359 749.237ZM567.628 753.92C567.313 758.931 565.663 762.071 563.353 762.059C561.481 762.049 561.027 761.342 561.365 758.963C561.997 754.503 563.617 751.958 565.824 751.958C566.885 751.958 567.696 752.841 567.628 753.92Z" fill="#00A6FB"/>
<path d="M429 623H345C340.582 623 337 626.582 337 631V951.5" stroke="#00A6FB" stroke-width="6"/>
<ellipse cx="634" cy="288.5" rx="12" ry="12.5" fill="#FFF502"/>
<ellipse cx="589.5" cy="305" rx="12.5" ry="12" fill="#FFF502"/>
<circle cx="498.5" cy="323.5" r="12.5" fill="#FFF502"/>
<circle cx="393.5" cy="562.5" r="12.5" fill="#FFF502"/>
<ellipse cx="441.5" cy="621" rx="12.5" ry="12" fill="#FFF502"/>
<circle cx="454.5" cy="659.5" r="12.5" fill="#FFF502"/>
<circle cx="700.5" cy="794.5" r="12.5" fill="#FFF502"/>
<ellipse cx="748" cy="774.5" rx="12" ry="12.5" fill="#FFF502"/>
<circle cx="795" cy="755" r="12" fill="#FFF502"/>
<ellipse cx="899.5" cy="538" rx="12.5" ry="12" fill="#FFF502"/>
<circle cx="911.5" cy="503.5" r="12.5" fill="#FFF502"/>
<circle cx="874.5" cy="442.5" r="12.5" fill="#FFF502"/>
<path d="M582.217 304C581.137 300.877 584.256 297.129 588 298.181" stroke="#F8F9FA" stroke-width="2" stroke-linecap="round"/>
<path d="M386.217 563C385.137 559.877 388.256 556.129 392 557.181" stroke="#F8F9FA" stroke-width="2" stroke-linecap="round"/>
<path d="M637.623 280.736C639.268 280.117 643.202 283.001 643.394 288.554" stroke="#F8F9FA" stroke-width="2" stroke-linecap="round"/>
<path d="M877.174 435.184C878.819 434.564 882.753 437.449 882.945 443.001" stroke="#F8F9FA" stroke-width="2" stroke-linecap="round"/>
<path d="M918.531 498.391C920.243 498.788 921.915 503.371 918.994 508.097" stroke="#F8F9FA" stroke-width="2" stroke-linecap="round"/>
<path d="M901.97 530.62C903.63 530.154 907.64 532.427 907.884 536.739" stroke="#F8F9FA" stroke-width="2" stroke-linecap="round"/>
<path d="M502.777 314.931C504.422 314.311 508.356 317.196 508.548 322.748" stroke="#F8F9FA" stroke-width="2" stroke-linecap="round"/>
<path d="M448.245 625.626C448.45 627.372 444.702 630.495 439.267 629.342" stroke="#F8F9FA" stroke-width="2" stroke-linecap="round"/>
<path d="M450.222 666.713C448.512 667.121 444.971 663.766 445.477 658.233" stroke="#F8F9FA" stroke-width="2" stroke-linecap="round"/>
<path d="M696.927 803.082C695.218 803.491 691.676 800.136 692.183 794.603" stroke="#F8F9FA" stroke-width="2" stroke-linecap="round"/>
<path d="M752.221 767.428C753.956 767.147 757.24 770.753 756.328 776.234" stroke="#F8F9FA" stroke-width="2" stroke-linecap="round"/>
<path d="M800.57 748.833C802.305 748.551 805.59 752.158 804.678 757.638" stroke="#F8F9FA" stroke-width="2" stroke-linecap="round"/>
<path d="M845.5 682H1110.5C1114.92 682 1118.5 685.582 1118.5 690V940.5" stroke="#00A6FB" stroke-width="6"/>
<path d="M606.752 573.768C603.296 573.768 600.075 573.213 597.088 572.104C594.144 570.952 591.584 569.331 589.408 567.24C587.232 565.149 585.525 562.696 584.288 559.88C583.093 557.064 582.496 553.971 582.496 550.6C582.496 547.229 583.093 544.136 584.288 541.32C585.525 538.504 587.232 536.051 589.408 533.96C591.627 531.869 594.208 530.269 597.152 529.16C600.096 528.008 603.317 527.432 606.816 527.432C610.699 527.432 614.197 528.115 617.312 529.48C620.469 530.803 623.115 532.765 625.248 535.368L618.592 541.512C617.056 539.763 615.349 538.461 613.472 537.608C611.595 536.712 609.547 536.264 607.328 536.264C605.237 536.264 603.317 536.605 601.568 537.288C599.819 537.971 598.304 538.952 597.024 540.232C595.744 541.512 594.741 543.027 594.016 544.776C593.333 546.525 592.992 548.467 592.992 550.6C592.992 552.733 593.333 554.675 594.016 556.424C594.741 558.173 595.744 559.688 597.024 560.968C598.304 562.248 599.819 563.229 601.568 563.912C603.317 564.595 605.237 564.936 607.328 564.936C609.547 564.936 611.595 564.509 613.472 563.656C615.349 562.76 617.056 561.416 618.592 559.624L625.248 565.768C623.115 568.371 620.469 570.355 617.312 571.72C614.197 573.085 610.677 573.768 606.752 573.768ZM632.25 573V528.2H651.642C655.652 528.2 659.108 528.861 662.01 530.184C664.911 531.464 667.151 533.32 668.73 535.752C670.308 538.184 671.098 541.085 671.098 544.456C671.098 547.784 670.308 550.664 668.73 553.096C667.151 555.528 664.911 557.405 662.01 558.728C659.108 560.008 655.652 560.648 651.642 560.648H638.01L642.618 555.976V573H632.25ZM642.618 557.128L638.01 552.2H651.066C654.266 552.2 656.655 551.517 658.234 550.152C659.812 548.787 660.602 546.888 660.602 544.456C660.602 541.981 659.812 540.061 658.234 538.696C656.655 537.331 654.266 536.648 651.066 536.648H638.01L642.618 531.72V557.128ZM698.154 573.768C691.796 573.768 686.826 571.997 683.242 568.456C679.658 564.915 677.866 559.859 677.866 553.288V528.2H688.234V552.904C688.234 557.171 689.108 560.243 690.858 562.12C692.607 563.997 695.06 564.936 698.218 564.936C701.375 564.936 703.828 563.997 705.578 562.12C707.327 560.243 708.201 557.171 708.201 552.904V528.2H718.442V553.288C718.442 559.859 716.65 564.915 713.066 568.456C709.482 571.997 704.511 573.768 698.154 573.768Z" fill="#FFF502"/>
<path d="M693 367.5V62.5" stroke="#00A6FB" stroke-width="6"/>
<path d="M850 628H1194.5" stroke="#00A6FB" stroke-width="6"/>
<path d="M796.5 434V276.5C796.5 272.082 800.082 268.5 804.5 268.5H1191" stroke="#00A6FB" stroke-width="6"/>
<path d="M487 414.5H421C416.582 414.5 413 410.918 413 406.5V7" stroke="#00A6FB" stroke-width="6"/>
<path d="M829 695V731.514C829 735.933 832.582 739.514 837 739.514H954C958.418 739.514 962 743.096 962 747.514V996.5" stroke="#00A6FB" stroke-width="6"/>
</svg>
