<svg width="919" height="2867" viewBox="0 0 919 2867" fill="none" xmlns="http://www.w3.org/2000/svg">
<path d="M271 1155.5L280.5 2544" stroke="#00A6FB" stroke-width="6" stroke-linecap="round"/>
<path d="M236 1104.5H186.5C182.082 1104.5 178.5 1108.08 178.5 1112.5V2866.5" stroke="#00A6FB" stroke-width="6"/>
<path d="M344 1153.5V2727" stroke="#00A6FB" stroke-width="6"/>
<path d="M108 961.5H11C6.58172 961.5 3 965.082 3 969.5V2581.5" stroke="#00A6FB" stroke-width="6"/>
<path d="M169 846.5H49.4712C45.0642 846.5 41.4872 842.936 41.4713 838.529L39 153" stroke="#00A6FB" stroke-width="6" stroke-linecap="round"/>
<path d="M474.5 763V586.5C474.5 582.082 478.082 578.5 482.5 578.5H915.5" stroke="#00A6FB" stroke-width="6" stroke-linecap="round"/>
<path d="M172 906.5H13.5C9.08172 906.5 5.5 902.918 5.5 898.5V154.5" stroke="#00A6FB" stroke-width="6" stroke-linecap="round"/>
<path d="M313 698.5V104" stroke="#00A6FB" stroke-width="6" stroke-linecap="round"/>
<path d="M355.5 683V99" stroke="#00A6FB" stroke-width="6" stroke-linecap="round"/>
<path d="M594.5 837V740C594.5 735.582 598.082 732 602.5 732H913.5" stroke="#00A6FB" stroke-width="6" stroke-linecap="round"/>
<path d="M643.5 908.5H907" stroke="#00A6FB" stroke-width="6" stroke-linecap="round"/>
<path d="M634.5 942H915.5" stroke="#00A6FB" stroke-width="6" stroke-linecap="round"/>
<path d="M423.5 1204.8L423.5 2698.5" stroke="#00A6FB" stroke-width="6" stroke-linecap="round"/>
<path d="M470 1181.5V2695" stroke="#00A6FB" stroke-width="6" stroke-linecap="round"/>
<path d="M519 1161.5V2688" stroke="#00A6FB" stroke-width="6" stroke-linecap="round"/>
<path d="M172 1059.5H116C111.582 1059.5 108 1063.08 108 1067.5V2651" stroke="#00A6FB" stroke-width="6" stroke-linecap="round"/>
<path d="M210.5 721.5V137" stroke="#00A6FB" stroke-width="6" stroke-linecap="round"/>
<path d="M150 1020.25H66C61.5817 1020.25 58 1023.84 58 1028.25V2618" stroke="#00A6FB" stroke-width="6"/>
<path d="M566.5 1079.38H831.5C835.918 1079.38 839.5 1082.96 839.5 1087.38V2546.5" stroke="#00A6FB" stroke-width="6"/>
<path d="M327.752 977.268C324.296 977.268 321.075 976.713 318.088 975.604C315.144 974.452 312.584 972.831 310.408 970.74C308.232 968.649 306.525 966.196 305.288 963.38C304.093 960.564 303.496 957.471 303.496 954.1C303.496 950.729 304.093 947.636 305.288 944.82C306.525 942.004 308.232 939.551 310.408 937.46C312.627 935.369 315.208 933.769 318.152 932.66C321.096 931.508 324.317 930.932 327.816 930.932C331.699 930.932 335.197 931.615 338.312 932.98C341.469 934.303 344.115 936.265 346.248 938.868L339.592 945.012C338.056 943.263 336.349 941.961 334.472 941.108C332.595 940.212 330.547 939.764 328.328 939.764C326.237 939.764 324.317 940.105 322.568 940.788C320.819 941.471 319.304 942.452 318.024 943.732C316.744 945.012 315.741 946.527 315.016 948.276C314.333 950.025 313.992 951.967 313.992 954.1C313.992 956.233 314.333 958.175 315.016 959.924C315.741 961.673 316.744 963.188 318.024 964.468C319.304 965.748 320.819 966.729 322.568 967.412C324.317 968.095 326.237 968.436 328.328 968.436C330.547 968.436 332.595 968.009 334.472 967.156C336.349 966.26 338.056 964.916 339.592 963.124L346.248 969.268C344.115 971.871 341.469 973.855 338.312 975.22C335.197 976.585 331.677 977.268 327.752 977.268ZM353.25 976.5V931.7H372.642C376.652 931.7 380.108 932.361 383.01 933.684C385.911 934.964 388.151 936.82 389.73 939.252C391.308 941.684 392.098 944.585 392.098 947.956C392.098 951.284 391.308 954.164 389.73 956.596C388.151 959.028 385.911 960.905 383.01 962.228C380.108 963.508 376.652 964.148 372.642 964.148H359.01L363.618 959.476V976.5H353.25ZM363.618 960.628L359.01 955.7H372.066C375.266 955.7 377.655 955.017 379.234 953.652C380.812 952.287 381.602 950.388 381.602 947.956C381.602 945.481 380.812 943.561 379.234 942.196C377.655 940.831 375.266 940.148 372.066 940.148H359.01L363.618 935.22V960.628ZM419.154 977.268C412.796 977.268 407.826 975.497 404.242 971.956C400.658 968.415 398.866 963.359 398.866 956.788V931.7H409.234V956.404C409.234 960.671 410.108 963.743 411.858 965.62C413.607 967.497 416.06 968.436 419.218 968.436C422.375 968.436 424.828 967.497 426.578 965.62C428.327 963.743 429.201 960.671 429.201 956.404V931.7H439.442V956.788C439.442 963.359 437.65 968.415 434.066 971.956C430.482 975.497 425.511 977.268 419.154 977.268Z" fill="#FFF502"/>
<path d="M414 771V0" stroke="#00A6FB" stroke-width="6"/>
<path d="M571 1031.5H915.5" stroke="#00A6FB" stroke-width="6"/>
<path d="M517.5 837.5V680C517.5 675.582 521.082 672 525.5 672H912" stroke="#00A6FB" stroke-width="6"/>
<path d="M208 818H142C137.582 818 134 814.418 134 810V141.5" stroke="#00A6FB" stroke-width="6"/>
<path d="M550 1093.5V1130.25C550 1134.66 553.582 1138.25 558 1138.25H675C679.418 1138.25 683 1141.83 683 1146.25V2492" stroke="#00A6FB" stroke-width="6"/>
<path fill-rule="evenodd" clip-rule="evenodd" d="M361.453 693.057C359.391 693.458 359.384 698.249 361.399 727.484C361.963 735.676 361.983 742.858 361.442 743.445C360.901 744.031 353.29 746.715 344.527 749.407C335.764 752.099 328.209 754.69 327.738 755.166C327.265 755.641 328.589 761.616 330.679 768.442C335.135 783.006 335.461 785.606 332.89 786.13C331.403 786.434 329.384 781.093 323.758 761.967C319.783 748.462 315.101 732.007 313.35 725.4C310.909 716.189 309.613 713.241 307.791 712.764C304.934 712.017 303.991 707.858 316.737 752.222C322.217 771.288 326.552 787.036 326.372 787.215C326.193 787.395 317.407 789.433 306.848 791.744C292.714 794.838 287.417 795.563 286.768 794.493C286.283 793.692 281.872 779.126 276.966 762.122C272.06 745.12 267.49 730.845 266.81 730.402C264.403 728.832 228.636 720.56 227.443 721.297C224.756 722.959 226.468 725.388 230.885 726.181C233.445 726.64 241.794 728.719 249.441 730.802L263.342 734.589L268.276 749.654C274.772 769.491 282.454 796.394 281.806 797.042C281.524 797.325 279.993 797.707 278.404 797.892C275.684 798.21 275.167 797.031 269.567 777.751C260.213 745.544 257.975 738.976 255.997 737.938C251.123 735.383 224.597 729.244 223.437 730.405C222.216 731.626 223.464 732.083 237.709 735.62C240.61 736.34 245.623 737.778 248.851 738.815C254.683 740.688 254.735 740.753 257.342 749.508C260.92 761.53 269.659 796.142 269.659 798.297C269.659 799.258 268.403 800.325 266.867 800.667C213.674 812.542 182.184 821.922 175.606 827.856C171.806 831.284 168.57 838.868 166.025 850.31C163.328 862.442 163.381 862.688 182.393 924.827C186.153 937.115 189.745 948.809 190.377 950.813C191.007 952.818 191.097 954.875 190.576 955.385C189.682 956.262 155.095 966.69 145.427 968.998C141.572 969.918 139.283 969.367 129.385 965.136C116.535 959.641 115.804 959.469 115.804 961.925C115.804 962.927 120.943 965.845 128.08 968.893L140.356 974.136L156.308 969.113C165.081 966.35 177.228 962.665 183.302 960.923C189.375 959.182 194.629 957.474 194.975 957.128C195.923 956.181 198.935 959.029 198.935 960.874C198.935 961.76 197.12 962.867 194.903 963.334C192.686 963.8 179.8 967.476 166.271 971.499C152.742 975.524 140.69 978.817 139.49 978.817C138.289 978.817 131.949 976.636 125.4 973.97C114.337 969.469 113.36 969.271 111.611 971.204C109.878 973.12 111.01 973.761 125.999 979.348L142.268 985.414L156.643 980.803C168.293 977.066 182.187 972.248 193.581 967.992C194.459 967.664 195.644 969.614 196.517 972.82C197.322 975.778 200.084 984.685 202.654 992.615L207.328 1007.03L200.34 1008.53C186.999 1011.39 159.849 1017.77 159.314 1018.17C159.017 1018.39 159.391 1019.19 160.143 1019.94C161.139 1020.94 168.478 1019.56 187.158 1014.87C201.264 1011.32 213.594 1008.73 214.557 1009.1C218.833 1010.74 216.006 1013.39 207.552 1015.66L198.799 1018.01L190.123 1038.42C183.355 1054.35 181.705 1059.39 182.617 1061.34C183.782 1063.83 183.786 1063.83 184.726 1061.35C186.639 1056.31 196.232 1033.87 198.865 1028.27C200.646 1024.48 202.584 1022.23 204.487 1021.76C206.083 1021.36 208.204 1020.71 209.198 1020.33C210.591 1019.8 211.788 1022.57 214.428 1032.43C222.555 1062.79 224.38 1069.02 233.104 1096.13C246.454 1137.62 255.741 1154.91 269.039 1163.03C274.757 1166.53 276.068 1166.81 285.789 1166.67C300.31 1166.45 340.499 1157.92 382.293 1146.19C394.767 1142.69 405.133 1140.04 405.329 1140.3C405.761 1140.89 415.714 1180.32 417.738 1189.46C418.787 1194.2 419.598 1195.67 420.759 1194.95C421.994 1194.18 420.952 1188.76 416.053 1170.48C412.591 1157.56 408.945 1144.24 407.951 1140.87C405.806 1133.61 405.627 1128.22 407.492 1127.07C408.234 1126.61 409.465 1126.86 410.227 1127.62C411.595 1128.99 418.684 1155.11 423.566 1176.78C424.951 1182.92 426.38 1188.93 426.744 1190.12C427.716 1193.33 429.87 1192.77 429.143 1189.5C427.473 1182.01 416.966 1139.48 416.456 1138.14C415.654 1136.05 450.879 1124.93 452.662 1126.71C453.193 1127.24 460.206 1154.11 463.705 1169.02C464.567 1172.69 467.007 1173.88 466.26 1170.26C460.287 1141.36 458.508 1134 454.361 1121.01C451.999 1113.62 452.558 1110.6 456.039 1111.93C457.656 1112.55 458.904 1115.97 464.357 1134.68L466.917 1143.46L473.444 1145.01C500.022 1151.32 511.132 1153.51 512.044 1152.62C512.625 1152.05 512.066 1151.29 510.803 1150.93C509.039 1150.43 476.014 1141.48 468.709 1139.53C467.423 1139.18 462.433 1123.07 463.376 1122.31C463.63 1122.1 469.422 1120.51 476.246 1118.76C496.282 1113.63 512.5 1109.27 527.738 1104.89C535.586 1102.64 546.689 1099.5 552.411 1097.92L562.815 1095.04L567.999 1086.89C570.85 1082.4 574.823 1075.1 576.827 1070.66C580.115 1063.38 580.461 1061.38 580.364 1050.18C580.261 1038.15 579.943 1036.8 570.03 1006.12C564.404 988.715 558.673 971.401 557.295 967.647C553.778 958.073 549.151 943.886 548.64 941.111C548.316 939.351 549.431 938.343 553.174 937.008C562.14 933.808 583.181 927.93 585.573 927.956C586.861 927.97 594.879 931.31 603.389 935.378C616.788 941.782 619.013 942.509 619.974 940.79C621.379 938.279 621.457 938.325 601.261 929.685L584.795 922.64L565.995 928.453C547.556 934.152 545.222 934.347 545.128 930.186C545.1 928.973 592.104 914.733 633.514 903.411C634.707 903.085 635.685 902.376 635.685 901.836C635.685 900.401 598.433 910.327 568.063 919.854C558.509 922.851 549.277 925.645 547.547 926.063C544.502 926.799 544.268 926.4 540.255 913.633C537.915 906.19 536.582 899.999 537.197 899.425C538.535 898.171 569.256 888.2 583.398 884.428C595.216 881.276 594.16 882.64 601.61 860.908C605.265 850.243 605.42 848.28 602.606 848.324C602.121 848.331 599.441 854.934 596.648 862.998L591.572 877.66L584.78 879.404C581.045 880.363 568.243 884.121 556.33 887.754C534.16 894.516 532.77 894.604 532.72 889.259C532.703 887.276 545.855 882.531 576.976 873.292L585.889 870.646L589.67 860.193C594.545 846.714 595.501 842.914 593.745 844.001C592.998 844.463 590.895 849.711 589.072 855.667C587.248 861.622 585.125 867.153 584.354 867.96C583.583 868.767 572.344 872.495 559.378 876.245C546.412 879.994 534.826 883.443 533.632 883.909C532.438 884.374 531.461 884.513 531.461 884.218C531.461 883.923 528.68 872.832 525.282 859.572C518.621 833.589 518.853 834.515 512.06 806.924C504.711 777.083 495.745 762.722 481.914 758.64C470.955 755.405 467.655 755.809 428.477 765.162C419.947 767.199 407.384 770.027 400.56 771.447C393.736 772.867 382.01 775.482 374.504 777.259C366.997 779.037 356.2 781.457 350.51 782.637L340.164 784.784L338.935 781.577C336.725 775.813 332.521 759.137 333.125 758.532C333.45 758.208 339.991 756.036 347.661 753.707C355.33 751.378 362.693 748.487 364.022 747.284C366.908 744.672 367.045 738.24 364.803 710.709C363.587 695.765 363.015 692.753 361.453 693.057ZM353.407 715.611L354.31 737.869L343.934 740.981C327.544 745.897 329.289 746.782 324.692 731.208C322.476 723.699 320.633 716.56 320.596 715.345C320.533 713.197 317.333 711.032 316.079 712.285C315.456 712.909 323.846 747.971 324.861 748.986C325.369 749.494 355.359 740.843 356.278 739.923C357.323 738.878 354.814 693.353 353.712 693.353C352.94 693.353 352.831 701.394 353.407 715.611ZM474.361 778.684C476.735 779.877 479.817 782.562 481.21 784.648C485.221 790.66 498.941 833.703 511.649 880.146C518.347 904.62 525.078 927.74 532.131 950.497C534.391 957.788 538.255 972.589 540.718 983.387C543.181 994.185 546.885 1010.15 548.948 1018.88C551.013 1027.6 552.382 1035.74 551.993 1036.96C551.026 1040.01 545.512 1044.94 539.526 1048.12C535.489 1050.26 503.407 1060.33 487.413 1064.48C485.366 1065.01 478.945 1066.87 473.145 1068.62C467.344 1070.36 452.827 1074.64 440.885 1078.11C412.065 1086.51 375.306 1097.38 344.105 1106.75C305.549 1118.32 301.111 1119.31 294.168 1117.85C287.117 1116.37 281.027 1112.59 277.287 1107.38C275.777 1105.27 269.204 1087.08 262.678 1066.94C256.154 1046.8 244.676 1011.34 237.173 988.126C229.67 964.916 217.187 926.379 209.433 902.486C201.68 878.594 194.792 856.597 194.129 853.604C192.052 844.25 196.021 838.032 206.82 833.716C215.593 830.209 252.826 820.785 270.9 817.496C273.971 816.938 288.208 813.853 302.539 810.644C316.87 807.434 332.145 804.021 336.483 803.062C340.821 802.101 344.771 801.067 345.26 800.764C346.991 799.694 399.572 787.52 417.93 783.939C460.084 775.715 467.147 775.058 474.361 778.684ZM440.264 788.272C429.327 790.022 403.77 795.443 358.374 805.646C331.873 811.601 303.193 817.473 292.613 819.108C280.414 820.996 230.355 832.639 216.719 836.763C205.861 840.044 200.176 844.681 200.176 850.255C200.176 854.971 204.627 870.811 210.694 887.691C220.59 915.222 245.629 988.359 252.938 1011.09C256.78 1023.03 262.747 1040.35 266.196 1049.56C269.647 1058.78 272.921 1067.71 273.474 1069.42C276.992 1080.29 282.069 1093.44 283.721 1095.96C286.479 1100.17 295.718 1104.29 302.781 1104.45C306.082 1104.52 312.96 1103.59 318.067 1102.38C330.095 1099.53 410.102 1076.86 411.727 1075.85C412.409 1075.43 413.894 1074.93 415.026 1074.76C418.989 1074.14 444.915 1066.86 446.922 1065.8C448.038 1065.22 460.675 1061.28 475.006 1057.05C516.793 1044.72 531.809 1039.84 536.144 1037.17C542.229 1033.42 542.961 1030.12 540.063 1019.51C534.476 999.043 532.377 991.191 529.021 978.197C527.082 970.688 521.841 951.698 517.375 935.997C512.91 920.297 507.818 901.587 506.06 894.419C504.301 887.251 501.212 876.081 499.193 869.596C497.174 863.111 492.118 846.635 487.957 832.982C475.753 792.949 475.549 792.43 470.79 789.253C465.855 785.959 456.587 785.662 440.264 788.272ZM465.454 791.897C471.275 794.907 472.81 797.795 478.052 815.606C480.866 825.163 483.746 834.937 484.453 837.326C485.16 839.715 486.395 844.242 487.196 847.384C487.998 850.526 489.348 853.929 490.194 854.945C491.041 855.961 491.416 857.111 491.028 857.5C490.638 857.889 491.221 861.188 492.324 864.832C493.427 868.476 498.455 885.979 503.499 903.728C508.541 921.476 516.852 950.519 521.965 968.267C535.955 1016.82 536.877 1020.82 535.298 1026.08C534.265 1029.54 532.636 1031.26 528.06 1033.73C522.526 1036.71 501.937 1043.3 476.246 1050.3C470.105 1051.98 460.892 1054.68 455.774 1056.3C450.656 1057.92 432.789 1063.18 416.069 1067.99C375.077 1079.78 348.938 1087.36 331.077 1092.64C307.203 1099.69 302.847 1100.7 299.372 1100C294.138 1098.96 287.093 1094.24 285.155 1090.49C284.173 1088.59 277.259 1068.97 269.791 1046.89C256.347 1007.15 229.91 929.669 216.706 891.316C203.578 853.189 203.246 851.455 207.937 845.7C210.426 842.646 213.166 841.745 233.677 837.228C246.302 834.449 257.748 831.948 259.112 831.67C260.477 831.393 264.107 830.589 267.177 829.883C270.248 829.175 291.186 824.678 313.706 819.887C357.47 810.574 385.685 804.485 425.375 795.788C451.991 789.955 460.166 789.162 465.454 791.897ZM197.065 936.618C200.695 947.881 207.313 968.547 211.774 982.541C216.233 996.535 224.701 1023.06 230.59 1041.5C236.48 1059.93 243.244 1081.15 245.623 1088.66C260.029 1134.13 261.016 1136.51 268.747 1144.33C275.378 1151.04 275.865 1151.92 275.133 1155.83C274.698 1158.15 273.897 1160.33 273.355 1160.66C272.813 1161 269.666 1159.13 266.361 1156.5C254.488 1147.08 246.679 1128.32 223.918 1054.53C212.977 1019.06 213.146 1019.86 216.222 1017.71C220.934 1014.41 219.182 1007.92 213.143 1006.3C210.028 1005.47 209.291 1004.33 207.364 997.357C206.149 992.963 203.707 984.714 201.936 979.028C199.188 970.205 198.935 968.161 200.207 965.089C202.148 960.403 200.847 955.489 197.232 953.84C194.823 952.742 193.54 949.576 189.331 934.334C186.567 924.327 181.407 905.806 177.865 893.178C174.321 880.549 171.2 866.865 170.929 862.77C170.419 855.083 174.605 866.911 197.065 936.618ZM616.617 913.657C606.471 916.662 597.854 919.437 597.468 919.823C596.387 920.904 598.146 922.084 611.105 928.983C617.717 932.502 623.451 934.858 623.847 934.218C624.244 933.576 619.69 930.392 613.73 927.142L602.89 921.232L621.151 916.209C631.193 913.445 639.224 910.623 638.995 909.938C638.235 907.651 635.184 908.157 616.617 913.657ZM175.671 1023.09C165.359 1025.58 162.953 1026.59 162.953 1028.41C162.953 1030.52 163.572 1030.48 173.126 1027.7C178.721 1026.07 183.993 1024.74 184.843 1024.74C185.874 1024.74 185.147 1027.73 182.656 1033.74C179.31 1041.81 174.12 1055.74 174.12 1056.66C174.12 1056.85 174.611 1057.01 175.213 1057.01C176.249 1057.01 190.25 1023.44 190.25 1020.95C190.25 1019.5 190.977 1019.39 175.671 1023.09ZM564.217 1078.42C562.244 1081.86 554.415 1092.44 553.215 1093.29C550.166 1095.46 550.384 1093.82 553.951 1087.73C556.049 1084.14 558.633 1080.23 559.694 1079.04C561.914 1076.54 565.584 1076.04 564.217 1078.42ZM553.066 1082.76C551.826 1084.64 549.629 1088.4 548.182 1091.12C545.58 1096.01 545.401 1096.1 531.372 1099.59C517.731 1102.99 489.791 1110.65 473.324 1115.5C462.624 1118.66 460.954 1118.52 459.949 1114.41C458.955 1110.35 457.544 1109.23 454.436 1110.05C450.641 1111.04 449.515 1113.31 450.725 1117.53L451.828 1121.38L442.944 1123.98C438.058 1125.42 429.687 1127.92 424.34 1129.54L414.62 1132.49L413.338 1128.82C412.238 1125.66 411.511 1125.19 408.169 1125.51C404.579 1125.86 404.254 1126.28 403.91 1130.98L403.536 1136.08L396.465 1137.64C392.575 1138.5 382.972 1141.16 375.124 1143.57C357.267 1149.03 341.613 1152.97 321.981 1156.93C303.459 1160.68 301.545 1160.77 302.357 1157.85C304.872 1148.83 299.111 1151.25 356.513 1135.18C378.691 1128.97 409.4 1120.33 424.755 1115.98C440.109 1111.62 466.631 1104.14 483.691 1099.34C500.752 1094.54 523.365 1088.13 533.942 1085.09C544.52 1082.04 553.657 1079.51 554.247 1079.45C554.838 1079.4 554.306 1080.89 553.066 1082.76ZM467.359 1150.26C467.788 1151.88 469.062 1156.97 470.189 1161.58C471.317 1166.18 472.723 1169.95 473.312 1169.95C474.784 1169.95 474.704 1169.34 471.25 1154.13C470.422 1150.49 471.015 1150.52 491.465 1155.09C500.692 1157.15 508.521 1158.56 508.862 1158.22C509.202 1157.88 508.704 1157.37 507.753 1157.09C501.209 1155.17 494.339 1153.53 483.612 1151.33C476.831 1149.94 470.225 1148.47 468.931 1148.07C466.953 1147.45 466.703 1147.8 467.359 1150.26ZM290.628 1154.96C290.313 1159.98 288.663 1163.13 286.353 1163.11C284.481 1163.1 284.027 1162.4 284.365 1160.01C284.997 1155.54 286.617 1152.99 288.824 1152.99C289.885 1152.99 290.696 1153.88 290.628 1154.96Z" fill="#00A6FB"/>
<ellipse cx="357" cy="688.527" rx="12" ry="12.5271" fill="#FFF502"/>
<ellipse cx="312.5" cy="705.063" rx="12.5" ry="12.026" fill="#FFF502"/>
<ellipse cx="221.5" cy="723.603" rx="12.5" ry="12.5271" fill="#FFF502"/>
<ellipse cx="116.5" cy="963.122" rx="12.5" ry="12.5271" fill="#FFF502"/>
<ellipse cx="164.5" cy="1021.75" rx="12.5" ry="12.026" fill="#FFF502"/>
<ellipse cx="177.5" cy="1060.33" rx="12.5" ry="12.5271" fill="#FFF502"/>
<ellipse cx="423.5" cy="1195.63" rx="12.5" ry="12.5271" fill="#FFF502"/>
<ellipse cx="471" cy="1175.58" rx="12" ry="12.5271" fill="#FFF502"/>
<ellipse cx="518" cy="1156.04" rx="12" ry="12.026" fill="#FFF502"/>
<ellipse cx="622.5" cy="938.569" rx="12.5" ry="12.026" fill="#FFF502"/>
<ellipse cx="634.5" cy="903.994" rx="12.5" ry="12.5271" fill="#FFF502"/>
<ellipse cx="597.5" cy="842.861" rx="12.5" ry="12.5271" fill="#FFF502"/>
<path d="M305.217 704.061C304.137 700.931 307.256 697.175 311 698.229" stroke="#F8F9FA" stroke-width="2" stroke-linecap="round"/>
<path d="M109.217 963.623C108.137 960.493 111.256 956.737 115 957.791" stroke="#F8F9FA" stroke-width="2" stroke-linecap="round"/>
<path d="M360.623 680.746C362.268 680.125 366.202 683.016 366.394 688.581" stroke="#F8F9FA" stroke-width="2" stroke-linecap="round"/>
<path d="M600.174 835.53C601.819 834.909 605.753 837.8 605.945 843.364" stroke="#F8F9FA" stroke-width="2" stroke-linecap="round"/>
<path d="M641.53 898.874C643.242 899.272 644.915 903.864 641.994 908.601" stroke="#F8F9FA" stroke-width="2" stroke-linecap="round"/>
<path d="M624.97 931.173C626.63 930.706 630.64 932.984 630.883 937.306" stroke="#F8F9FA" stroke-width="2" stroke-linecap="round"/>
<path d="M225.777 715.015C227.422 714.394 231.356 717.285 231.548 722.85" stroke="#F8F9FA" stroke-width="2" stroke-linecap="round"/>
<path d="M171.245 1026.39C171.45 1028.13 167.702 1031.26 162.267 1030.11" stroke="#F8F9FA" stroke-width="2" stroke-linecap="round"/>
<path d="M173.222 1067.56C171.512 1067.97 167.971 1064.61 168.477 1059.06" stroke="#F8F9FA" stroke-width="2" stroke-linecap="round"/>
<path d="M419.927 1204.23C418.218 1204.64 414.677 1201.27 415.183 1195.73" stroke="#F8F9FA" stroke-width="2" stroke-linecap="round"/>
<path d="M475.221 1168.5C476.956 1168.21 480.241 1171.83 479.329 1177.32" stroke="#F8F9FA" stroke-width="2" stroke-linecap="round"/>
<path d="M523.57 1149.86C525.305 1149.58 528.59 1153.19 527.678 1158.68" stroke="#F8F9FA" stroke-width="2" stroke-linecap="round"/>
</svg>
