<svg width="48" height="48" viewBox="0 0 48 48" fill="none" xmlns="http://www.w3.org/2000/svg">
<path fill-rule="evenodd" clip-rule="evenodd" d="M40.7226 37.159C39.9114 37.9401 38.8358 38.4424 37.6506 38.5272L34.3748 38.7616C27.4672 39.2558 20.533 39.2558 13.6253 38.7616L10.5973 38.545C8.20521 38.3738 6.2322 36.6055 5.80116 34.2464C4.92783 29.4665 4.77832 24.5826 5.35764 19.7583L5.90261 15.2201C6.22602 12.5269 8.51083 10.5 11.2234 10.5H15.8065C18.042 10.5 19.9046 12.0969 20.3156 14.2122L36.9445 14.2122C39.5572 14.2122 41.7826 16.1107 42.1945 18.6907L42.3226 19.4936C42.3495 19.6623 42.3755 19.8311 42.4004 20H43.0724C46.0173 20 48.0419 22.9597 46.9745 25.7042L44.4756 32.1299C43.6997 34.1253 42.3979 35.8603 40.7226 37.159ZM39.232 19.1636L39.3601 19.9664C39.3619 19.9776 39.3637 19.9888 39.3654 20H20.7409C18.4695 20 16.4318 21.3963 15.6118 23.5145L10.9481 35.5624L10.8114 35.5526C9.7844 35.4791 8.93736 34.7199 8.7523 33.7071C7.93304 29.2232 7.79278 24.6416 8.33624 20.116L8.88121 15.5778C9.02358 14.3922 10.0293 13.5 11.2234 13.5H15.8065C16.6866 13.5 17.4001 14.2134 17.4001 15.0935C17.4001 16.2637 18.3486 17.2122 19.5188 17.2122H36.9445C38.0829 17.2122 39.0525 18.0394 39.232 19.1636ZM14.0784 35.7861C20.7645 36.2532 27.4753 36.2475 34.1608 35.7692L37.4365 35.5349L37.8257 35.4985L37.8229 35.4936C39.584 34.4999 40.9467 32.9272 41.6796 31.0426L44.1785 24.6169C44.4811 23.8389 43.9072 23 43.0724 23H20.7409C19.7085 23 18.7822 23.6347 18.4095 24.5975L14.0784 35.7861Z" fill="#023047"/>
</svg>
