<svg width="1216" height="1080" viewBox="0 0 1216 1080" fill="none" xmlns="http://www.w3.org/2000/svg">
<path d="M586.5 95V-0.5" stroke="#00A6FB" stroke-width="6"/>
<path d="M499.5 809V1089" stroke="#00A6FB" stroke-width="6"/>
<path d="M363.5 614.5H292.5C288.082 614.5 284.5 618.082 284.5 622.5V1089" stroke="#00A6FB" stroke-width="6"/>
<path d="M809 102.5V0" stroke="#00A6FB" stroke-width="6"/>
<path d="M733 101.5V-1" stroke="#00A6FB" stroke-width="6"/>
<path d="M976.5 790V857C976.5 861.418 980.082 865 984.5 865H1216.5" stroke="#00A6FB" stroke-width="6"/>
<path d="M999 710H1216.5" stroke="#00A6FB" stroke-width="6"/>
<path d="M451 710H377C372.582 710 369 713.582 369 718V1088.5" stroke="#00A6FB" stroke-width="6"/>
<path d="M506 246V0" stroke="#00A6FB" stroke-width="6"/>
<path d="M913 264V-6" stroke="#00A6FB" stroke-width="6"/>
<path d="M997.5 344.5H1052.5C1056.92 344.5 1060.5 340.918 1060.5 336.5V-11" stroke="#00A6FB" stroke-width="6"/>
<path d="M442 301H387.5V3" stroke="#00A6FB" stroke-width="6"/>
<path d="M360 541H288C283.582 541 280 537.418 280 533V-14.5" stroke="#00A6FB" stroke-width="6"/>
<path d="M324.5 416.5V-3.5" stroke="#00A6FB" stroke-width="6"/>
<path d="M702.5 927V1085" stroke="#00A6FB" stroke-width="6"/>
<path d="M782.5 923V1022C782.5 1026.42 786.082 1030 790.5 1030H1220.5" stroke="#00A6FB" stroke-width="6"/>
<path d="M618 821V1091" stroke="#00A6FB" stroke-width="6"/>
<path d="M1127.5 609.5H1217.5" stroke="#00A6FB" stroke-width="6"/>
<path d="M1164 558.5H1183C1187.42 558.5 1191 554.918 1191 550.5V2.00012" stroke="#00A6FB" stroke-width="6"/>
<path d="M1110.5 439.001V-0.000488281" stroke="#00A6FB" stroke-width="6"/>
<path d="M863 911V949.5C863 953.918 866.582 957.5 871 957.5H1218.5" stroke="#00A6FB" stroke-width="6"/>
<path fill-rule="evenodd" clip-rule="evenodd" d="M812.982 123.746C809.67 123.501 807.676 130.791 798.65 176.129C796.121 188.833 793.179 199.775 792.111 200.444C791.043 201.111 778.322 202.039 763.839 202.502C749.358 202.966 736.76 203.777 735.844 204.305C734.926 204.833 734.473 214.477 734.835 225.735C735.607 249.752 735.027 253.845 730.888 253.576C728.494 253.423 727.625 244.456 726.957 213.008C726.483 190.802 726.15 163.811 726.213 153.028C726.303 137.994 725.545 132.969 722.963 131.488C718.913 129.165 719.196 122.443 720.281 195.261C720.748 226.557 720.844 252.327 720.496 252.524C720.149 252.724 705.902 252.182 688.838 251.321C665.995 250.168 657.614 249.075 657.067 247.177C656.658 245.757 655.958 221.755 655.511 193.837C655.063 165.92 654 142.296 653.146 141.339C650.123 137.951 598.983 110.524 596.859 111.151C592.071 112.567 593.678 116.974 600.088 120.013C603.803 121.774 615.679 128.402 626.483 134.744L646.123 146.274L647.414 171.252C649.114 204.143 649.699 248.282 648.442 249C647.896 249.314 645.402 249.26 642.901 248.883C638.62 248.238 638.319 246.229 637.756 214.558C636.815 161.653 636.119 150.726 633.531 148.326C627.153 142.415 589.227 122.068 586.977 123.353C584.609 124.706 586.325 125.919 606.592 137.212C610.72 139.511 617.771 143.78 622.267 146.696C630.388 151.966 630.441 152.088 630.794 166.496C631.278 186.28 630.284 242.592 629.392 245.872C628.995 247.334 626.638 248.438 624.153 248.322C538.091 244.335 486.169 245.553 473.68 251.858C466.463 255.5 458.388 265.701 449.77 282.063C440.634 299.413 440.614 299.809 443.9 402.284C444.55 422.548 445.19 441.839 445.324 445.152C445.456 448.464 444.743 451.634 443.737 452.195C442.009 453.158 384.931 454.686 369.227 454.191C362.965 453.992 359.701 452.203 346.353 441.658C329.023 427.964 327.98 427.398 326.963 431.137C326.549 432.662 333.181 439.235 342.807 446.835L359.365 459.907L385.778 458.877C400.305 458.31 420.361 457.739 430.347 457.608C440.333 457.476 449.054 457.055 449.725 456.672C451.563 455.623 454.98 461.209 454.217 464.016C453.85 465.365 450.623 466.298 447.047 466.088C443.472 465.879 422.294 466.129 399.989 466.643C377.684 467.158 357.936 467.172 356.106 466.674C354.274 466.176 345.504 460.227 336.617 453.453C321.604 442.012 320.194 441.306 316.727 443.522C313.29 445.721 314.751 447.165 335.306 461.888L357.614 477.868L381.45 476.812C400.771 475.955 423.961 474.384 443.104 472.631C444.578 472.496 445.578 475.956 445.584 481.198C445.588 486.034 446.115 500.739 446.753 513.876L447.916 537.764L436.636 537.144C415.102 535.96 371.043 534.41 370.061 534.801C369.516 535.018 369.756 536.386 370.592 537.843C371.699 539.773 383.466 540.718 413.904 541.322C436.89 541.779 456.774 542.938 458.09 543.901C463.935 548.174 458.526 551.031 444.69 550.981L430.364 550.928L408.679 578.409C391.761 599.853 387.159 606.833 387.744 610.178C388.489 614.457 388.495 614.458 390.956 611.075C395.96 604.196 419.884 574.005 426.218 566.574C430.504 561.545 434.389 558.933 437.489 558.995C440.091 559.047 443.59 558.952 445.264 558.784C447.611 558.547 448.292 563.259 448.237 579.364C448.067 628.959 448.277 639.187 450.364 684.077C453.561 752.766 460.572 782.94 477.495 800.824C484.772 808.517 486.653 809.493 501.545 813.3C523.787 818.988 588.627 822.676 657.239 822.155C677.717 821.998 694.627 822.27 694.816 822.754C695.234 823.819 694.099 887.97 693.402 902.73C693.041 910.375 693.669 912.956 695.739 912.338C697.94 911.682 698.595 902.994 698.688 873.134C698.753 852.035 698.704 830.242 698.581 824.705C698.314 812.76 700.272 804.483 703.594 803.501C704.915 803.112 706.69 804 707.537 805.476C709.058 808.128 709.062 850.828 707.541 885.842C707.11 895.769 706.806 905.5 706.866 907.47C707.025 912.748 710.542 912.793 710.784 907.521C711.338 895.419 712.912 826.318 712.685 824.082C712.327 820.561 770.667 818.239 772.649 821.694C773.24 822.721 772.817 866.535 771.984 890.682C771.78 896.629 775.011 899.445 775.368 893.631C778.218 847.154 778.552 835.211 777.599 813.723C777.058 801.485 779.16 797.12 783.918 800.599C786.127 802.214 786.619 807.927 787.195 838.668L787.465 853.099L796.78 858.165C834.712 878.802 850.754 886.744 852.515 885.761C853.637 885.134 853.1 883.746 851.322 882.675C848.838 881.18 802.161 853.864 791.825 847.858C790.006 846.802 789.062 820.203 790.816 819.436C791.289 819.228 800.785 819.201 811.918 819.373C844.605 819.88 871.154 819.958 896.21 819.619C909.115 819.443 927.351 819.271 936.734 819.24L953.796 819.177L965.08 808.911C971.286 803.264 980.369 793.797 985.262 787.873C993.29 778.158 994.647 775.253 999.134 758.167C1003.96 739.811 1004.03 737.618 1001.6 686.811C1000.23 657.98 998.649 629.247 998.1 622.96C996.698 606.927 995.511 583.414 995.88 578.977C996.114 576.164 998.231 575.092 1004.49 574.612C1019.5 573.46 1054.03 573.239 1057.67 574.271C1059.62 574.826 1070.47 583.235 1081.77 592.958C1099.56 608.264 1102.66 610.292 1104.83 608.074C1108.02 604.835 1108.12 604.937 1080.88 583.409L1058.68 565.856L1027.59 566.906C997.105 567.934 993.464 567.263 995.042 560.891C995.503 559.031 1073.1 556.851 1140.96 556.792C1142.91 556.79 1144.7 556.117 1144.92 555.295C1145.52 553.111 1084.58 552.769 1034.31 554.675C1018.49 555.275 1003.25 555.698 1000.44 555.618C995.49 555.475 995.298 554.77 994.46 533.672C993.971 521.371 994.5 511.395 995.675 510.775C998.236 509.422 1049.23 506.985 1072.36 507.109C1091.7 507.214 1089.52 508.852 1109.88 478.86C1119.87 464.141 1120.92 461.219 1116.61 460.118C1115.86 459.928 1109.04 468.867 1101.44 479.984L1087.63 500.197L1076.55 500.034C1070.46 499.945 1049.37 500.356 1029.69 500.946C993.075 502.043 990.916 501.6 993.052 493.445C993.847 490.418 1015.87 488.65 1067.17 487.494L1081.87 487.163L1091.96 472.82C1104.98 454.324 1108.01 448.935 1104.88 449.862C1103.55 450.255 1098.17 457.372 1092.92 465.681C1087.67 473.99 1082.15 481.53 1080.64 482.438C1079.13 483.346 1060.44 484.36 1039.11 484.69C1017.77 485.02 998.671 485.465 996.658 485.678C994.644 485.891 993.095 485.697 993.218 485.248C993.34 484.798 993.688 466.762 993.991 445.169C994.584 402.854 994.555 404.36 995.611 359.543C996.75 311.07 989.016 285.49 969.606 273.54C954.225 264.071 949.025 263.316 885.387 261.304C871.531 260.867 851.195 259.962 840.197 259.293C829.199 258.624 810.229 257.741 798.042 257.333C785.855 256.925 768.382 256.131 759.213 255.568L742.542 254.546L741.994 249.154C741.008 239.463 741.497 212.335 742.669 211.664C743.299 211.305 754.175 210.712 766.84 210.349C779.504 209.983 791.932 208.637 794.457 207.357C799.941 204.577 802.813 194.844 810.787 152.006C815.117 128.754 815.491 123.931 812.982 123.746ZM791.373 154.742L783.539 188.997L766.422 189.43C739.385 190.116 741.68 192.186 741.112 166.573C740.839 154.223 740.983 142.592 741.429 140.727C742.221 137.432 738.236 132.808 735.804 134.196C734.595 134.888 732.884 191.739 734.012 193.705C734.578 194.689 783.908 193.959 785.691 192.94C787.717 191.783 802.731 121.442 801.05 120.985C799.873 120.665 796.378 132.861 791.373 154.742ZM949.787 300.919C952.916 303.72 956.507 309.085 957.767 312.838C961.398 323.654 964.515 394.865 964.68 470.832C964.769 510.865 965.469 548.851 966.809 586.417C967.24 598.454 967.009 622.586 966.297 640.045C965.586 657.503 964.626 683.349 964.165 697.479C963.705 711.612 962.426 724.57 961.324 726.277C958.589 730.512 948.135 735.735 937.689 738.083C930.646 739.666 877.534 741.695 851.419 741.376C848.076 741.335 837.51 741.508 827.939 741.758C818.367 742.009 794.453 742.493 774.795 742.833C727.357 743.656 666.78 744.964 615.306 746.277C551.699 747.902 544.52 747.563 534.531 742.465C524.386 737.288 516.659 729.013 513.111 719.527C511.679 715.697 509.182 685.269 507.562 651.909C505.944 618.549 503.112 559.801 501.271 521.359C499.431 482.917 496.337 419.077 494.397 379.492C492.457 339.907 491.053 303.566 491.28 298.734C491.982 283.635 500.611 275.815 518.872 273.724C533.705 272.025 594.405 273.122 623.339 275.612C628.255 276.035 651.252 277.246 674.442 278.304C697.633 279.362 722.348 280.502 729.362 280.841C736.377 281.177 742.832 281.242 743.703 280.984C746.786 280.073 832.038 283.35 861.526 285.513C929.237 290.479 940.283 292.407 949.787 300.919ZM893.804 301.372C876.394 299.5 835.162 297.152 761.688 293.854C718.796 291.927 672.614 288.97 655.796 287.072C636.405 284.886 555.22 281.847 532.712 282.468C514.79 282.959 504.198 287.66 501.891 296.145C499.939 303.324 500.173 329.281 502.443 357.492C506.146 403.506 514.074 525.222 515.819 562.85C516.735 582.628 518.672 611.459 520.12 626.918C521.57 642.377 522.866 657.338 523.004 660.165C523.871 678.173 526.174 700.296 527.65 704.82C530.115 712.372 542.508 722.463 553.217 725.637C558.221 727.121 569.1 728.557 577.392 728.831C596.922 729.476 728.354 728.164 731.25 727.296C732.468 726.931 734.937 726.796 736.736 726.998C743.038 727.7 785.6 727.376 789.1 726.599C791.045 726.167 811.954 725.413 835.566 724.92C904.416 723.488 929.343 722.285 937.062 720.017C947.895 716.837 950.377 712.119 950.348 694.759C950.295 661.287 950.344 648.465 950.602 627.292C950.751 615.058 950.615 583.978 950.301 558.226C949.986 532.474 949.962 501.881 950.246 490.241C950.53 478.601 950.44 460.316 950.044 449.607C949.649 438.898 948.754 411.72 948.056 389.212C946.007 323.21 945.911 322.336 939.965 315.526C933.801 308.465 919.784 304.169 893.804 301.372ZM930.732 317.339C938.365 324.334 939.511 329.367 940.137 358.653C940.475 374.368 940.823 390.441 940.913 394.371C941.003 398.301 941.013 405.704 940.935 410.82C940.858 415.934 941.509 421.674 942.379 423.573C943.252 425.47 943.347 427.376 942.594 427.807C941.838 428.238 941.363 433.502 941.537 439.507C941.712 445.511 942.138 474.239 942.487 503.348C942.834 532.457 943.492 580.113 943.947 609.251C945.195 688.959 944.947 695.425 940.359 702.791C937.353 707.618 934.157 709.559 926.153 711.423C916.475 713.675 882.339 715.164 840.25 715.166C830.188 715.168 815.018 715.452 806.538 715.799C798.059 716.145 768.624 716.747 741.128 717.134C673.713 718.082 630.7 718.778 601.27 719.396C561.934 720.224 554.869 719.958 549.855 717.457C542.304 713.694 533.507 703.598 532.102 697.087C531.391 693.789 528.962 661.055 526.709 624.343C522.649 558.266 514.384 429.362 510.113 365.504C505.867 302.022 506.077 299.245 515.616 292.43C520.677 288.813 525.229 288.577 558.389 290.209C578.798 291.216 597.294 292.156 599.492 292.299C601.688 292.444 607.558 292.725 612.535 292.923C617.512 293.12 651.315 294.957 687.652 297.005C758.27 300.981 803.833 303.415 867.979 306.638C910.996 308.798 923.796 310.981 930.732 317.339ZM461.403 426.318C462.278 444.969 463.822 479.171 464.835 502.323C465.846 525.474 467.785 569.37 469.14 599.869C470.498 630.368 472.034 665.481 472.554 677.898C475.713 753.092 476.235 757.115 484.79 772.235C492.127 785.203 492.508 786.741 489.775 792.381C488.149 795.739 486.027 798.719 485.061 799.004C484.096 799.29 480.07 795.137 476.112 789.774C461.899 770.508 457.751 738.708 453.569 616.94C451.558 558.407 451.482 559.705 457.066 557.701C465.621 554.63 465.634 544.026 457.091 539.062C452.682 536.502 452.031 534.458 451.976 523.048C451.942 515.854 451.63 502.285 451.281 492.896C450.741 478.325 451.201 475.108 454.413 470.96C459.312 464.633 459.363 456.612 454.529 452.603C451.31 449.932 450.663 444.58 450.549 419.634C450.475 403.254 450.268 372.922 450.09 352.229C449.911 331.535 450.814 309.411 452.094 303.064C454.497 291.152 455.988 310.893 461.403 426.318ZM1110.94 565.38C1094.22 565.746 1079.93 566.396 1079.18 566.824C1077.08 568.021 1079.28 570.547 1096.19 586.423C1104.82 594.523 1112.59 600.487 1113.46 599.677C1114.33 598.865 1108.7 592.13 1100.96 584.71L1086.87 571.217L1116.8 571.145C1133.27 571.103 1146.68 570.139 1146.62 569.001C1146.41 565.204 1141.54 564.709 1110.94 565.38ZM392.978 549.074C376.214 548.593 372.128 549.125 371.374 551.899C370.501 555.109 371.464 555.299 387.188 555.034C396.396 554.877 404.99 555.037 406.287 555.389C407.86 555.817 405.512 560.069 399.227 568.18C390.782 579.08 377.097 598.139 376.72 599.525C376.639 599.822 377.323 600.268 378.241 600.517C379.822 600.947 415.074 555.65 416.103 551.868C416.705 549.652 417.859 549.791 392.978 549.074ZM962.815 794.452C958.383 798.865 942.059 811.729 939.875 812.532C934.327 814.568 935.337 812.16 943.301 804.363C947.985 799.779 953.546 794.898 955.659 793.52C960.079 790.638 965.887 791.393 962.815 794.452ZM944.006 796.439C941.339 798.782 936.43 803.595 933.098 807.132C927.106 813.495 926.793 813.56 903.947 813.061C881.732 812.574 835.938 812.64 808.81 813.2C791.181 813.562 788.689 812.664 788.856 805.995C789.021 799.397 787.332 797.11 782.254 797.06C776.053 796.996 773.397 799.984 773.496 806.908L773.586 813.226L758.954 813.511C750.906 813.668 737.1 814.003 728.272 814.257L712.223 814.716L711.789 808.586C711.418 803.32 710.501 802.312 705.27 801.419C699.647 800.462 698.979 800.962 696.508 807.978L693.831 815.573L682.397 815.019C676.108 814.713 660.354 814.79 647.388 815.191C617.885 816.099 592.376 815.602 560.784 813.497C530.979 811.513 528.023 810.855 530.467 806.758C538.036 794.071 528.249 795.355 622.467 794.702C658.871 794.45 709.294 794.034 734.519 793.778C759.744 793.521 803.301 793.125 831.313 792.897C859.325 792.669 896.477 792.284 913.871 792.042C931.267 791.799 946.254 791.73 947.178 791.89C948.103 792.048 946.674 794.097 944.006 796.439ZM785.322 863.643C785.309 866.277 785.146 874.556 784.958 882.036C784.772 889.517 785.356 895.84 786.255 896.084C788.5 896.694 788.631 895.732 789.658 871.14C789.903 865.254 790.796 865.541 820.099 880.985C833.322 887.954 844.682 893.347 845.343 892.969C846.003 892.591 845.453 891.611 844.118 890.792C834.932 885.149 825.13 879.804 809.675 872.007C799.906 867.078 790.436 862.104 788.629 860.951C785.868 859.188 785.341 859.617 785.322 863.643ZM513.772 797.485C511.213 804.999 507.393 809.105 503.876 808.129C501.023 807.337 500.624 806.07 502.126 802.581C504.941 796.04 508.466 792.829 511.834 793.744C513.452 794.184 514.324 795.868 513.772 797.485Z" fill="#00A6FB"/>
<ellipse cx="808.063" cy="115.004" rx="18.9708" ry="19.7613" transform="rotate(15.21 808.063 115.004)" fill="#FFF502"/>
<ellipse cx="733.334" cy="121.718" rx="19.7613" ry="18.9708" transform="rotate(15.21 733.334 121.718)" fill="#FFF502"/>
<ellipse cx="586.838" cy="112.197" rx="19.7613" ry="19.7613" transform="rotate(15.21 586.838 112.197)" fill="#FFF502"/>
<ellipse cx="327.53" cy="433.248" rx="19.7613" ry="19.7613" transform="rotate(15.21 327.53 433.248)" fill="#FFF502"/>
<ellipse cx="376.491" cy="542.4" rx="19.7613" ry="18.9708" transform="rotate(15.21 376.491 542.4)" fill="#FFF502"/>
<ellipse cx="380.355" cy="606.524" rx="19.7613" ry="19.7613" transform="rotate(15.21 380.355 606.524)" fill="#FFF502"/>
<ellipse cx="699.641" cy="914.502" rx="19.7613" ry="19.7613" transform="rotate(15.21 699.641 914.502)" fill="#FFF502"/>
<ellipse cx="780.399" cy="903.692" rx="18.9708" ry="19.7613" transform="rotate(15.21 780.399 903.692)" fill="#FFF502"/>
<ellipse cx="860.186" cy="893.438" rx="18.9708" ry="18.9708" transform="rotate(15.21 860.186 893.438)" fill="#FFF502"/>
<ellipse cx="1109.61" cy="605.742" rx="19.7613" ry="18.9708" transform="rotate(15.21 1109.61 605.742)" fill="#FFF502"/>
<ellipse cx="1142.22" cy="558.088" rx="19.7613" ry="19.7613" transform="rotate(15.21 1142.22 558.088)" fill="#FFF502"/>
<ellipse cx="1111.08" cy="449.685" rx="19.7613" ry="19.7613" transform="rotate(15.21 1111.08 449.685)" fill="#FFF502"/>
<path d="M722.637 117.172C722.285 111.959 728.599 107.536 733.874 110.693" stroke="#F8F9FA" stroke-width="2" stroke-linecap="round"/>
<path d="M316.211 430.99C315.859 425.777 322.172 421.354 327.447 424.511" stroke="#F8F9FA" stroke-width="2" stroke-linecap="round"/>
<path d="M816.81 104.663C819.576 104.399 824.382 110.431 822.372 118.982" stroke="#F8F9FA" stroke-width="2" stroke-linecap="round"/>
<path d="M1118.19 439.634C1120.96 439.371 1125.76 445.403 1123.75 453.953" stroke="#F8F9FA" stroke-width="2" stroke-linecap="round"/>
<path d="M1155.07 553.211C1157.51 554.526 1158.16 562.211 1151.75 568.209" stroke="#F8F9FA" stroke-width="2" stroke-linecap="round"/>
<path d="M1116.44 595.509C1119.16 595.485 1124.34 600.617 1122.92 607.296" stroke="#F8F9FA" stroke-width="2" stroke-linecap="round"/>
<path d="M596.917 100.899C599.683 100.635 604.488 106.667 602.478 115.218" stroke="#F8F9FA" stroke-width="2" stroke-linecap="round"/>
<path d="M384.862 552.255C384.451 555.002 377.438 558.212 369.625 554.2" stroke="#F8F9FA" stroke-width="2" stroke-linecap="round"/>
<path d="M370.836 615.753C368.059 615.667 364.049 609.08 367.116 600.849" stroke="#F8F9FA" stroke-width="2" stroke-linecap="round"/>
<path d="M690.63 926.112C687.853 926.027 683.843 919.439 686.91 911.209" stroke="#F8F9FA" stroke-width="2" stroke-linecap="round"/>
<path d="M789.771 894.655C792.534 894.945 796.049 901.809 792.385 909.792" stroke="#F8F9FA" stroke-width="2" stroke-linecap="round"/>
<path d="M871.242 886.34C874.005 886.63 877.52 893.494 873.855 901.477" stroke="#F8F9FA" stroke-width="2" stroke-linecap="round"/>
</svg>
