<svg width="30" height="30" viewBox="0 0 30 30" fill="none" xmlns="http://www.w3.org/2000/svg">
<path d="M26.8894 10.4606C26.2387 9.57375 25.3313 8.535 24.3356 7.53937C23.34 6.54375 22.3012 5.63625 21.4144 4.98562C19.9031 3.8775 19.17 3.75 18.75 3.75H7.96875C6.67687 3.75 5.625 4.80187 5.625 6.09375V27.6562C5.625 28.9481 6.67687 30 7.96875 30H25.7812C27.0731 30 28.125 28.9481 28.125 27.6562V13.125C28.125 12.705 27.9975 11.9719 26.8894 10.4606ZM23.0081 8.86688C23.9081 9.76688 24.6131 10.5769 25.1344 11.25H20.6231V6.74063C21.2962 7.26188 22.11 7.96688 23.0081 8.86688ZM26.25 27.6562C26.25 27.9113 26.0363 28.125 25.7812 28.125H7.96875C7.84488 28.1235 7.7265 28.0737 7.63891 27.9861C7.55131 27.8985 7.50146 27.7801 7.5 27.6562V6.09375C7.5 5.84062 7.71375 5.625 7.96875 5.625H18.75V12.1875C18.75 12.4361 18.8488 12.6746 19.0246 12.8504C19.2004 13.0262 19.4389 13.125 19.6875 13.125H26.25V27.6562Z" fill="#F8F9FA"/>
<path d="M17.6644 1.23563C16.1531 0.1275 15.42 0 15 0H4.21875C2.92688 0 1.875 1.05188 1.875 2.34375V23.9063C1.875 25.0388 2.68125 25.9856 3.75 26.2031V2.34375C3.75 2.09063 3.96563 1.875 4.21875 1.875H18.4819C18.2145 1.65467 17.9431 1.44147 17.6644 1.23563Z" fill="#F8F9FA"/>
</svg>
