<svg width="216" height="311" viewBox="0 0 216 311" fill="none" xmlns="http://www.w3.org/2000/svg">
<path d="M48.3598 305.724C46.8564 305.725 45.3604 305.512 43.9171 305.091C42.6748 304.77 41.5033 304.22 40.4629 303.469L41.9845 300.137C42.8844 300.774 43.8772 301.269 44.9278 301.603C46.0487 301.977 47.2226 302.169 48.4043 302.17C49.1288 302.187 49.8518 302.094 50.5479 301.892C51.0084 301.757 51.4257 301.504 51.7585 301.159C52.0207 300.849 52.1592 300.454 52.1473 300.048C52.1551 299.808 52.1034 299.57 51.9968 299.355C51.8902 299.14 51.732 298.954 51.5364 298.815C51.0246 298.448 50.4481 298.18 49.8371 298.027C49.1595 297.827 48.4265 297.638 47.6157 297.471C46.8049 297.305 46.0163 297.083 45.2166 296.827C44.4367 296.59 43.6903 296.254 42.9952 295.828C42.3293 295.423 41.7755 294.858 41.3848 294.184C40.9596 293.409 40.7524 292.534 40.785 291.651C40.7792 290.572 41.0879 289.515 41.6735 288.608C42.3406 287.619 43.2827 286.847 44.3836 286.387C45.8313 285.798 47.3868 285.522 48.9485 285.576C50.1692 285.574 51.3854 285.723 52.5693 286.02C53.6726 286.272 54.727 286.704 55.6904 287.297L54.2798 290.729C53.4338 290.24 52.5261 289.867 51.5808 289.619C50.7134 289.373 49.8167 289.246 48.9152 289.241C48.1933 289.22 47.4729 289.317 46.7827 289.53C46.3224 289.674 45.9135 289.948 45.6054 290.319C45.3582 290.636 45.2251 291.027 45.2277 291.429C45.2211 291.672 45.2731 291.913 45.3795 292.132C45.4858 292.35 45.6433 292.54 45.8386 292.684C46.323 293.03 46.87 293.279 47.4491 293.417C48.1155 293.595 48.8597 293.773 49.6705 293.939C50.4813 294.106 51.2921 294.339 52.0806 294.595C52.8553 294.841 53.6002 295.173 54.302 295.583C55.0131 296.002 55.596 296.607 55.9876 297.334C56.3792 298.06 56.5645 298.88 56.5234 299.704C56.5331 300.771 56.2195 301.817 55.6237 302.703C54.9446 303.69 53.9962 304.461 52.8914 304.924C51.4533 305.504 49.9096 305.776 48.3598 305.724Z" fill="#5784BA"/>
<path d="M61.5108 288.364C60.7915 288.395 60.0878 288.148 59.5449 287.675C59.3008 287.461 59.1067 287.196 58.9762 286.898C58.8457 286.601 58.782 286.278 58.7897 285.954C58.782 285.629 58.8457 285.306 58.9762 285.009C59.1067 284.712 59.3008 284.446 59.5449 284.232C60.0837 283.751 60.7893 283.5 61.5108 283.532C62.2241 283.504 62.9231 283.737 63.4768 284.188C63.7217 284.392 63.917 284.648 64.0479 284.939C64.1787 285.23 64.2417 285.546 64.232 285.865C64.242 286.2 64.1809 286.534 64.0526 286.844C63.9244 287.154 63.7319 287.434 63.4879 287.664C62.9457 288.147 62.236 288.398 61.5108 288.364ZM59.345 305.391V290.452H63.6767V305.391H59.345Z" fill="#5784BA"/>
<path d="M86.8335 290.252C87.9258 290.229 89.0075 290.469 89.9878 290.952C90.9119 291.434 91.6644 292.191 92.1425 293.117C92.7043 294.283 92.9713 295.568 92.92 296.86V305.413H88.5884V297.527C88.6668 296.579 88.4071 295.635 87.8553 294.861C87.5972 294.569 87.2762 294.339 86.9164 294.189C86.5566 294.039 86.1675 293.973 85.7783 293.995C85.1762 293.984 84.5819 294.133 84.0568 294.428C83.5636 294.729 83.1756 295.175 82.9461 295.705C82.6479 296.407 82.5076 297.165 82.5351 297.927V305.424H78.2035V297.538C78.2819 296.591 78.0222 295.646 77.4704 294.872C77.205 294.577 76.8763 294.346 76.5089 294.196C76.1416 294.046 75.7451 293.981 75.349 294.006C74.7541 293.996 74.1673 294.146 73.6497 294.439C73.1606 294.745 72.7739 295.19 72.539 295.716C72.2354 296.416 72.0949 297.176 72.1281 297.938V305.435H67.7964V290.452H71.9281V294.506L71.1507 293.339C71.6261 292.35 72.4041 291.537 73.372 291.018C74.3331 290.509 75.4054 290.246 76.493 290.252C77.7748 290.222 79.0347 290.587 80.1027 291.296C80.6371 291.664 81.0935 292.135 81.4461 292.68C81.7986 293.225 82.0404 293.834 82.1575 294.472L80.6359 294.05C81.1324 292.91 81.9656 291.949 83.0238 291.296C84.164 290.582 85.4887 290.219 86.8335 290.252Z" fill="#5784BA"/>
<path d="M103.15 305.613C101.998 305.633 100.858 305.386 99.8181 304.891C98.8653 304.398 98.0891 303.622 97.5967 302.669C97.0253 301.495 96.7508 300.198 96.797 298.893V290.452H101.129V298.227C101.048 299.214 101.328 300.196 101.917 300.992C102.204 301.286 102.551 301.516 102.934 301.665C103.317 301.815 103.728 301.881 104.139 301.859C104.76 301.872 105.374 301.719 105.916 301.414C106.455 301.105 106.889 300.641 107.16 300.081C107.484 299.387 107.64 298.626 107.615 297.86V290.452H111.913V305.39H107.804V301.248L108.559 302.469C108.084 303.465 107.307 304.286 106.338 304.813C105.362 305.351 104.264 305.626 103.15 305.613Z" fill="#5784BA"/>
<path d="M115.913 305.391V284.787H120.244V305.391H115.913Z" fill="#5784BA"/>
<path d="M126.475 288.364C125.755 288.395 125.052 288.148 124.509 287.675C124.265 287.461 124.071 287.196 123.94 286.898C123.81 286.601 123.746 286.278 123.754 285.954C123.746 285.629 123.81 285.307 123.94 285.009C124.071 284.712 124.265 284.446 124.509 284.232C125.056 283.771 125.761 283.54 126.475 283.588C127.188 283.56 127.887 283.793 128.441 284.243C128.686 284.447 128.881 284.704 129.012 284.995C129.143 285.285 129.206 285.602 129.196 285.92C129.206 286.256 129.145 286.59 129.017 286.9C128.888 287.21 128.696 287.489 128.452 287.72C127.901 288.182 127.192 288.413 126.475 288.364ZM124.253 305.391V290.452H128.585V305.391H124.253Z" fill="#5784BA"/>
<path d="M130.851 294.117V290.785H141.203V294.117H130.851ZM133.139 305.39V290.118C133.1 289.376 133.213 288.634 133.471 287.937C133.729 287.24 134.126 286.603 134.639 286.064C135.214 285.54 135.889 285.137 136.624 284.88C137.359 284.622 138.138 284.515 138.915 284.565C139.523 284.566 140.13 284.629 140.725 284.754C141.256 284.86 141.763 285.06 142.224 285.343L141.114 288.508C140.871 288.335 140.6 288.203 140.314 288.119C140.009 288.02 139.69 287.971 139.37 287.975C139.104 287.956 138.836 287.994 138.586 288.086C138.335 288.178 138.106 288.322 137.915 288.508C137.528 288.972 137.34 289.571 137.393 290.174V291.562L137.537 293.395V305.39H133.139Z" fill="#5784BA"/>
<path d="M145.533 310.999C144.779 310.991 144.03 310.867 143.312 310.633C142.62 310.435 141.977 310.094 141.424 309.633L143.012 306.523C143.33 306.836 143.708 307.081 144.123 307.245C144.54 307.411 144.984 307.498 145.433 307.501C145.947 307.526 146.453 307.373 146.866 307.068C147.303 306.674 147.642 306.183 147.855 305.635L148.632 303.802L148.965 303.336L154.352 290.452H158.484L151.742 306.301C151.369 307.345 150.808 308.313 150.087 309.156C149.525 309.786 148.82 310.273 148.032 310.577C147.232 310.867 146.385 311.01 145.533 310.999ZM148.088 305.968L141.424 290.418H145.867L151.053 302.936L148.088 305.968Z" fill="#5784BA"/>
<path d="M94.7765 9.89331H91.1445" stroke="url(#paint0_linear_447_11645)" stroke-width="10" stroke-miterlimit="10"/>
<path d="M215.207 209.55C215.271 211.075 215.028 212.597 214.493 214.027C213.958 215.456 213.142 216.764 212.093 217.873C211.044 218.982 209.783 219.869 208.385 220.482C206.988 221.095 205.481 221.422 203.955 221.442C202.429 221.463 200.914 221.178 199.5 220.603C198.086 220.028 196.801 219.176 195.722 218.096C194.644 217.016 193.792 215.731 193.219 214.317C192.645 212.902 192.361 211.387 192.383 209.861L190.672 91.7064L170.891 128.359L169.003 131.846L168.536 132.691L166.626 136.256C166.47 136.445 166.326 136.622 166.159 136.8C166.072 136.908 165.975 137.008 165.871 137.1C165.726 137.263 165.57 137.415 165.404 137.555C165.211 137.741 165.007 137.915 164.793 138.077H164.738C164.538 138.233 164.327 138.388 164.105 138.533C163.883 138.677 163.694 138.81 163.472 138.944L163.338 139.01L163.016 139.199L162.672 139.366C162.16 139.604 161.633 139.808 161.095 139.977C160.827 140.07 160.552 140.145 160.273 140.199C159.995 140.265 159.718 140.321 159.429 140.365H159.084L158.651 140.421H158.163H157.729C156.119 140.385 154.535 140.009 153.08 139.318C151.626 138.627 150.333 137.637 149.288 136.411L147.267 132.902L146.823 132.102L144.834 128.67L134.616 110.966L123.998 92.5727L124.409 120.584L124.52 128.603V128.703C120.911 126.553 117.055 124.848 113.036 123.627C109.332 122.502 105.513 121.801 101.651 121.539L101.251 94.1499L100.64 52.0439V49.0673C100.626 46.5809 101.424 44.1577 102.913 42.1667C104.402 40.1757 106.502 38.7259 108.891 38.038C111.281 37.3501 113.829 37.4618 116.149 38.3561C118.469 39.2504 120.434 40.8782 121.743 42.9919L122.054 43.525L123.365 45.7464L147.8 88.0078L157.641 104.99L190.139 44.7468L191.405 42.4143L191.639 41.9589C192.868 39.7719 194.783 38.0507 197.089 37.0612C199.394 36.0718 201.961 35.8692 204.393 36.4848C206.826 37.1004 208.987 38.5 210.544 40.4671C212.101 42.4342 212.967 44.8595 213.008 47.368V50.3446L215.207 209.55Z" fill="#00A6FB"/>
<path d="M10.9189 31.885L27.6791 48.6563" stroke="#5784BA" stroke-width="6" stroke-miterlimit="10"/>
<path d="M8.3646 34.695C11.3274 34.695 13.7292 32.2932 13.7292 29.3304C13.7292 26.3676 11.3274 23.9658 8.3646 23.9658C5.40181 23.9658 3 26.3676 3 29.3304C3 32.2932 5.40181 34.695 8.3646 34.695Z" stroke="#5784BA" stroke-width="6" stroke-miterlimit="10"/>
<path d="M149.51 197.177C148.999 239.383 102.728 265.228 65.0976 249.001L60.8881 264.551C85.1455 264.551 109.98 266.617 130.861 251.689C159.939 230.919 169.346 189.813 148.043 159.891C134.615 141.009 113.246 130.347 90.188 129.903L98.5181 138.233C98.4865 136.033 97.5987 133.933 96.0433 132.377C94.4879 130.822 92.3874 129.934 90.188 129.903C61.7656 129.514 35.3202 110.11 30.8997 81.1548C27.0346 55.7757 42.3287 31.3629 65.4753 21.3334C73.2791 18.0269 81.6681 16.323 90.1435 16.323C98.619 16.323 107.008 18.0269 114.812 21.3334L119.01 5.78387C109.692 5.78387 100.362 5.78387 91.0432 5.78387C74.3302 5.69808 58.0873 11.3122 44.9943 21.6999C15.9388 44.9243 12.3291 87.8078 36.1088 116.019C49.437 131.802 69.6737 140.243 90.1324 140.454L81.8023 132.124C81.8394 134.322 82.729 136.419 84.2832 137.973C85.8374 139.527 87.9347 140.417 90.1324 140.454C121.631 141.065 148.999 164.889 149.476 197.232C149.609 207.939 166.27 207.972 166.136 197.232C165.592 155.782 130.728 124.582 90.1324 123.794L98.4625 132.124C98.431 129.925 97.5432 127.824 95.9878 126.269C94.4324 124.713 92.3319 123.825 90.1324 123.794C60.5216 123.438 34.7871 99.8587 36.8197 69.3704C38.6967 41.1702 64.6756 22.5441 91.443 22.4663C100.617 22.4663 109.792 22.4663 118.966 22.4663C126.629 22.4663 131.105 10.3488 123.175 6.91677C89.2661 -7.76645 49.3148 1.16343 27.1901 31.4628C6.89788 59.2299 10.3854 98.226 33.9319 122.861C48.5818 138.188 69.1183 146.241 90.1657 146.53L81.8356 138.199C81.8728 140.397 82.7623 142.494 84.3165 144.049C85.8708 145.603 87.9681 146.492 90.1657 146.53C121.32 147.185 149.032 174.63 142.168 206.884C136.614 232.752 112.946 247.868 87.5223 247.902C78.6369 247.902 69.7514 247.902 60.8659 247.902C53.2022 247.902 48.7373 260.008 56.6676 263.451C81.6246 274.202 110.947 272.947 133.671 257.309C143.529 250.657 151.634 241.721 157.296 231.263C162.958 220.805 166.01 209.134 166.192 197.243C166.292 186.447 149.632 186.447 149.51 197.177Z" fill="#00A6FB"/>
<path d="M32.2881 182.405L14.2397 165.134" stroke="#5784BA" stroke-width="6" stroke-miterlimit="10"/>
<path d="M80.2361 211.36L63.4648 194.589" stroke="#5784BA" stroke-width="6" stroke-miterlimit="10"/>
<path d="M9.96324 165.711C12.926 165.711 15.3278 163.309 15.3278 160.347C15.3278 157.384 12.926 154.982 9.96324 154.982C7.00045 154.982 4.59863 157.384 4.59863 160.347C4.59863 163.309 7.00045 165.711 9.96324 165.711Z" stroke="#5784BA" stroke-width="6" stroke-miterlimit="10"/>
<path d="M84.7582 218.324C87.7209 218.324 90.1228 215.922 90.1228 212.959C90.1228 209.997 87.7209 207.595 84.7582 207.595C81.7954 207.595 79.3936 209.997 79.3936 212.959C79.3936 215.922 81.7954 218.324 84.7582 218.324Z" stroke="#5784BA" stroke-width="6" stroke-miterlimit="10"/>
<path d="M56.979 198.509L73.7503 181.738" stroke="#5784BA" stroke-width="6" stroke-miterlimit="10"/>
<path d="M52.7923 206.451C55.7551 206.451 58.1569 204.049 58.1569 201.086C58.1569 198.124 55.7551 195.722 52.7923 195.722C49.8295 195.722 47.4277 198.124 47.4277 201.086C47.4277 204.049 49.8295 206.451 52.7923 206.451Z" stroke="#5784BA" stroke-width="6" stroke-miterlimit="10"/>
<path d="M103.605 181.327L29.9004 181.427" stroke="#5784BA" stroke-width="6" stroke-miterlimit="10"/>
<path d="M108.936 186.681C111.899 186.681 114.3 184.279 114.3 181.316C114.3 178.353 111.899 175.951 108.936 175.951C105.973 175.951 103.571 178.353 103.571 181.316C103.571 184.279 105.973 186.681 108.936 186.681Z" stroke="#5784BA" stroke-width="6" stroke-miterlimit="10"/>
<defs>
<linearGradient id="paint0_linear_447_11645" x1="-nan" y1="-nan" x2="-nan" y2="-nan" gradientUnits="userSpaceOnUse">
<stop stop-color="#03045E"/>
<stop offset="1" stop-color="#EA698B"/>
</linearGradient>
</defs>
</svg>
