<svg xmlns="http://www.w3.org/2000/svg" width="203" height="190" viewBox="0 0 203 190" fill="none">
<path d="M197.282 74.5675H182.437C181.257 74.569 180.106 74.2272 179.143 73.5894C178.179 72.9515 177.452 72.0492 177.061 71.0073C175.925 67.9539 174.581 64.9717 173.038 62.0788C172.504 61.0783 172.322 59.9457 172.516 58.8423C172.71 57.7389 173.27 56.7208 174.118 55.9329L184.669 46.0581C185.741 45.054 186.343 43.6926 186.343 42.2731C186.343 40.8537 185.741 39.4923 184.669 38.4881L161.875 17.1646C160.803 16.1614 159.348 15.5978 157.831 15.5978C156.315 15.5978 154.86 16.1614 153.787 17.1646L143.048 27.2165C142.212 28.0021 141.134 28.5237 139.966 28.7085C138.798 28.8933 137.597 28.7319 136.531 28.247C133.5 26.8609 130.377 25.6562 127.183 24.64C126.057 24.2809 125.079 23.6007 124.388 22.6949C123.697 21.7892 123.326 20.7034 123.328 19.5902V5.3496C123.328 4.64709 123.18 3.9514 122.893 3.30231C122.606 2.65322 122.185 2.06343 121.654 1.56664C121.124 1.06985 120.494 0.675782 119.8 0.406971C119.107 0.13816 118.363 -0.000122379 117.613 7.38939e-07H85.3884C84.6376 -0.000368611 83.894 0.137727 83.2003 0.406428C82.5066 0.675128 81.8763 1.06916 81.3454 1.56598C80.8144 2.0628 80.3933 2.65266 80.1061 3.30188C79.8189 3.9511 79.6712 4.64693 79.6714 5.3496V19.5902C79.6738 20.7033 79.3033 21.789 78.6122 22.6948C77.9211 23.6005 76.9441 24.2808 75.8185 24.64C72.6231 25.6558 69.4999 26.8606 66.4678 28.247C65.4022 28.7319 64.2013 28.8933 63.033 28.7085C61.8647 28.5237 60.7873 28.0021 59.951 27.2165L49.2099 17.1637C48.137 16.1605 46.6824 15.5969 45.1657 15.5969C43.6491 15.5969 42.1945 16.1605 41.1216 17.1637L18.329 38.4872C17.2565 39.4911 16.6541 40.8526 16.6541 42.2722C16.6541 43.6918 17.2565 45.0533 18.329 46.0572L28.8789 55.9319C29.7265 56.7199 30.2873 57.7379 30.4816 58.8412C30.6759 59.9445 30.4937 61.077 29.961 62.0779C28.4163 64.9689 27.0754 67.9515 25.9469 71.0064C25.5524 72.0482 24.8226 72.9499 23.8579 73.5875C22.8933 74.225 21.7412 74.5671 20.5603 74.5666H5.71496C4.96434 74.5664 4.22106 74.7047 3.52757 74.9735C2.83408 75.2423 2.20396 75.6364 1.67324 76.1332C1.14252 76.63 0.721566 77.2198 0.434471 77.8689C0.147375 78.518 -0.000262665 79.2137 3.50802e-07 79.9162V110.084C-0.000262665 110.786 0.147375 111.482 0.434471 112.131C0.721566 112.78 1.14252 113.37 1.67324 113.867C2.20396 114.364 2.83408 114.758 3.52757 115.026C4.22106 115.295 4.96434 115.434 5.71496 115.433H20.1699C21.3724 115.432 22.5445 115.787 23.5188 116.447C24.4932 117.106 25.22 118.037 25.5955 119.106C26.7113 122.242 28.0459 125.306 29.5906 128.278C30.1146 129.279 30.292 130.408 30.0981 131.508C29.9041 132.608 29.3485 133.624 28.5085 134.415L18.329 143.943C17.7978 144.439 17.3764 145.028 17.0888 145.677C16.8013 146.325 16.6533 147.021 16.6533 147.723C16.6533 148.425 16.8013 149.121 17.0888 149.769C17.3764 150.418 17.7978 151.007 18.329 151.503L41.1216 172.836C42.1945 173.84 43.6491 174.403 45.1657 174.403C46.6824 174.403 48.137 173.84 49.2099 172.836L59.1912 163.496C60.0417 162.702 61.1376 162.179 62.3234 162.001C63.5092 161.822 64.7248 161.998 65.7981 162.502C69.0265 164.012 72.3609 165.314 75.7784 166.4C76.9116 166.758 77.8965 167.44 78.5948 168.349C79.2932 169.258 79.67 170.349 79.6724 171.468V184.641C79.6711 185.344 79.818 186.041 80.1048 186.691C80.3915 187.341 80.8124 187.932 81.3434 188.43C81.8744 188.928 82.5051 189.323 83.1993 189.592C83.8936 189.861 84.6378 190 85.3893 190H117.613C118.364 190 119.108 189.861 119.802 189.592C120.496 189.322 121.127 188.927 121.657 188.429C122.188 187.932 122.609 187.341 122.895 186.691C123.182 186.041 123.329 185.344 123.328 184.641V171.468C123.33 170.349 123.707 169.258 124.405 168.349C125.104 167.44 126.088 166.758 127.222 166.4C130.639 165.314 133.974 164.012 137.202 162.502C138.275 161.998 139.491 161.823 140.677 162.001C141.862 162.179 142.958 162.702 143.809 163.496L153.789 172.836C154.862 173.84 156.317 174.403 157.833 174.403C159.35 174.403 160.805 173.84 161.877 172.836L184.671 151.503C185.202 151.007 185.624 150.418 185.911 149.769C186.199 149.121 186.347 148.425 186.347 147.723C186.347 147.021 186.199 146.325 185.911 145.677C185.624 145.028 185.202 144.439 184.671 143.943L174.49 134.415C173.651 133.624 173.095 132.608 172.901 131.508C172.708 130.408 172.885 129.279 173.409 128.278C174.954 125.306 176.288 122.242 177.404 119.106C177.779 118.037 178.506 117.106 179.48 116.447C180.455 115.787 181.627 115.432 182.829 115.433H197.284C198.035 115.434 198.778 115.296 199.472 115.027C200.166 114.758 200.796 114.364 201.327 113.867C201.858 113.371 202.279 112.781 202.566 112.131C202.853 111.482 203 110.786 203 110.084V79.9162C203 79.2135 202.853 78.5176 202.565 77.8684C202.278 77.2191 201.857 76.6293 201.326 76.1325C200.795 75.6358 200.164 75.2418 199.47 74.9733C198.776 74.7048 198.033 74.5669 197.282 74.5675ZM101.503 139.578C92.0814 139.579 82.8711 136.965 75.037 132.066C67.2028 127.168 61.0966 120.205 57.4906 112.059C53.8847 103.913 52.9409 94.9484 54.7788 86.3C56.6166 77.6515 61.1534 69.7074 67.8155 63.4723C74.4776 57.2372 82.9657 52.9911 92.2063 51.271C101.447 49.551 111.025 50.4342 119.729 53.8091C128.433 57.184 135.873 62.8988 141.107 70.231C146.34 77.5631 149.133 86.1831 149.132 95.0009C149.131 106.823 144.113 118.16 135.181 126.52C126.25 134.879 114.136 139.576 101.505 139.578H101.503Z" fill="#99DBFD"/>
</svg>