<svg width="36" height="36" viewBox="0 0 36 36" fill="none" xmlns="http://www.w3.org/2000/svg">
<path fill-rule="evenodd" clip-rule="evenodd" d="M6.375 7.5C6.375 5.22183 8.22182 3.375 10.5 3.375H22.4803C23.3259 3.375 24.1197 3.78236 24.6128 4.46932L29.1325 10.7662C29.4528 11.2123 29.625 11.7477 29.625 12.2968V28.5C29.625 30.7782 27.7782 32.625 25.5 32.625H10.5C8.22182 32.625 6.375 30.7782 6.375 28.5V7.5ZM10.5 5.625C9.46447 5.625 8.625 6.46447 8.625 7.5V28.5C8.625 29.5355 9.46447 30.375 10.5 30.375H25.5C26.5355 30.375 27.375 29.5355 27.375 28.5V13.3456H22.5C21.8787 13.3456 21.375 12.8419 21.375 12.2206V5.625H10.5Z" fill="#00A6FB"/>
</svg>
