<svg width="1088" height="194" viewBox="0 0 1088 194" fill="none" xmlns="http://www.w3.org/2000/svg">
<rect x="68.5" y="62.5" width="67" height="67" fill="#FFFFFF" stroke="#023047"/>
<rect x="0.5" y="62.5" width="67" height="67" fill="#FFFFFF" stroke="#023047"/>
<rect x="136.5" y="62.5" width="67" height="67" fill="#FFFFFF" stroke="#023047"/>
<rect x="204.5" y="62.5" width="67" height="67" fill="#FFFFFF" stroke="#023047"/>
<rect x="272.5" y="62.5" width="67" height="67" fill="#FFFFFF" stroke="#023047"/>
<rect x="340.5" y="62.5" width="67" height="67" fill="#FFFFFF" stroke="#023047"/>
<rect x="408.5" y="62.5" width="67" height="67" fill="#FFFFFF" stroke="#023047"/>
<rect x="476.5" y="62.5" width="67" height="67" fill="#FFFFFF" stroke="#023047"/>
<rect x="544.5" y="62.5" width="67" height="67" fill="#FFFFFF" stroke="#023047"/>
<rect x="612.5" y="62.5" width="67" height="67" fill="#FFFFFF" stroke="#023047"/>
<rect x="680.5" y="62.5" width="67" height="67" fill="#FFFFFF" stroke="#023047"/>
<rect x="748.5" y="62.5" width="67" height="67" fill="#FFFFFF" stroke="#023047"/>
<rect x="816.5" y="62.5" width="67" height="67" fill="#FFFFFF" stroke="#023047"/>
<rect x="884.5" y="62.5" width="67" height="67" fill="#FFFFFF" stroke="#023047"/>
<rect x="952.5" y="62.5" width="67" height="67" fill="#FFFFFF" stroke="#023047"/>
<rect x="1020.5" y="62.5" width="67" height="67" fill="#FFFFFF" stroke="#023047"/>
<rect x="0.5" y="0.5" width="407" height="61" fill="#FFFFFF" stroke="#023047"/>
<rect x="408.5" y="0.5" width="203" height="61" fill="#FFFFFF" stroke="#023047"/>
<rect x="612.5" y="0.5" width="203" height="61" fill="#FFFFFF" stroke="#023047"/>
<rect x="816.5" y="0.5" width="271" height="61" fill="#FFFFFF" stroke="#023047"/>
<path d="M185.704 38.224C184.211 38.224 182.829 37.9813 181.56 37.496C180.309 36.992 179.217 36.292 178.284 35.396C177.369 34.4813 176.651 33.4173 176.128 32.204C175.605 30.9907 175.344 29.656 175.344 28.2C175.344 26.744 175.605 25.4093 176.128 24.196C176.651 22.9827 177.379 21.928 178.312 21.032C179.245 20.1173 180.337 19.4173 181.588 18.932C182.857 18.428 184.239 18.176 185.732 18.176C187.244 18.176 188.635 18.4373 189.904 18.96C191.192 19.464 192.284 20.22 193.18 21.228L191.36 22.992C190.613 22.208 189.773 21.6293 188.84 21.256C187.907 20.864 186.908 20.668 185.844 20.668C184.743 20.668 183.716 20.8547 182.764 21.228C181.831 21.6013 181.019 22.124 180.328 22.796C179.637 23.468 179.096 24.2707 178.704 25.204C178.331 26.1187 178.144 27.1173 178.144 28.2C178.144 29.2827 178.331 30.2907 178.704 31.224C179.096 32.1387 179.637 32.932 180.328 33.604C181.019 34.276 181.831 34.7987 182.764 35.172C183.716 35.5453 184.743 35.732 185.844 35.732C186.908 35.732 187.907 35.5453 188.84 35.172C189.773 34.78 190.613 34.1827 191.36 33.38L193.18 35.144C192.284 36.152 191.192 36.9173 189.904 37.44C188.635 37.9627 187.235 38.224 185.704 38.224ZM205.612 38.224C204.119 38.224 202.728 37.972 201.44 37.468C200.171 36.964 199.07 36.264 198.136 35.368C197.203 34.4533 196.475 33.3893 195.952 32.176C195.43 30.9627 195.168 29.6373 195.168 28.2C195.168 26.7627 195.43 25.4373 195.952 24.224C196.475 23.0107 197.203 21.956 198.136 21.06C199.07 20.1453 200.171 19.436 201.44 18.932C202.71 18.428 204.1 18.176 205.612 18.176C207.106 18.176 208.478 18.428 209.728 18.932C210.998 19.4173 212.099 20.1173 213.032 21.032C213.984 21.928 214.712 22.9827 215.216 24.196C215.739 25.4093 216 26.744 216 28.2C216 29.656 215.739 30.9907 215.216 32.204C214.712 33.4173 213.984 34.4813 213.032 35.396C212.099 36.292 210.998 36.992 209.728 37.496C208.478 37.9813 207.106 38.224 205.612 38.224ZM205.612 35.732C206.695 35.732 207.694 35.5453 208.608 35.172C209.542 34.7987 210.344 34.276 211.016 33.604C211.707 32.9133 212.239 32.1107 212.612 31.196C213.004 30.2813 213.2 29.2827 213.2 28.2C213.2 27.1173 213.004 26.1187 212.612 25.204C212.239 24.2893 211.707 23.496 211.016 22.824C210.344 22.1333 209.542 21.6013 208.608 21.228C207.694 20.8547 206.695 20.668 205.612 20.668C204.511 20.668 203.494 20.8547 202.56 21.228C201.646 21.6013 200.843 22.1333 200.152 22.824C199.462 23.496 198.92 24.2893 198.528 25.204C198.155 26.1187 197.968 27.1173 197.968 28.2C197.968 29.2827 198.155 30.2813 198.528 31.196C198.92 32.1107 199.462 32.9133 200.152 33.604C200.843 34.276 201.646 34.7987 202.56 35.172C203.494 35.5453 204.511 35.732 205.612 35.732ZM220.28 38V18.4H227.924C229.641 18.4 231.107 18.6707 232.32 19.212C233.533 19.7533 234.467 20.5373 235.12 21.564C235.773 22.5907 236.1 23.8133 236.1 25.232C236.1 26.6507 235.773 27.8733 235.12 28.9C234.467 29.908 233.533 30.692 232.32 31.252C231.107 31.7933 229.641 32.064 227.924 32.064H221.82L223.08 30.748V38H220.28ZM223.08 31.028L221.82 29.628H227.84C229.632 29.628 230.985 29.2453 231.9 28.48C232.833 27.7147 233.3 26.632 233.3 25.232C233.3 23.832 232.833 22.7493 231.9 21.984C230.985 21.2187 229.632 20.836 227.84 20.836H221.82L223.08 19.436V31.028Z" fill="#023047"/>
<path d="M473.94 38V18.4H476.236L485.028 33.212H483.796L492.476 18.4H494.772L494.8 38H492.112L492.084 22.628H492.728L485 35.62H483.712L475.928 22.628H476.628V38H473.94ZM509.53 38.224C508.037 38.224 506.646 37.972 505.358 37.468C504.089 36.964 502.988 36.264 502.054 35.368C501.121 34.4533 500.393 33.3893 499.87 32.176C499.348 30.9627 499.086 29.6373 499.086 28.2C499.086 26.7627 499.348 25.4373 499.87 24.224C500.393 23.0107 501.121 21.956 502.054 21.06C502.988 20.1453 504.089 19.436 505.358 18.932C506.628 18.428 508.018 18.176 509.53 18.176C511.024 18.176 512.396 18.428 513.646 18.932C514.916 19.4173 516.017 20.1173 516.95 21.032C517.902 21.928 518.63 22.9827 519.134 24.196C519.657 25.4093 519.918 26.744 519.918 28.2C519.918 29.656 519.657 30.9907 519.134 32.204C518.63 33.4173 517.902 34.4813 516.95 35.396C516.017 36.292 514.916 36.992 513.646 37.496C512.396 37.9813 511.024 38.224 509.53 38.224ZM509.53 35.732C510.613 35.732 511.612 35.5453 512.526 35.172C513.46 34.7987 514.262 34.276 514.934 33.604C515.625 32.9133 516.157 32.1107 516.53 31.196C516.922 30.2813 517.118 29.2827 517.118 28.2C517.118 27.1173 516.922 26.1187 516.53 25.204C516.157 24.2893 515.625 23.496 514.934 22.824C514.262 22.1333 513.46 21.6013 512.526 21.228C511.612 20.8547 510.613 20.668 509.53 20.668C508.429 20.668 507.412 20.8547 506.478 21.228C505.564 21.6013 504.761 22.1333 504.07 22.824C503.38 23.496 502.838 24.2893 502.446 25.204C502.073 26.1187 501.886 27.1173 501.886 28.2C501.886 29.2827 502.073 30.2813 502.446 31.196C502.838 32.1107 503.38 32.9133 504.07 33.604C504.761 34.276 505.564 34.7987 506.478 35.172C507.412 35.5453 508.429 35.732 509.53 35.732ZM524.198 38V18.4H532.458C534.548 18.4 536.387 18.8107 537.974 19.632C539.579 20.4533 540.82 21.6013 541.698 23.076C542.594 24.5507 543.042 26.2587 543.042 28.2C543.042 30.1413 542.594 31.8493 541.698 33.324C540.82 34.7987 539.579 35.9467 537.974 36.768C536.387 37.5893 534.548 38 532.458 38H524.198ZM526.998 35.564H532.29C533.914 35.564 535.314 35.256 536.49 34.64C537.684 34.024 538.608 33.1653 539.262 32.064C539.915 30.944 540.242 29.656 540.242 28.2C540.242 26.7253 539.915 25.4373 539.262 24.336C538.608 23.2347 537.684 22.376 536.49 21.76C535.314 21.144 533.914 20.836 532.29 20.836H526.998V35.564Z" fill="#023047"/>
<path d="M705.94 39V19.4H713.584C715.301 19.4 716.767 19.6707 717.98 20.212C719.193 20.7533 720.127 21.5373 720.78 22.564C721.433 23.5907 721.76 24.8133 721.76 26.232C721.76 27.6507 721.433 28.8733 720.78 29.9C720.127 30.908 719.193 31.6827 717.98 32.224C716.767 32.7653 715.301 33.036 713.584 33.036H707.48L708.74 31.748V39H705.94ZM719.044 39L714.06 31.888H717.056L722.096 39H719.044ZM708.74 32.028L707.48 30.656H713.5C715.292 30.656 716.645 30.2733 717.56 29.508C718.493 28.724 718.96 27.632 718.96 26.232C718.96 24.832 718.493 23.7493 717.56 22.984C716.645 22.2187 715.292 21.836 713.5 21.836H707.48L708.74 20.436V32.028Z" fill="#023047"/>
<path d="M951.704 38.224C950.211 38.224 948.829 37.9813 947.56 37.496C946.309 36.992 945.217 36.292 944.284 35.396C943.369 34.4813 942.651 33.4173 942.128 32.204C941.605 30.9907 941.344 29.656 941.344 28.2C941.344 26.744 941.605 25.4093 942.128 24.196C942.651 22.9827 943.379 21.928 944.312 21.032C945.245 20.1173 946.337 19.4173 947.588 18.932C948.857 18.428 950.239 18.176 951.732 18.176C953.244 18.176 954.635 18.4373 955.904 18.96C957.192 19.464 958.284 20.22 959.18 21.228L957.36 22.992C956.613 22.208 955.773 21.6293 954.84 21.256C953.907 20.864 952.908 20.668 951.844 20.668C950.743 20.668 949.716 20.8547 948.764 21.228C947.831 21.6013 947.019 22.124 946.328 22.796C945.637 23.468 945.096 24.2707 944.704 25.204C944.331 26.1187 944.144 27.1173 944.144 28.2C944.144 29.2827 944.331 30.2907 944.704 31.224C945.096 32.1387 945.637 32.932 946.328 33.604C947.019 34.276 947.831 34.7987 948.764 35.172C949.716 35.5453 950.743 35.732 951.844 35.732C952.908 35.732 953.907 35.5453 954.84 35.172C955.773 34.78 956.613 34.1827 957.36 33.38L959.18 35.144C958.284 36.152 957.192 36.9173 955.904 37.44C954.635 37.9627 953.235 38.224 951.704 38.224Z" fill="#023047"/>
<path d="M22.6871 168V149.52L23.8911 150.836H18.2631V148.4H25.4591V168H22.6871ZM36.0743 168.224C34.693 168.224 33.349 168.009 32.0423 167.58C30.7543 167.151 29.6997 166.572 28.8783 165.844L30.1663 163.632C30.8197 164.248 31.669 164.752 32.7143 165.144C33.7597 165.536 34.8703 165.732 36.0463 165.732C37.5397 165.732 38.6877 165.415 39.4903 164.78C40.293 164.145 40.6943 163.296 40.6943 162.232C40.6943 161.504 40.517 160.869 40.1623 160.328C39.8077 159.787 39.1917 159.376 38.3143 159.096C37.4557 158.797 36.2703 158.648 34.7583 158.648H30.3063L31.3423 148.4H42.4023V150.836H32.3783L33.8343 149.464L33.0223 157.556L31.5663 156.212H35.3463C37.3063 156.212 38.8837 156.464 40.0783 156.968C41.273 157.472 42.141 158.172 42.6823 159.068C43.2237 159.945 43.4943 160.963 43.4943 162.12C43.4943 163.24 43.2237 164.267 42.6823 165.2C42.141 166.115 41.3197 166.852 40.2183 167.412C39.1357 167.953 37.7543 168.224 36.0743 168.224ZM86.7261 168V149.52L87.9301 150.836H82.3021V148.4H89.4981V168H86.7261ZM93.5054 163.184V161.224L103.529 148.4H106.553L96.6134 161.224L95.1854 160.776H110.837V163.184H93.5054ZM104.397 168V163.184L104.481 160.776V156.52H107.113V168H104.397ZM160.937 168V149.52L162.141 150.836H156.513V148.4H163.709V168H160.937ZM173.988 168.224C172.607 168.224 171.263 168.009 169.956 167.58C168.668 167.151 167.614 166.572 166.792 165.844L168.08 163.632C168.734 164.248 169.583 164.752 170.628 165.144C171.674 165.536 172.794 165.732 173.988 165.732C175.444 165.732 176.574 165.424 177.376 164.808C178.198 164.173 178.608 163.324 178.608 162.26C178.608 161.233 178.216 160.412 177.432 159.796C176.667 159.161 175.444 158.844 173.764 158.844H172.196V156.884L178.02 149.716L178.412 150.836H167.688V148.4H180.624V150.304L174.828 157.444L173.372 156.576H174.296C176.667 156.576 178.44 157.108 179.616 158.172C180.811 159.236 181.408 160.589 181.408 162.232C181.408 163.333 181.138 164.341 180.596 165.256C180.055 166.171 179.234 166.899 178.132 167.44C177.05 167.963 175.668 168.224 173.988 168.224ZM224.921 168V149.52L226.125 150.836H220.497V148.4H227.693V168H224.921ZM231.673 168V166.096L239.653 158.396C240.362 157.724 240.885 157.136 241.221 156.632C241.575 156.109 241.809 155.633 241.921 155.204C242.051 154.756 242.117 154.327 242.117 153.916C242.117 152.908 241.762 152.115 241.053 151.536C240.343 150.957 239.307 150.668 237.945 150.668C236.899 150.668 235.957 150.845 235.117 151.2C234.277 151.536 233.549 152.068 232.933 152.796L231.029 151.144C231.775 150.192 232.774 149.464 234.025 148.96C235.294 148.437 236.685 148.176 238.197 148.176C239.559 148.176 240.745 148.4 241.753 148.848C242.761 149.277 243.535 149.903 244.077 150.724C244.637 151.545 244.917 152.516 244.917 153.636C244.917 154.271 244.833 154.896 244.665 155.512C244.497 156.128 244.179 156.781 243.713 157.472C243.246 158.163 242.574 158.937 241.697 159.796L234.585 166.656L233.913 165.564H245.757V168H231.673ZM296.48 168V149.52L297.684 150.836H292.056V148.4H299.252V168H296.48ZM306.843 168V149.52L308.047 150.836H302.419V148.4H309.615V168H306.843ZM362.324 168V149.52L363.528 150.836H357.9V148.4H365.096V168H362.324ZM377.391 168.224C375.86 168.224 374.488 167.832 373.275 167.048C372.08 166.264 371.128 165.125 370.419 163.632C369.728 162.139 369.383 160.328 369.383 158.2C369.383 156.072 369.728 154.261 370.419 152.768C371.128 151.275 372.08 150.136 373.275 149.352C374.488 148.568 375.86 148.176 377.391 148.176C378.903 148.176 380.266 148.568 381.479 149.352C382.692 150.136 383.644 151.275 384.335 152.768C385.026 154.261 385.371 156.072 385.371 158.2C385.371 160.328 385.026 162.139 384.335 163.632C383.644 165.125 382.692 166.264 381.479 167.048C380.266 167.832 378.903 168.224 377.391 168.224ZM377.391 165.732C378.418 165.732 379.314 165.452 380.079 164.892C380.863 164.332 381.47 163.492 381.899 162.372C382.347 161.252 382.571 159.861 382.571 158.2C382.571 156.539 382.347 155.148 381.899 154.028C381.47 152.908 380.863 152.068 380.079 151.508C379.314 150.948 378.418 150.668 377.391 150.668C376.364 150.668 375.459 150.948 374.675 151.508C373.891 152.068 373.275 152.908 372.827 154.028C372.398 155.148 372.183 156.539 372.183 158.2C372.183 159.861 372.398 161.252 372.827 162.372C373.275 163.492 373.891 164.332 374.675 164.892C375.459 165.452 376.364 165.732 377.391 165.732ZM447.052 148.176C448.825 148.176 450.318 148.559 451.532 149.324C452.764 150.089 453.697 151.2 454.332 152.656C454.966 154.093 455.284 155.857 455.284 157.948C455.284 160.169 454.892 162.045 454.108 163.576C453.324 165.107 452.241 166.264 450.86 167.048C449.478 167.832 447.864 168.224 446.016 168.224C445.101 168.224 444.214 168.131 443.356 167.944C442.516 167.757 441.778 167.468 441.144 167.076L442.208 164.892C442.73 165.228 443.309 165.471 443.944 165.62C444.597 165.751 445.278 165.816 445.988 165.816C447.966 165.816 449.544 165.2 450.72 163.968C451.896 162.717 452.484 160.869 452.484 158.424C452.484 158.032 452.465 157.565 452.428 157.024C452.39 156.483 452.306 155.951 452.176 155.428L453.1 156.38C452.838 157.239 452.4 157.967 451.784 158.564C451.186 159.143 450.458 159.581 449.6 159.88C448.76 160.16 447.836 160.3 446.828 160.3C445.54 160.3 444.392 160.057 443.384 159.572C442.376 159.087 441.582 158.405 441.004 157.528C440.425 156.632 440.136 155.577 440.136 154.364C440.136 153.095 440.434 152.003 441.032 151.088C441.648 150.155 442.478 149.436 443.524 148.932C444.588 148.428 445.764 148.176 447.052 148.176ZM447.164 150.444C446.324 150.444 445.577 150.603 444.924 150.92C444.27 151.237 443.757 151.676 443.384 152.236C443.029 152.796 442.852 153.468 442.852 154.252C442.852 155.409 443.253 156.333 444.056 157.024C444.858 157.696 445.941 158.032 447.304 158.032C448.2 158.032 448.984 157.864 449.656 157.528C450.346 157.192 450.878 156.735 451.252 156.156C451.644 155.577 451.84 154.933 451.84 154.224C451.84 153.533 451.662 152.908 451.308 152.348C450.953 151.788 450.43 151.331 449.74 150.976C449.049 150.621 448.19 150.444 447.164 150.444ZM518.258 168.224C516.671 168.224 515.299 167.991 514.142 167.524C512.984 167.057 512.088 166.395 511.454 165.536C510.819 164.659 510.502 163.632 510.502 162.456C510.502 161.299 510.8 160.319 511.398 159.516C512.014 158.695 512.9 158.079 514.058 157.668C515.215 157.239 516.615 157.024 518.258 157.024C519.9 157.024 521.3 157.239 522.458 157.668C523.634 158.079 524.53 158.695 525.146 159.516C525.762 160.337 526.07 161.317 526.07 162.456C526.07 163.632 525.752 164.659 525.118 165.536C524.483 166.395 523.578 167.057 522.402 167.524C521.226 167.991 519.844 168.224 518.258 168.224ZM518.258 165.956C519.826 165.956 521.048 165.639 521.926 165.004C522.822 164.351 523.27 163.473 523.27 162.372C523.27 161.289 522.822 160.44 521.926 159.824C521.048 159.189 519.826 158.872 518.258 158.872C516.708 158.872 515.495 159.189 514.618 159.824C513.74 160.44 513.302 161.289 513.302 162.372C513.302 163.473 513.74 164.351 514.618 165.004C515.495 165.639 516.708 165.956 518.258 165.956ZM518.258 158.536C516.764 158.536 515.495 158.34 514.45 157.948C513.404 157.537 512.602 156.959 512.042 156.212C511.482 155.447 511.202 154.541 511.202 153.496C511.202 152.395 511.491 151.452 512.07 150.668C512.667 149.865 513.498 149.249 514.562 148.82C515.626 148.391 516.858 148.176 518.258 148.176C519.676 148.176 520.918 148.391 521.982 148.82C523.046 149.249 523.876 149.865 524.474 150.668C525.071 151.452 525.37 152.395 525.37 153.496C525.37 154.541 525.09 155.447 524.53 156.212C523.97 156.959 523.158 157.537 522.094 157.948C521.03 158.34 519.751 158.536 518.258 158.536ZM518.258 156.744C519.62 156.744 520.684 156.464 521.45 155.904C522.234 155.344 522.626 154.579 522.626 153.608C522.626 152.619 522.224 151.844 521.422 151.284C520.619 150.724 519.564 150.444 518.258 150.444C516.951 150.444 515.906 150.724 515.122 151.284C514.356 151.844 513.974 152.619 513.974 153.608C513.974 154.579 514.347 155.344 515.094 155.904C515.859 156.464 516.914 156.744 518.258 156.744ZM577.138 168L585.454 149.576L586.182 150.836H574.534L575.934 149.464V154.336H573.246V148.4H588.03V150.304L580.106 168H577.138ZM643.834 168.224C642.098 168.224 640.614 167.841 639.382 167.076C638.15 166.311 637.207 165.209 636.554 163.772C635.919 162.316 635.602 160.543 635.602 158.452C635.602 156.231 635.994 154.355 636.778 152.824C637.562 151.293 638.654 150.136 640.054 149.352C641.454 148.568 643.059 148.176 644.87 148.176C645.803 148.176 646.69 148.269 647.53 148.456C648.388 148.643 649.126 148.932 649.742 149.324L648.678 151.508C648.174 151.153 647.595 150.911 646.942 150.78C646.307 150.649 645.635 150.584 644.926 150.584C642.928 150.584 641.342 151.209 640.166 152.46C638.99 153.692 638.402 155.531 638.402 157.976C638.402 158.368 638.42 158.835 638.458 159.376C638.495 159.917 638.588 160.449 638.738 160.972L637.786 160.02C638.066 159.161 638.504 158.443 639.102 157.864C639.718 157.267 640.446 156.828 641.286 156.548C642.144 156.249 643.068 156.1 644.058 156.1C645.364 156.1 646.522 156.343 647.53 156.828C648.538 157.313 649.331 158.004 649.91 158.9C650.488 159.777 650.778 160.823 650.778 162.036C650.778 163.287 650.47 164.379 649.854 165.312C649.238 166.245 648.407 166.964 647.362 167.468C646.316 167.972 645.14 168.224 643.834 168.224ZM643.722 165.956C644.58 165.956 645.327 165.797 645.962 165.48C646.615 165.163 647.128 164.724 647.502 164.164C647.875 163.585 648.062 162.913 648.062 162.148C648.062 160.991 647.66 160.076 646.858 159.404C646.055 158.713 644.963 158.368 643.582 158.368C642.686 158.368 641.902 158.536 641.23 158.872C640.558 159.208 640.026 159.665 639.634 160.244C639.26 160.804 639.074 161.448 639.074 162.176C639.074 162.848 639.251 163.473 639.606 164.052C639.96 164.612 640.483 165.069 641.174 165.424C641.864 165.779 642.714 165.956 643.722 165.956ZM719.367 168.224C717.986 168.224 716.642 168.009 715.335 167.58C714.047 167.151 712.993 166.572 712.171 165.844L713.459 163.632C714.113 164.248 714.962 164.752 716.007 165.144C717.053 165.536 718.163 165.732 719.339 165.732C720.833 165.732 721.981 165.415 722.783 164.78C723.586 164.145 723.987 163.296 723.987 162.232C723.987 161.504 723.81 160.869 723.455 160.328C723.101 159.787 722.485 159.376 721.607 159.096C720.749 158.797 719.563 158.648 718.051 158.648H713.599L714.635 148.4H725.695V150.836H715.671L717.127 149.464L716.315 157.556L714.859 156.212H718.639C720.599 156.212 722.177 156.464 723.371 156.968C724.566 157.472 725.434 158.172 725.975 159.068C726.517 159.945 726.787 160.963 726.787 162.12C726.787 163.24 726.517 164.267 725.975 165.2C725.434 166.115 724.613 166.852 723.511 167.412C722.429 167.953 721.047 168.224 719.367 168.224ZM773.955 163.184V161.224L783.979 148.4H787.003L777.063 161.224L775.635 160.776H791.287V163.184H773.955ZM784.847 168V163.184L784.931 160.776V156.52H787.563V168H784.847ZM851.594 168.224C850.212 168.224 848.868 168.009 847.562 167.58C846.274 167.151 845.219 166.572 844.398 165.844L845.686 163.632C846.339 164.248 847.188 164.752 848.234 165.144C849.279 165.536 850.399 165.732 851.594 165.732C853.05 165.732 854.179 165.424 854.982 164.808C855.803 164.173 856.214 163.324 856.214 162.26C856.214 161.233 855.822 160.412 855.038 159.796C854.272 159.161 853.05 158.844 851.37 158.844H849.802V156.884L855.626 149.716L856.018 150.836H845.294V148.4H858.23V150.304L852.434 157.444L850.978 156.576H851.902C854.272 156.576 856.046 157.108 857.222 158.172C858.416 159.236 859.014 160.589 859.014 162.232C859.014 163.333 858.743 164.341 858.202 165.256C857.66 166.171 856.839 166.899 855.738 167.44C854.655 167.963 853.274 168.224 851.594 168.224ZM913.954 168V166.096L921.934 158.396C922.643 157.724 923.166 157.136 923.502 156.632C923.857 156.109 924.09 155.633 924.202 155.204C924.333 154.756 924.398 154.327 924.398 153.916C924.398 152.908 924.043 152.115 923.334 151.536C922.625 150.957 921.589 150.668 920.226 150.668C919.181 150.668 918.238 150.845 917.398 151.2C916.558 151.536 915.83 152.068 915.214 152.796L913.31 151.144C914.057 150.192 915.055 149.464 916.306 148.96C917.575 148.437 918.966 148.176 920.478 148.176C921.841 148.176 923.026 148.4 924.034 148.848C925.042 149.277 925.817 149.903 926.358 150.724C926.918 151.545 927.198 152.516 927.198 153.636C927.198 154.271 927.114 154.896 926.946 155.512C926.778 156.128 926.461 156.781 925.994 157.472C925.527 158.163 924.855 158.937 923.978 159.796L916.866 166.656L916.194 165.564H928.038V168H913.954ZM986.281 168V149.52L987.485 150.836H981.857V148.4H989.053V168H986.281ZM1053.98 168.224C1052.45 168.224 1051.08 167.832 1049.87 167.048C1048.67 166.264 1047.72 165.125 1047.01 163.632C1046.32 162.139 1045.98 160.328 1045.98 158.2C1045.98 156.072 1046.32 154.261 1047.01 152.768C1047.72 151.275 1048.67 150.136 1049.87 149.352C1051.08 148.568 1052.45 148.176 1053.98 148.176C1055.5 148.176 1056.86 148.568 1058.07 149.352C1059.29 150.136 1060.24 151.275 1060.93 152.768C1061.62 154.261 1061.96 156.072 1061.96 158.2C1061.96 160.328 1061.62 162.139 1060.93 163.632C1060.24 165.125 1059.29 166.264 1058.07 167.048C1056.86 167.832 1055.5 168.224 1053.98 168.224ZM1053.98 165.732C1055.01 165.732 1055.91 165.452 1056.67 164.892C1057.46 164.332 1058.06 163.492 1058.49 162.372C1058.94 161.252 1059.16 159.861 1059.16 158.2C1059.16 156.539 1058.94 155.148 1058.49 154.028C1058.06 152.908 1057.46 152.068 1056.67 151.508C1055.91 150.948 1055.01 150.668 1053.98 150.668C1052.96 150.668 1052.05 150.948 1051.27 151.508C1050.48 152.068 1049.87 152.908 1049.42 154.028C1048.99 155.148 1048.78 156.539 1048.78 158.2C1048.78 159.861 1048.99 161.252 1049.42 162.372C1049.87 163.492 1050.48 164.332 1051.27 164.892C1052.05 165.452 1052.96 165.732 1053.98 165.732Z" fill="#023047"/>
</svg>
