<svg width="1198" height="1091" viewBox="0 0 1198 1091" fill="none" xmlns="http://www.w3.org/2000/svg">
<path d="M550 756.5V1076.5" stroke="#00A6FB" stroke-width="6" stroke-linecap="round"/>
<path d="M515 706H465.5C461.082 706 457.5 709.582 457.5 714V1086" stroke="#00A6FB" stroke-width="6"/>
<path d="M623 754.5V1086" stroke="#00A6FB" stroke-width="6"/>
<path d="M386.5 564H290C285.582 564 282 567.582 282 572V1081.5" stroke="#00A6FB" stroke-width="6"/>
<path d="M448 443.5H328.5C324.082 443.5 320.5 439.918 320.5 435.5V6" stroke="#00A6FB" stroke-width="6" stroke-linecap="round"/>
<path d="M753.5 360V183.5C753.5 179.082 757.082 175.5 761.5 175.5H1194.5" stroke="#00A6FB" stroke-width="6" stroke-linecap="round"/>
<path d="M451 503.5H292.5C288.082 503.5 284.5 499.918 284.5 495.5V3.5" stroke="#00A6FB" stroke-width="6" stroke-linecap="round"/>
<path d="M592 295.5V5.5" stroke="#00A6FB" stroke-width="6" stroke-linecap="round"/>
<path d="M634.5 280V5.5" stroke="#00A6FB" stroke-width="6" stroke-linecap="round"/>
<path d="M873.5 434V337C873.5 332.582 877.082 329 881.5 329H1192.5" stroke="#00A6FB" stroke-width="6" stroke-linecap="round"/>
<path d="M922.5 505.5H1186" stroke="#00A6FB" stroke-width="6" stroke-linecap="round"/>
<path d="M913.5 539H1194.5" stroke="#00A6FB" stroke-width="6" stroke-linecap="round"/>
<path d="M702.5 806L701 1082.5" stroke="#00A6FB" stroke-width="6" stroke-linecap="round"/>
<path d="M749 783V1080" stroke="#00A6FB" stroke-width="6" stroke-linecap="round"/>
<path d="M798 762.5V1084.5" stroke="#00A6FB" stroke-width="6" stroke-linecap="round"/>
<path d="M451.5 661H395C390.582 661 387 664.582 387 669V1081.5" stroke="#00A6FB" stroke-width="6" stroke-linecap="round"/>
<path d="M489.5 318.5V4" stroke="#00A6FB" stroke-width="6" stroke-linecap="round"/>
<path fill-rule="evenodd" clip-rule="evenodd" d="M638.453 293.52C636.391 293.92 636.384 298.701 638.399 327.873C638.963 336.046 638.983 343.213 638.442 343.799C637.901 344.384 630.29 347.061 621.527 349.747C612.764 352.434 605.209 355.02 604.738 355.494C604.265 355.968 605.589 361.93 607.679 368.742C612.135 383.274 612.461 385.868 609.89 386.391C608.403 386.695 606.384 381.365 600.758 362.281C596.783 348.805 592.101 332.386 590.35 325.793C587.909 316.601 586.613 313.66 584.791 313.184C581.934 312.439 580.991 308.289 593.737 352.556C599.217 371.582 603.552 387.295 603.372 387.474C603.193 387.653 594.407 389.687 583.848 391.993C569.714 395.08 564.417 395.803 563.768 394.736C563.283 393.937 558.872 379.402 553.966 362.436C549.06 345.47 544.49 331.226 543.81 330.784C541.403 329.218 505.636 320.963 504.443 321.699C501.756 323.357 503.468 325.781 507.885 326.572C510.445 327.03 518.794 329.105 526.441 331.183L540.342 334.962L545.276 349.994C551.772 369.788 559.454 396.633 558.806 397.28C558.524 397.562 556.993 397.943 555.404 398.128C552.684 398.445 552.167 397.269 546.567 378.03C537.213 345.893 534.975 339.339 532.997 338.304C528.123 335.754 501.597 329.629 500.437 330.787C499.216 332.005 500.464 332.461 514.709 335.991C517.61 336.709 522.623 338.144 525.851 339.178C531.683 341.047 531.735 341.113 534.342 349.849C537.92 361.845 546.659 396.382 546.659 398.532C546.659 399.49 545.403 400.555 543.867 400.897C490.674 412.746 459.184 422.106 452.606 428.027C448.806 431.448 445.57 439.015 443.025 450.432C440.328 462.538 440.381 462.783 459.393 524.788C463.153 537.049 466.745 548.717 467.377 550.718C468.007 552.718 468.097 554.771 467.576 555.28C466.682 556.154 432.095 566.56 422.427 568.864C418.572 569.781 416.283 569.231 406.385 565.009C393.535 559.527 392.804 559.355 392.804 561.806C392.804 562.805 397.943 565.717 405.08 568.758L417.356 573.99L433.308 568.977C442.081 566.221 454.228 562.544 460.302 560.806C466.375 559.069 471.629 557.364 471.975 557.019C472.923 556.074 475.935 558.916 475.935 560.757C475.935 561.641 474.12 562.746 471.903 563.211C469.686 563.677 456.8 567.344 443.271 571.359C429.742 575.375 417.69 578.661 416.49 578.661C415.289 578.661 408.949 576.485 402.4 573.825C391.337 569.333 390.36 569.136 388.611 571.064C386.878 572.976 388.01 573.616 402.999 579.191L419.268 585.243L433.643 580.643C445.293 576.914 459.187 572.106 470.581 567.859C471.459 567.532 472.644 569.478 473.517 572.677C474.322 575.628 477.084 584.516 479.654 592.429L484.328 606.817L477.34 608.311C463.999 611.162 436.849 617.528 436.314 617.929C436.017 618.152 436.391 618.947 437.143 619.697C438.139 620.692 445.478 619.316 464.158 614.633C478.264 611.098 490.594 608.505 491.557 608.874C495.833 610.513 493.006 613.155 484.552 615.42L475.799 617.765L467.123 638.138C460.355 654.035 458.705 659.059 459.617 661.004C460.782 663.492 460.786 663.492 461.726 661.019C463.639 655.989 473.232 633.591 475.865 628.004C477.646 624.223 479.584 621.984 481.487 621.507C483.083 621.107 485.204 620.468 486.198 620.088C487.591 619.554 488.788 622.317 491.428 632.156C499.555 662.457 501.38 668.665 510.104 695.719C523.454 737.116 532.741 754.37 546.039 762.478C551.757 765.966 553.068 766.25 562.789 766.102C577.31 765.883 617.499 757.373 659.293 745.669C671.767 742.175 682.133 739.535 682.329 739.798C682.761 740.379 692.714 779.725 694.738 788.85C695.787 793.576 696.598 795.047 697.759 794.327C698.994 793.561 697.952 788.149 693.053 769.908C689.591 757.018 685.945 743.724 684.951 740.364C682.806 733.118 682.627 727.741 684.492 726.59C685.234 726.133 686.465 726.381 687.227 727.141C688.595 728.507 695.684 754.571 700.566 776.196C701.951 782.326 703.38 788.316 703.744 789.509C704.716 792.704 706.87 792.148 706.143 788.89C704.473 781.411 693.966 738.971 693.456 737.644C692.654 735.554 727.879 724.455 729.662 726.235C730.193 726.764 737.206 753.578 740.705 768.455C741.567 772.119 744.007 773.301 743.26 769.694C737.287 740.851 735.508 733.506 731.361 720.548C728.999 713.168 729.558 710.155 733.039 711.489C734.656 712.108 735.904 715.513 741.357 734.182L743.917 742.945L750.444 744.492C777.022 750.794 788.132 752.979 789.044 752.086C789.625 751.518 789.066 750.76 787.803 750.401C786.039 749.901 753.014 740.974 745.709 739.023C744.423 738.68 739.433 722.601 740.376 721.842C740.63 721.636 746.422 720.044 753.246 718.301C773.282 713.186 789.5 708.828 804.738 704.463C812.586 702.214 823.689 699.083 829.411 697.506L839.815 694.637L844.999 686.498C847.85 682.021 851.823 674.735 853.827 670.307C857.115 663.045 857.461 661.046 857.364 649.873C857.261 637.868 856.943 636.517 847.03 605.907C841.404 588.538 835.673 571.261 834.295 567.515C830.778 557.961 826.151 543.806 825.64 541.037C825.316 539.28 826.431 538.275 830.174 536.942C839.14 533.749 860.181 527.884 862.573 527.91C863.861 527.924 871.879 531.256 880.389 535.316C893.788 541.707 896.013 542.431 896.974 540.716C898.379 538.21 898.457 538.256 878.261 529.635L861.795 522.606L842.995 528.405C824.556 534.092 822.222 534.287 822.128 530.136C822.1 528.924 869.104 514.716 910.514 503.418C911.707 503.093 912.685 502.385 912.685 501.847C912.685 500.415 875.433 510.319 845.063 519.825C835.509 522.816 826.277 525.604 824.547 526.021C821.502 526.756 821.268 526.357 817.255 513.618C814.915 506.191 813.582 500.014 814.197 499.44C815.535 498.189 846.256 488.24 860.398 484.476C872.216 481.332 871.16 482.693 878.61 461.007C882.265 450.365 882.42 448.407 879.606 448.45C879.121 448.458 876.441 455.046 873.648 463.093L868.572 477.723L861.78 479.463C858.045 480.42 845.243 484.17 833.33 487.795C811.16 494.542 809.77 494.63 809.72 489.297C809.703 487.318 822.855 482.584 853.976 473.365L862.889 470.724L866.67 460.294C871.545 446.844 872.501 443.052 870.745 444.137C869.998 444.598 867.895 449.835 866.072 455.777C864.248 461.719 862.125 467.239 861.354 468.044C860.583 468.849 849.344 472.569 836.378 476.311C823.412 480.052 811.826 483.494 810.632 483.958C809.438 484.423 808.461 484.561 808.461 484.267C808.461 483.972 805.68 472.905 802.282 459.675C795.621 433.747 795.853 434.671 789.06 407.14C781.711 377.364 772.745 363.034 758.914 358.96C747.955 355.733 744.655 356.135 705.477 365.469C696.947 367.501 684.384 370.323 677.56 371.74C670.736 373.157 659.01 375.766 651.504 377.54C643.997 379.313 633.2 381.728 627.51 382.906L617.164 385.049L615.935 381.848C613.725 376.097 609.521 359.457 610.125 358.853C610.45 358.529 616.991 356.362 624.661 354.039C632.33 351.714 639.693 348.83 641.022 347.63C643.908 345.023 644.045 338.605 641.803 311.134C640.587 296.222 640.015 293.217 638.453 293.52ZM630.407 316.025L631.31 338.235L620.934 341.34C604.544 346.245 606.289 347.128 601.692 331.588C599.476 324.095 597.633 316.972 597.596 315.759C597.533 313.617 594.333 311.456 593.079 312.706C592.456 313.329 600.846 348.315 601.861 349.328C602.369 349.834 632.359 341.202 633.278 340.284C634.323 339.242 631.814 293.815 630.712 293.815C629.94 293.815 629.831 301.839 630.407 316.025ZM751.361 378.962C753.735 380.152 756.817 382.831 758.21 384.912C762.221 390.911 775.941 433.861 788.649 480.203C795.347 504.625 802.078 527.695 809.131 550.402C811.391 557.678 815.255 572.446 817.718 583.221C820.181 593.996 823.885 609.931 825.948 618.632C828.013 627.335 829.382 635.457 828.993 636.682C828.026 639.721 822.512 644.644 816.526 647.81C812.489 649.946 780.407 659.998 764.413 664.137C762.366 664.667 755.945 666.526 750.145 668.267C744.344 670.009 729.827 674.273 717.885 677.743C689.065 686.117 652.306 696.969 621.105 706.313C582.549 717.86 578.111 718.845 571.168 717.391C564.117 715.915 558.027 712.146 554.287 706.945C552.777 704.844 546.204 686.686 539.678 666.592C533.154 646.498 521.676 611.109 514.173 587.949C506.67 564.79 494.187 526.336 486.433 502.496C478.68 478.655 471.792 456.706 471.129 453.719C469.052 444.386 473.021 438.181 483.82 433.874C492.593 430.375 529.826 420.971 547.9 417.689C550.971 417.132 565.208 414.055 579.539 410.852C593.87 407.649 609.145 404.244 613.483 403.286C617.821 402.328 621.771 401.296 622.26 400.994C623.991 399.926 676.572 387.778 694.93 384.205C737.084 375.999 744.147 375.343 751.361 378.962ZM717.264 388.529C706.327 390.275 680.77 395.685 635.374 405.865C608.873 411.807 580.193 417.666 569.613 419.298C557.414 421.182 507.355 432.8 493.719 436.914C482.861 440.189 477.176 444.816 477.176 450.377C477.176 455.084 481.627 470.889 487.694 487.732C497.59 515.203 522.629 588.182 529.938 610.861C533.78 622.781 539.747 640.058 543.196 649.253C546.647 658.449 549.921 667.366 550.474 669.069C553.992 679.916 559.069 693.038 560.721 695.554C563.479 699.755 572.718 703.858 579.781 704.018C583.082 704.094 589.96 703.165 595.067 701.956C607.095 699.109 687.102 676.496 688.727 675.485C689.409 675.06 690.894 674.569 692.026 674.393C695.989 673.776 721.915 666.515 723.922 665.46C725.038 664.873 737.675 660.943 752.006 656.724C793.793 644.423 808.809 639.552 813.144 636.887C819.229 633.148 819.961 629.857 817.063 619.265C811.476 598.843 809.377 591.008 806.021 578.042C804.082 570.549 798.841 551.601 794.375 535.934C789.91 520.268 784.818 501.598 783.06 494.446C781.301 487.293 778.212 476.147 776.193 469.676C774.174 463.205 769.118 446.765 764.957 433.142C752.753 393.195 752.549 392.678 747.79 389.507C742.855 386.22 733.587 385.924 717.264 388.529ZM742.454 392.146C748.275 395.149 749.81 398.031 755.052 415.803C757.866 425.339 760.746 435.092 761.453 437.476C762.16 439.86 763.395 444.377 764.196 447.513C764.998 450.647 766.348 454.043 767.194 455.058C768.041 456.071 768.416 457.219 768.028 457.606C767.638 457.995 768.221 461.287 769.324 464.923C770.427 468.559 775.455 486.024 780.499 503.734C785.541 521.444 793.852 550.424 798.965 568.134C812.955 616.58 813.877 620.568 812.298 625.825C811.265 629.271 809.636 630.986 805.06 633.452C799.526 636.433 778.937 643.006 753.246 649.993C747.105 651.663 737.892 654.355 732.774 655.973C727.656 657.592 709.789 662.844 693.069 667.643C652.077 679.41 625.938 686.973 608.077 692.234C584.203 699.267 579.847 700.278 576.372 699.583C571.138 698.539 564.093 693.837 562.155 690.095C561.173 688.2 554.259 668.623 546.791 646.588C533.347 606.929 506.91 529.619 493.706 491.349C480.578 453.305 480.246 451.575 484.937 445.832C487.426 442.784 490.166 441.885 510.677 437.379C523.302 434.606 534.748 432.11 536.112 431.833C537.477 431.557 541.107 430.754 544.177 430.049C547.248 429.343 568.186 424.855 590.706 420.075C634.47 410.783 662.685 404.707 702.375 396.029C728.991 390.208 737.166 389.417 742.454 392.146ZM474.065 536.553C477.695 547.792 484.313 568.413 488.774 582.376C493.233 596.34 501.701 622.812 507.59 641.203C513.48 659.594 520.244 680.772 522.623 688.265C537.029 733.638 538.016 736.008 545.747 743.817C552.378 750.515 552.865 751.39 552.133 755.287C551.698 757.606 550.897 759.777 550.355 760.112C549.813 760.446 546.666 758.58 543.361 755.963C531.488 746.562 523.679 727.84 500.918 654.207C489.977 618.813 490.146 619.618 493.222 617.468C497.934 614.174 496.182 607.699 490.143 606.087C487.028 605.256 486.291 604.116 484.364 597.161C483.149 592.776 480.707 584.545 478.936 578.872C476.188 570.067 475.935 568.028 477.207 564.962C479.148 560.287 477.847 555.383 474.232 553.738C471.823 552.642 470.54 549.483 466.331 534.275C463.567 524.289 458.407 505.808 454.865 493.207C451.321 480.606 448.2 466.952 447.929 462.865C447.419 455.195 451.605 466.998 474.065 536.553ZM893.617 513.642C883.471 516.64 874.854 519.409 874.468 519.794C873.387 520.873 875.146 522.051 888.105 528.934C894.717 532.447 900.451 534.797 900.847 534.158C901.244 533.518 896.69 530.341 890.73 527.098L879.89 521.2L898.151 516.188C908.193 513.43 916.224 510.615 915.995 509.931C915.235 507.649 912.184 508.154 893.617 513.642ZM452.671 622.838C442.359 625.326 439.953 626.329 439.953 628.147C439.953 630.252 440.572 630.208 450.126 627.437C455.721 625.813 460.993 624.484 461.843 624.484C462.874 624.484 462.147 627.469 459.656 633.463C456.31 641.518 451.12 655.422 451.12 656.331C451.12 656.526 451.611 656.684 452.213 656.684C453.249 656.684 467.25 623.185 467.25 620.706C467.25 619.253 467.977 619.146 452.671 622.838ZM841.217 678.048C839.244 681.477 831.415 692.038 830.215 692.89C827.166 695.054 827.384 693.417 830.951 687.336C833.049 683.761 835.633 679.858 836.694 678.667C838.914 676.174 842.584 675.671 841.217 678.048ZM830.066 682.382C828.826 684.255 826.629 688.007 825.182 690.719C822.58 695.598 822.401 695.689 808.372 699.176C794.731 702.565 766.791 710.205 750.324 715.049C739.624 718.196 737.954 718.061 736.949 713.963C735.955 709.908 734.544 708.792 731.436 709.605C727.641 710.594 726.515 712.859 727.725 717.069L728.828 720.911L719.944 723.513C715.058 724.944 706.687 727.44 701.34 729.06L691.62 732.004L690.338 728.334C689.238 725.181 688.511 724.718 685.169 725.041C681.579 725.39 681.254 725.806 680.91 730.499L680.536 735.579L673.465 737.138C669.575 737.995 659.972 740.657 652.124 743.053C634.267 748.504 618.613 752.433 598.981 756.391C580.459 760.127 578.545 760.216 579.357 757.309C581.872 748.309 576.111 750.717 633.513 734.682C655.691 728.488 686.4 719.865 701.755 715.523C717.109 711.18 743.631 703.71 760.691 698.922C777.752 694.134 800.365 687.734 810.942 684.699C821.52 681.664 830.657 679.135 831.247 679.079C831.838 679.022 831.306 680.51 830.066 682.382ZM744.359 749.737C744.788 751.347 746.062 756.427 747.189 761.024C748.317 765.622 749.723 769.384 750.312 769.384C751.784 769.384 751.704 768.775 748.25 753.594C747.422 749.96 748.015 749.987 768.465 754.551C777.692 756.611 785.521 758.017 785.862 757.677C786.202 757.336 785.704 756.83 784.753 756.551C778.209 754.632 771.339 752.996 760.612 750.801C753.831 749.414 747.225 747.949 745.931 747.545C743.953 746.927 743.703 747.276 744.359 749.737ZM567.628 754.42C567.313 759.431 565.663 762.571 563.353 762.559C561.481 762.549 561.027 761.842 561.365 759.463C561.997 755.003 563.617 752.458 565.824 752.458C566.885 752.458 567.696 753.341 567.628 754.42Z" fill="#00A6FB"/>
<path d="M429 623.5H345C340.582 623.5 337 627.082 337 631.5V1082.5" stroke="#00A6FB" stroke-width="6"/>
<ellipse cx="634" cy="289" rx="12" ry="12.5" fill="#FFF502"/>
<ellipse cx="589.5" cy="305.5" rx="12.5" ry="12" fill="#FFF502"/>
<circle cx="498.5" cy="324" r="12.5" fill="#FFF502"/>
<circle cx="393.5" cy="563" r="12.5" fill="#FFF502"/>
<ellipse cx="441.5" cy="621.5" rx="12.5" ry="12" fill="#FFF502"/>
<circle cx="454.5" cy="660" r="12.5" fill="#FFF502"/>
<circle cx="700.5" cy="795" r="12.5" fill="#FFF502"/>
<ellipse cx="748" cy="775" rx="12" ry="12.5" fill="#FFF502"/>
<circle cx="795" cy="755.5" r="12" fill="#FFF502"/>
<ellipse cx="899.5" cy="538.5" rx="12.5" ry="12" fill="#FFF502"/>
<circle cx="911.5" cy="504" r="12.5" fill="#FFF502"/>
<circle cx="874.5" cy="443" r="12.5" fill="#FFF502"/>
<path d="M582.217 304.5C581.137 301.377 584.256 297.629 588 298.681" stroke="#F8F9FA" stroke-width="2" stroke-linecap="round"/>
<path d="M386.217 563.5C385.137 560.377 388.256 556.629 392 557.681" stroke="#F8F9FA" stroke-width="2" stroke-linecap="round"/>
<path d="M637.623 281.236C639.268 280.617 643.202 283.501 643.394 289.054" stroke="#F8F9FA" stroke-width="2" stroke-linecap="round"/>
<path d="M877.174 435.684C878.819 435.064 882.753 437.949 882.945 443.501" stroke="#F8F9FA" stroke-width="2" stroke-linecap="round"/>
<path d="M918.531 498.891C920.243 499.288 921.915 503.871 918.994 508.597" stroke="#F8F9FA" stroke-width="2" stroke-linecap="round"/>
<path d="M901.97 531.12C903.63 530.654 907.64 532.927 907.884 537.239" stroke="#F8F9FA" stroke-width="2" stroke-linecap="round"/>
<path d="M502.777 315.431C504.422 314.811 508.356 317.696 508.548 323.248" stroke="#F8F9FA" stroke-width="2" stroke-linecap="round"/>
<path d="M448.245 626.126C448.45 627.872 444.702 630.995 439.267 629.842" stroke="#F8F9FA" stroke-width="2" stroke-linecap="round"/>
<path d="M450.222 667.213C448.512 667.621 444.971 664.266 445.477 658.733" stroke="#F8F9FA" stroke-width="2" stroke-linecap="round"/>
<path d="M696.927 803.582C695.218 803.991 691.676 800.636 692.183 795.103" stroke="#F8F9FA" stroke-width="2" stroke-linecap="round"/>
<path d="M752.221 767.928C753.956 767.647 757.24 771.253 756.328 776.734" stroke="#F8F9FA" stroke-width="2" stroke-linecap="round"/>
<path d="M800.57 749.333C802.305 749.051 805.59 752.658 804.678 758.138" stroke="#F8F9FA" stroke-width="2" stroke-linecap="round"/>
<path d="M845.5 682.5H1110.5C1114.92 682.5 1118.5 686.082 1118.5 690.5V1083" stroke="#00A6FB" stroke-width="6"/>
<path d="M606.752 574.268C603.296 574.268 600.075 573.713 597.088 572.604C594.144 571.452 591.584 569.831 589.408 567.74C587.232 565.649 585.525 563.196 584.288 560.38C583.093 557.564 582.496 554.471 582.496 551.1C582.496 547.729 583.093 544.636 584.288 541.82C585.525 539.004 587.232 536.551 589.408 534.46C591.627 532.369 594.208 530.769 597.152 529.66C600.096 528.508 603.317 527.932 606.816 527.932C610.699 527.932 614.197 528.615 617.312 529.98C620.469 531.303 623.115 533.265 625.248 535.868L618.592 542.012C617.056 540.263 615.349 538.961 613.472 538.108C611.595 537.212 609.547 536.764 607.328 536.764C605.237 536.764 603.317 537.105 601.568 537.788C599.819 538.471 598.304 539.452 597.024 540.732C595.744 542.012 594.741 543.527 594.016 545.276C593.333 547.025 592.992 548.967 592.992 551.1C592.992 553.233 593.333 555.175 594.016 556.924C594.741 558.673 595.744 560.188 597.024 561.468C598.304 562.748 599.819 563.729 601.568 564.412C603.317 565.095 605.237 565.436 607.328 565.436C609.547 565.436 611.595 565.009 613.472 564.156C615.349 563.26 617.056 561.916 618.592 560.124L625.248 566.268C623.115 568.871 620.469 570.855 617.312 572.22C614.197 573.585 610.677 574.268 606.752 574.268ZM632.25 573.5V528.7H651.642C655.652 528.7 659.108 529.361 662.01 530.684C664.911 531.964 667.151 533.82 668.73 536.252C670.308 538.684 671.098 541.585 671.098 544.956C671.098 548.284 670.308 551.164 668.73 553.596C667.151 556.028 664.911 557.905 662.01 559.228C659.108 560.508 655.652 561.148 651.642 561.148H638.01L642.618 556.476V573.5H632.25ZM642.618 557.628L638.01 552.7H651.066C654.266 552.7 656.655 552.017 658.234 550.652C659.812 549.287 660.602 547.388 660.602 544.956C660.602 542.481 659.812 540.561 658.234 539.196C656.655 537.831 654.266 537.148 651.066 537.148H638.01L642.618 532.22V557.628ZM698.154 574.268C691.796 574.268 686.826 572.497 683.242 568.956C679.658 565.415 677.866 560.359 677.866 553.788V528.7H688.234V553.404C688.234 557.671 689.108 560.743 690.858 562.62C692.607 564.497 695.06 565.436 698.218 565.436C701.375 565.436 703.828 564.497 705.578 562.62C707.327 560.743 708.201 557.671 708.201 553.404V528.7H718.442V553.788C718.442 560.359 716.65 565.415 713.066 568.956C709.482 572.497 704.511 574.268 698.154 574.268Z" fill="#FFF502"/>
<path d="M693 368V0" stroke="#00A6FB" stroke-width="6"/>
<path d="M850 628.5H1194.5" stroke="#00A6FB" stroke-width="6"/>
<path d="M796.5 434.5V277C796.5 272.582 800.082 269 804.5 269H1191" stroke="#00A6FB" stroke-width="6"/>
<path d="M487 415H421C416.582 415 413 411.418 413 407V7.5" stroke="#00A6FB" stroke-width="6"/>
<path d="M829 695.5V732.014C829 736.433 832.582 740.014 837 740.014H954C958.418 740.014 962 743.596 962 748.014V1090.5" stroke="#00A6FB" stroke-width="6"/>
</svg>
