<svg width="1195" height="1082" viewBox="0 0 1195 1082" fill="none" xmlns="http://www.w3.org/2000/svg">
<path d="M550 753V783" stroke="#00A6FB" stroke-width="6" stroke-linecap="round"/>
<path d="M515 702.5H491.5" stroke="#00A6FB" stroke-width="6"/>
<path d="M623 751V778.5" stroke="#00A6FB" stroke-width="6"/>
<path d="M386.5 560.5H356" stroke="#00A6FB" stroke-width="6"/>
<path d="M448 440H423.5" stroke="#00A6FB" stroke-width="6" stroke-linecap="round"/>
<path d="M753.5 356.5V338.5" stroke="#00A6FB" stroke-width="6" stroke-linecap="round"/>
<path d="M451 500H425" stroke="#00A6FB" stroke-width="6" stroke-linecap="round"/>
<path d="M592 292V268" stroke="#00A6FB" stroke-width="6" stroke-linecap="round"/>
<path d="M634.5 276.5L634 250" stroke="#00A6FB" stroke-width="6" stroke-linecap="round"/>
<path d="M873.5 430.5V411" stroke="#00A6FB" stroke-width="6" stroke-linecap="round"/>
<path d="M922.5 502H937" stroke="#00A6FB" stroke-width="6" stroke-linecap="round"/>
<path d="M913.5 535.5H930.5" stroke="#00A6FB" stroke-width="6" stroke-linecap="round"/>
<path d="M702.5 802.5L702.5 831.5" stroke="#00A6FB" stroke-width="6" stroke-linecap="round"/>
<path d="M749 779.5V807" stroke="#00A6FB" stroke-width="6" stroke-linecap="round"/>
<path d="M798 759V781.5" stroke="#00A6FB" stroke-width="6" stroke-linecap="round"/>
<path d="M451.5 657.5H421" stroke="#00A6FB" stroke-width="6" stroke-linecap="round"/>
<path d="M489.5 315V285" stroke="#00A6FB" stroke-width="6" stroke-linecap="round"/>
<path fill-rule="evenodd" clip-rule="evenodd" d="M638.453 290.02C636.391 290.42 636.384 295.201 638.399 324.373C638.963 332.546 638.983 339.713 638.442 340.299C637.901 340.884 630.29 343.561 621.527 346.247C612.764 348.934 605.209 351.52 604.738 351.994C604.265 352.468 605.589 358.43 607.679 365.242C612.135 379.774 612.461 382.368 609.89 382.891C608.403 383.195 606.384 377.865 600.758 358.781C596.783 345.305 592.101 328.886 590.35 322.293C587.909 313.101 586.613 310.16 584.791 309.684C581.934 308.939 580.991 304.789 593.737 349.056C599.217 368.082 603.552 383.795 603.372 383.974C603.193 384.153 594.407 386.187 583.848 388.493C569.714 391.58 564.417 392.303 563.768 391.236C563.283 390.437 558.872 375.902 553.966 358.936C549.06 341.97 544.49 327.726 543.81 327.284C541.403 325.718 505.636 317.463 504.443 318.199C501.756 319.857 503.468 322.281 507.885 323.072C510.445 323.53 518.794 325.605 526.441 327.683L540.342 331.462L545.276 346.494C551.772 366.288 559.454 393.133 558.806 393.78C558.524 394.062 556.993 394.443 555.404 394.628C552.684 394.945 552.167 393.769 546.567 374.53C537.213 342.393 534.975 335.839 532.997 334.804C528.123 332.254 501.597 326.129 500.437 327.287C499.216 328.505 500.464 328.961 514.709 332.491C517.61 333.209 522.623 334.644 525.851 335.678C531.683 337.547 531.735 337.613 534.342 346.349C537.92 358.345 546.659 392.882 546.659 395.032C546.659 395.99 545.403 397.055 543.867 397.397C490.674 409.246 459.184 418.606 452.606 424.527C448.806 427.948 445.57 435.515 443.025 446.932C440.328 459.038 440.381 459.283 459.393 521.288C463.153 533.549 466.745 545.217 467.377 547.218C468.007 549.218 468.097 551.271 467.576 551.78C466.682 552.654 432.095 563.06 422.427 565.364C418.572 566.281 416.283 565.731 406.385 561.509C393.535 556.027 392.804 555.855 392.804 558.306C392.804 559.305 397.943 562.217 405.08 565.258L417.356 570.49L433.308 565.477C442.081 562.721 454.228 559.044 460.302 557.306C466.375 555.569 471.629 553.864 471.975 553.519C472.923 552.574 475.935 555.416 475.935 557.257C475.935 558.141 474.12 559.246 471.903 559.711C469.686 560.177 456.8 563.844 443.271 567.859C429.742 571.875 417.69 575.161 416.49 575.161C415.289 575.161 408.949 572.985 402.4 570.325C391.337 565.833 390.36 565.636 388.611 567.564C386.878 569.476 388.01 570.116 402.999 575.691L419.268 581.743L433.643 577.143C445.293 573.414 459.187 568.606 470.581 564.359C471.459 564.032 472.644 565.978 473.517 569.177C474.322 572.128 477.084 581.016 479.654 588.929L484.328 603.317L477.34 604.811C463.999 607.662 436.849 614.028 436.314 614.429C436.017 614.652 436.391 615.447 437.143 616.197C438.139 617.192 445.478 615.816 464.158 611.133C478.264 607.598 490.594 605.005 491.557 605.374C495.833 607.013 493.006 609.655 484.552 611.92L475.799 614.265L467.123 634.638C460.355 650.535 458.705 655.559 459.617 657.504C460.782 659.992 460.786 659.992 461.726 657.519C463.639 652.489 473.232 630.091 475.865 624.504C477.646 620.723 479.584 618.484 481.487 618.007C483.083 617.607 485.204 616.968 486.198 616.588C487.591 616.054 488.788 618.817 491.428 628.656C499.555 658.957 501.38 665.165 510.104 692.219C523.454 733.616 532.741 750.87 546.039 758.978C551.757 762.466 553.068 762.75 562.789 762.602C577.31 762.383 617.499 753.873 659.293 742.169C671.767 738.675 682.133 736.035 682.329 736.298C682.761 736.879 692.714 776.225 694.738 785.35C695.787 790.076 696.598 791.547 697.759 790.827C698.994 790.061 697.952 784.649 693.053 766.408C689.591 753.518 685.945 740.224 684.951 736.864C682.806 729.618 682.627 724.241 684.492 723.09C685.234 722.633 686.465 722.881 687.227 723.641C688.595 725.007 695.684 751.071 700.566 772.696C701.951 778.826 703.38 784.816 703.744 786.009C704.716 789.204 706.87 788.648 706.143 785.39C704.473 777.911 693.966 735.471 693.456 734.144C692.654 732.054 727.879 720.955 729.662 722.735C730.193 723.264 737.206 750.078 740.705 764.955C741.567 768.619 744.007 769.801 743.26 766.194C737.287 737.351 735.508 730.006 731.361 717.048C728.999 709.668 729.558 706.655 733.039 707.989C734.656 708.608 735.904 712.013 741.357 730.682L743.917 739.445L750.444 740.992C777.022 747.294 788.132 749.479 789.044 748.586C789.625 748.018 789.066 747.26 787.803 746.901C786.039 746.401 753.014 737.474 745.709 735.523C744.423 735.18 739.433 719.101 740.376 718.342C740.63 718.136 746.422 716.544 753.246 714.801C773.282 709.686 789.5 705.328 804.738 700.963C812.586 698.714 823.689 695.583 829.411 694.006L839.815 691.137L844.999 682.998C847.85 678.521 851.823 671.235 853.827 666.807C857.115 659.545 857.461 657.546 857.364 646.373C857.261 634.368 856.943 633.017 847.03 602.407C841.404 585.038 835.673 567.761 834.295 564.015C830.778 554.461 826.151 540.306 825.64 537.537C825.316 535.78 826.431 534.775 830.174 533.442C839.14 530.249 860.181 524.384 862.573 524.41C863.861 524.424 871.879 527.756 880.389 531.816C893.788 538.207 896.013 538.931 896.974 537.216C898.379 534.71 898.457 534.756 878.261 526.135L861.795 519.106L842.995 524.905C824.556 530.592 822.222 530.787 822.128 526.636C822.1 525.424 869.104 511.216 910.514 499.918C911.707 499.593 912.685 498.885 912.685 498.347C912.685 496.915 875.433 506.819 845.063 516.325C835.509 519.316 826.277 522.104 824.547 522.521C821.502 523.256 821.268 522.857 817.255 510.118C814.915 502.691 813.582 496.514 814.197 495.94C815.535 494.689 846.256 484.74 860.398 480.976C872.216 477.832 871.16 479.193 878.61 457.507C882.265 446.865 882.42 444.907 879.606 444.95C879.121 444.958 876.441 451.546 873.648 459.593L868.572 474.223L861.78 475.963C858.045 476.92 845.243 480.67 833.33 484.295C811.16 491.042 809.77 491.13 809.72 485.797C809.703 483.818 822.855 479.084 853.976 469.865L862.889 467.224L866.67 456.794C871.545 443.344 872.501 439.552 870.745 440.637C869.998 441.098 867.895 446.335 866.072 452.277C864.248 458.219 862.125 463.739 861.354 464.544C860.583 465.349 849.344 469.069 836.378 472.811C823.412 476.552 811.826 479.994 810.632 480.458C809.438 480.923 808.461 481.061 808.461 480.767C808.461 480.472 805.68 469.405 802.282 456.175C795.621 430.247 795.853 431.171 789.06 403.64C781.711 373.864 772.745 359.534 758.914 355.46C747.955 352.233 744.655 352.635 705.477 361.969C696.947 364.001 684.384 366.823 677.56 368.24C670.736 369.657 659.01 372.266 651.504 374.04C643.997 375.813 633.2 378.228 627.51 379.406L617.164 381.549L615.935 378.348C613.725 372.597 609.521 355.957 610.125 355.353C610.45 355.029 616.991 352.862 624.661 350.539C632.33 348.214 639.693 345.33 641.022 344.13C643.908 341.523 644.045 335.105 641.803 307.634C640.587 292.722 640.015 289.717 638.453 290.02ZM630.407 312.525L631.31 334.735L620.934 337.84C604.544 342.745 606.289 343.628 601.692 328.088C599.476 320.595 597.633 313.472 597.596 312.259C597.533 310.117 594.333 307.956 593.079 309.206C592.456 309.829 600.846 344.815 601.861 345.828C602.369 346.334 632.359 337.702 633.278 336.784C634.323 335.742 631.814 290.315 630.712 290.315C629.94 290.315 629.831 298.339 630.407 312.525ZM751.361 375.462C753.735 376.652 756.817 379.331 758.21 381.412C762.221 387.411 775.941 430.361 788.649 476.703C795.347 501.125 802.078 524.195 809.131 546.902C811.391 554.178 815.255 568.946 817.718 579.721C820.181 590.496 823.885 606.431 825.948 615.132C828.013 623.835 829.382 631.957 828.993 633.182C828.026 636.221 822.512 641.144 816.526 644.31C812.489 646.446 780.407 656.498 764.413 660.637C762.366 661.167 755.945 663.026 750.145 664.767C744.344 666.509 729.827 670.773 717.885 674.243C689.065 682.617 652.306 693.469 621.105 702.813C582.549 714.36 578.111 715.345 571.168 713.891C564.117 712.415 558.027 708.646 554.287 703.445C552.777 701.344 546.204 683.186 539.678 663.092C533.154 642.998 521.676 607.609 514.173 584.449C506.67 561.29 494.187 522.836 486.433 498.996C478.68 475.155 471.792 453.206 471.129 450.219C469.052 440.886 473.021 434.681 483.82 430.374C492.593 426.875 529.826 417.471 547.9 414.189C550.971 413.632 565.208 410.555 579.539 407.352C593.87 404.149 609.145 400.744 613.483 399.786C617.821 398.828 621.771 397.796 622.26 397.494C623.991 396.426 676.572 384.278 694.93 380.705C737.084 372.499 744.147 371.843 751.361 375.462ZM717.264 385.029C706.327 386.775 680.77 392.185 635.374 402.365C608.873 408.307 580.193 414.166 569.613 415.798C557.414 417.682 507.355 429.3 493.719 433.414C482.861 436.689 477.176 441.316 477.176 446.877C477.176 451.584 481.627 467.389 487.694 484.232C497.59 511.703 522.629 584.682 529.938 607.361C533.78 619.281 539.747 636.558 543.196 645.753C546.647 654.949 549.921 663.866 550.474 665.569C553.992 676.416 559.069 689.538 560.721 692.054C563.479 696.255 572.718 700.358 579.781 700.518C583.082 700.594 589.96 699.665 595.067 698.456C607.095 695.609 687.102 672.996 688.727 671.985C689.409 671.56 690.894 671.069 692.026 670.893C695.989 670.276 721.915 663.015 723.922 661.96C725.038 661.373 737.675 657.443 752.006 653.224C793.793 640.923 808.809 636.052 813.144 633.387C819.229 629.648 819.961 626.357 817.063 615.765C811.476 595.343 809.377 587.508 806.021 574.542C804.082 567.049 798.841 548.101 794.375 532.434C789.91 516.768 784.818 498.098 783.06 490.946C781.301 483.793 778.212 472.647 776.193 466.176C774.174 459.705 769.118 443.265 764.957 429.642C752.753 389.695 752.549 389.178 747.79 386.007C742.855 382.72 733.587 382.424 717.264 385.029ZM742.454 388.646C748.275 391.649 749.81 394.531 755.052 412.303C757.866 421.839 760.746 431.592 761.453 433.976C762.16 436.36 763.395 440.877 764.196 444.013C764.998 447.147 766.348 450.543 767.194 451.558C768.041 452.571 768.416 453.719 768.028 454.106C767.638 454.495 768.221 457.787 769.324 461.423C770.427 465.059 775.455 482.524 780.499 500.234C785.541 517.944 793.852 546.924 798.965 564.634C812.955 613.08 813.877 617.068 812.298 622.325C811.265 625.771 809.636 627.486 805.06 629.952C799.526 632.933 778.937 639.506 753.246 646.493C747.105 648.163 737.892 650.855 732.774 652.473C727.656 654.092 709.789 659.344 693.069 664.143C652.077 675.91 625.938 683.473 608.077 688.734C584.203 695.767 579.847 696.778 576.372 696.083C571.138 695.039 564.093 690.337 562.155 686.595C561.173 684.7 554.259 665.123 546.791 643.088C533.347 603.429 506.91 526.119 493.706 487.849C480.578 449.805 480.246 448.075 484.937 442.332C487.426 439.284 490.166 438.385 510.677 433.879C523.302 431.106 534.748 428.61 536.112 428.333C537.477 428.057 541.107 427.254 544.177 426.549C547.248 425.843 568.186 421.355 590.706 416.575C634.47 407.283 662.685 401.207 702.375 392.529C728.991 386.708 737.166 385.917 742.454 388.646ZM474.065 533.053C477.695 544.292 484.313 564.913 488.774 578.876C493.233 592.84 501.701 619.312 507.59 637.703C513.48 656.094 520.244 677.272 522.623 684.765C537.029 730.138 538.016 732.508 545.747 740.317C552.378 747.015 552.865 747.89 552.133 751.787C551.698 754.106 550.897 756.277 550.355 756.612C549.813 756.946 546.666 755.08 543.361 752.463C531.488 743.062 523.679 724.34 500.918 650.707C489.977 615.313 490.146 616.118 493.222 613.968C497.934 610.674 496.182 604.199 490.143 602.587C487.028 601.756 486.291 600.616 484.364 593.661C483.149 589.276 480.707 581.045 478.936 575.372C476.188 566.567 475.935 564.528 477.207 561.462C479.148 556.787 477.847 551.883 474.232 550.238C471.823 549.142 470.54 545.983 466.331 530.775C463.567 520.789 458.407 502.308 454.865 489.707C451.321 477.106 448.2 463.452 447.929 459.365C447.419 451.695 451.605 463.498 474.065 533.053ZM893.617 510.142C883.471 513.14 874.854 515.909 874.468 516.294C873.387 517.373 875.146 518.551 888.105 525.434C894.717 528.947 900.451 531.297 900.847 530.658C901.244 530.018 896.69 526.841 890.73 523.598L879.89 517.7L898.151 512.688C908.193 509.93 916.224 507.115 915.995 506.431C915.235 504.149 912.184 504.654 893.617 510.142ZM452.671 619.338C442.359 621.826 439.953 622.829 439.953 624.647C439.953 626.752 440.572 626.708 450.126 623.937C455.721 622.313 460.993 620.984 461.843 620.984C462.874 620.984 462.147 623.969 459.656 629.963C456.31 638.018 451.12 651.922 451.12 652.831C451.12 653.026 451.611 653.184 452.213 653.184C453.249 653.184 467.25 619.685 467.25 617.206C467.25 615.753 467.977 615.646 452.671 619.338ZM841.217 674.548C839.244 677.977 831.415 688.538 830.215 689.39C827.166 691.554 827.384 689.917 830.951 683.836C833.049 680.261 835.633 676.358 836.694 675.167C838.914 672.674 842.584 672.171 841.217 674.548ZM830.066 678.882C828.826 680.755 826.629 684.507 825.182 687.219C822.58 692.098 822.401 692.189 808.372 695.676C794.731 699.065 766.791 706.705 750.324 711.549C739.624 714.696 737.954 714.561 736.949 710.463C735.955 706.408 734.544 705.292 731.436 706.105C727.641 707.094 726.515 709.359 727.725 713.569L728.828 717.411L719.944 720.013C715.058 721.444 706.687 723.94 701.34 725.56L691.62 728.504L690.338 724.834C689.238 721.681 688.511 721.218 685.169 721.541C681.579 721.89 681.254 722.306 680.91 726.999L680.536 732.079L673.465 733.638C669.575 734.495 659.972 737.157 652.124 739.553C634.267 745.004 618.613 748.933 598.981 752.891C580.459 756.627 578.545 756.716 579.357 753.809C581.872 744.809 576.111 747.217 633.513 731.182C655.691 724.988 686.4 716.365 701.755 712.023C717.109 707.68 743.631 700.21 760.691 695.422C777.752 690.634 800.365 684.234 810.942 681.199C821.52 678.164 830.657 675.635 831.247 675.579C831.838 675.522 831.306 677.01 830.066 678.882ZM744.359 746.237C744.788 747.847 746.062 752.927 747.189 757.524C748.317 762.122 749.723 765.884 750.312 765.884C751.784 765.884 751.704 765.275 748.25 750.094C747.422 746.46 748.015 746.487 768.465 751.051C777.692 753.111 785.521 754.517 785.862 754.177C786.202 753.836 785.704 753.33 784.753 753.051C778.209 751.132 771.339 749.496 760.612 747.301C753.831 745.914 747.225 744.449 745.931 744.045C743.953 743.427 743.703 743.776 744.359 746.237ZM567.628 750.92C567.313 755.931 565.663 759.071 563.353 759.059C561.481 759.049 561.027 758.342 561.365 755.963C561.997 751.503 563.617 748.958 565.824 748.958C566.885 748.958 567.696 749.841 567.628 750.92Z" fill="#00A6FB"/>
<path d="M429 620H406.5" stroke="#00A6FB" stroke-width="6"/>
<ellipse cx="634" cy="285.5" rx="12" ry="12.5" fill="#FFF502"/>
<ellipse cx="589.5" cy="302" rx="12.5" ry="12" fill="#FFF502"/>
<circle cx="498.5" cy="320.5" r="12.5" fill="#FFF502"/>
<circle cx="393.5" cy="559.5" r="12.5" fill="#FFF502"/>
<ellipse cx="441.5" cy="618" rx="12.5" ry="12" fill="#FFF502"/>
<circle cx="454.5" cy="656.5" r="12.5" fill="#FFF502"/>
<circle cx="700.5" cy="791.5" r="12.5" fill="#FFF502"/>
<ellipse cx="748" cy="771.5" rx="12" ry="12.5" fill="#FFF502"/>
<circle cx="795" cy="752" r="12" fill="#FFF502"/>
<ellipse cx="899.5" cy="535" rx="12.5" ry="12" fill="#FFF502"/>
<circle cx="911.5" cy="500.5" r="12.5" fill="#FFF502"/>
<circle cx="874.5" cy="439.5" r="12.5" fill="#FFF502"/>
<path d="M582.217 301C581.137 297.877 584.256 294.129 588 295.181" stroke="#F8F9FA" stroke-width="2" stroke-linecap="round"/>
<path d="M386.217 560C385.137 556.877 388.256 553.129 392 554.181" stroke="#F8F9FA" stroke-width="2" stroke-linecap="round"/>
<path d="M637.623 277.736C639.268 277.117 643.202 280.001 643.394 285.554" stroke="#F8F9FA" stroke-width="2" stroke-linecap="round"/>
<path d="M877.174 432.184C878.819 431.564 882.753 434.449 882.945 440.001" stroke="#F8F9FA" stroke-width="2" stroke-linecap="round"/>
<path d="M918.531 495.391C920.243 495.788 921.915 500.371 918.994 505.097" stroke="#F8F9FA" stroke-width="2" stroke-linecap="round"/>
<path d="M901.97 527.62C903.63 527.154 907.64 529.427 907.884 533.739" stroke="#F8F9FA" stroke-width="2" stroke-linecap="round"/>
<path d="M502.777 311.931C504.422 311.311 508.356 314.196 508.548 319.748" stroke="#F8F9FA" stroke-width="2" stroke-linecap="round"/>
<path d="M448.245 622.626C448.45 624.372 444.702 627.495 439.267 626.342" stroke="#F8F9FA" stroke-width="2" stroke-linecap="round"/>
<path d="M450.222 663.713C448.512 664.121 444.971 660.766 445.477 655.233" stroke="#F8F9FA" stroke-width="2" stroke-linecap="round"/>
<path d="M696.927 800.082C695.218 800.491 691.676 797.136 692.183 791.603" stroke="#F8F9FA" stroke-width="2" stroke-linecap="round"/>
<path d="M752.221 764.428C753.956 764.147 757.24 767.753 756.328 773.234" stroke="#F8F9FA" stroke-width="2" stroke-linecap="round"/>
<path d="M800.57 745.833C802.305 745.551 805.59 749.158 804.678 754.638" stroke="#F8F9FA" stroke-width="2" stroke-linecap="round"/>
<path d="M845.5 679H872.5" stroke="#00A6FB" stroke-width="6"/>
<path d="M606.752 570.768C603.296 570.768 600.075 570.213 597.088 569.104C594.144 567.952 591.584 566.331 589.408 564.24C587.232 562.149 585.525 559.696 584.288 556.88C583.093 554.064 582.496 550.971 582.496 547.6C582.496 544.229 583.093 541.136 584.288 538.32C585.525 535.504 587.232 533.051 589.408 530.96C591.627 528.869 594.208 527.269 597.152 526.16C600.096 525.008 603.317 524.432 606.816 524.432C610.699 524.432 614.197 525.115 617.312 526.48C620.469 527.803 623.115 529.765 625.248 532.368L618.592 538.512C617.056 536.763 615.349 535.461 613.472 534.608C611.595 533.712 609.547 533.264 607.328 533.264C605.237 533.264 603.317 533.605 601.568 534.288C599.819 534.971 598.304 535.952 597.024 537.232C595.744 538.512 594.741 540.027 594.016 541.776C593.333 543.525 592.992 545.467 592.992 547.6C592.992 549.733 593.333 551.675 594.016 553.424C594.741 555.173 595.744 556.688 597.024 557.968C598.304 559.248 599.819 560.229 601.568 560.912C603.317 561.595 605.237 561.936 607.328 561.936C609.547 561.936 611.595 561.509 613.472 560.656C615.349 559.76 617.056 558.416 618.592 556.624L625.248 562.768C623.115 565.371 620.469 567.355 617.312 568.72C614.197 570.085 610.677 570.768 606.752 570.768ZM632.25 570V525.2H651.642C655.652 525.2 659.108 525.861 662.01 527.184C664.911 528.464 667.151 530.32 668.73 532.752C670.308 535.184 671.098 538.085 671.098 541.456C671.098 544.784 670.308 547.664 668.73 550.096C667.151 552.528 664.911 554.405 662.01 555.728C659.108 557.008 655.652 557.648 651.642 557.648H638.01L642.618 552.976V570H632.25ZM642.618 554.128L638.01 549.2H651.066C654.266 549.2 656.655 548.517 658.234 547.152C659.812 545.787 660.602 543.888 660.602 541.456C660.602 538.981 659.812 537.061 658.234 535.696C656.655 534.331 654.266 533.648 651.066 533.648H638.01L642.618 528.72V554.128ZM698.154 570.768C691.796 570.768 686.826 568.997 683.242 565.456C679.658 561.915 677.866 556.859 677.866 550.288V525.2H688.234V549.904C688.234 554.171 689.108 557.243 690.858 559.12C692.607 560.997 695.06 561.936 698.218 561.936C701.375 561.936 703.828 560.997 705.578 559.12C707.327 557.243 708.201 554.171 708.201 549.904V525.2H718.442V550.288C718.442 556.859 716.65 561.915 713.066 565.456C709.482 568.997 704.511 570.768 698.154 570.768Z" fill="#FFF502"/>
<path d="M693 365.5V337.5" stroke="#00A6FB" stroke-width="6"/>
<path d="M850 625H875.5" stroke="#00A6FB" stroke-width="6"/>
<path d="M796.5 431V407.5" stroke="#00A6FB" stroke-width="6"/>
<path d="M487 411.5H460.5" stroke="#00A6FB" stroke-width="6"/>
<path d="M829 692V714" stroke="#00A6FB" stroke-width="6"/>
</svg>
