<svg width="40" height="40" viewBox="0 0 40 40" fill="none" xmlns="http://www.w3.org/2000/svg">
<rect width="40" height="40" rx="20" fill="#F8F9FA"/>
<path d="M20 17.1429C20.9468 17.1429 21.7143 17.9104 21.7143 18.8571V30.2857C21.7143 31.2325 20.9468 32 20 32C19.0532 32 18.2857 31.2325 18.2857 30.2857V18.8571C18.2857 17.9104 19.0532 17.1429 20 17.1429Z" fill="#023047"/>
<path d="M20 13.1429C21.2624 13.1429 22.2857 12.1195 22.2857 10.8571C22.2857 9.59478 21.2624 8.57143 20 8.57143C18.7376 8.57143 17.7143 9.59478 17.7143 10.8571C17.7143 12.1195 18.7376 13.1429 20 13.1429Z" fill="#023047"/>
<path fill-rule="evenodd" clip-rule="evenodd" d="M0 20C0 8.9543 8.9543 0 20 0C31.0457 0 40 8.9543 40 20C40 31.0457 31.0457 40 20 40C8.9543 40 0 31.0457 0 20ZM20 3.42857C10.8479 3.42857 3.42857 10.8479 3.42857 20C3.42857 29.1521 10.8479 36.5714 20 36.5714C29.1521 36.5714 36.5714 29.1521 36.5714 20C36.5714 10.8479 29.1521 3.42857 20 3.42857Z" fill="#023047"/>
</svg>
