<svg xmlns="http://www.w3.org/2000/svg" width="129" height="185" viewBox="0 0 129 185" fill="none">
<path d="M128.49 64.3341C128.505 53.621 125.84 43.0741 120.739 33.6535C115.638 24.2328 108.262 16.2373 99.2817 10.3948C90.3019 4.55222 80.0036 1.04803 69.3239 0.201091C58.6443 -0.645848 47.9224 1.19135 38.1339 5.54551C28.3455 9.89968 19.8013 16.6326 13.2789 25.1314C6.75646 33.6303 2.46295 43.6254 0.789059 54.207C-0.884836 64.7886 0.114028 75.6208 3.69475 85.7179C7.27547 95.815 13.3244 104.856 21.2909 112.019C28.4427 118.35 34.1788 126.118 38.1247 134.816C42.0707 143.514 44.1377 152.946 44.1909 162.497V162.567L84.0749 162.613V162.544C84.1412 153.003 86.2211 143.583 90.1787 134.901C94.1363 126.219 99.8824 118.47 107.041 112.162C113.787 106.153 119.185 98.7857 122.882 90.5427C126.579 82.2998 128.49 73.3681 128.49 64.3341Z" fill="#00A6FB"/>
<path opacity="0.8" d="M128.49 64.3341C128.505 53.621 125.84 43.0741 120.739 33.6535C115.638 24.2328 108.262 16.2373 99.2817 10.3948C90.3019 4.55222 80.0036 1.04803 69.3239 0.201091C58.6443 -0.645848 47.9224 1.19135 38.1339 5.54551C28.3455 9.89968 19.8013 16.6326 13.2789 25.1314C6.75646 33.6303 2.46295 43.6254 0.789059 54.207C-0.884836 64.7886 0.114028 75.6208 3.69475 85.7179C7.27547 95.815 13.3244 104.856 21.2909 112.019C28.4427 118.35 34.1788 126.118 38.1247 134.816C42.0707 143.514 44.1377 152.946 44.1909 162.497V162.567L84.0749 162.613V162.544C84.1412 153.003 86.2211 143.583 90.1787 134.901C94.1363 126.219 99.8824 118.47 107.041 112.162C113.787 106.153 119.185 98.7857 122.882 90.5427C126.579 82.2998 128.49 73.3681 128.49 64.3341Z" fill="white"/>
<path d="M56.2395 162.753L40.6075 73.4008C40.4716 72.6162 40.627 71.809 41.0445 71.1309C41.4619 70.4528 42.1127 69.9507 42.8745 69.7188C44.4053 69.1801 46.0326 68.9711 47.6498 69.1053C49.267 69.2396 50.8375 69.7141 52.2585 70.4978C52.7624 70.8048 53.2373 71.1569 53.6775 71.5498C55.1543 70.2306 56.9069 69.2576 58.8075 68.7018C64.6175 66.9068 68.2205 69.1958 70.2185 71.4328C70.6459 71.9138 71.036 72.4266 71.3855 72.9668C74.1125 69.9668 77.2405 68.4098 80.1065 68.7338C80.8065 68.7569 81.4947 68.9214 82.1295 69.2173C82.7643 69.5133 83.3327 69.9345 83.8005 70.4558C84.2876 71.0679 84.5185 71.845 84.4445 72.6238L71.6825 162.741L69.7015 162.461L82.4645 72.3428C82.4725 72.2318 82.4925 71.0168 79.8815 70.7218C77.5045 70.4498 74.8025 71.9658 72.4075 74.8318C74.2075 78.7468 74.3945 83.4148 73.1895 86.1648C72.9668 86.8445 72.5457 87.4419 71.9803 87.88C71.4149 88.3181 70.7313 88.5768 70.0175 88.6228C69.3523 88.6743 68.6862 88.5342 68.098 88.2191C67.5099 87.904 67.0242 87.4271 66.6985 86.8448C65.1885 84.0598 67.0735 78.9758 69.4635 75.4308C69.6522 75.1508 69.8442 74.8785 70.0395 74.6138C69.6681 73.953 69.228 73.3332 68.7265 72.7648C66.3885 70.1468 63.2495 69.4218 59.3985 70.6128C57.7834 71.0724 56.292 71.8889 55.0345 73.0018C56.7487 75.4088 57.8692 78.1871 58.3045 81.1098C59.0635 85.1748 57.8355 86.8868 57.0355 87.5448C56.6341 87.882 56.1485 88.1035 55.6307 88.1856C55.1129 88.2677 54.5825 88.2073 54.0965 88.0108C51.7965 87.0978 50.0515 83.1718 50.2045 79.2608C50.2588 77.0134 51.0035 74.8372 52.3375 73.0278C51.9915 72.7195 51.6183 72.443 51.2225 72.2018C50.0402 71.5682 48.7381 71.1897 47.4004 71.0909C46.0627 70.992 44.7191 71.1749 43.4565 71.6278C43.1616 71.7182 42.9098 71.9132 42.7485 72.1762C42.5872 72.4391 42.5275 72.7519 42.5805 73.0558L58.2125 162.408L56.2395 162.753ZM71.0055 76.7188C68.6815 80.2408 67.5635 84.2388 68.4575 85.8878C68.6059 86.1522 68.8323 86.3643 69.1058 86.4951C69.3793 86.6259 69.6866 86.6691 69.9855 86.6188C70.5335 86.6098 70.9955 86.1848 71.3575 85.3578C72.2485 83.3188 72.1345 79.8298 71.0055 76.7188ZM53.6965 74.5578C52.7668 75.9838 52.2478 77.6383 52.1965 79.3398C52.0585 82.8588 53.6365 85.6798 54.8285 86.1538C54.9823 86.2167 55.1505 86.2358 55.3145 86.2089C55.4785 86.1821 55.6318 86.1104 55.7575 86.0018C56.0455 85.7638 56.9395 84.7358 56.3315 81.4778C55.9606 79.0083 55.0619 76.6477 53.6965 74.5568V74.5578Z" fill="white"/>
<path d="M44.1914 162.566L84.0764 162.612L84.0737 164.942C84.0676 170.231 81.9607 175.301 78.2166 179.037C74.4724 182.772 69.3977 184.867 64.1087 184.861C61.4898 184.859 58.8971 184.34 56.4787 183.335C54.0603 182.33 51.8635 180.859 50.0137 179.005C48.1639 177.151 46.6975 174.951 45.698 172.53C44.6986 170.109 44.1857 167.515 44.1887 164.896L44.1914 162.566Z" fill="#00A6FB"/>
<path opacity="0.5" d="M44.1914 162.566L84.0764 162.612L84.0737 164.942C84.0676 170.231 81.9607 175.301 78.2166 179.037C74.4724 182.772 69.3977 184.867 64.1087 184.861C61.4898 184.859 58.8971 184.34 56.4787 183.335C54.0603 182.33 51.8635 180.859 50.0137 179.005C48.1639 177.151 46.6975 174.951 45.698 172.53C44.6986 170.109 44.1857 167.515 44.1887 164.896L44.1914 162.566Z" fill="white"/>
</svg>