<svg xmlns="http://www.w3.org/2000/svg" width="30" height="15" viewBox="0 0 30 15" fill="none">
<path d="M2.85 7.5C2.85 5.106 4.935 3.16 7.5 3.16H13.5V0.5H7.5C5.51088 0.5 3.60322 1.2375 2.1967 2.55025C0.790176 3.86301 0 5.64348 0 7.5C0 9.35651 0.790176 11.137 2.1967 12.4497C3.60322 13.7625 5.51088 14.5 7.5 14.5H13.5V11.84H7.5C4.935 11.84 2.85 9.894 2.85 7.5ZM9 8.9H21V6.1H9V8.9ZM22.5 0.5H16.5V3.16H22.5C25.065 3.16 27.15 5.106 27.15 7.5C27.15 9.894 25.065 11.84 22.5 11.84H16.5V14.5H22.5C24.4891 14.5 26.3968 13.7625 27.8033 12.4497C29.2098 11.137 30 9.35651 30 7.5C30 5.64348 29.2098 3.86301 27.8033 2.55025C26.3968 1.2375 24.4891 0.5 22.5 0.5Z" fill="#00A6FB"/>
</svg>