<svg width="54" height="64" viewBox="0 0 54 64" fill="none" xmlns="http://www.w3.org/2000/svg">
<path d="M2.12287 6.06673C2.74295 6.37952 3.49918 6.13041 3.81197 5.51033C4.12476 4.89025 3.87564 4.13402 3.25557 3.82123C2.63549 3.50845 1.87925 3.75755 1.56646 4.37763C1.25368 4.99771 1.50279 5.75395 2.12287 6.06673Z" stroke="url(#paint0_linear_493_13796)" stroke-width="2" stroke-miterlimit="10"/>
<path d="M23.7342 56.1849C24.3543 56.4977 25.1105 56.2486 25.4233 55.6285C25.7361 55.0084 25.487 54.2522 24.8669 53.9394C24.2468 53.6266 23.4906 53.8757 23.1778 54.4958C22.865 55.1159 23.1141 55.8721 23.7342 56.1849Z" stroke="url(#paint1_linear_493_13796)" stroke-width="2" stroke-miterlimit="10"/>
<path d="M53.9971 49.1205C54.012 49.4779 53.9551 49.8348 53.8297 50.1699C53.7043 50.505 53.513 50.8116 53.2671 51.0715C53.0212 51.3314 52.7257 51.5393 52.398 51.683C52.0704 51.8267 51.7172 51.9033 51.3595 51.9082C51.0017 51.9131 50.6466 51.8461 50.3151 51.7114C49.9837 51.5767 49.6826 51.3769 49.4297 51.1237C49.1768 50.8706 48.9772 50.5694 48.8428 50.2378C48.7083 49.9063 48.6417 49.5511 48.6469 49.1934L48.2459 21.4969L43.609 30.0886L43.1664 30.9061L43.0571 31.104L42.6093 31.9397C42.5728 31.984 42.539 32.0256 42.4999 32.0673C42.4794 32.0926 42.4567 32.1161 42.4322 32.1376C42.3984 32.1758 42.3618 32.2114 42.3229 32.2443C42.2776 32.2879 42.2297 32.3287 42.1797 32.3667H42.1667C42.1198 32.4032 42.0703 32.4396 42.0183 32.4735C41.9662 32.5073 41.9219 32.5385 41.8698 32.5698L41.8386 32.5854L41.7631 32.6297L41.6824 32.6687C41.5624 32.7245 41.4389 32.7723 41.3127 32.8119C41.2498 32.8339 41.1854 32.8513 41.12 32.864C41.0549 32.8796 40.9899 32.8926 40.9222 32.903H40.8414L40.7399 32.9161H40.6254H40.5238C40.1464 32.9076 39.775 32.8196 39.434 32.6576C39.093 32.4956 38.7901 32.2634 38.5451 31.9762L38.0713 31.1535L37.9672 30.966L37.5011 30.1615L35.1059 26.0115L32.6169 21.7L32.7132 28.2661L32.7393 30.1459V30.1693C31.8933 29.6653 30.9894 29.2657 30.0472 28.9795C29.1791 28.7156 28.2838 28.5514 27.3786 28.49L27.2848 22.0697L27.1416 12.1997V11.502C27.1382 10.9191 27.3253 10.3511 27.6744 9.88442C28.0235 9.41771 28.5156 9.07786 29.0757 8.91662C29.6358 8.75537 30.2332 8.78155 30.7771 8.99117C31.3209 9.2008 31.7814 9.58238 32.0884 10.0778L32.1613 10.2028L32.4685 10.7235L38.1963 20.63L40.503 24.6108L48.1209 10.4892L48.4177 9.94246L48.4724 9.83571C48.7606 9.32306 49.2096 8.91958 49.75 8.68765C50.2904 8.45571 50.8922 8.40823 51.4623 8.55253C52.0324 8.69684 52.5391 9.0249 52.9041 9.48601C53.2691 9.94713 53.4721 10.5156 53.4816 11.1036V11.8014L53.9971 49.1205Z" fill="url(#paint2_linear_493_13796)"/>
<path d="M3.60352 5.8584L10.1124 11.7164" stroke="url(#paint3_linear_493_13796)" stroke-width="3" stroke-miterlimit="10"/>
<path d="M38.598 46.2199C38.4782 56.1134 27.6319 62.1718 18.8111 58.368L17.8244 62.013C23.5105 62.013 29.332 62.4972 34.2266 58.9981C41.0427 54.1295 43.2479 44.4938 38.2543 37.4799C35.1066 33.0538 30.0974 30.5544 24.6925 30.4503L26.6451 32.403C26.6377 31.8874 26.4296 31.395 26.065 31.0304C25.7004 30.6658 25.2081 30.4577 24.6925 30.4503C18.03 30.3592 11.831 25.8108 10.7948 19.0234C9.88879 13.0743 13.4739 7.35173 18.8996 5.00074C20.7289 4.22566 22.6954 3.82626 24.6821 3.82626C26.6688 3.82626 28.6352 4.22566 30.4645 5.00074L31.4487 1.35579C29.2643 1.35579 27.0773 1.35579 24.893 1.35579C20.9753 1.33568 17.1678 2.65168 14.0987 5.08666C7.28786 10.5306 6.44171 20.5829 12.0159 27.1959C15.1401 30.8955 19.8838 32.8742 24.6795 32.9237L22.7268 30.971C22.7355 31.4862 22.944 31.9778 23.3084 32.3421C23.6727 32.7064 24.1643 32.915 24.6795 32.9237C32.0631 33.0669 38.4782 38.6514 38.5902 46.2329C38.6214 48.7427 42.5267 48.7506 42.4955 46.2329C42.3679 36.5165 34.1954 29.2032 24.6795 29.0184L26.6321 30.971C26.6247 30.4554 26.4166 29.9631 26.052 29.5985C25.6874 29.2339 25.195 29.0258 24.6795 29.0184C17.7385 28.935 11.7061 23.4077 12.1825 16.261C12.6225 9.65066 18.7122 5.28453 24.9867 5.2663C27.1372 5.2663 29.2877 5.2663 31.4383 5.2663C33.2347 5.2663 34.2839 2.42584 32.425 1.62135C24.4764 -1.82052 15.1115 0.272718 9.92524 7.37516C5.16858 13.884 5.98609 23.025 11.5056 28.7997C14.9396 32.3925 19.7536 34.2801 24.6873 34.3478L22.7346 32.3951C22.7433 32.9103 22.9519 33.4019 23.3162 33.7662C23.6805 34.1306 24.1721 34.3391 24.6873 34.3478C31.9902 34.5014 38.486 40.9347 36.877 48.4954C35.5753 54.559 30.0271 58.1025 24.0676 58.1103C21.9848 58.1103 19.902 58.1103 17.8192 58.1103C16.0227 58.1103 14.9761 60.9481 16.835 61.7552C22.6852 64.2754 29.5585 63.9812 34.8853 60.3155C37.1961 58.7561 39.0959 56.6616 40.4232 54.2101C41.7504 51.7587 42.4658 49.0229 42.5085 46.2355C42.5319 43.7049 38.6266 43.7049 38.598 46.2199Z" fill="url(#paint4_linear_493_13796)"/>
<path d="M10.9178 46.0286L6.22559 43.0498" stroke="url(#paint5_linear_493_13796)" stroke-width="3" stroke-miterlimit="10"/>
<path d="M23.1299 54.0235L17.9229 48.8164" stroke="url(#paint6_linear_493_13796)" stroke-width="3" stroke-miterlimit="10"/>
<path d="M5.51239 43.5209C6.20689 43.5209 6.7699 42.9579 6.7699 42.2634C6.7699 41.5689 6.20689 41.0059 5.51239 41.0059C4.81789 41.0059 4.25488 41.5689 4.25488 42.2634C4.25488 42.9579 4.81789 43.5209 5.51239 43.5209Z" stroke="url(#paint7_linear_493_13796)" stroke-width="2" stroke-miterlimit="10"/>
<path d="M14.0373 52.1862L20.1993 45.9644" stroke="url(#paint8_linear_493_13796)" stroke-width="3" stroke-miterlimit="10"/>
<path d="M12.877 53.9845C13.514 54.2612 14.2547 53.9691 14.5314 53.3321C14.8081 52.6951 14.516 51.9544 13.879 51.6778C13.242 51.4011 12.5013 51.6931 12.2246 52.3302C11.9479 52.9672 12.24 53.7079 12.877 53.9845Z" stroke="url(#paint9_linear_493_13796)" stroke-width="2" stroke-miterlimit="10"/>
<path d="M27.5329 45.8867L10.2559 45.9101" stroke="url(#paint10_linear_493_13796)" stroke-width="3" stroke-miterlimit="10"/>
<path d="M28.7829 47.142C29.4774 47.142 30.0404 46.579 30.0404 45.8845C30.0404 45.19 29.4774 44.627 28.7829 44.627C28.0884 44.627 27.5254 45.19 27.5254 45.8845C27.5254 46.579 28.0884 47.142 28.7829 47.142Z" stroke="url(#paint11_linear_493_13796)" stroke-width="2" stroke-miterlimit="10"/>
<defs>
<linearGradient id="paint0_linear_493_13796" x1="3.60851" y1="3.12155" x2="1.7711" y2="6.76409" gradientUnits="userSpaceOnUse">
<stop offset="1" stop-color="#00A6FB"/>
</linearGradient>
<linearGradient id="paint1_linear_493_13796" x1="25.2198" y1="53.2397" x2="23.3824" y2="56.8823" gradientUnits="userSpaceOnUse">
<stop offset="1" stop-color="#00A6FB"/>
</linearGradient>
<linearGradient id="paint2_linear_493_13796" x1="27.1" y1="30.1719" x2="53.9971" y2="30.1719" gradientUnits="userSpaceOnUse">
<stop stop-color="#00A6FB"/>
</linearGradient>
<linearGradient id="paint3_linear_493_13796" x1="2.68909" y1="8.78738" x2="11.0311" y2="8.78738" gradientUnits="userSpaceOnUse">
<stop stop-color="#00A6FB"/>
</linearGradient>
<linearGradient id="paint4_linear_493_13796" x1="8.57921" y1="31.6896" x2="40.6808" y2="31.6896" gradientUnits="userSpaceOnUse">
<stop stop-color="#00A6FB"/>
</linearGradient>
<linearGradient id="paint5_linear_493_13796" x1="11.0287" y1="43.9899" x2="6.11418" y2="45.0859" gradientUnits="userSpaceOnUse">
<stop offset="1" stop-color="#00A6FB"/>
</linearGradient>
<linearGradient id="paint6_linear_493_13796" x1="17.1918" y1="51.4199" x2="23.861" y2="51.4199" gradientUnits="userSpaceOnUse">
<stop offset="1" stop-color="#00A6FB"/>
</linearGradient>
<linearGradient id="paint7_linear_493_13796" x1="3.47122" y1="42.2634" x2="7.55096" y2="42.2634" gradientUnits="userSpaceOnUse">
<stop stop-color="#00A6FB"/>
</linearGradient>
<linearGradient id="paint8_linear_493_13796" x1="12.9569" y1="49.3145" x2="21.2797" y2="48.8361" gradientUnits="userSpaceOnUse">
<stop offset="1" stop-color="#00A6FB"/>
</linearGradient>
<linearGradient id="paint9_linear_493_13796" x1="14.1912" y1="50.959" x2="12.5658" y2="54.7009" gradientUnits="userSpaceOnUse">
<stop offset="1" stop-color="#00A6FB"/>
</linearGradient>
<linearGradient id="paint10_linear_493_13796" x1="10.2559" y1="45.8997" x2="27.5355" y2="45.8997" gradientUnits="userSpaceOnUse">
<stop stop-color="#00A6FB"/>
<stop offset="0.5" stop-color="#00A6FB"/>
<stop offset="1" stop-color="#00A6FB"/>
</linearGradient>
<linearGradient id="paint11_linear_493_13796" x1="30.7393" y1="46.4709" x2="26.8312" y2="45.3" gradientUnits="userSpaceOnUse">
<stop stop-color="#00A6FB"/>
</linearGradient>
</defs>
</svg>
