<svg width="552" height="552" viewBox="0 0 552 552" fill="none" xmlns="http://www.w3.org/2000/svg">
<path d="M308 350C349.066 350 385.339 371.003 406.474 402.943C373.351 436.872 327.156 458 276 458C224.827 458 178.634 436.95 145.52 402.951C166.655 371.007 202.93 350 244 350H308ZM87.9096 87.9096C38.0249 137.794 10 205.452 10 276C10 346.548 38.0249 414.206 87.9096 464.09C137.794 513.975 205.452 542 276 542C346.548 542 414.206 513.975 464.09 464.09C513.975 414.206 542 346.548 542 276C542 205.452 513.975 137.794 464.09 87.9096C414.206 38.0249 346.548 10 276 10C205.452 10 137.794 38.0249 87.9096 87.9096ZM319.841 263.841C308.213 275.468 292.443 282 276 282C259.557 282 243.787 275.468 232.159 263.841C220.532 252.213 214 236.443 214 220C214 203.557 220.532 187.787 232.159 176.159C243.787 164.532 259.557 158 276 158C292.443 158 308.213 164.532 319.841 176.159C331.468 187.787 338 203.557 338 220C338 236.443 331.468 252.213 319.841 263.841Z" fill="black" stroke="#99DBFD" stroke-width="20"/>
</svg>
