<svg width="1020" height="909" viewBox="0 0 1020 909" fill="none" xmlns="http://www.w3.org/2000/svg">
<g id="No Results">
<g id="circle">
<path id="Stroke 1" d="M110.863 538.291L112.885 545.341" stroke="#D2D8DF" stroke-width="2.921" stroke-linecap="round"/>
<g id="Group 8">
<path id="Stroke 2" d="M96.1183 546.65L103.58 550.929" stroke="#D2D8DF" stroke-width="2.921" stroke-linecap="round"/>
<path id="Stroke 4" d="M93.9031 564.371L102.049 562.035" stroke="#D2D8DF" stroke-width="2.921" stroke-linecap="round"/>
<path id="Stroke 6" d="M104.593 578.696L108.654 571.114" stroke="#D2D8DF" stroke-width="2.921" stroke-linecap="round"/>
</g>
<path id="Stroke 9" d="M121.646 575.893L119.624 568.843" stroke="#D2D8DF" stroke-width="2.921" stroke-linecap="round"/>
<path id="Stroke 10" d="M132.045 567.823L125.997 564.47" stroke="#D2D8DF" stroke-width="2.921" stroke-linecap="round"/>
<path id="Stroke 11" d="M138.074 553.377L131.023 555.398" stroke="#D2D8DF" stroke-width="2.921" stroke-linecap="round"/>
<path id="Stroke 12" d="M128.66 538.274L125.308 544.322" stroke="#D2D8DF" stroke-width="2.921" stroke-linecap="round"/>
<path id="Stroke 13" d="M400.957 121.919L402.305 126.619" stroke="#D2D8DF" stroke-width="2.921" stroke-linecap="round"/>
<path id="Stroke 15" d="M390.899 140.064L395.599 138.716" stroke="#D2D8DF" stroke-width="2.921" stroke-linecap="round"/>
<path id="Stroke 16" d="M409.04 150.121L407.692 145.421" stroke="#D2D8DF" stroke-width="2.921" stroke-linecap="round"/>
<path id="Stroke 17" d="M416.75 132.652L412.05 134" stroke="#D2D8DF" stroke-width="2.921" stroke-linecap="round"/>
<path id="Stroke 18" d="M184.948 397.506L186.969 404.556" stroke="#D2D8DF" stroke-width="2.921" stroke-linecap="round"/>
<path id="Stroke 19" d="M169.858 424.723L176.909 422.701" stroke="#D2D8DF" stroke-width="2.921" stroke-linecap="round"/>
<path id="Stroke 20" d="M196.398 437.46L194.377 430.409" stroke="#D2D8DF" stroke-width="2.921" stroke-linecap="round"/>
<path id="Stroke 21" d="M209.815 413.267L202.765 415.289" stroke="#D2D8DF" stroke-width="2.921" stroke-linecap="round"/>
<g id="Group 42">
<path id="Stroke 22" d="M764.309 508.708C769.926 507.097 775.787 510.347 777.398 515.965C779.01 521.585 775.761 527.446 770.144 529.056C764.528 530.667 758.667 527.419 757.055 521.799" stroke="#D2D8DF" stroke-width="2.921" stroke-linecap="round"/>
<path id="Fill 26" fill-rule="evenodd" clip-rule="evenodd" d="M784.389 403.055C789.889 399.44 797.028 389.399 796.892 380.838C800.85 387.305 811.379 393.277 818.909 391.798C811.475 397.101 806.06 408.073 806.766 415.27C803.913 408.546 790.325 402.453 784.389 403.055Z" fill="#EBECEE"/>
<path id="Fill 28" fill-rule="evenodd" clip-rule="evenodd" d="M190.005 669.995C192.755 668.187 196.324 663.168 196.256 658.887C198.234 662.119 203.498 665.106 207.263 664.368C203.547 667.017 200.84 672.503 201.192 676.102C199.766 672.74 192.971 669.693 190.005 669.995Z" fill="#EBECEE"/>
<path id="Fill 30" fill-rule="evenodd" clip-rule="evenodd" d="M152.316 326.989C153.566 331.348 151.047 335.891 146.692 337.14C142.334 338.39 137.792 335.871 136.542 331.513C135.293 327.156 137.81 322.611 142.167 321.362C146.523 320.113 151.067 322.633 152.316 326.989Z" fill="#D1D8DF"/>
<path id="Fill 32" fill-rule="evenodd" clip-rule="evenodd" d="M685.053 197.156C687.141 204.439 682.93 212.035 675.651 214.122C668.369 216.21 660.774 211.999 658.686 204.717C656.598 197.435 660.807 189.839 668.09 187.751C675.368 185.664 682.965 189.874 685.053 197.156Z" fill="#EBECEE"/>
<path id="Fill 34" fill-rule="evenodd" clip-rule="evenodd" d="M857.41 109.072C859.067 114.85 855.729 120.874 849.955 122.53C844.178 124.186 838.155 120.846 836.498 115.068C834.842 109.291 838.18 103.267 843.956 101.61C849.73 99.9547 855.753 103.295 857.41 109.072Z" fill="#EBECEE"/>
<path id="Stroke 36" fill-rule="evenodd" clip-rule="evenodd" d="M435.623 758.685C436.668 762.327 434.563 766.125 430.922 767.169C427.283 768.213 423.485 766.107 422.441 762.465C421.397 758.823 423.501 755.025 427.14 753.981C430.782 752.937 434.579 755.043 435.623 758.685Z" stroke="#D2D8DF" stroke-width="2.921" stroke-linecap="round"/>
<path id="Stroke 38" fill-rule="evenodd" clip-rule="evenodd" d="M281.266 235.166C282.516 239.524 279.997 244.067 275.641 245.316C271.286 246.565 266.742 244.048 265.492 239.689C264.243 235.332 266.762 230.787 271.117 229.538C275.473 228.289 280.017 230.809 281.266 235.166Z" stroke="#D2D8DF" stroke-width="2.921" stroke-linecap="round"/>
<path id="Stroke 40" fill-rule="evenodd" clip-rule="evenodd" d="M653.825 775.138C649.335 778.501 642.968 777.586 639.606 773.097C636.243 768.605 637.155 762.236 641.647 758.875C646.135 755.512 652.501 756.425 655.864 760.917C659.229 765.407 658.315 771.775 653.825 775.138Z" stroke="#D2D8DF" stroke-width="2.921" stroke-linecap="round"/>
</g>
</g>
<g id="search">
<g id="documents">
<path id="Fill 1" fill-rule="evenodd" clip-rule="evenodd" d="M597.358 589.546L404.633 644.809C391.068 648.698 376.771 640.746 372.868 627.135L294.06 352.3C290.157 338.689 298.069 324.374 311.634 320.485L504.36 265.221C517.93 261.33 532.225 269.277 536.128 282.888L614.936 557.723C618.839 571.334 610.929 585.654 597.358 589.546Z" fill="#E0E2EE"/>
<path id="Fill 3" fill-rule="evenodd" clip-rule="evenodd" d="M584.278 606.013L391.552 661.276C377.987 665.166 363.69 657.214 359.788 643.603L280.98 368.767C277.077 355.157 284.989 340.842 298.554 336.952L491.279 281.689C504.85 277.798 519.145 285.745 523.048 299.355L601.856 574.191C605.759 587.802 597.848 602.122 584.278 606.013Z" fill="#E8EBF2"/>
<path id="Fill 5" fill-rule="evenodd" clip-rule="evenodd" d="M570.933 619.879L377.809 675.256C364.216 679.154 349.91 671.254 346.023 657.7L267.542 384.002C263.655 370.448 271.603 356.172 285.196 352.275L478.32 296.897C491.918 292.998 506.223 300.892 510.11 314.446L588.592 588.144C592.478 601.698 584.532 615.979 570.933 619.879Z" fill="#D8DBEA"/>
<path id="Fill 8" fill-rule="evenodd" clip-rule="evenodd" d="M570.933 619.879L377.809 675.256C364.216 679.154 349.91 671.254 346.023 657.7L267.542 384.002C263.655 370.448 271.603 356.172 285.196 352.275L478.32 296.897C491.918 292.998 506.223 300.892 510.11 314.446L588.592 588.144C592.478 601.698 584.532 615.979 570.933 619.879Z" fill="#F1F2F7"/>
<path id="Fill 11" fill-rule="evenodd" clip-rule="evenodd" d="M474.398 388.267L331.753 429.17C327.679 430.338 323.435 428.122 322.323 424.247C321.211 420.366 323.635 416.237 327.709 415.069L470.354 374.166C474.428 372.998 478.672 375.214 479.785 379.095C480.896 382.971 478.472 387.099 474.398 388.267Z" fill="#E0E2EE"/>
<path id="Fill 13" fill-rule="evenodd" clip-rule="evenodd" d="M486.526 430.57L343.881 471.473C339.807 472.641 335.563 470.425 334.452 466.55C333.339 462.669 335.764 458.54 339.838 457.372L482.483 416.469C486.557 415.301 490.801 417.517 491.914 421.398C493.025 425.274 490.6 429.402 486.526 430.57Z" fill="#E0E2EE"/>
<path id="Fill 15" fill-rule="evenodd" clip-rule="evenodd" d="M498.655 472.874L356.01 513.777C351.936 514.945 347.692 512.729 346.58 508.853C345.469 504.977 347.893 500.844 351.966 499.676L494.612 458.773C498.685 457.605 502.931 459.826 504.042 463.702C505.153 467.577 502.729 471.706 498.655 472.874Z" fill="#E0E2EE"/>
<path id="Fill 17" fill-rule="evenodd" clip-rule="evenodd" d="M510.789 515.177L368.144 556.08C364.07 557.248 359.826 555.032 358.715 551.156C357.602 547.275 360.027 543.147 364.1 541.979L506.746 501.076C510.819 499.908 515.064 502.124 516.176 506.005C517.288 509.88 514.863 514.009 510.789 515.177Z" fill="#E0E2EE"/>
<path id="Fill 19" fill-rule="evenodd" clip-rule="evenodd" d="M454.731 577.031L380.304 598.372C376.213 599.546 371.954 597.333 370.843 593.458C369.73 589.577 372.17 585.445 376.261 584.271L450.688 562.93C454.779 561.757 459.037 563.969 460.15 567.85C461.261 571.725 458.822 575.858 454.731 577.031Z" fill="#E0E2EE"/>
</g>
<g id="search_2">
<path id="Fill 21" fill-rule="evenodd" clip-rule="evenodd" d="M589.271 479.283C568.925 515.981 525.69 531.86 487.318 519.034C482.4 517.344 477.578 515.245 472.899 512.652C470.492 511.323 468.175 509.904 465.931 508.353C461.445 505.258 457.294 501.776 453.629 497.999C447.263 491.67 442.112 484.495 438.181 476.678C425.714 452.205 425.244 422.149 439.551 396.354C453.888 370.485 479.644 355.003 506.996 352.558C515.717 351.798 524.539 352.362 533.267 354.357C538.435 355.515 543.528 357.207 548.537 359.369C551.033 360.445 553.467 361.663 555.869 363C560.554 365.591 564.936 368.548 568.924 371.844C600.141 397.574 609.579 442.655 589.271 479.283Z" fill="white" fill-opacity="0.1"/>
<path id="Fill 23" fill-rule="evenodd" clip-rule="evenodd" d="M579.684 475.955C558.52 514.145 510.428 527.929 472.239 506.765C434.098 485.623 420.306 437.527 441.478 399.341C462.62 361.2 510.71 347.411 548.851 368.553C587.035 389.718 600.826 437.814 579.684 475.955ZM559.738 348.93C510.726 321.762 449.002 339.461 421.834 388.473C394.67 437.478 412.347 499.25 461.354 526.42C505.958 551.135 561.189 538.68 591.247 499.267C594.182 495.413 596.882 491.263 599.33 486.856C601.77 482.445 603.859 477.956 605.566 473.426C623.06 427.045 604.338 373.652 559.738 348.93Z" fill="#E0E2EE"/>
<path id="Fill 25" fill-rule="evenodd" clip-rule="evenodd" d="M790.365 587.465L789.224 589.523C781.68 603.141 764.356 608.109 750.736 600.559L625.041 530.885L653.633 479.302L779.329 548.976C792.949 556.526 797.915 573.845 790.365 587.465Z" fill="url(#paint0_linear_235_9752)"/>
<path id="Fill 27" fill-rule="evenodd" clip-rule="evenodd" d="M606.815 469.836L643.958 490.425L629.34 516.789L592.202 496.198C595.197 492.266 597.947 488.033 600.45 483.534C602.941 479.039 605.073 474.458 606.815 469.836Z" fill="#E0E2EE"/>
<path id="Fill 29" fill-rule="evenodd" clip-rule="evenodd" d="M777.519 548.194L749.107 599.443L739.878 594.323L768.285 543.076L777.519 548.194Z" fill="#5784BA"/>
<path id="Fill 31" fill-rule="evenodd" clip-rule="evenodd" d="M656.242 480.046L627.054 532.704L619.23 528.368L648.419 475.71L656.242 480.046Z" fill="url(#paint1_linear_235_9752)"/>
<path id="Fill 33" fill-rule="evenodd" clip-rule="evenodd" d="M526.308 363.967L454.724 493.1C449.002 487.41 444.371 480.959 440.843 473.93L502.693 362.349C510.534 361.671 518.463 362.173 526.308 363.967Z" fill="white" fill-opacity="0.5"/>
<path id="Fill 35" fill-rule="evenodd" clip-rule="evenodd" d="M566.05 378.385L486.899 511.851C482.28 510.408 477.756 508.589 473.374 506.324C471.118 505.159 468.947 503.922 466.855 502.559L546.968 367.456C549.317 368.392 551.598 369.453 553.848 370.62C558.23 372.885 562.331 375.479 566.05 378.385Z" fill="white" fill-opacity="0.5"/>
</g>
</g>
</g>
<defs>
<linearGradient id="paint0_linear_235_9752" x1="665.51" y1="397.051" x2="561.581" y2="584.544" gradientUnits="userSpaceOnUse">
<stop stop-color="#5784BA"/>
<stop offset="1" stop-color="#99DBFD"/>
</linearGradient>
<linearGradient id="paint1_linear_235_9752" x1="624.258" y1="457.204" x2="590.733" y2="517.685" gradientUnits="userSpaceOnUse">
<stop stop-color="#5784BA"/>
<stop offset="1" stop-color="#5784BA"/>
</linearGradient>
</defs>
</svg>
