<svg width="267" height="180" viewBox="0 0 267 180" fill="none" xmlns="http://www.w3.org/2000/svg">
<g opacity="0.5">
<g filter="url(#filter0_ddddd_366_18376)">
<circle cx="101.756" cy="88.756" r="40" transform="rotate(9.44816 101.756 88.756)" fill="#99DBFD"/>
<path d="M99.1513 104.549C95.2319 103.897 92.349 102.295 90.5027 99.7442C88.6564 97.1932 88.0704 93.8922 88.7445 89.8412L91.3184 74.374L97.7105 75.4377L95.176 90.6682C94.7382 93.2987 94.9623 95.2824 95.8482 96.6193C96.7341 97.9562 98.1503 98.7866 100.097 99.1105C102.043 99.4345 103.652 99.1075 104.923 98.1295C106.195 97.1516 107.049 95.3474 107.487 92.7169L110.021 77.4863L116.334 78.5369L113.76 94.0042C113.086 98.0552 111.463 100.988 108.89 102.804C106.317 104.62 103.071 105.201 99.1513 104.549Z" fill="#F8F9FA"/>
</g>
<g filter="url(#filter1_ddddd_366_18376)">
<circle cx="52.0972" cy="46.0236" r="40" transform="rotate(9.44816 52.0972 46.0236)" fill="#00A6FB"/>
<path d="M50.1038 58.8775C47.9468 58.5185 45.9935 57.8285 44.2441 56.8075C42.5209 55.7908 41.0827 54.5242 39.9293 53.0077C38.8022 51.4955 38.0018 49.8078 37.5278 47.9448C37.0802 46.0861 37.0271 44.1308 37.3686 42.0791C37.71 40.0273 38.3934 38.1946 39.4189 36.581C40.4706 34.9719 41.7877 33.6366 43.3701 32.5753C44.9524 31.514 46.7234 30.7814 48.6829 30.3776C50.6424 29.9738 52.7007 29.9514 54.8577 30.3103C57.041 30.6737 58.9811 31.3615 60.6779 32.3738C62.4011 33.3904 63.8262 34.6548 64.9532 36.167C66.111 37.6573 66.9268 39.334 67.4007 41.197C67.8747 43.0601 67.9387 45.0307 67.5929 47.1088C67.2515 49.1606 66.5527 51.0042 65.4965 52.6397C64.4448 54.2488 63.1277 55.5841 61.5454 56.6454C59.9937 57.6848 58.2381 58.4064 56.2786 58.8102C54.3453 59.2184 52.2871 59.2408 50.1038 58.8775ZM58.1611 66.2603C57.0826 66.0808 56.0764 65.7917 55.1426 65.393C54.235 64.9987 53.3515 64.4597 52.492 63.776C51.6589 63.0967 50.8038 62.2245 49.9268 61.1594C49.076 60.0987 48.1682 58.8122 47.2034 57.3L54.1935 56.7196C54.7417 57.811 55.2702 58.6965 55.7789 59.3759C56.2876 60.0552 56.7985 60.5593 57.3115 60.8879C57.8508 61.221 58.4361 61.44 59.0675 61.5451C60.751 61.8253 62.3642 61.3909 63.907 60.2419L66.1833 64.108C63.9392 66.0594 61.2651 66.7768 58.1611 66.2603ZM51.0099 53.4324C52.2462 53.6381 53.4124 53.6159 54.5083 53.3657C55.6305 53.12 56.6519 52.6682 57.5724 52.0103C58.4928 51.3525 59.2532 50.5194 59.8536 49.5109C60.4846 48.4805 60.9074 47.3209 61.1219 46.0319C61.3408 44.7167 61.3164 43.4826 61.0486 42.3297C60.8072 41.1811 60.3576 40.1466 59.6998 39.2261C59.042 38.3057 58.222 37.5474 57.2398 36.9515C56.284 36.3599 55.1879 35.9612 53.9516 35.7555C52.7152 35.5497 51.5359 35.5697 50.4137 35.8155C49.2915 36.0613 48.2701 36.5131 47.3496 37.1709C46.4555 37.8331 45.6951 38.6663 45.0684 39.6703C44.4681 40.6788 44.0584 41.8407 43.8396 43.1559C43.6251 44.4449 43.6363 45.6767 43.8734 46.8516C44.1411 48.0045 44.5907 49.039 45.2222 49.9551C45.88 50.8756 46.7 51.6338 47.6822 52.2298C48.6643 52.8258 49.7736 53.2266 51.0099 53.4324Z" fill="#F8F9FA"/>
</g>
<g filter="url(#filter2_ddddd_366_18376)">
<circle cx="166.524" cy="65.0666" r="40" transform="rotate(9.44816 166.524 65.0666)" fill="#00A6FB"/>
<path d="M160.111 80.7523L163.643 59.5242L169.799 60.5486L166.266 81.7766L160.111 80.7523ZM167.214 57.0771C166.082 56.8889 165.216 56.4068 164.616 55.631C164.015 54.8552 163.795 53.9807 163.957 53.0074C164.119 52.0341 164.61 51.2777 165.43 50.7383C166.25 50.1989 167.225 50.0233 168.356 50.2115C169.487 50.3997 170.355 50.8686 170.96 51.6181C171.57 52.3413 171.794 53.1896 171.632 54.1629C171.461 55.1887 170.964 55.9846 170.14 56.5503C169.346 57.0941 168.371 57.2697 167.214 57.0771Z" fill="#F8F9FA"/>
</g>
<g filter="url(#filter3_ddddd_366_18376)">
<circle cx="214.704" cy="110.592" r="40" transform="rotate(9.44816 214.704 110.592)" fill="#99DBFD"/>
<path d="M201.618 123.14L202.307 118.997L222.82 101.244L223.222 103.703L205.663 100.781L206.53 95.5727L229.77 99.4402L229.081 103.583L208.608 121.343L208.206 118.884L226.632 121.951L225.766 127.159L201.618 123.14Z" fill="#F8F9FA"/>
</g>
</g>
<defs>
<filter id="filter0_ddddd_366_18376" x="53.75" y="46.75" width="96.0127" height="111.012" filterUnits="userSpaceOnUse" color-interpolation-filters="sRGB">
<feFlood flood-opacity="0" result="BackgroundImageFix"/>
<feColorMatrix in="SourceAlpha" type="matrix" values="0 0 0 0 0 0 0 0 0 0 0 0 0 0 0 0 0 0 127 0" result="hardAlpha"/>
<feOffset/>
<feColorMatrix type="matrix" values="0 0 0 0 0.14902 0 0 0 0 0.176471 0 0 0 0 0.203922 0 0 0 0.1 0"/>
<feBlend mode="normal" in2="BackgroundImageFix" result="effect1_dropShadow_366_18376"/>
<feColorMatrix in="SourceAlpha" type="matrix" values="0 0 0 0 0 0 0 0 0 0 0 0 0 0 0 0 0 0 127 0" result="hardAlpha"/>
<feOffset dy="1"/>
<feGaussianBlur stdDeviation="1.5"/>
<feColorMatrix type="matrix" values="0 0 0 0 0.14902 0 0 0 0 0.176471 0 0 0 0 0.203922 0 0 0 0.1 0"/>
<feBlend mode="normal" in2="effect1_dropShadow_366_18376" result="effect2_dropShadow_366_18376"/>
<feColorMatrix in="SourceAlpha" type="matrix" values="0 0 0 0 0 0 0 0 0 0 0 0 0 0 0 0 0 0 127 0" result="hardAlpha"/>
<feOffset dy="5"/>
<feGaussianBlur stdDeviation="2.5"/>
<feColorMatrix type="matrix" values="0 0 0 0 0.14902 0 0 0 0 0.176471 0 0 0 0 0.203922 0 0 0 0.09 0"/>
<feBlend mode="normal" in2="effect2_dropShadow_366_18376" result="effect3_dropShadow_366_18376"/>
<feColorMatrix in="SourceAlpha" type="matrix" values="0 0 0 0 0 0 0 0 0 0 0 0 0 0 0 0 0 0 127 0" result="hardAlpha"/>
<feOffset dy="12"/>
<feGaussianBlur stdDeviation="3.5"/>
<feColorMatrix type="matrix" values="0 0 0 0 0.14902 0 0 0 0 0.176471 0 0 0 0 0.203922 0 0 0 0.05 0"/>
<feBlend mode="normal" in2="effect3_dropShadow_366_18376" result="effect4_dropShadow_366_18376"/>
<feColorMatrix in="SourceAlpha" type="matrix" values="0 0 0 0 0 0 0 0 0 0 0 0 0 0 0 0 0 0 127 0" result="hardAlpha"/>
<feOffset dy="21"/>
<feGaussianBlur stdDeviation="4"/>
<feColorMatrix type="matrix" values="0 0 0 0 0.14902 0 0 0 0 0.176471 0 0 0 0 0.203922 0 0 0 0.01 0"/>
<feBlend mode="normal" in2="effect4_dropShadow_366_18376" result="effect5_dropShadow_366_18376"/>
<feBlend mode="normal" in="SourceGraphic" in2="effect5_dropShadow_366_18376" result="shape"/>
</filter>
<filter id="filter1_ddddd_366_18376" x="4.09082" y="4.01758" width="96.0127" height="111.012" filterUnits="userSpaceOnUse" color-interpolation-filters="sRGB">
<feFlood flood-opacity="0" result="BackgroundImageFix"/>
<feColorMatrix in="SourceAlpha" type="matrix" values="0 0 0 0 0 0 0 0 0 0 0 0 0 0 0 0 0 0 127 0" result="hardAlpha"/>
<feOffset/>
<feColorMatrix type="matrix" values="0 0 0 0 0.14902 0 0 0 0 0.176471 0 0 0 0 0.203922 0 0 0 0.1 0"/>
<feBlend mode="normal" in2="BackgroundImageFix" result="effect1_dropShadow_366_18376"/>
<feColorMatrix in="SourceAlpha" type="matrix" values="0 0 0 0 0 0 0 0 0 0 0 0 0 0 0 0 0 0 127 0" result="hardAlpha"/>
<feOffset dy="1"/>
<feGaussianBlur stdDeviation="1.5"/>
<feColorMatrix type="matrix" values="0 0 0 0 0.14902 0 0 0 0 0.176471 0 0 0 0 0.203922 0 0 0 0.1 0"/>
<feBlend mode="normal" in2="effect1_dropShadow_366_18376" result="effect2_dropShadow_366_18376"/>
<feColorMatrix in="SourceAlpha" type="matrix" values="0 0 0 0 0 0 0 0 0 0 0 0 0 0 0 0 0 0 127 0" result="hardAlpha"/>
<feOffset dy="5"/>
<feGaussianBlur stdDeviation="2.5"/>
<feColorMatrix type="matrix" values="0 0 0 0 0.14902 0 0 0 0 0.176471 0 0 0 0 0.203922 0 0 0 0.09 0"/>
<feBlend mode="normal" in2="effect2_dropShadow_366_18376" result="effect3_dropShadow_366_18376"/>
<feColorMatrix in="SourceAlpha" type="matrix" values="0 0 0 0 0 0 0 0 0 0 0 0 0 0 0 0 0 0 127 0" result="hardAlpha"/>
<feOffset dy="12"/>
<feGaussianBlur stdDeviation="3.5"/>
<feColorMatrix type="matrix" values="0 0 0 0 0.14902 0 0 0 0 0.176471 0 0 0 0 0.203922 0 0 0 0.05 0"/>
<feBlend mode="normal" in2="effect3_dropShadow_366_18376" result="effect4_dropShadow_366_18376"/>
<feColorMatrix in="SourceAlpha" type="matrix" values="0 0 0 0 0 0 0 0 0 0 0 0 0 0 0 0 0 0 127 0" result="hardAlpha"/>
<feOffset dy="21"/>
<feGaussianBlur stdDeviation="4"/>
<feColorMatrix type="matrix" values="0 0 0 0 0.14902 0 0 0 0 0.176471 0 0 0 0 0.203922 0 0 0 0.01 0"/>
<feBlend mode="normal" in2="effect4_dropShadow_366_18376" result="effect5_dropShadow_366_18376"/>
<feBlend mode="normal" in="SourceGraphic" in2="effect5_dropShadow_366_18376" result="shape"/>
</filter>
<filter id="filter2_ddddd_366_18376" x="117.518" y="23.0605" width="98.0127" height="113.012" filterUnits="userSpaceOnUse" color-interpolation-filters="sRGB">
<feFlood flood-opacity="0" result="BackgroundImageFix"/>
<feColorMatrix in="SourceAlpha" type="matrix" values="0 0 0 0 0 0 0 0 0 0 0 0 0 0 0 0 0 0 127 0" result="hardAlpha"/>
<feOffset/>
<feColorMatrix type="matrix" values="0 0 0 0 0.14902 0 0 0 0 0.176471 0 0 0 0 0.203922 0 0 0 0.1 0"/>
<feBlend mode="normal" in2="BackgroundImageFix" result="effect1_dropShadow_366_18376"/>
<feColorMatrix in="SourceAlpha" type="matrix" values="0 0 0 0 0 0 0 0 0 0 0 0 0 0 0 0 0 0 127 0" result="hardAlpha"/>
<feOffset dy="1"/>
<feGaussianBlur stdDeviation="1.5"/>
<feColorMatrix type="matrix" values="0 0 0 0 0.14902 0 0 0 0 0.176471 0 0 0 0 0.203922 0 0 0 0.1 0"/>
<feBlend mode="normal" in2="effect1_dropShadow_366_18376" result="effect2_dropShadow_366_18376"/>
<feColorMatrix in="SourceAlpha" type="matrix" values="0 0 0 0 0 0 0 0 0 0 0 0 0 0 0 0 0 0 127 0" result="hardAlpha"/>
<feOffset dy="5"/>
<feGaussianBlur stdDeviation="2.5"/>
<feColorMatrix type="matrix" values="0 0 0 0 0.14902 0 0 0 0 0.176471 0 0 0 0 0.203922 0 0 0 0.09 0"/>
<feBlend mode="normal" in2="effect2_dropShadow_366_18376" result="effect3_dropShadow_366_18376"/>
<feColorMatrix in="SourceAlpha" type="matrix" values="0 0 0 0 0 0 0 0 0 0 0 0 0 0 0 0 0 0 127 0" result="hardAlpha"/>
<feOffset dy="12"/>
<feGaussianBlur stdDeviation="3.5"/>
<feColorMatrix type="matrix" values="0 0 0 0 0.14902 0 0 0 0 0.176471 0 0 0 0 0.203922 0 0 0 0.05 0"/>
<feBlend mode="normal" in2="effect3_dropShadow_366_18376" result="effect4_dropShadow_366_18376"/>
<feColorMatrix in="SourceAlpha" type="matrix" values="0 0 0 0 0 0 0 0 0 0 0 0 0 0 0 0 0 0 127 0" result="hardAlpha"/>
<feOffset dy="22"/>
<feGaussianBlur stdDeviation="4.5"/>
<feColorMatrix type="matrix" values="0 0 0 0 0.14902 0 0 0 0 0.176471 0 0 0 0 0.203922 0 0 0 0.01 0"/>
<feBlend mode="normal" in2="effect4_dropShadow_366_18376" result="effect5_dropShadow_366_18376"/>
<feBlend mode="normal" in="SourceGraphic" in2="effect5_dropShadow_366_18376" result="shape"/>
</filter>
<filter id="filter3_ddddd_366_18376" x="166.697" y="68.5859" width="96.0127" height="111.012" filterUnits="userSpaceOnUse" color-interpolation-filters="sRGB">
<feFlood flood-opacity="0" result="BackgroundImageFix"/>
<feColorMatrix in="SourceAlpha" type="matrix" values="0 0 0 0 0 0 0 0 0 0 0 0 0 0 0 0 0 0 127 0" result="hardAlpha"/>
<feOffset/>
<feColorMatrix type="matrix" values="0 0 0 0 0.14902 0 0 0 0 0.176471 0 0 0 0 0.203922 0 0 0 0.1 0"/>
<feBlend mode="normal" in2="BackgroundImageFix" result="effect1_dropShadow_366_18376"/>
<feColorMatrix in="SourceAlpha" type="matrix" values="0 0 0 0 0 0 0 0 0 0 0 0 0 0 0 0 0 0 127 0" result="hardAlpha"/>
<feOffset dy="1"/>
<feGaussianBlur stdDeviation="1.5"/>
<feColorMatrix type="matrix" values="0 0 0 0 0.14902 0 0 0 0 0.176471 0 0 0 0 0.203922 0 0 0 0.1 0"/>
<feBlend mode="normal" in2="effect1_dropShadow_366_18376" result="effect2_dropShadow_366_18376"/>
<feColorMatrix in="SourceAlpha" type="matrix" values="0 0 0 0 0 0 0 0 0 0 0 0 0 0 0 0 0 0 127 0" result="hardAlpha"/>
<feOffset dy="5"/>
<feGaussianBlur stdDeviation="2.5"/>
<feColorMatrix type="matrix" values="0 0 0 0 0.14902 0 0 0 0 0.176471 0 0 0 0 0.203922 0 0 0 0.09 0"/>
<feBlend mode="normal" in2="effect2_dropShadow_366_18376" result="effect3_dropShadow_366_18376"/>
<feColorMatrix in="SourceAlpha" type="matrix" values="0 0 0 0 0 0 0 0 0 0 0 0 0 0 0 0 0 0 127 0" result="hardAlpha"/>
<feOffset dy="12"/>
<feGaussianBlur stdDeviation="3.5"/>
<feColorMatrix type="matrix" values="0 0 0 0 0.14902 0 0 0 0 0.176471 0 0 0 0 0.203922 0 0 0 0.05 0"/>
<feBlend mode="normal" in2="effect3_dropShadow_366_18376" result="effect4_dropShadow_366_18376"/>
<feColorMatrix in="SourceAlpha" type="matrix" values="0 0 0 0 0 0 0 0 0 0 0 0 0 0 0 0 0 0 127 0" result="hardAlpha"/>
<feOffset dy="21"/>
<feGaussianBlur stdDeviation="4"/>
<feColorMatrix type="matrix" values="0 0 0 0 0.14902 0 0 0 0 0.176471 0 0 0 0 0.203922 0 0 0 0.01 0"/>
<feBlend mode="normal" in2="effect4_dropShadow_366_18376" result="effect5_dropShadow_366_18376"/>
<feBlend mode="normal" in="SourceGraphic" in2="effect5_dropShadow_366_18376" result="shape"/>
</filter>
</defs>
</svg>
