<svg width="28" height="32" viewBox="0 0 28 32" fill="none" xmlns="http://www.w3.org/2000/svg">
<path fill-rule="evenodd" clip-rule="evenodd" d="M0.25 8.50016C0.25 4.12791 3.79441 0.583496 8.16667 0.583496H24.8333C26.4442 0.583496 27.75 1.88933 27.75 3.50016V28.5002C27.75 30.111 26.4442 31.4168 24.8333 31.4168H6.5C3.04822 31.4168 0.25 28.6186 0.25 25.1668V8.50016ZM25.25 3.50016V18.9168H6.5C5.09299 18.9168 3.79458 19.3818 2.75 20.1664V8.50016C2.75 5.50862 5.17512 3.0835 8.16667 3.0835H13.5132C13.0744 6.38606 13.1138 9.73731 13.6324 13.0335L13.7364 13.6944C13.8109 14.1678 14.1494 14.557 14.6079 14.6962C15.0665 14.8355 15.5642 14.7003 15.8894 14.3483L18.1667 11.883L20.444 14.3483C20.7691 14.7003 21.2669 14.8355 21.7254 14.6962C22.1839 14.557 22.5225 14.1678 22.597 13.6944L22.701 13.0335C23.2196 9.7373 23.259 6.38606 22.8202 3.0835H24.8333C25.0635 3.0835 25.25 3.27004 25.25 3.50016ZM20.2965 3.0835H16.0369C15.675 5.60714 15.6147 8.16382 15.8565 10.6996L16.9424 9.52401C17.6023 8.80966 18.7311 8.80966 19.3909 9.52401L20.4769 10.6996C20.7187 8.16382 20.6584 5.60714 20.2965 3.0835ZM6.5 21.4168H25.25V28.5002C25.25 28.7303 25.0635 28.9168 24.8333 28.9168H6.5C4.42893 28.9168 2.75 27.2379 2.75 25.1668C2.75 23.0958 4.42893 21.4168 6.5 21.4168Z" fill="#F8F9FA"/>
</svg>
