<svg width="36" height="36" viewBox="0 0 36 36" fill="none" xmlns="http://www.w3.org/2000/svg">
<path fill-rule="evenodd" clip-rule="evenodd" d="M18.0001 3.13211L14.3121 6.94794C13.9196 7.35409 13.3789 7.58344 12.8141 7.58344H7.58344V12.8141C7.58344 13.3789 7.35409 13.9196 6.94794 14.3121L3.13211 18.0001L6.94794 21.6881C7.35409 22.0807 7.58344 22.6213 7.58344 23.1861V28.4168H12.8141C13.3789 28.4168 13.9196 28.6461 14.3121 29.0523L18.0001 32.8681L21.6881 29.0523C22.0806 28.6461 22.6213 28.4168 23.1861 28.4168H28.4168V23.1861C28.4168 22.6213 28.6461 22.0806 29.0523 21.6881L32.8681 18.0001L29.0523 14.3121C28.6461 13.9196 28.4168 13.3789 28.4168 12.8141V7.58344H23.1861C22.6213 7.58344 22.0806 7.35409 21.6881 6.94794L18.0001 3.13211ZM16.5021 1.08472C17.321 0.237384 18.6792 0.237386 19.4981 1.08472L23.3629 5.08344H28.8334C29.984 5.08344 30.9168 6.01618 30.9168 7.16677V12.6373L34.9155 16.5021C35.7628 17.321 35.7628 18.6792 34.9155 19.4981L30.9168 23.3629V28.8334C30.9168 29.984 29.984 30.9168 28.8334 30.9168H23.3629L19.4981 34.9155C18.6792 35.7628 17.321 35.7628 16.5021 34.9155L12.6373 30.9168H7.16678C6.01618 30.9168 5.08344 29.984 5.08344 28.8334V23.3629L1.08472 19.4981C0.237386 18.6792 0.237384 17.321 1.08472 16.5021L5.08344 12.6373V7.16677C5.08344 6.01618 6.01618 5.08344 7.16678 5.08344H12.6373L16.5021 1.08472Z" fill="#F8F9FA"/>
<path fill-rule="evenodd" clip-rule="evenodd" d="M10.0834 18.0001C10.0834 13.6279 13.6279 10.0834 18.0001 10.0834C22.3724 10.0834 25.9168 13.6279 25.9168 18.0001C25.9168 22.3724 22.3724 25.9168 18.0001 25.9168C13.6279 25.9168 10.0834 22.3724 10.0834 18.0001ZM18.0001 12.5834C15.0086 12.5834 12.5834 15.0086 12.5834 18.0001C12.5834 20.9916 15.0086 23.4168 18.0001 23.4168C20.9917 23.4168 23.4168 20.9916 23.4168 18.0001C23.4168 15.0086 20.9917 12.5834 18.0001 12.5834Z" fill="#F8F9FA"/>
</svg>
