<svg width="34" height="34" viewBox="0 0 34 34" fill="none" xmlns="http://www.w3.org/2000/svg">
<path fill-rule="evenodd" clip-rule="evenodd" d="M20.0138 11.0791C18.0264 10.8569 15.9736 10.8569 13.9862 11.0791C12.4895 11.2463 11.2766 12.4243 11.0994 13.9395C10.8616 15.9729 10.8616 18.0271 11.0994 20.0605C11.2766 21.5757 12.4895 22.7537 13.9862 22.9209C15.9736 23.1431 18.0264 23.1431 20.0138 22.9209C21.5105 22.7537 22.7233 21.5757 22.9006 20.0605C23.1384 18.0271 23.1384 15.9729 22.9006 13.9395C22.7233 12.4243 21.5105 11.2463 20.0138 11.0791ZM14.2639 13.5636C16.0667 13.3621 17.9333 13.3621 19.7361 13.5636C20.0962 13.6038 20.3777 13.8895 20.4175 14.23C20.6327 16.0704 20.6327 17.9296 20.4175 19.77C20.3777 20.1105 20.0962 20.3962 19.7361 20.4364C17.9333 20.6379 16.0667 20.6379 14.2639 20.4364C13.9038 20.3962 13.6223 20.1105 13.5825 19.77C13.3672 17.9296 13.3672 16.0704 13.5825 14.23C13.6223 13.8895 13.9038 13.6038 14.2639 13.5636Z" fill="#F8F9FA"/>
<path fill-rule="evenodd" clip-rule="evenodd" d="M23.25 2C23.25 1.30964 22.6904 0.75 22 0.75C21.3096 0.75 20.75 1.30964 20.75 2V6.20603C19.9195 6.1477 19.0854 6.10884 18.25 6.08943V3.66667C18.25 2.97631 17.6904 2.41667 17 2.41667C16.3096 2.41667 15.75 2.97631 15.75 3.66667V6.08943C14.9146 6.10884 14.0805 6.1477 13.25 6.20603V2C13.25 1.30964 12.6904 0.75 12 0.75C11.3096 0.75 10.75 1.30964 10.75 2V6.45338C8.58343 6.848 6.85417 8.55985 6.47984 10.75H2C1.30964 10.75 0.75 11.3096 0.75 12C0.75 12.6904 1.30964 13.25 2 13.25H6.229C6.16815 14.0825 6.12759 14.916 6.10732 15.75H3.66667C2.97631 15.75 2.41667 16.3096 2.41667 17C2.41667 17.6904 2.97631 18.25 3.66667 18.25H6.10732C6.12759 19.084 6.16815 19.9175 6.229 20.75H2C1.30964 20.75 0.75 21.3096 0.75 22C0.75 22.6904 1.30964 23.25 2 23.25H6.47984C6.85418 25.4401 8.58344 27.152 10.75 27.5466V32C10.75 32.6904 11.3096 33.25 12 33.25C12.6904 33.25 13.25 32.6904 13.25 32V27.794C14.0805 27.8523 14.9146 27.8912 15.75 27.9106V30.3333C15.75 31.0237 16.3096 31.5833 17 31.5833C17.6904 31.5833 18.25 31.0237 18.25 30.3333V27.9106C19.0854 27.8912 19.9195 27.8523 20.75 27.794V32C20.75 32.6904 21.3096 33.25 22 33.25C22.6904 33.25 23.25 32.6904 23.25 32V27.5466C25.4166 27.152 27.1458 25.4402 27.5202 23.25H32C32.6904 23.25 33.25 22.6904 33.25 22C33.25 21.3096 32.6904 20.75 32 20.75H27.771C27.8319 19.9175 27.8724 19.084 27.8927 18.25H30.3333C31.0237 18.25 31.5833 17.6904 31.5833 17C31.5833 16.3096 31.0237 15.75 30.3333 15.75H27.8927C27.8724 14.916 27.8319 14.0825 27.771 13.25H32C32.6904 13.25 33.25 12.6904 33.25 12C33.25 11.3096 32.6904 10.75 32 10.75H27.5202C27.1458 8.55984 25.4166 6.84799 23.25 6.45338V2ZM11.3889 8.8849C15.0869 8.4716 18.9131 8.4716 22.6111 8.8849C23.8996 9.0289 24.9282 10.0464 25.0765 11.3147C25.5183 15.092 25.5183 18.908 25.0765 22.6853C24.9282 23.9536 23.8996 24.9711 22.6111 25.1151C18.9131 25.5284 15.0869 25.5284 11.3889 25.1151C10.1004 24.9711 9.07181 23.9536 8.92347 22.6853C8.48168 18.908 8.48168 15.092 8.92347 11.3147C9.07181 10.0464 10.1004 9.0289 11.3889 8.8849Z" fill="#F8F9FA"/>
</svg>
