<svg xmlns="http://www.w3.org/2000/svg" width="32" height="38" viewBox="0 0 32 38" fill="none">
<path fill-rule="evenodd" clip-rule="evenodd" d="M0.509481 3.44736C0.311026 1.06449 2.98079 -0.252989 4.81342 0.971264L5.40623 1.36728C14.4454 7.40577 22.9051 14.2204 30.6827 21.7289C32.6202 23.5994 30.9117 26.5513 28.494 26.2924L17.9613 25.1644C16.8889 25.0495 15.9007 25.626 15.4937 26.5241L11.2365 35.9181C10.2083 38.1869 6.82152 37.976 6.14764 35.5281C3.31811 25.2499 1.45043 14.7455 0.567362 4.14235L0.509481 3.44736ZM3.54347 3.73072L3.55701 3.89336C4.40257 14.0461 6.16698 24.1072 8.82975 33.9609L12.7612 25.2857C13.7221 23.1654 15.9689 21.9339 18.2808 22.1814L27.8948 23.211C20.441 16.0941 12.3588 9.61966 3.73977 3.86186L3.54347 3.73072Z" fill="#F8F9FA"/>
</svg>