<svg width="403" height="402" viewBox="0 0 403 402" fill="none" xmlns="http://www.w3.org/2000/svg">
<g opacity="0.5">
<g filter="url(#filter0_ddddd_447_11464)">
<circle cx="294.852" cy="344.146" r="25.6401" transform="rotate(0.666101 294.852 344.146)" fill="#99DBFD"/>
<path d="M294.126 352.38C291.742 352.352 289.886 351.666 288.557 350.323C287.229 348.979 286.579 347.076 286.607 344.612L286.717 335.204L290.604 335.25L290.497 344.513C290.478 346.113 290.793 347.269 291.441 347.98C292.088 348.692 293.004 349.054 294.188 349.068C295.372 349.082 296.296 348.741 296.96 348.044C297.624 347.348 297.966 346.2 297.984 344.6L298.092 335.337L301.932 335.381L301.822 344.789C301.794 347.253 301.1 349.141 299.74 350.453C298.381 351.765 296.509 352.407 294.126 352.38Z" fill="#F8F9FA"/>
</g>
<g filter="url(#filter1_ddddd_447_11464)">
<circle cx="259.212" cy="321.936" r="25.6401" transform="rotate(0.666101 259.212 321.936)" fill="#00A6FB"/>
<path d="M258.539 328.247C257.227 328.232 256.005 328.002 254.874 327.557C253.76 327.112 252.791 326.492 251.968 325.699C251.161 324.905 250.532 323.978 250.08 322.917C249.644 321.856 249.434 320.701 249.448 319.453C249.463 318.205 249.7 317.056 250.16 316.005C250.637 314.955 251.295 314.042 252.136 313.268C252.977 312.494 253.96 311.897 255.085 311.478C256.21 311.059 257.429 310.857 258.741 310.873C260.069 310.888 261.282 311.118 262.381 311.563C263.496 312.008 264.457 312.627 265.264 313.421C266.087 314.198 266.724 315.118 267.176 316.179C267.627 317.24 267.846 318.403 267.831 319.667C267.817 320.915 267.571 322.072 267.095 323.138C266.618 324.189 265.96 325.101 265.119 325.876C264.294 326.634 263.319 327.223 262.194 327.642C261.085 328.061 259.867 328.263 258.539 328.247ZM263.993 331.887C263.337 331.879 262.714 331.8 262.123 331.649C261.549 331.499 260.976 331.26 260.404 330.933C259.847 330.607 259.26 330.168 258.643 329.617C258.041 329.066 257.385 328.386 256.674 327.578L260.766 326.593C261.191 327.19 261.586 327.667 261.95 328.023C262.313 328.379 262.663 328.631 262.997 328.779C263.347 328.927 263.714 329.004 264.098 329.008C265.122 329.02 266.039 328.615 266.849 327.792L268.552 329.876C267.401 331.239 265.881 331.909 263.993 331.887ZM258.577 324.936C259.329 324.944 260.019 324.824 260.646 324.576C261.288 324.327 261.853 323.966 262.338 323.491C262.824 323.017 263.198 322.453 263.462 321.8C263.742 321.131 263.886 320.405 263.895 319.621C263.905 318.821 263.777 318.092 263.513 317.432C263.264 316.774 262.903 316.201 262.429 315.716C261.954 315.23 261.399 314.856 260.762 314.592C260.141 314.329 259.454 314.193 258.702 314.184C257.95 314.176 257.253 314.295 256.61 314.544C255.967 314.793 255.403 315.154 254.917 315.628C254.448 316.103 254.073 316.667 253.793 317.319C253.53 317.972 253.393 318.699 253.384 319.499C253.375 320.283 253.494 321.012 253.743 321.687C254.007 322.346 254.368 322.919 254.827 323.404C255.301 323.889 255.857 324.264 256.494 324.527C257.131 324.791 257.825 324.927 258.577 324.936Z" fill="#F8F9FA"/>
</g>
<g filter="url(#filter2_ddddd_447_11464)">
<circle cx="333.563" cy="322.801" r="25.6401" transform="rotate(0.666101 333.563 322.801)" fill="#00A6FB"/>
<path d="M330.941 331.365L331.091 318.454L334.835 318.498L334.685 331.409L330.941 331.365ZM332.984 316.676C332.296 316.668 331.738 316.462 331.311 316.057C330.884 315.652 330.673 315.153 330.68 314.561C330.687 313.969 330.909 313.476 331.346 313.081C331.782 312.686 332.344 312.492 333.032 312.5C333.72 312.508 334.278 312.707 334.706 313.096C335.133 313.469 335.344 313.951 335.337 314.543C335.33 315.167 335.108 315.685 334.671 316.096C334.25 316.491 333.688 316.684 332.984 316.676Z" fill="#F8F9FA"/>
</g>
<g filter="url(#filter3_ddddd_447_11464)">
<circle cx="368.54" cy="346.926" r="25.6401" transform="rotate(0.666101 368.54 346.926)" fill="#99DBFD"/>
<path d="M361.439 354.156L361.469 351.637L372.006 339.23L372.469 340.652L361.79 340.528L361.827 337.36L375.962 337.524L375.933 340.044L365.42 352.451L364.956 351.029L376.163 351.159L376.126 354.327L361.439 354.156Z" fill="#F8F9FA"/>
</g>
</g>
<g filter="url(#filter4_ddddd_447_11464)">
<rect x="2" y="1" width="372" height="72" rx="16" fill="#99DBFD"/>
<path d="M24.72 33.096C23.8773 33.096 23.0933 32.9573 22.368 32.68C21.6533 32.392 21.0293 31.992 20.496 31.48C19.9733 30.9573 19.5627 30.3547 19.264 29.672C18.976 28.9787 18.832 28.2213 18.832 27.4C18.832 26.5787 18.976 25.8267 19.264 25.144C19.5627 24.4507 19.9733 23.848 20.496 23.336C21.0293 22.8133 21.6533 22.4133 22.368 22.136C23.0827 21.848 23.8667 21.704 24.72 21.704C25.5627 21.704 26.3413 21.848 27.056 22.136C27.7707 22.4133 28.3893 22.808 28.912 23.32C29.4453 23.832 29.856 24.4347 30.144 25.128C30.4427 25.8213 30.592 26.5787 30.592 27.4C30.592 28.2213 30.4427 28.9787 30.144 29.672C29.856 30.3653 29.4453 30.968 28.912 31.48C28.3893 31.992 27.7707 32.392 27.056 32.68C26.3413 32.9573 25.5627 33.096 24.72 33.096ZM28.384 35.224C28.0427 35.224 27.712 35.1813 27.392 35.096C27.072 35.0107 26.7467 34.872 26.416 34.68C26.096 34.4987 25.7653 34.2587 25.424 33.96C25.0827 33.6613 24.7093 33.2987 24.304 32.872L25.6 32.552C25.9307 32.9467 26.2507 33.272 26.56 33.528C26.88 33.784 27.1893 33.9707 27.488 34.088C27.7973 34.216 28.1013 34.28 28.4 34.28C29.232 34.28 29.9413 33.9387 30.528 33.256L31.104 33.944C30.4 34.7973 29.4933 35.224 28.384 35.224ZM24.72 32.04C25.392 32.04 26.0107 31.928 26.576 31.704C27.152 31.4693 27.648 31.1387 28.064 30.712C28.4907 30.2853 28.8213 29.7947 29.056 29.24C29.2907 28.6747 29.408 28.0613 29.408 27.4C29.408 26.728 29.2907 26.1147 29.056 25.56C28.8213 24.9947 28.4907 24.504 28.064 24.088C27.648 23.6613 27.152 23.336 26.576 23.112C26.0107 22.8773 25.392 22.76 24.72 22.76C24.048 22.76 23.424 22.8773 22.848 23.112C22.272 23.336 21.7707 23.6613 21.344 24.088C20.928 24.504 20.5973 24.9947 20.352 25.56C20.1173 26.1147 20 26.728 20 27.4C20 28.0613 20.1173 28.6747 20.352 29.24C20.5973 29.7947 20.928 30.2853 21.344 30.712C21.7707 31.1387 22.272 31.4693 22.848 31.704C23.424 31.928 24.048 32.04 24.72 32.04ZM36.4779 33.08C35.7632 33.08 35.1392 32.9467 34.6059 32.68C34.0725 32.4133 33.6565 32.0133 33.3579 31.48C33.0699 30.9467 32.9259 30.28 32.9259 29.48V24.6H34.0619V29.352C34.0619 30.248 34.2805 30.9253 34.7179 31.384C35.1659 31.832 35.7899 32.056 36.5899 32.056C37.1765 32.056 37.6832 31.9387 38.1099 31.704C38.5472 31.4587 38.8779 31.1067 39.1019 30.648C39.3365 30.1893 39.4539 29.64 39.4539 29V24.6H40.5899V33H39.5019V30.696L39.6779 31.112C39.4112 31.7307 38.9952 32.216 38.4299 32.568C37.8752 32.9093 37.2245 33.08 36.4779 33.08ZM47.3239 33.08C46.4492 33.08 45.6812 32.8987 45.0199 32.536C44.3585 32.1627 43.8412 31.656 43.4679 31.016C43.0945 30.3653 42.9079 29.624 42.9079 28.792C42.9079 27.96 43.0839 27.224 43.4359 26.584C43.7985 25.944 44.2892 25.4427 44.9079 25.08C45.5372 24.7067 46.2412 24.52 47.0199 24.52C47.8092 24.52 48.5079 24.7013 49.1159 25.064C49.7345 25.416 50.2199 25.9173 50.5719 26.568C50.9239 27.208 51.0999 27.9493 51.0999 28.792C51.0999 28.8453 51.0945 28.904 51.0839 28.968C51.0839 29.0213 51.0839 29.08 51.0839 29.144H43.7719V28.296H50.4759L50.0279 28.632C50.0279 28.024 49.8945 27.4853 49.6279 27.016C49.3719 26.536 49.0199 26.1627 48.5719 25.896C48.1239 25.6293 47.6065 25.496 47.0199 25.496C46.4439 25.496 45.9265 25.6293 45.4679 25.896C45.0092 26.1627 44.6519 26.536 44.3959 27.016C44.1399 27.496 44.0119 28.0453 44.0119 28.664V28.84C44.0119 29.48 44.1505 30.0453 44.4279 30.536C44.7159 31.016 45.1105 31.3947 45.6119 31.672C46.1239 31.9387 46.7052 32.072 47.3559 32.072C47.8679 32.072 48.3425 31.9813 48.7799 31.8C49.2279 31.6187 49.6119 31.3413 49.9319 30.968L50.5719 31.704C50.1985 32.152 49.7292 32.4933 49.1639 32.728C48.6092 32.9627 47.9959 33.08 47.3239 33.08ZM53.4121 33V21.128H54.5481V33H53.4121ZM65.4645 33.08C64.5898 33.08 63.8218 32.8987 63.1605 32.536C62.4992 32.1627 61.9818 31.656 61.6085 31.016C61.2352 30.3653 61.0485 29.624 61.0485 28.792C61.0485 27.96 61.2245 27.224 61.5765 26.584C61.9392 25.944 62.4298 25.4427 63.0485 25.08C63.6778 24.7067 64.3818 24.52 65.1605 24.52C65.9498 24.52 66.6485 24.7013 67.2565 25.064C67.8752 25.416 68.3605 25.9173 68.7125 26.568C69.0645 27.208 69.2405 27.9493 69.2405 28.792C69.2405 28.8453 69.2352 28.904 69.2245 28.968C69.2245 29.0213 69.2245 29.08 69.2245 29.144H61.9125V28.296H68.6165L68.1685 28.632C68.1685 28.024 68.0352 27.4853 67.7685 27.016C67.5125 26.536 67.1605 26.1627 66.7125 25.896C66.2645 25.6293 65.7472 25.496 65.1605 25.496C64.5845 25.496 64.0672 25.6293 63.6085 25.896C63.1498 26.1627 62.7925 26.536 62.5365 27.016C62.2805 27.496 62.1525 28.0453 62.1525 28.664V28.84C62.1525 29.48 62.2912 30.0453 62.5685 30.536C62.8565 31.016 63.2512 31.3947 63.7525 31.672C64.2645 31.9387 64.8458 32.072 65.4965 32.072C66.0085 32.072 66.4832 31.9813 66.9205 31.8C67.3685 31.6187 67.7525 31.3413 68.0725 30.968L68.7125 31.704C68.3392 32.152 67.8698 32.4933 67.3045 32.728C66.7498 32.9627 66.1365 33.08 65.4645 33.08ZM73.8088 33.08C73.1154 33.08 72.4594 32.984 71.8408 32.792C71.2221 32.5893 70.7368 32.3387 70.3848 32.04L70.8968 31.144C71.2381 31.4 71.6754 31.624 72.2088 31.816C72.7421 31.9973 73.3021 32.088 73.8888 32.088C74.6888 32.088 75.2648 31.9653 75.6168 31.72C75.9688 31.464 76.1448 31.128 76.1448 30.712C76.1448 30.4027 76.0434 30.1627 75.8408 29.992C75.6488 29.8107 75.3928 29.6773 75.0728 29.592C74.7528 29.496 74.3954 29.416 74.0008 29.352C73.6061 29.288 73.2114 29.2133 72.8168 29.128C72.4328 29.0427 72.0808 28.92 71.7608 28.76C71.4408 28.5893 71.1794 28.36 70.9768 28.072C70.7848 27.784 70.6888 27.4 70.6888 26.92C70.6888 26.4613 70.8168 26.0507 71.0728 25.688C71.3288 25.3253 71.7021 25.0427 72.1928 24.84C72.6941 24.6267 73.3021 24.52 74.0168 24.52C74.5608 24.52 75.1048 24.5947 75.6488 24.744C76.1928 24.8827 76.6408 25.0693 76.9928 25.304L76.4968 26.216C76.1234 25.96 75.7234 25.7787 75.2968 25.672C74.8701 25.5547 74.4434 25.496 74.0168 25.496C73.2594 25.496 72.6994 25.6293 72.3368 25.896C71.9848 26.152 71.8088 26.4827 71.8088 26.888C71.8088 27.208 71.9048 27.4587 72.0968 27.64C72.2994 27.8213 72.5608 27.9653 72.8808 28.072C73.2114 28.168 73.5688 28.248 73.9528 28.312C74.3474 28.376 74.7368 28.456 75.1208 28.552C75.5154 28.6373 75.8728 28.76 76.1928 28.92C76.5234 29.0693 76.7848 29.288 76.9768 29.576C77.1794 29.8533 77.2808 30.2213 77.2808 30.68C77.2808 31.1707 77.1421 31.5973 76.8648 31.96C76.5981 32.312 76.2034 32.5893 75.6808 32.792C75.1688 32.984 74.5448 33.08 73.8088 33.08ZM82.0213 33.08C81.2319 33.08 80.6239 32.8667 80.1973 32.44C79.7706 32.0133 79.5573 31.4107 79.5573 30.632V22.744H80.6933V30.568C80.6933 31.0587 80.8159 31.4373 81.0613 31.704C81.3173 31.9707 81.6799 32.104 82.1493 32.104C82.6506 32.104 83.0666 31.96 83.3973 31.672L83.7973 32.488C83.5733 32.6907 83.3013 32.84 82.9813 32.936C82.6719 33.032 82.3519 33.08 82.0213 33.08ZM78.0533 25.544V24.6H83.2533V25.544H78.0533ZM90.0528 33V21.128H91.1888V33H90.0528ZM93.6616 25.032L94.3656 22.088L94.4936 22.76C94.2483 22.76 94.0403 22.6853 93.8696 22.536C93.7096 22.376 93.6296 22.168 93.6296 21.912C93.6296 21.656 93.7096 21.448 93.8696 21.288C94.0403 21.128 94.243 21.048 94.4776 21.048C94.723 21.048 94.9203 21.1333 95.0696 21.304C95.2296 21.464 95.3096 21.6667 95.3096 21.912C95.3096 21.9973 95.3043 22.0827 95.2936 22.168C95.283 22.2533 95.2616 22.3493 95.2296 22.456C95.2083 22.552 95.171 22.6747 95.1176 22.824L94.4296 25.032H93.6616ZM100.855 33.08C99.9805 33.08 99.2125 32.8987 98.5511 32.536C97.8898 32.1627 97.3725 31.656 96.9991 31.016C96.6258 30.3653 96.4391 29.624 96.4391 28.792C96.4391 27.96 96.6151 27.224 96.9671 26.584C97.3298 25.944 97.8205 25.4427 98.4391 25.08C99.0685 24.7067 99.7725 24.52 100.551 24.52C101.34 24.52 102.039 24.7013 102.647 25.064C103.266 25.416 103.751 25.9173 104.103 26.568C104.455 27.208 104.631 27.9493 104.631 28.792C104.631 28.8453 104.626 28.904 104.615 28.968C104.615 29.0213 104.615 29.08 104.615 29.144H97.3031V28.296H104.007L103.559 28.632C103.559 28.024 103.426 27.4853 103.159 27.016C102.903 26.536 102.551 26.1627 102.103 25.896C101.655 25.6293 101.138 25.496 100.551 25.496C99.9751 25.496 99.4578 25.6293 98.9991 25.896C98.5405 26.1627 98.1831 26.536 97.9271 27.016C97.6711 27.496 97.5431 28.0453 97.5431 28.664V28.84C97.5431 29.48 97.6818 30.0453 97.9591 30.536C98.2471 31.016 98.6418 31.3947 99.1431 31.672C99.6551 31.9387 100.236 32.072 100.887 32.072C101.399 32.072 101.874 31.9813 102.311 31.8C102.759 31.6187 103.143 31.3413 103.463 30.968L104.103 31.704C103.73 32.152 103.26 32.4933 102.695 32.728C102.14 32.9627 101.527 33.08 100.855 33.08ZM117.439 24.52C118.122 24.52 118.714 24.6533 119.215 24.92C119.727 25.176 120.122 25.5707 120.399 26.104C120.687 26.6373 120.831 27.3093 120.831 28.12V33H119.695V28.232C119.695 27.3467 119.482 26.68 119.055 26.232C118.639 25.7733 118.047 25.544 117.279 25.544C116.703 25.544 116.202 25.6667 115.775 25.912C115.359 26.1467 115.034 26.4933 114.799 26.952C114.575 27.4 114.463 27.944 114.463 28.584V33H113.327V28.232C113.327 27.3467 113.114 26.68 112.687 26.232C112.261 25.7733 111.663 25.544 110.895 25.544C110.33 25.544 109.834 25.6667 109.407 25.912C108.981 26.1467 108.65 26.4933 108.415 26.952C108.191 27.4 108.079 27.944 108.079 28.584V33H106.943V24.6H108.031V26.872L107.855 26.472C108.111 25.864 108.522 25.3893 109.087 25.048C109.663 24.696 110.341 24.52 111.119 24.52C111.941 24.52 112.639 24.728 113.215 25.144C113.791 25.5493 114.165 26.1627 114.335 26.984L113.887 26.808C114.133 26.1253 114.565 25.576 115.183 25.16C115.813 24.7333 116.565 24.52 117.439 24.52ZM128.248 33.08C127.523 33.08 126.867 32.9147 126.28 32.584C125.693 32.2427 125.224 31.7573 124.872 31.128C124.531 30.488 124.36 29.7093 124.36 28.792C124.36 27.8747 124.531 27.1013 124.872 26.472C125.213 25.832 125.677 25.3467 126.264 25.016C126.851 24.6853 127.512 24.52 128.248 24.52C129.048 24.52 129.763 24.7013 130.392 25.064C131.032 25.416 131.533 25.9173 131.896 26.568C132.259 27.208 132.44 27.9493 132.44 28.792C132.44 29.6453 132.259 30.392 131.896 31.032C131.533 31.672 131.032 32.1733 130.392 32.536C129.763 32.8987 129.048 33.08 128.248 33.08ZM123.912 36.104V24.6H125V27.128L124.888 28.808L125.048 30.504V36.104H123.912ZM128.168 32.072C128.765 32.072 129.299 31.9387 129.768 31.672C130.237 31.3947 130.611 31.0107 130.888 30.52C131.165 30.0187 131.304 29.4427 131.304 28.792C131.304 28.1413 131.165 27.5707 130.888 27.08C130.611 26.5893 130.237 26.2053 129.768 25.928C129.299 25.6507 128.765 25.512 128.168 25.512C127.571 25.512 127.032 25.6507 126.552 25.928C126.083 26.2053 125.709 26.5893 125.432 27.08C125.165 27.5707 125.032 28.1413 125.032 28.792C125.032 29.4427 125.165 30.0187 125.432 30.52C125.709 31.0107 126.083 31.3947 126.552 31.672C127.032 31.9387 127.571 32.072 128.168 32.072ZM134.756 33V21.128H135.892V33H134.756ZM144.317 33V31.144L144.269 30.84V27.736C144.269 27.0213 144.066 26.472 143.661 26.088C143.266 25.704 142.674 25.512 141.885 25.512C141.341 25.512 140.823 25.6027 140.333 25.784C139.842 25.9653 139.426 26.2053 139.085 26.504L138.573 25.656C138.999 25.2933 139.511 25.016 140.109 24.824C140.706 24.6213 141.335 24.52 141.997 24.52C143.085 24.52 143.922 24.792 144.509 25.336C145.106 25.8693 145.405 26.6853 145.405 27.784V33H144.317ZM141.421 33.08C140.791 33.08 140.242 32.9787 139.773 32.776C139.314 32.5627 138.962 32.2747 138.717 31.912C138.471 31.5387 138.349 31.112 138.349 30.632C138.349 30.1947 138.45 29.8 138.653 29.448C138.866 29.0853 139.207 28.7973 139.677 28.584C140.157 28.36 140.797 28.248 141.597 28.248H144.493V29.096H141.629C140.818 29.096 140.253 29.24 139.933 29.528C139.623 29.816 139.469 30.1733 139.469 30.6C139.469 31.08 139.655 31.464 140.029 31.752C140.402 32.04 140.925 32.184 141.597 32.184C142.237 32.184 142.786 32.04 143.245 31.752C143.714 31.4533 144.055 31.0267 144.269 30.472L144.525 31.256C144.311 31.8107 143.938 32.2533 143.405 32.584C142.882 32.9147 142.221 33.08 141.421 33.08ZM151.978 33.08C151.146 33.08 150.4 32.8987 149.738 32.536C149.088 32.1627 148.576 31.656 148.202 31.016C147.829 30.3653 147.642 29.624 147.642 28.792C147.642 27.9493 147.829 27.208 148.202 26.568C148.576 25.928 149.088 25.4267 149.738 25.064C150.4 24.7013 151.146 24.52 151.978 24.52C152.693 24.52 153.338 24.6587 153.914 24.936C154.49 25.2133 154.944 25.6293 155.274 26.184L154.426 26.76C154.138 26.3333 153.781 26.0187 153.354 25.816C152.928 25.6133 152.464 25.512 151.962 25.512C151.365 25.512 150.826 25.6507 150.346 25.928C149.866 26.1947 149.488 26.5733 149.21 27.064C148.933 27.5547 148.794 28.1307 148.794 28.792C148.794 29.4533 148.933 30.0293 149.21 30.52C149.488 31.0107 149.866 31.3947 150.346 31.672C150.826 31.9387 151.365 32.072 151.962 32.072C152.464 32.072 152.928 31.9707 153.354 31.768C153.781 31.5653 154.138 31.256 154.426 30.84L155.274 31.416C154.944 31.96 154.49 32.376 153.914 32.664C153.338 32.9413 152.693 33.08 151.978 33.08ZM160.933 33.08C160.059 33.08 159.291 32.8987 158.629 32.536C157.968 32.1627 157.451 31.656 157.077 31.016C156.704 30.3653 156.517 29.624 156.517 28.792C156.517 27.96 156.693 27.224 157.045 26.584C157.408 25.944 157.899 25.4427 158.517 25.08C159.147 24.7067 159.851 24.52 160.629 24.52C161.419 24.52 162.117 24.7013 162.725 25.064C163.344 25.416 163.829 25.9173 164.181 26.568C164.533 27.208 164.709 27.9493 164.709 28.792C164.709 28.8453 164.704 28.904 164.693 28.968C164.693 29.0213 164.693 29.08 164.693 29.144H157.381V28.296H164.085L163.637 28.632C163.637 28.024 163.504 27.4853 163.237 27.016C162.981 26.536 162.629 26.1627 162.181 25.896C161.733 25.6293 161.216 25.496 160.629 25.496C160.053 25.496 159.536 25.6293 159.077 25.896C158.619 26.1627 158.261 26.536 158.005 27.016C157.749 27.496 157.621 28.0453 157.621 28.664V28.84C157.621 29.48 157.76 30.0453 158.037 30.536C158.325 31.016 158.72 31.3947 159.221 31.672C159.733 31.9387 160.315 32.072 160.965 32.072C161.477 32.072 161.952 31.9813 162.389 31.8C162.837 31.6187 163.221 31.3413 163.541 30.968L164.181 31.704C163.808 32.152 163.339 32.4933 162.773 32.728C162.219 32.9627 161.605 33.08 160.933 33.08ZM177.518 24.52C178.2 24.52 178.792 24.6533 179.294 24.92C179.806 25.176 180.2 25.5707 180.478 26.104C180.766 26.6373 180.91 27.3093 180.91 28.12V33H179.774V28.232C179.774 27.3467 179.56 26.68 179.134 26.232C178.718 25.7733 178.126 25.544 177.358 25.544C176.782 25.544 176.28 25.6667 175.854 25.912C175.438 26.1467 175.112 26.4933 174.878 26.952C174.654 27.4 174.542 27.944 174.542 28.584V33H173.406V28.232C173.406 27.3467 173.192 26.68 172.766 26.232C172.339 25.7733 171.742 25.544 170.974 25.544C170.408 25.544 169.912 25.6667 169.486 25.912C169.059 26.1467 168.728 26.4933 168.494 26.952C168.27 27.4 168.158 27.944 168.158 28.584V33H167.022V24.6H168.11V26.872L167.934 26.472C168.19 25.864 168.6 25.3893 169.166 25.048C169.742 24.696 170.419 24.52 171.198 24.52C172.019 24.52 172.718 24.728 173.294 25.144C173.87 25.5493 174.243 26.1627 174.414 26.984L173.966 26.808C174.211 26.1253 174.643 25.576 175.262 25.16C175.891 24.7333 176.643 24.52 177.518 24.52ZM187.558 33.08C186.684 33.08 185.916 32.8987 185.254 32.536C184.593 32.1627 184.076 31.656 183.702 31.016C183.329 30.3653 183.142 29.624 183.142 28.792C183.142 27.96 183.318 27.224 183.67 26.584C184.033 25.944 184.524 25.4427 185.142 25.08C185.772 24.7067 186.476 24.52 187.254 24.52C188.044 24.52 188.742 24.7013 189.35 25.064C189.969 25.416 190.454 25.9173 190.806 26.568C191.158 27.208 191.334 27.9493 191.334 28.792C191.334 28.8453 191.329 28.904 191.318 28.968C191.318 29.0213 191.318 29.08 191.318 29.144H184.006V28.296H190.71L190.262 28.632C190.262 28.024 190.129 27.4853 189.862 27.016C189.606 26.536 189.254 26.1627 188.806 25.896C188.358 25.6293 187.841 25.496 187.254 25.496C186.678 25.496 186.161 25.6293 185.702 25.896C185.244 26.1627 184.886 26.536 184.63 27.016C184.374 27.496 184.246 28.0453 184.246 28.664V28.84C184.246 29.48 184.385 30.0453 184.662 30.536C184.95 31.016 185.345 31.3947 185.846 31.672C186.358 31.9387 186.94 32.072 187.59 32.072C188.102 32.072 188.577 31.9813 189.014 31.8C189.462 31.6187 189.846 31.3413 190.166 30.968L190.806 31.704C190.433 32.152 189.964 32.4933 189.398 32.728C188.844 32.9627 188.23 33.08 187.558 33.08ZM197.935 24.52C198.617 24.52 199.215 24.6533 199.727 24.92C200.249 25.176 200.655 25.5707 200.943 26.104C201.241 26.6373 201.391 27.3093 201.391 28.12V33H200.255V28.232C200.255 27.3467 200.031 26.68 199.583 26.232C199.145 25.7733 198.527 25.544 197.727 25.544C197.129 25.544 196.607 25.6667 196.159 25.912C195.721 26.1467 195.38 26.4933 195.135 26.952C194.9 27.4 194.783 27.944 194.783 28.584V33H193.647V24.6H194.735V26.904L194.559 26.472C194.825 25.864 195.252 25.3893 195.839 25.048C196.425 24.696 197.124 24.52 197.935 24.52ZM207.115 33.08C206.326 33.08 205.718 32.8667 205.291 32.44C204.864 32.0133 204.651 31.4107 204.651 30.632V22.744H205.787V30.568C205.787 31.0587 205.91 31.4373 206.155 31.704C206.411 31.9707 206.774 32.104 207.243 32.104C207.744 32.104 208.16 31.96 208.491 31.672L208.891 32.488C208.667 32.6907 208.395 32.84 208.075 32.936C207.766 33.032 207.446 33.08 207.115 33.08ZM203.147 25.544V24.6H208.347V25.544H203.147ZM225.643 24.52C226.325 24.52 226.917 24.6533 227.419 24.92C227.931 25.176 228.325 25.5707 228.603 26.104C228.891 26.6373 229.035 27.3093 229.035 28.12V33H227.899V28.232C227.899 27.3467 227.685 26.68 227.259 26.232C226.843 25.7733 226.251 25.544 225.483 25.544C224.907 25.544 224.405 25.6667 223.979 25.912C223.563 26.1467 223.237 26.4933 223.003 26.952C222.779 27.4 222.667 27.944 222.667 28.584V33H221.531V28.232C221.531 27.3467 221.317 26.68 220.891 26.232C220.464 25.7733 219.867 25.544 219.099 25.544C218.533 25.544 218.037 25.6667 217.611 25.912C217.184 26.1467 216.853 26.4933 216.619 26.952C216.395 27.4 216.283 27.944 216.283 28.584V33H215.147V24.6H216.235V26.872L216.059 26.472C216.315 25.864 216.725 25.3893 217.291 25.048C217.867 24.696 218.544 24.52 219.323 24.52C220.144 24.52 220.843 24.728 221.419 25.144C221.995 25.5493 222.368 26.1627 222.539 26.984L222.091 26.808C222.336 26.1253 222.768 25.576 223.387 25.16C224.016 24.7333 224.768 24.52 225.643 24.52ZM235.683 33.08C234.809 33.08 234.041 32.8987 233.379 32.536C232.718 32.1627 232.201 31.656 231.827 31.016C231.454 30.3653 231.267 29.624 231.267 28.792C231.267 27.96 231.443 27.224 231.795 26.584C232.158 25.944 232.649 25.4427 233.267 25.08C233.897 24.7067 234.601 24.52 235.379 24.52C236.169 24.52 236.867 24.7013 237.475 25.064C238.094 25.416 238.579 25.9173 238.931 26.568C239.283 27.208 239.459 27.9493 239.459 28.792C239.459 28.8453 239.454 28.904 239.443 28.968C239.443 29.0213 239.443 29.08 239.443 29.144H232.131V28.296H238.835L238.387 28.632C238.387 28.024 238.254 27.4853 237.987 27.016C237.731 26.536 237.379 26.1627 236.931 25.896C236.483 25.6293 235.966 25.496 235.379 25.496C234.803 25.496 234.286 25.6293 233.827 25.896C233.369 26.1627 233.011 26.536 232.755 27.016C232.499 27.496 232.371 28.0453 232.371 28.664V28.84C232.371 29.48 232.51 30.0453 232.787 30.536C233.075 31.016 233.47 31.3947 233.971 31.672C234.483 31.9387 235.065 32.072 235.715 32.072C236.227 32.072 236.702 31.9813 237.139 31.8C237.587 31.6187 237.971 31.3413 238.291 30.968L238.931 31.704C238.558 32.152 238.089 32.4933 237.523 32.728C236.969 32.9627 236.355 33.08 235.683 33.08ZM234.323 23.288L236.515 21.304H238.035L235.443 23.288H234.323ZM252.268 24.52C252.95 24.52 253.542 24.6533 254.044 24.92C254.556 25.176 254.95 25.5707 255.228 26.104C255.516 26.6373 255.66 27.3093 255.66 28.12V33H254.524V28.232C254.524 27.3467 254.31 26.68 253.884 26.232C253.468 25.7733 252.876 25.544 252.108 25.544C251.532 25.544 251.03 25.6667 250.604 25.912C250.188 26.1467 249.862 26.4933 249.628 26.952C249.404 27.4 249.292 27.944 249.292 28.584V33H248.156V28.232C248.156 27.3467 247.942 26.68 247.516 26.232C247.089 25.7733 246.492 25.544 245.724 25.544C245.158 25.544 244.662 25.6667 244.236 25.912C243.809 26.1467 243.478 26.4933 243.244 26.952C243.02 27.4 242.908 27.944 242.908 28.584V33H241.772V24.6H242.86V26.872L242.684 26.472C242.94 25.864 243.35 25.3893 243.916 25.048C244.492 24.696 245.169 24.52 245.948 24.52C246.769 24.52 247.468 24.728 248.044 25.144C248.62 25.5493 248.993 26.1627 249.164 26.984L248.716 26.808C248.961 26.1253 249.393 25.576 250.012 25.16C250.641 24.7333 251.393 24.52 252.268 24.52ZM262.164 33.08C261.354 33.08 260.623 32.8987 259.972 32.536C259.332 32.1627 258.826 31.656 258.452 31.016C258.079 30.3653 257.892 29.624 257.892 28.792C257.892 27.9493 258.079 27.208 258.452 26.568C258.826 25.928 259.332 25.4267 259.972 25.064C260.612 24.7013 261.343 24.52 262.164 24.52C262.996 24.52 263.732 24.7013 264.372 25.064C265.023 25.4267 265.53 25.928 265.892 26.568C266.266 27.208 266.452 27.9493 266.452 28.792C266.452 29.624 266.266 30.3653 265.892 31.016C265.53 31.656 265.023 32.1627 264.372 32.536C263.722 32.8987 262.986 33.08 262.164 33.08ZM262.164 32.072C262.772 32.072 263.311 31.9387 263.78 31.672C264.25 31.3947 264.618 31.0107 264.884 30.52C265.162 30.0187 265.3 29.4427 265.3 28.792C265.3 28.1307 265.162 27.5547 264.884 27.064C264.618 26.5733 264.25 26.1947 263.78 25.928C263.311 25.6507 262.778 25.512 262.18 25.512C261.583 25.512 261.05 25.6507 260.58 25.928C260.111 26.1947 259.738 26.5733 259.46 27.064C259.183 27.5547 259.044 28.1307 259.044 28.792C259.044 29.4427 259.183 30.0187 259.46 30.52C259.738 31.0107 260.111 31.3947 260.58 31.672C261.05 31.9387 261.578 32.072 262.164 32.072ZM268.772 33V24.6H269.908V33H268.772ZM269.348 22.744C269.113 22.744 268.916 22.664 268.756 22.504C268.596 22.344 268.516 22.152 268.516 21.928C268.516 21.704 268.596 21.5173 268.756 21.368C268.916 21.208 269.113 21.128 269.348 21.128C269.582 21.128 269.78 21.2027 269.94 21.352C270.1 21.5013 270.18 21.688 270.18 21.912C270.18 22.1467 270.1 22.344 269.94 22.504C269.79 22.664 269.593 22.744 269.348 22.744ZM273.068 33V24.6H274.156V26.888L274.044 26.488C274.279 25.848 274.674 25.3627 275.228 25.032C275.783 24.6907 276.471 24.52 277.292 24.52V25.624C277.25 25.624 277.207 25.624 277.164 25.624C277.122 25.6133 277.079 25.608 277.036 25.608C276.151 25.608 275.458 25.88 274.956 26.424C274.455 26.9573 274.204 27.72 274.204 28.712V33H273.068ZM282.855 33.08C281.98 33.08 281.212 32.8987 280.551 32.536C279.89 32.1627 279.372 31.656 278.999 31.016C278.626 30.3653 278.439 29.624 278.439 28.792C278.439 27.96 278.615 27.224 278.967 26.584C279.33 25.944 279.82 25.4427 280.439 25.08C281.068 24.7067 281.772 24.52 282.551 24.52C283.34 24.52 284.039 24.7013 284.647 25.064C285.266 25.416 285.751 25.9173 286.103 26.568C286.455 27.208 286.631 27.9493 286.631 28.792C286.631 28.8453 286.626 28.904 286.615 28.968C286.615 29.0213 286.615 29.08 286.615 29.144H279.303V28.296H286.007L285.559 28.632C285.559 28.024 285.426 27.4853 285.159 27.016C284.903 26.536 284.551 26.1627 284.103 25.896C283.655 25.6293 283.138 25.496 282.551 25.496C281.975 25.496 281.458 25.6293 280.999 25.896C280.54 26.1627 280.183 26.536 279.927 27.016C279.671 27.496 279.543 28.0453 279.543 28.664V28.84C279.543 29.48 279.682 30.0453 279.959 30.536C280.247 31.016 280.642 31.3947 281.143 31.672C281.655 31.9387 282.236 32.072 282.887 32.072C283.399 32.072 283.874 31.9813 284.311 31.8C284.759 31.6187 285.143 31.3413 285.463 30.968L286.103 31.704C285.73 32.152 285.26 32.4933 284.695 32.728C284.14 32.9627 283.527 33.08 282.855 33.08ZM298.395 33V31.144L298.347 30.84V27.736C298.347 27.0213 298.144 26.472 297.739 26.088C297.344 25.704 296.752 25.512 295.963 25.512C295.419 25.512 294.902 25.6027 294.411 25.784C293.92 25.9653 293.504 26.2053 293.163 26.504L292.651 25.656C293.078 25.2933 293.59 25.016 294.187 24.824C294.784 24.6213 295.414 24.52 296.075 24.52C297.163 24.52 298 24.792 298.587 25.336C299.184 25.8693 299.483 26.6853 299.483 27.784V33H298.395ZM295.499 33.08C294.87 33.08 294.32 32.9787 293.851 32.776C293.392 32.5627 293.04 32.2747 292.795 31.912C292.55 31.5387 292.427 31.112 292.427 30.632C292.427 30.1947 292.528 29.8 292.731 29.448C292.944 29.0853 293.286 28.7973 293.755 28.584C294.235 28.36 294.875 28.248 295.675 28.248H298.571V29.096H295.707C294.896 29.096 294.331 29.24 294.011 29.528C293.702 29.816 293.547 30.1733 293.547 30.6C293.547 31.08 293.734 31.464 294.107 31.752C294.48 32.04 295.003 32.184 295.675 32.184C296.315 32.184 296.864 32.04 297.323 31.752C297.792 31.4533 298.134 31.0267 298.347 30.472L298.603 31.256C298.39 31.8107 298.016 32.2533 297.483 32.584C296.96 32.9147 296.299 33.08 295.499 33.08ZM304.572 33L300.844 24.6H302.028L305.452 32.392H304.892L308.364 24.6H309.484L305.74 33H304.572ZM314.418 33.08C313.543 33.08 312.775 32.8987 312.114 32.536C311.452 32.1627 310.935 31.656 310.562 31.016C310.188 30.3653 310.002 29.624 310.002 28.792C310.002 27.96 310.178 27.224 310.53 26.584C310.892 25.944 311.383 25.4427 312.002 25.08C312.631 24.7067 313.335 24.52 314.114 24.52C314.903 24.52 315.602 24.7013 316.21 25.064C316.828 25.416 317.314 25.9173 317.666 26.568C318.018 27.208 318.194 27.9493 318.194 28.792C318.194 28.8453 318.188 28.904 318.178 28.968C318.178 29.0213 318.178 29.08 318.178 29.144H310.866V28.296H317.57L317.122 28.632C317.122 28.024 316.988 27.4853 316.722 27.016C316.466 26.536 316.114 26.1627 315.666 25.896C315.218 25.6293 314.7 25.496 314.114 25.496C313.538 25.496 313.02 25.6293 312.562 25.896C312.103 26.1627 311.746 26.536 311.49 27.016C311.234 27.496 311.106 28.0453 311.106 28.664V28.84C311.106 29.48 311.244 30.0453 311.522 30.536C311.81 31.016 312.204 31.3947 312.706 31.672C313.218 31.9387 313.799 32.072 314.45 32.072C314.962 32.072 315.436 31.9813 315.874 31.8C316.322 31.6187 316.706 31.3413 317.026 30.968L317.666 31.704C317.292 32.152 316.823 32.4933 316.258 32.728C315.703 32.9627 315.09 33.08 314.418 33.08ZM323.994 33.08C323.162 33.08 322.415 32.8987 321.754 32.536C321.103 32.1627 320.591 31.656 320.218 31.016C319.845 30.3653 319.658 29.624 319.658 28.792C319.658 27.9493 319.845 27.208 320.218 26.568C320.591 25.928 321.103 25.4267 321.754 25.064C322.415 24.7013 323.162 24.52 323.994 24.52C324.709 24.52 325.354 24.6587 325.93 24.936C326.506 25.2133 326.959 25.6293 327.29 26.184L326.442 26.76C326.154 26.3333 325.797 26.0187 325.37 25.816C324.943 25.6133 324.479 25.512 323.978 25.512C323.381 25.512 322.842 25.6507 322.362 25.928C321.882 26.1947 321.503 26.5733 321.226 27.064C320.949 27.5547 320.81 28.1307 320.81 28.792C320.81 29.4533 320.949 30.0293 321.226 30.52C321.503 31.0107 321.882 31.3947 322.362 31.672C322.842 31.9387 323.381 32.072 323.978 32.072C324.479 32.072 324.943 31.9707 325.37 31.768C325.797 31.5653 326.154 31.256 326.442 30.84L327.29 31.416C326.959 31.96 326.506 32.376 325.93 32.664C325.354 32.9413 324.709 33.08 323.994 33.08ZM30.08 44.52C30.7627 44.52 31.3547 44.6533 31.856 44.92C32.368 45.176 32.7627 45.5707 33.04 46.104C33.328 46.6373 33.472 47.3093 33.472 48.12V53H32.336V48.232C32.336 47.3467 32.1227 46.68 31.696 46.232C31.28 45.7733 30.688 45.544 29.92 45.544C29.344 45.544 28.8427 45.6667 28.416 45.912C28 46.1467 27.6747 46.4933 27.44 46.952C27.216 47.4 27.104 47.944 27.104 48.584V53H25.968V48.232C25.968 47.3467 25.7547 46.68 25.328 46.232C24.9013 45.7733 24.304 45.544 23.536 45.544C22.9707 45.544 22.4747 45.6667 22.048 45.912C21.6213 46.1467 21.2907 46.4933 21.056 46.952C20.832 47.4 20.72 47.944 20.72 48.584V53H19.584V44.6H20.672V46.872L20.496 46.472C20.752 45.864 21.1627 45.3893 21.728 45.048C22.304 44.696 22.9813 44.52 23.76 44.52C24.5813 44.52 25.28 44.728 25.856 45.144C26.432 45.5493 26.8053 46.1627 26.976 46.984L26.528 46.808C26.7733 46.1253 27.2053 45.576 27.824 45.16C28.4533 44.7333 29.2053 44.52 30.08 44.52ZM40.1208 53.08C39.2461 53.08 38.4781 52.8987 37.8168 52.536C37.1554 52.1627 36.6381 51.656 36.2648 51.016C35.8914 50.3653 35.7048 49.624 35.7048 48.792C35.7048 47.96 35.8808 47.224 36.2328 46.584C36.5954 45.944 37.0861 45.4427 37.7048 45.08C38.3341 44.7067 39.0381 44.52 39.8168 44.52C40.6061 44.52 41.3048 44.7013 41.9128 45.064C42.5314 45.416 43.0168 45.9173 43.3688 46.568C43.7208 47.208 43.8968 47.9493 43.8968 48.792C43.8968 48.8453 43.8914 48.904 43.8808 48.968C43.8808 49.0213 43.8808 49.08 43.8808 49.144H36.5688V48.296H43.2728L42.8248 48.632C42.8248 48.024 42.6914 47.4853 42.4248 47.016C42.1688 46.536 41.8168 46.1627 41.3688 45.896C40.9208 45.6293 40.4034 45.496 39.8168 45.496C39.2408 45.496 38.7234 45.6293 38.2648 45.896C37.8061 46.1627 37.4488 46.536 37.1928 47.016C36.9368 47.496 36.8088 48.0453 36.8088 48.664V48.84C36.8088 49.48 36.9474 50.0453 37.2248 50.536C37.5128 51.016 37.9074 51.3947 38.4088 51.672C38.9208 51.9387 39.5021 52.072 40.1528 52.072C40.6648 52.072 41.1394 51.9813 41.5768 51.8C42.0248 51.6187 42.4088 51.3413 42.7288 50.968L43.3688 51.704C42.9954 52.152 42.5261 52.4933 41.9608 52.728C41.4061 52.9627 40.7928 53.08 40.1208 53.08ZM46.209 53V44.6H47.345V53H46.209ZM46.785 42.744C46.5503 42.744 46.353 42.664 46.193 42.504C46.033 42.344 45.953 42.152 45.953 41.928C45.953 41.704 46.033 41.5173 46.193 41.368C46.353 41.208 46.5503 41.128 46.785 41.128C47.0197 41.128 47.217 41.2027 47.377 41.352C47.537 41.5013 47.617 41.688 47.617 41.912C47.617 42.1467 47.537 42.344 47.377 42.504C47.2277 42.664 47.0303 42.744 46.785 42.744ZM50.5059 53V41.128H51.6419V53H50.5059ZM54.8028 53V41.128H55.9388V53H54.8028ZM62.6676 53.08C61.793 53.08 61.025 52.8987 60.3636 52.536C59.7023 52.1627 59.185 51.656 58.8116 51.016C58.4383 50.3653 58.2516 49.624 58.2516 48.792C58.2516 47.96 58.4276 47.224 58.7796 46.584C59.1423 45.944 59.633 45.4427 60.2516 45.08C60.881 44.7067 61.585 44.52 62.3636 44.52C63.153 44.52 63.8516 44.7013 64.4596 45.064C65.0783 45.416 65.5636 45.9173 65.9156 46.568C66.2676 47.208 66.4436 47.9493 66.4436 48.792C66.4436 48.8453 66.4383 48.904 66.4276 48.968C66.4276 49.0213 66.4276 49.08 66.4276 49.144H59.1156V48.296H65.8196L65.3716 48.632C65.3716 48.024 65.2383 47.4853 64.9716 47.016C64.7156 46.536 64.3636 46.1627 63.9156 45.896C63.4676 45.6293 62.9503 45.496 62.3636 45.496C61.7876 45.496 61.2703 45.6293 60.8116 45.896C60.353 46.1627 59.9956 46.536 59.7396 47.016C59.4836 47.496 59.3556 48.0453 59.3556 48.664V48.84C59.3556 49.48 59.4943 50.0453 59.7716 50.536C60.0596 51.016 60.4543 51.3947 60.9556 51.672C61.4676 51.9387 62.049 52.072 62.6996 52.072C63.2116 52.072 63.6863 51.9813 64.1236 51.8C64.5716 51.6187 64.9556 51.3413 65.2756 50.968L65.9156 51.704C65.5423 52.152 65.073 52.4933 64.5076 52.728C63.953 52.9627 63.3396 53.08 62.6676 53.08ZM72.2279 53.08C71.5132 53.08 70.8892 52.9467 70.3559 52.68C69.8225 52.4133 69.4065 52.0133 69.1079 51.48C68.8199 50.9467 68.6759 50.28 68.6759 49.48V44.6H69.8119V49.352C69.8119 50.248 70.0305 50.9253 70.4679 51.384C70.9159 51.832 71.5399 52.056 72.3399 52.056C72.9265 52.056 73.4332 51.9387 73.8599 51.704C74.2972 51.4587 74.6279 51.1067 74.8519 50.648C75.0865 50.1893 75.2039 49.64 75.2039 49V44.6H76.3399V53H75.2519V50.696L75.4279 51.112C75.1612 51.7307 74.7452 52.216 74.1799 52.568C73.6252 52.9093 72.9745 53.08 72.2279 53.08ZM79.5059 53V44.6H80.5939V46.888L80.4819 46.488C80.7165 45.848 81.1112 45.3627 81.6659 45.032C82.2205 44.6907 82.9085 44.52 83.7299 44.52V45.624C83.6872 45.624 83.6445 45.624 83.6019 45.624C83.5592 45.6133 83.5165 45.608 83.4739 45.608C82.5885 45.608 81.8952 45.88 81.3939 46.424C80.8925 46.9573 80.6419 47.72 80.6419 48.712V53H79.5059ZM92.7713 53.08C91.9819 53.08 91.3739 52.8667 90.9473 52.44C90.5206 52.0133 90.3073 51.4107 90.3073 50.632V42.744H91.4433V50.568C91.4433 51.0587 91.5659 51.4373 91.8113 51.704C92.0673 51.9707 92.4299 52.104 92.8993 52.104C93.4006 52.104 93.8166 51.96 94.1473 51.672L94.5473 52.488C94.3233 52.6907 94.0513 52.84 93.7313 52.936C93.4219 53.032 93.1019 53.08 92.7713 53.08ZM88.8033 45.544V44.6H94.0033V45.544H88.8033ZM99.8864 53.08C99.0117 53.08 98.2437 52.8987 97.5824 52.536C96.921 52.1627 96.4037 51.656 96.0304 51.016C95.657 50.3653 95.4704 49.624 95.4704 48.792C95.4704 47.96 95.6464 47.224 95.9984 46.584C96.361 45.944 96.8517 45.4427 97.4704 45.08C98.0997 44.7067 98.8037 44.52 99.5824 44.52C100.372 44.52 101.07 44.7013 101.678 45.064C102.297 45.416 102.782 45.9173 103.134 46.568C103.486 47.208 103.662 47.9493 103.662 48.792C103.662 48.8453 103.657 48.904 103.646 48.968C103.646 49.0213 103.646 49.08 103.646 49.144H96.3344V48.296H103.038L102.59 48.632C102.59 48.024 102.457 47.4853 102.19 47.016C101.934 46.536 101.582 46.1627 101.134 45.896C100.686 45.6293 100.169 45.496 99.5824 45.496C99.0064 45.496 98.489 45.6293 98.0304 45.896C97.5717 46.1627 97.2144 46.536 96.9584 47.016C96.7024 47.496 96.5744 48.0453 96.5744 48.664V48.84C96.5744 49.48 96.713 50.0453 96.9904 50.536C97.2784 51.016 97.673 51.3947 98.1744 51.672C98.6864 51.9387 99.2677 52.072 99.9184 52.072C100.43 52.072 100.905 51.9813 101.342 51.8C101.79 51.6187 102.174 51.3413 102.494 50.968L103.134 51.704C102.761 52.152 102.292 52.4933 101.726 52.728C101.172 52.9627 100.558 53.08 99.8864 53.08ZM116.471 44.52C117.153 44.52 117.745 44.6533 118.247 44.92C118.759 45.176 119.153 45.5707 119.431 46.104C119.719 46.6373 119.863 47.3093 119.863 48.12V53H118.727V48.232C118.727 47.3467 118.513 46.68 118.087 46.232C117.671 45.7733 117.079 45.544 116.311 45.544C115.735 45.544 115.233 45.6667 114.807 45.912C114.391 46.1467 114.065 46.4933 113.831 46.952C113.607 47.4 113.495 47.944 113.495 48.584V53H112.359V48.232C112.359 47.3467 112.145 46.68 111.719 46.232C111.292 45.7733 110.695 45.544 109.927 45.544C109.361 45.544 108.865 45.6667 108.439 45.912C108.012 46.1467 107.681 46.4933 107.447 46.952C107.223 47.4 107.111 47.944 107.111 48.584V53H105.975V44.6H107.063V46.872L106.887 46.472C107.143 45.864 107.553 45.3893 108.119 45.048C108.695 44.696 109.372 44.52 110.151 44.52C110.972 44.52 111.671 44.728 112.247 45.144C112.823 45.5493 113.196 46.1627 113.367 46.984L112.919 46.808C113.164 46.1253 113.596 45.576 114.215 45.16C114.844 44.7333 115.596 44.52 116.471 44.52ZM127.279 53.08C126.554 53.08 125.898 52.9147 125.311 52.584C124.725 52.2427 124.255 51.7573 123.903 51.128C123.562 50.488 123.391 49.7093 123.391 48.792C123.391 47.8747 123.562 47.1013 123.903 46.472C124.245 45.832 124.709 45.3467 125.295 45.016C125.882 44.6853 126.543 44.52 127.279 44.52C128.079 44.52 128.794 44.7013 129.423 45.064C130.063 45.416 130.565 45.9173 130.927 46.568C131.29 47.208 131.471 47.9493 131.471 48.792C131.471 49.6453 131.29 50.392 130.927 51.032C130.565 51.672 130.063 52.1733 129.423 52.536C128.794 52.8987 128.079 53.08 127.279 53.08ZM122.943 56.104V44.6H124.031V47.128L123.919 48.808L124.079 50.504V56.104H122.943ZM127.199 52.072C127.797 52.072 128.33 51.9387 128.799 51.672C129.269 51.3947 129.642 51.0107 129.919 50.52C130.197 50.0187 130.335 49.4427 130.335 48.792C130.335 48.1413 130.197 47.5707 129.919 47.08C129.642 46.5893 129.269 46.2053 128.799 45.928C128.33 45.6507 127.797 45.512 127.199 45.512C126.602 45.512 126.063 45.6507 125.583 45.928C125.114 46.2053 124.741 46.5893 124.463 47.08C124.197 47.5707 124.063 48.1413 124.063 48.792C124.063 49.4427 124.197 50.0187 124.463 50.52C124.741 51.0107 125.114 51.3947 125.583 51.672C126.063 51.9387 126.602 52.072 127.199 52.072ZM136.043 53.08C135.35 53.08 134.694 52.984 134.075 52.792C133.456 52.5893 132.971 52.3387 132.619 52.04L133.131 51.144C133.472 51.4 133.91 51.624 134.443 51.816C134.976 51.9973 135.536 52.088 136.123 52.088C136.923 52.088 137.499 51.9653 137.851 51.72C138.203 51.464 138.379 51.128 138.379 50.712C138.379 50.4027 138.278 50.1627 138.075 49.992C137.883 49.8107 137.627 49.6773 137.307 49.592C136.987 49.496 136.63 49.416 136.235 49.352C135.84 49.288 135.446 49.2133 135.051 49.128C134.667 49.0427 134.315 48.92 133.995 48.76C133.675 48.5893 133.414 48.36 133.211 48.072C133.019 47.784 132.923 47.4 132.923 46.92C132.923 46.4613 133.051 46.0507 133.307 45.688C133.563 45.3253 133.936 45.0427 134.427 44.84C134.928 44.6267 135.536 44.52 136.251 44.52C136.795 44.52 137.339 44.5947 137.883 44.744C138.427 44.8827 138.875 45.0693 139.227 45.304L138.731 46.216C138.358 45.96 137.958 45.7787 137.531 45.672C137.104 45.5547 136.678 45.496 136.251 45.496C135.494 45.496 134.934 45.6293 134.571 45.896C134.219 46.152 134.043 46.4827 134.043 46.888C134.043 47.208 134.139 47.4587 134.331 47.64C134.534 47.8213 134.795 47.9653 135.115 48.072C135.446 48.168 135.803 48.248 136.187 48.312C136.582 48.376 136.971 48.456 137.355 48.552C137.75 48.6373 138.107 48.76 138.427 48.92C138.758 49.0693 139.019 49.288 139.211 49.576C139.414 49.8533 139.515 50.2213 139.515 50.68C139.515 51.1707 139.376 51.5973 139.099 51.96C138.832 52.312 138.438 52.5893 137.915 52.792C137.403 52.984 136.779 53.08 136.043 53.08ZM149.131 53.08C148.331 53.08 147.611 52.8987 146.971 52.536C146.342 52.1733 145.846 51.672 145.483 51.032C145.12 50.3813 144.939 49.6347 144.939 48.792C144.939 47.9387 145.12 47.192 145.483 46.552C145.846 45.912 146.342 45.416 146.971 45.064C147.611 44.7013 148.331 44.52 149.131 44.52C149.867 44.52 150.523 44.6853 151.099 45.016C151.686 45.3467 152.15 45.832 152.491 46.472C152.843 47.1013 153.019 47.8747 153.019 48.792C153.019 49.6987 152.848 50.472 152.507 51.112C152.166 51.752 151.702 52.2427 151.115 52.584C150.539 52.9147 149.878 53.08 149.131 53.08ZM149.211 52.072C149.808 52.072 150.342 51.9387 150.811 51.672C151.291 51.3947 151.664 51.0107 151.931 50.52C152.208 50.0187 152.347 49.4427 152.347 48.792C152.347 48.1307 152.208 47.5547 151.931 47.064C151.664 46.5733 151.291 46.1947 150.811 45.928C150.342 45.6507 149.808 45.512 149.211 45.512C148.624 45.512 148.096 45.6507 147.627 45.928C147.158 46.1947 146.784 46.5733 146.507 47.064C146.23 47.5547 146.091 48.1307 146.091 48.792C146.091 49.4427 146.23 50.0187 146.507 50.52C146.784 51.0107 147.158 51.3947 147.627 51.672C148.096 51.9387 148.624 52.072 149.211 52.072ZM152.379 53V50.472L152.491 48.776L152.331 47.08V41.128H153.467V53H152.379ZM156.231 46.024L156.151 41.8H157.159L157.079 46.024H156.231ZM165.129 53V51.144L165.081 50.84V47.736C165.081 47.0213 164.879 46.472 164.473 46.088C164.079 45.704 163.487 45.512 162.697 45.512C162.153 45.512 161.636 45.6027 161.145 45.784C160.655 45.9653 160.239 46.2053 159.897 46.504L159.385 45.656C159.812 45.2933 160.324 45.016 160.921 44.824C161.519 44.6213 162.148 44.52 162.809 44.52C163.897 44.52 164.735 44.792 165.321 45.336C165.919 45.8693 166.217 46.6853 166.217 47.784V53H165.129ZM162.233 53.08C161.604 53.08 161.055 52.9787 160.585 52.776C160.127 52.5627 159.775 52.2747 159.529 51.912C159.284 51.5387 159.161 51.112 159.161 50.632C159.161 50.1947 159.263 49.8 159.465 49.448C159.679 49.0853 160.02 48.7973 160.489 48.584C160.969 48.36 161.609 48.248 162.409 48.248H165.305V49.096H162.441C161.631 49.096 161.065 49.24 160.745 49.528C160.436 49.816 160.281 50.1733 160.281 50.6C160.281 51.08 160.468 51.464 160.841 51.752C161.215 52.04 161.737 52.184 162.409 52.184C163.049 52.184 163.599 52.04 164.057 51.752C164.527 51.4533 164.868 51.0267 165.081 50.472L165.337 51.256C165.124 51.8107 164.751 52.2533 164.217 52.584C163.695 52.9147 163.033 53.08 162.233 53.08ZM172.791 53.08C171.959 53.08 171.212 52.8987 170.551 52.536C169.9 52.1627 169.388 51.656 169.015 51.016C168.641 50.3653 168.455 49.624 168.455 48.792C168.455 47.9493 168.641 47.208 169.015 46.568C169.388 45.928 169.9 45.4267 170.551 45.064C171.212 44.7013 171.959 44.52 172.791 44.52C173.505 44.52 174.151 44.6587 174.727 44.936C175.303 45.2133 175.756 45.6293 176.087 46.184L175.239 46.76C174.951 46.3333 174.593 46.0187 174.167 45.816C173.74 45.6133 173.276 45.512 172.775 45.512C172.177 45.512 171.639 45.6507 171.159 45.928C170.679 46.1947 170.3 46.5733 170.023 47.064C169.745 47.5547 169.607 48.1307 169.607 48.792C169.607 49.4533 169.745 50.0293 170.023 50.52C170.3 51.0107 170.679 51.3947 171.159 51.672C171.639 51.9387 172.177 52.072 172.775 52.072C173.276 52.072 173.74 51.9707 174.167 51.768C174.593 51.5653 174.951 51.256 175.239 50.84L176.087 51.416C175.756 51.96 175.303 52.376 174.727 52.664C174.151 52.9413 173.505 53.08 172.791 53.08ZM181.666 53.08C180.834 53.08 180.087 52.8987 179.426 52.536C178.775 52.1627 178.263 51.656 177.89 51.016C177.516 50.3653 177.33 49.624 177.33 48.792C177.33 47.9493 177.516 47.208 177.89 46.568C178.263 45.928 178.775 45.4267 179.426 45.064C180.087 44.7013 180.834 44.52 181.666 44.52C182.38 44.52 183.026 44.6587 183.602 44.936C184.178 45.2133 184.631 45.6293 184.962 46.184L184.114 46.76C183.826 46.3333 183.468 46.0187 183.042 45.816C182.615 45.6133 182.151 45.512 181.65 45.512C181.052 45.512 180.514 45.6507 180.034 45.928C179.554 46.1947 179.175 46.5733 178.898 47.064C178.62 47.5547 178.482 48.1307 178.482 48.792C178.482 49.4533 178.62 50.0293 178.898 50.52C179.175 51.0107 179.554 51.3947 180.034 51.672C180.514 51.9387 181.052 52.072 181.65 52.072C182.151 52.072 182.615 51.9707 183.042 51.768C183.468 51.5653 183.826 51.256 184.114 50.84L184.962 51.416C184.631 51.96 184.178 52.376 183.602 52.664C183.026 52.9413 182.38 53.08 181.666 53.08ZM190.621 53.08C189.746 53.08 188.978 52.8987 188.317 52.536C187.655 52.1627 187.138 51.656 186.765 51.016C186.391 50.3653 186.205 49.624 186.205 48.792C186.205 47.96 186.381 47.224 186.733 46.584C187.095 45.944 187.586 45.4427 188.205 45.08C188.834 44.7067 189.538 44.52 190.317 44.52C191.106 44.52 191.805 44.7013 192.413 45.064C193.031 45.416 193.517 45.9173 193.869 46.568C194.221 47.208 194.397 47.9493 194.397 48.792C194.397 48.8453 194.391 48.904 194.381 48.968C194.381 49.0213 194.381 49.08 194.381 49.144H187.069V48.296H193.773L193.325 48.632C193.325 48.024 193.191 47.4853 192.925 47.016C192.669 46.536 192.317 46.1627 191.869 45.896C191.421 45.6293 190.903 45.496 190.317 45.496C189.741 45.496 189.223 45.6293 188.765 45.896C188.306 46.1627 187.949 46.536 187.693 47.016C187.437 47.496 187.309 48.0453 187.309 48.664V48.84C187.309 49.48 187.447 50.0453 187.725 50.536C188.013 51.016 188.407 51.3947 188.909 51.672C189.421 51.9387 190.002 52.072 190.653 52.072C191.165 52.072 191.639 51.9813 192.077 51.8C192.525 51.6187 192.909 51.3413 193.229 50.968L193.869 51.704C193.495 52.152 193.026 52.4933 192.461 52.728C191.906 52.9627 191.293 53.08 190.621 53.08ZM190.221 43.288L187.629 41.304H189.149L191.341 43.288H190.221ZM198.965 53.08C198.272 53.08 197.616 52.984 196.997 52.792C196.378 52.5893 195.893 52.3387 195.541 52.04L196.053 51.144C196.394 51.4 196.832 51.624 197.365 51.816C197.898 51.9973 198.458 52.088 199.045 52.088C199.845 52.088 200.421 51.9653 200.773 51.72C201.125 51.464 201.301 51.128 201.301 50.712C201.301 50.4027 201.2 50.1627 200.997 49.992C200.805 49.8107 200.549 49.6773 200.229 49.592C199.909 49.496 199.552 49.416 199.157 49.352C198.762 49.288 198.368 49.2133 197.973 49.128C197.589 49.0427 197.237 48.92 196.917 48.76C196.597 48.5893 196.336 48.36 196.133 48.072C195.941 47.784 195.845 47.4 195.845 46.92C195.845 46.4613 195.973 46.0507 196.229 45.688C196.485 45.3253 196.858 45.0427 197.349 44.84C197.85 44.6267 198.458 44.52 199.173 44.52C199.717 44.52 200.261 44.5947 200.805 44.744C201.349 44.8827 201.797 45.0693 202.149 45.304L201.653 46.216C201.28 45.96 200.88 45.7787 200.453 45.672C200.026 45.5547 199.6 45.496 199.173 45.496C198.416 45.496 197.856 45.6293 197.493 45.896C197.141 46.152 196.965 46.4827 196.965 46.888C196.965 47.208 197.061 47.4587 197.253 47.64C197.456 47.8213 197.717 47.9653 198.037 48.072C198.368 48.168 198.725 48.248 199.109 48.312C199.504 48.376 199.893 48.456 200.277 48.552C200.672 48.6373 201.029 48.76 201.349 48.92C201.68 49.0693 201.941 49.288 202.133 49.576C202.336 49.8533 202.437 50.2213 202.437 50.68C202.437 51.1707 202.298 51.5973 202.021 51.96C201.754 52.312 201.36 52.5893 200.837 52.792C200.325 52.984 199.701 53.08 198.965 53.08ZM210.885 49.64C210.885 49.192 210.954 48.808 211.093 48.488C211.242 48.168 211.424 47.8853 211.637 47.64C211.861 47.3947 212.096 47.1653 212.341 46.952C212.597 46.7387 212.837 46.5253 213.061 46.312C213.285 46.088 213.466 45.848 213.605 45.592C213.744 45.3253 213.813 45.016 213.813 44.664C213.813 44.088 213.589 43.6187 213.141 43.256C212.693 42.8933 212.058 42.712 211.237 42.712C210.554 42.712 209.962 42.824 209.461 43.048C208.96 43.2613 208.533 43.5813 208.181 44.008L207.333 43.368C207.76 42.8347 208.309 42.424 208.981 42.136C209.653 41.848 210.432 41.704 211.317 41.704C212.064 41.704 212.709 41.816 213.253 42.04C213.808 42.264 214.234 42.584 214.533 43C214.842 43.416 214.997 43.912 214.997 44.488C214.997 44.9467 214.922 45.3413 214.773 45.672C214.634 45.992 214.453 46.28 214.229 46.536C214.016 46.7813 213.781 47.016 213.525 47.24C213.28 47.4533 213.045 47.672 212.821 47.896C212.597 48.12 212.416 48.3707 212.277 48.648C212.138 48.9253 212.069 49.256 212.069 49.64H210.885ZM211.477 53.08C211.253 53.08 211.056 53 210.885 52.84C210.725 52.6693 210.645 52.472 210.645 52.248C210.645 52.0133 210.725 51.8213 210.885 51.672C211.056 51.512 211.253 51.432 211.477 51.432C211.722 51.432 211.925 51.512 212.085 51.672C212.245 51.8213 212.325 52.0133 212.325 52.248C212.325 52.472 212.245 52.6693 212.085 52.84C211.925 53 211.722 53.08 211.477 53.08Z" fill="black"/>
</g>
<rect x="41.5" y="97.5" width="294" height="166" rx="19.5" fill="#F8F9FA" stroke="#00A6FB"/>
<path d="M137.824 133V121.8H142.016C142.965 121.8 143.781 121.955 144.464 122.264C145.147 122.563 145.669 123 146.032 123.576C146.405 124.141 146.592 124.829 146.592 125.64C146.592 126.429 146.405 127.112 146.032 127.688C145.669 128.253 145.147 128.691 144.464 129C143.781 129.299 142.965 129.448 142.016 129.448H138.48L139.008 128.904V133H137.824ZM145.472 133L142.592 128.936H143.872L146.768 133H145.472ZM139.008 129L138.48 128.44H141.984C143.104 128.44 143.952 128.195 144.528 127.704C145.115 127.213 145.408 126.525 145.408 125.64C145.408 124.744 145.115 124.051 144.528 123.56C143.952 123.069 143.104 122.824 141.984 122.824H138.48L139.008 122.264V129ZM152.715 133.08C151.84 133.08 151.072 132.899 150.411 132.536C149.749 132.163 149.232 131.656 148.859 131.016C148.485 130.365 148.299 129.624 148.299 128.792C148.299 127.96 148.475 127.224 148.827 126.584C149.189 125.944 149.68 125.443 150.299 125.08C150.928 124.707 151.632 124.52 152.411 124.52C153.2 124.52 153.899 124.701 154.507 125.064C155.125 125.416 155.611 125.917 155.963 126.568C156.315 127.208 156.491 127.949 156.491 128.792C156.491 128.845 156.485 128.904 156.475 128.968C156.475 129.021 156.475 129.08 156.475 129.144H149.163V128.296H155.867L155.419 128.632C155.419 128.024 155.285 127.485 155.019 127.016C154.763 126.536 154.411 126.163 153.963 125.896C153.515 125.629 152.997 125.496 152.411 125.496C151.835 125.496 151.317 125.629 150.859 125.896C150.4 126.163 150.043 126.536 149.787 127.016C149.531 127.496 149.403 128.045 149.403 128.664V128.84C149.403 129.48 149.541 130.045 149.819 130.536C150.107 131.016 150.501 131.395 151.003 131.672C151.515 131.939 152.096 132.072 152.747 132.072C153.259 132.072 153.733 131.981 154.171 131.8C154.619 131.619 155.003 131.341 155.323 130.968L155.963 131.704C155.589 132.152 155.12 132.493 154.555 132.728C154 132.963 153.387 133.08 152.715 133.08ZM162.387 136.184C161.619 136.184 160.883 136.072 160.179 135.848C159.475 135.624 158.904 135.304 158.467 134.888L159.043 134.024C159.437 134.376 159.923 134.653 160.499 134.856C161.085 135.069 161.704 135.176 162.355 135.176C163.421 135.176 164.205 134.925 164.707 134.424C165.208 133.933 165.459 133.165 165.459 132.12V130.024L165.619 128.584L165.507 127.144V124.6H166.595V131.976C166.595 133.427 166.237 134.488 165.523 135.16C164.819 135.843 163.773 136.184 162.387 136.184ZM162.179 132.68C161.379 132.68 160.659 132.509 160.019 132.168C159.379 131.816 158.872 131.331 158.499 130.712C158.136 130.093 157.955 129.384 157.955 128.584C157.955 127.784 158.136 127.08 158.499 126.472C158.872 125.853 159.379 125.373 160.019 125.032C160.659 124.691 161.379 124.52 162.179 124.52C162.925 124.52 163.597 124.675 164.195 124.984C164.792 125.293 165.267 125.752 165.619 126.36C165.971 126.968 166.147 127.709 166.147 128.584C166.147 129.459 165.971 130.2 165.619 130.808C165.267 131.416 164.792 131.88 164.195 132.2C163.597 132.52 162.925 132.68 162.179 132.68ZM162.291 131.672C162.909 131.672 163.459 131.544 163.939 131.288C164.419 131.021 164.797 130.659 165.075 130.2C165.352 129.731 165.491 129.192 165.491 128.584C165.491 127.976 165.352 127.443 165.075 126.984C164.797 126.525 164.419 126.168 163.939 125.912C163.459 125.645 162.909 125.512 162.291 125.512C161.683 125.512 161.133 125.645 160.643 125.912C160.163 126.168 159.784 126.525 159.507 126.984C159.24 127.443 159.107 127.976 159.107 128.584C159.107 129.192 159.24 129.731 159.507 130.2C159.784 130.659 160.163 131.021 160.643 131.288C161.133 131.544 161.683 131.672 162.291 131.672ZM169.756 133V124.6H170.892V133H169.756ZM170.332 122.744C170.097 122.744 169.9 122.664 169.74 122.504C169.58 122.344 169.5 122.152 169.5 121.928C169.5 121.704 169.58 121.517 169.74 121.368C169.9 121.208 170.097 121.128 170.332 121.128C170.567 121.128 170.764 121.203 170.924 121.352C171.084 121.501 171.164 121.688 171.164 121.912C171.164 122.147 171.084 122.344 170.924 122.504C170.775 122.664 170.577 122.744 170.332 122.744ZM176.309 133.08C175.615 133.08 174.959 132.984 174.341 132.792C173.722 132.589 173.237 132.339 172.885 132.04L173.397 131.144C173.738 131.4 174.175 131.624 174.709 131.816C175.242 131.997 175.802 132.088 176.389 132.088C177.189 132.088 177.765 131.965 178.117 131.72C178.469 131.464 178.645 131.128 178.645 130.712C178.645 130.403 178.543 130.163 178.341 129.992C178.149 129.811 177.893 129.677 177.573 129.592C177.253 129.496 176.895 129.416 176.501 129.352C176.106 129.288 175.711 129.213 175.317 129.128C174.933 129.043 174.581 128.92 174.261 128.76C173.941 128.589 173.679 128.36 173.477 128.072C173.285 127.784 173.189 127.4 173.189 126.92C173.189 126.461 173.317 126.051 173.573 125.688C173.829 125.325 174.202 125.043 174.693 124.84C175.194 124.627 175.802 124.52 176.517 124.52C177.061 124.52 177.605 124.595 178.149 124.744C178.693 124.883 179.141 125.069 179.493 125.304L178.997 126.216C178.623 125.96 178.223 125.779 177.797 125.672C177.37 125.555 176.943 125.496 176.517 125.496C175.759 125.496 175.199 125.629 174.837 125.896C174.485 126.152 174.309 126.483 174.309 126.888C174.309 127.208 174.405 127.459 174.597 127.64C174.799 127.821 175.061 127.965 175.381 128.072C175.711 128.168 176.069 128.248 176.453 128.312C176.847 128.376 177.237 128.456 177.621 128.552C178.015 128.637 178.373 128.76 178.693 128.92C179.023 129.069 179.285 129.288 179.477 129.576C179.679 129.853 179.781 130.221 179.781 130.68C179.781 131.171 179.642 131.597 179.365 131.96C179.098 132.312 178.703 132.589 178.181 132.792C177.669 132.984 177.045 133.08 176.309 133.08ZM184.521 133.08C183.732 133.08 183.124 132.867 182.697 132.44C182.271 132.013 182.057 131.411 182.057 130.632V122.744H183.193V130.568C183.193 131.059 183.316 131.437 183.561 131.704C183.817 131.971 184.18 132.104 184.649 132.104C185.151 132.104 185.567 131.96 185.897 131.672L186.297 132.488C186.073 132.691 185.801 132.84 185.481 132.936C185.172 133.032 184.852 133.08 184.521 133.08ZM180.553 125.544V124.6H185.753V125.544H180.553ZM188.365 133V124.6H189.453V126.888L189.341 126.488C189.576 125.848 189.971 125.363 190.525 125.032C191.08 124.691 191.768 124.52 192.589 124.52V125.624C192.547 125.624 192.504 125.624 192.461 125.624C192.419 125.613 192.376 125.608 192.333 125.608C191.448 125.608 190.755 125.88 190.253 126.424C189.752 126.957 189.501 127.72 189.501 128.712V133H188.365ZM198.152 133.08C197.277 133.08 196.509 132.899 195.848 132.536C195.187 132.163 194.669 131.656 194.296 131.016C193.923 130.365 193.736 129.624 193.736 128.792C193.736 127.96 193.912 127.224 194.264 126.584C194.627 125.944 195.117 125.443 195.736 125.08C196.365 124.707 197.069 124.52 197.848 124.52C198.637 124.52 199.336 124.701 199.944 125.064C200.563 125.416 201.048 125.917 201.4 126.568C201.752 127.208 201.928 127.949 201.928 128.792C201.928 128.845 201.923 128.904 201.912 128.968C201.912 129.021 201.912 129.08 201.912 129.144H194.6V128.296H201.304L200.856 128.632C200.856 128.024 200.723 127.485 200.456 127.016C200.2 126.536 199.848 126.163 199.4 125.896C198.952 125.629 198.435 125.496 197.848 125.496C197.272 125.496 196.755 125.629 196.296 125.896C195.837 126.163 195.48 126.536 195.224 127.016C194.968 127.496 194.84 128.045 194.84 128.664V128.84C194.84 129.48 194.979 130.045 195.256 130.536C195.544 131.016 195.939 131.395 196.44 131.672C196.952 131.939 197.533 132.072 198.184 132.072C198.696 132.072 199.171 131.981 199.608 131.8C200.056 131.619 200.44 131.341 200.76 130.968L201.4 131.704C201.027 132.152 200.557 132.493 199.992 132.728C199.437 132.963 198.824 133.08 198.152 133.08ZM206.496 133.08C205.803 133.08 205.147 132.984 204.528 132.792C203.91 132.589 203.424 132.339 203.072 132.04L203.584 131.144C203.926 131.4 204.363 131.624 204.896 131.816C205.43 131.997 205.99 132.088 206.576 132.088C207.376 132.088 207.952 131.965 208.304 131.72C208.656 131.464 208.832 131.128 208.832 130.712C208.832 130.403 208.731 130.163 208.528 129.992C208.336 129.811 208.08 129.677 207.76 129.592C207.44 129.496 207.083 129.416 206.688 129.352C206.294 129.288 205.899 129.213 205.504 129.128C205.12 129.043 204.768 128.92 204.448 128.76C204.128 128.589 203.867 128.36 203.664 128.072C203.472 127.784 203.376 127.4 203.376 126.92C203.376 126.461 203.504 126.051 203.76 125.688C204.016 125.325 204.39 125.043 204.88 124.84C205.382 124.627 205.99 124.52 206.704 124.52C207.248 124.52 207.792 124.595 208.336 124.744C208.88 124.883 209.328 125.069 209.68 125.304L209.184 126.216C208.811 125.96 208.411 125.779 207.984 125.672C207.558 125.555 207.131 125.496 206.704 125.496C205.947 125.496 205.387 125.629 205.024 125.896C204.672 126.152 204.496 126.483 204.496 126.888C204.496 127.208 204.592 127.459 204.784 127.64C204.987 127.821 205.248 127.965 205.568 128.072C205.899 128.168 206.256 128.248 206.64 128.312C207.035 128.376 207.424 128.456 207.808 128.552C208.203 128.637 208.56 128.76 208.88 128.92C209.211 129.069 209.472 129.288 209.664 129.576C209.867 129.853 209.968 130.221 209.968 130.68C209.968 131.171 209.83 131.597 209.552 131.96C209.286 132.312 208.891 132.589 208.368 132.792C207.856 132.984 207.232 133.08 206.496 133.08Z" fill="black"/>
<path d="M137.824 180V168.8H138.8L143.92 177.536H143.408L148.48 168.8H149.456V180H148.32V170.576H148.592L143.92 178.576H143.36L138.656 170.576H138.96V180H137.824ZM156.433 180.08C155.559 180.08 154.791 179.899 154.129 179.536C153.468 179.163 152.951 178.656 152.577 178.016C152.204 177.365 152.017 176.624 152.017 175.792C152.017 174.96 152.193 174.224 152.545 173.584C152.908 172.944 153.399 172.443 154.017 172.08C154.647 171.707 155.351 171.52 156.129 171.52C156.919 171.52 157.617 171.701 158.225 172.064C158.844 172.416 159.329 172.917 159.681 173.568C160.033 174.208 160.209 174.949 160.209 175.792C160.209 175.845 160.204 175.904 160.193 175.968C160.193 176.021 160.193 176.08 160.193 176.144H152.881V175.296H159.585L159.137 175.632C159.137 175.024 159.004 174.485 158.737 174.016C158.481 173.536 158.129 173.163 157.681 172.896C157.233 172.629 156.716 172.496 156.129 172.496C155.553 172.496 155.036 172.629 154.577 172.896C154.119 173.163 153.761 173.536 153.505 174.016C153.249 174.496 153.121 175.045 153.121 175.664V175.84C153.121 176.48 153.26 177.045 153.537 177.536C153.825 178.016 154.22 178.395 154.721 178.672C155.233 178.939 155.815 179.072 156.465 179.072C156.977 179.072 157.452 178.981 157.889 178.8C158.337 178.619 158.721 178.341 159.041 177.968L159.681 178.704C159.308 179.152 158.839 179.493 158.273 179.728C157.719 179.963 157.105 180.08 156.433 180.08ZM155.073 170.288L157.265 168.304H158.785L156.193 170.288H155.073ZM173.018 171.52C173.7 171.52 174.292 171.653 174.794 171.92C175.306 172.176 175.7 172.571 175.978 173.104C176.266 173.637 176.41 174.309 176.41 175.12V180H175.274V175.232C175.274 174.347 175.06 173.68 174.634 173.232C174.218 172.773 173.626 172.544 172.858 172.544C172.282 172.544 171.78 172.667 171.354 172.912C170.938 173.147 170.612 173.493 170.378 173.952C170.154 174.4 170.042 174.944 170.042 175.584V180H168.906V175.232C168.906 174.347 168.692 173.68 168.266 173.232C167.839 172.773 167.242 172.544 166.474 172.544C165.908 172.544 165.412 172.667 164.986 172.912C164.559 173.147 164.228 173.493 163.994 173.952C163.77 174.4 163.658 174.944 163.658 175.584V180H162.522V171.6H163.61V173.872L163.434 173.472C163.69 172.864 164.1 172.389 164.666 172.048C165.242 171.696 165.919 171.52 166.698 171.52C167.519 171.52 168.218 171.728 168.794 172.144C169.37 172.549 169.743 173.163 169.914 173.984L169.466 173.808C169.711 173.125 170.143 172.576 170.762 172.16C171.391 171.733 172.143 171.52 173.018 171.52ZM182.914 180.08C182.104 180.08 181.373 179.899 180.722 179.536C180.082 179.163 179.576 178.656 179.202 178.016C178.829 177.365 178.642 176.624 178.642 175.792C178.642 174.949 178.829 174.208 179.202 173.568C179.576 172.928 180.082 172.427 180.722 172.064C181.362 171.701 182.093 171.52 182.914 171.52C183.746 171.52 184.482 171.701 185.122 172.064C185.773 172.427 186.28 172.928 186.642 173.568C187.016 174.208 187.202 174.949 187.202 175.792C187.202 176.624 187.016 177.365 186.642 178.016C186.28 178.656 185.773 179.163 185.122 179.536C184.472 179.899 183.736 180.08 182.914 180.08ZM182.914 179.072C183.522 179.072 184.061 178.939 184.53 178.672C185 178.395 185.368 178.011 185.634 177.52C185.912 177.019 186.05 176.443 186.05 175.792C186.05 175.131 185.912 174.555 185.634 174.064C185.368 173.573 185 173.195 184.53 172.928C184.061 172.651 183.528 172.512 182.93 172.512C182.333 172.512 181.8 172.651 181.33 172.928C180.861 173.195 180.488 173.573 180.21 174.064C179.933 174.555 179.794 175.131 179.794 175.792C179.794 176.443 179.933 177.019 180.21 177.52C180.488 178.011 180.861 178.395 181.33 178.672C181.8 178.939 182.328 179.072 182.914 179.072ZM189.522 180V171.6H190.658V180H189.522ZM190.098 169.744C189.863 169.744 189.666 169.664 189.506 169.504C189.346 169.344 189.266 169.152 189.266 168.928C189.266 168.704 189.346 168.517 189.506 168.368C189.666 168.208 189.863 168.128 190.098 168.128C190.332 168.128 190.53 168.203 190.69 168.352C190.85 168.501 190.93 168.688 190.93 168.912C190.93 169.147 190.85 169.344 190.69 169.504C190.54 169.664 190.343 169.744 190.098 169.744ZM193.818 180V171.6H194.906V173.888L194.794 173.488C195.029 172.848 195.424 172.363 195.978 172.032C196.533 171.691 197.221 171.52 198.042 171.52V172.624C198 172.624 197.957 172.624 197.914 172.624C197.872 172.613 197.829 172.608 197.786 172.608C196.901 172.608 196.208 172.88 195.706 173.424C195.205 173.957 194.954 174.72 194.954 175.712V180H193.818ZM203.605 180.08C202.73 180.08 201.962 179.899 201.301 179.536C200.64 179.163 200.122 178.656 199.749 178.016C199.376 177.365 199.189 176.624 199.189 175.792C199.189 174.96 199.365 174.224 199.717 173.584C200.08 172.944 200.57 172.443 201.189 172.08C201.818 171.707 202.522 171.52 203.301 171.52C204.09 171.52 204.789 171.701 205.397 172.064C206.016 172.416 206.501 172.917 206.853 173.568C207.205 174.208 207.381 174.949 207.381 175.792C207.381 175.845 207.376 175.904 207.365 175.968C207.365 176.021 207.365 176.08 207.365 176.144H200.053V175.296H206.757L206.309 175.632C206.309 175.024 206.176 174.485 205.909 174.016C205.653 173.536 205.301 173.163 204.853 172.896C204.405 172.629 203.888 172.496 203.301 172.496C202.725 172.496 202.208 172.629 201.749 172.896C201.29 173.163 200.933 173.536 200.677 174.016C200.421 174.496 200.293 175.045 200.293 175.664V175.84C200.293 176.48 200.432 177.045 200.709 177.536C200.997 178.016 201.392 178.395 201.893 178.672C202.405 178.939 202.986 179.072 203.637 179.072C204.149 179.072 204.624 178.981 205.061 178.8C205.509 178.619 205.893 178.341 206.213 177.968L206.853 178.704C206.48 179.152 206.01 179.493 205.445 179.728C204.89 179.963 204.277 180.08 203.605 180.08ZM217.369 180.08C216.537 180.08 215.79 179.899 215.129 179.536C214.478 179.163 213.966 178.656 213.593 178.016C213.22 177.365 213.033 176.624 213.033 175.792C213.033 174.949 213.22 174.208 213.593 173.568C213.966 172.928 214.478 172.427 215.129 172.064C215.79 171.701 216.537 171.52 217.369 171.52C218.084 171.52 218.729 171.659 219.305 171.936C219.881 172.213 220.334 172.629 220.665 173.184L219.817 173.76C219.529 173.333 219.172 173.019 218.745 172.816C218.318 172.613 217.854 172.512 217.353 172.512C216.756 172.512 216.217 172.651 215.737 172.928C215.257 173.195 214.878 173.573 214.601 174.064C214.324 174.555 214.185 175.131 214.185 175.792C214.185 176.453 214.324 177.029 214.601 177.52C214.878 178.011 215.257 178.395 215.737 178.672C216.217 178.939 216.756 179.072 217.353 179.072C217.854 179.072 218.318 178.971 218.745 178.768C219.172 178.565 219.529 178.256 219.817 177.84L220.665 178.416C220.334 178.96 219.881 179.376 219.305 179.664C218.729 179.941 218.084 180.08 217.369 180.08ZM226.324 180.08C225.449 180.08 224.681 179.899 224.02 179.536C223.359 179.163 222.841 178.656 222.468 178.016C222.095 177.365 221.908 176.624 221.908 175.792C221.908 174.96 222.084 174.224 222.436 173.584C222.799 172.944 223.289 172.443 223.908 172.08C224.537 171.707 225.241 171.52 226.02 171.52C226.809 171.52 227.508 171.701 228.116 172.064C228.735 172.416 229.22 172.917 229.572 173.568C229.924 174.208 230.1 174.949 230.1 175.792C230.1 175.845 230.095 175.904 230.084 175.968C230.084 176.021 230.084 176.08 230.084 176.144H222.772V175.296H229.476L229.028 175.632C229.028 175.024 228.895 174.485 228.628 174.016C228.372 173.536 228.02 173.163 227.572 172.896C227.124 172.629 226.607 172.496 226.02 172.496C225.444 172.496 224.927 172.629 224.468 172.896C224.009 173.163 223.652 173.536 223.396 174.016C223.14 174.496 223.012 175.045 223.012 175.664V175.84C223.012 176.48 223.151 177.045 223.428 177.536C223.716 178.016 224.111 178.395 224.612 178.672C225.124 178.939 225.705 179.072 226.356 179.072C226.868 179.072 227.343 178.981 227.78 178.8C228.228 178.619 228.612 178.341 228.932 177.968L229.572 178.704C229.199 179.152 228.729 179.493 228.164 179.728C227.609 179.963 226.996 180.08 226.324 180.08ZM236.7 171.52C237.383 171.52 237.98 171.653 238.492 171.92C239.015 172.176 239.42 172.571 239.708 173.104C240.007 173.637 240.156 174.309 240.156 175.12V180H239.02V175.232C239.02 174.347 238.796 173.68 238.348 173.232C237.911 172.773 237.292 172.544 236.492 172.544C235.895 172.544 235.372 172.667 234.924 172.912C234.487 173.147 234.145 173.493 233.9 173.952C233.665 174.4 233.548 174.944 233.548 175.584V180H232.412V171.6H233.5V173.904L233.324 173.472C233.591 172.864 234.017 172.389 234.604 172.048C235.191 171.696 235.889 171.52 236.7 171.52ZM245.881 180.08C245.091 180.08 244.483 179.867 244.057 179.44C243.63 179.013 243.417 178.411 243.417 177.632V169.744H244.553V177.568C244.553 178.059 244.675 178.437 244.921 178.704C245.177 178.971 245.539 179.104 246.009 179.104C246.51 179.104 246.926 178.96 247.257 178.672L247.657 179.488C247.433 179.691 247.161 179.84 246.841 179.936C246.531 180.032 246.211 180.08 245.881 180.08ZM241.913 172.544V171.6H247.113V172.544H241.913ZM249.725 180V171.6H250.813V173.888L250.701 173.488C250.935 172.848 251.33 172.363 251.885 172.032C252.439 171.691 253.127 171.52 253.949 171.52V172.624C253.906 172.624 253.863 172.624 253.821 172.624C253.778 172.613 253.735 172.608 253.693 172.608C252.807 172.608 252.114 172.88 251.613 173.424C251.111 173.957 250.861 174.72 250.861 175.712V180H249.725ZM260.661 180V178.144L260.613 177.84V174.736C260.613 174.021 260.41 173.472 260.005 173.088C259.61 172.704 259.018 172.512 258.229 172.512C257.685 172.512 257.167 172.603 256.677 172.784C256.186 172.965 255.77 173.205 255.429 173.504L254.917 172.656C255.343 172.293 255.855 172.016 256.453 171.824C257.05 171.621 257.679 171.52 258.341 171.52C259.429 171.52 260.266 171.792 260.853 172.336C261.45 172.869 261.749 173.685 261.749 174.784V180H260.661ZM257.765 180.08C257.135 180.08 256.586 179.979 256.117 179.776C255.658 179.563 255.306 179.275 255.061 178.912C254.815 178.539 254.693 178.112 254.693 177.632C254.693 177.195 254.794 176.8 254.997 176.448C255.21 176.085 255.551 175.797 256.021 175.584C256.501 175.36 257.141 175.248 257.941 175.248H260.837V176.096H257.973C257.162 176.096 256.597 176.24 256.277 176.528C255.967 176.816 255.812 177.173 255.812 177.6C255.812 178.08 255.999 178.464 256.373 178.752C256.746 179.04 257.269 179.184 257.941 179.184C258.581 179.184 259.13 179.04 259.589 178.752C260.058 178.453 260.399 178.027 260.613 177.472L260.869 178.256C260.655 178.811 260.282 179.253 259.749 179.584C259.226 179.915 258.565 180.08 257.765 180.08ZM264.834 180V168.128H265.97V180H264.834ZM272.699 180.08C271.824 180.08 271.056 179.899 270.395 179.536C269.734 179.163 269.216 178.656 268.843 178.016C268.47 177.365 268.283 176.624 268.283 175.792C268.283 174.96 268.459 174.224 268.811 173.584C269.174 172.944 269.664 172.443 270.283 172.08C270.912 171.707 271.616 171.52 272.395 171.52C273.184 171.52 273.883 171.701 274.491 172.064C275.11 172.416 275.595 172.917 275.947 173.568C276.299 174.208 276.475 174.949 276.475 175.792C276.475 175.845 276.47 175.904 276.459 175.968C276.459 176.021 276.459 176.08 276.459 176.144H269.147V175.296H275.851L275.403 175.632C275.403 175.024 275.27 174.485 275.003 174.016C274.747 173.536 274.395 173.163 273.947 172.896C273.499 172.629 272.982 172.496 272.395 172.496C271.819 172.496 271.302 172.629 270.843 172.896C270.384 173.163 270.027 173.536 269.771 174.016C269.515 174.496 269.387 175.045 269.387 175.664V175.84C269.387 176.48 269.526 177.045 269.803 177.536C270.091 178.016 270.486 178.395 270.987 178.672C271.499 178.939 272.08 179.072 272.731 179.072C273.243 179.072 273.718 178.981 274.155 178.8C274.603 178.619 274.987 178.341 275.307 177.968L275.947 178.704C275.574 179.152 275.104 179.493 274.539 179.728C273.984 179.963 273.371 180.08 272.699 180.08Z" fill="black"/>
<path d="M137.824 227V215.8H142.384C143.579 215.8 144.624 216.04 145.52 216.52C146.427 216.989 147.131 217.645 147.632 218.488C148.133 219.331 148.384 220.301 148.384 221.4C148.384 222.499 148.133 223.469 147.632 224.312C147.131 225.155 146.427 225.816 145.52 226.296C144.624 226.765 143.579 227 142.384 227H137.824ZM139.008 225.976H142.32C143.312 225.976 144.171 225.784 144.896 225.4C145.632 225.005 146.203 224.467 146.608 223.784C147.013 223.091 147.216 222.296 147.216 221.4C147.216 220.493 147.013 219.699 146.608 219.016C146.203 218.333 145.632 217.8 144.896 217.416C144.171 217.021 143.312 216.824 142.32 216.824H139.008V225.976ZM150.803 227V218.6H151.939V227H150.803ZM151.379 216.744C151.144 216.744 150.947 216.664 150.787 216.504C150.627 216.344 150.547 216.152 150.547 215.928C150.547 215.704 150.627 215.517 150.787 215.368C150.947 215.208 151.144 215.128 151.379 215.128C151.613 215.128 151.811 215.203 151.971 215.352C152.131 215.501 152.211 215.688 152.211 215.912C152.211 216.147 152.131 216.344 151.971 216.504C151.821 216.664 151.624 216.744 151.379 216.744ZM157.356 227.08C156.662 227.08 156.006 226.984 155.388 226.792C154.769 226.589 154.284 226.339 153.932 226.04L154.444 225.144C154.785 225.4 155.222 225.624 155.756 225.816C156.289 225.997 156.849 226.088 157.436 226.088C158.236 226.088 158.812 225.965 159.164 225.72C159.516 225.464 159.692 225.128 159.692 224.712C159.692 224.403 159.59 224.163 159.388 223.992C159.196 223.811 158.94 223.677 158.62 223.592C158.3 223.496 157.942 223.416 157.548 223.352C157.153 223.288 156.758 223.213 156.364 223.128C155.98 223.043 155.628 222.92 155.308 222.76C154.988 222.589 154.726 222.36 154.524 222.072C154.332 221.784 154.236 221.4 154.236 220.92C154.236 220.461 154.364 220.051 154.62 219.688C154.876 219.325 155.249 219.043 155.74 218.84C156.241 218.627 156.849 218.52 157.564 218.52C158.108 218.52 158.652 218.595 159.196 218.744C159.74 218.883 160.188 219.069 160.54 219.304L160.044 220.216C159.67 219.96 159.27 219.779 158.844 219.672C158.417 219.555 157.99 219.496 157.564 219.496C156.806 219.496 156.246 219.629 155.884 219.896C155.532 220.152 155.356 220.483 155.356 220.888C155.356 221.208 155.452 221.459 155.644 221.64C155.846 221.821 156.108 221.965 156.428 222.072C156.758 222.168 157.116 222.248 157.5 222.312C157.894 222.376 158.284 222.456 158.668 222.552C159.062 222.637 159.42 222.76 159.74 222.92C160.07 223.069 160.332 223.288 160.524 223.576C160.726 223.853 160.828 224.221 160.828 224.68C160.828 225.171 160.689 225.597 160.412 225.96C160.145 226.312 159.75 226.589 159.228 226.792C158.716 226.984 158.092 227.08 157.356 227.08ZM166.256 227.08C165.456 227.08 164.736 226.899 164.096 226.536C163.467 226.173 162.971 225.672 162.608 225.032C162.245 224.392 162.064 223.645 162.064 222.792C162.064 221.949 162.245 221.208 162.608 220.568C162.971 219.917 163.467 219.416 164.096 219.064C164.736 218.701 165.456 218.52 166.256 218.52C167.003 218.52 167.664 218.685 168.24 219.016C168.827 219.347 169.291 219.832 169.632 220.472C169.973 221.101 170.144 221.875 170.144 222.792C170.144 223.709 169.968 224.488 169.616 225.128C169.275 225.757 168.811 226.243 168.224 226.584C167.648 226.915 166.992 227.08 166.256 227.08ZM166.336 226.072C166.933 226.072 167.467 225.939 167.936 225.672C168.416 225.395 168.789 225.011 169.056 224.52C169.333 224.019 169.472 223.443 169.472 222.792C169.472 222.141 169.333 221.571 169.056 221.08C168.789 220.589 168.416 220.205 167.936 219.928C167.467 219.651 166.933 219.512 166.336 219.512C165.749 219.512 165.221 219.651 164.752 219.928C164.283 220.205 163.909 220.589 163.632 221.08C163.355 221.571 163.216 222.141 163.216 222.792C163.216 223.443 163.355 224.019 163.632 224.52C163.909 225.011 164.283 225.395 164.752 225.672C165.221 225.939 165.749 226.072 166.336 226.072ZM169.456 230.104V224.504L169.616 222.808L169.504 221.128V218.6H170.592V230.104H169.456ZM177.228 227.08C176.513 227.08 175.889 226.947 175.356 226.68C174.823 226.413 174.407 226.013 174.108 225.48C173.82 224.947 173.676 224.28 173.676 223.48V218.6H174.812V223.352C174.812 224.248 175.031 224.925 175.468 225.384C175.916 225.832 176.54 226.056 177.34 226.056C177.927 226.056 178.433 225.939 178.86 225.704C179.297 225.459 179.628 225.107 179.852 224.648C180.087 224.189 180.204 223.64 180.204 223V218.6H181.34V227H180.252V224.696L180.428 225.112C180.161 225.731 179.745 226.216 179.18 226.568C178.625 226.909 177.975 227.08 177.228 227.08ZM188.074 227.08C187.199 227.08 186.431 226.899 185.77 226.536C185.109 226.163 184.591 225.656 184.218 225.016C183.845 224.365 183.658 223.624 183.658 222.792C183.658 221.96 183.834 221.224 184.186 220.584C184.549 219.944 185.039 219.443 185.658 219.08C186.287 218.707 186.991 218.52 187.77 218.52C188.559 218.52 189.258 218.701 189.866 219.064C190.485 219.416 190.97 219.917 191.322 220.568C191.674 221.208 191.85 221.949 191.85 222.792C191.85 222.845 191.845 222.904 191.834 222.968C191.834 223.021 191.834 223.08 191.834 223.144H184.522V222.296H191.226L190.778 222.632C190.778 222.024 190.645 221.485 190.378 221.016C190.122 220.536 189.77 220.163 189.322 219.896C188.874 219.629 188.357 219.496 187.77 219.496C187.194 219.496 186.677 219.629 186.218 219.896C185.759 220.163 185.402 220.536 185.146 221.016C184.89 221.496 184.762 222.045 184.762 222.664V222.84C184.762 223.48 184.901 224.045 185.178 224.536C185.466 225.016 185.861 225.395 186.362 225.672C186.874 225.939 187.455 226.072 188.106 226.072C188.618 226.072 189.093 225.981 189.53 225.8C189.978 225.619 190.362 225.341 190.682 224.968L191.322 225.704C190.949 226.152 190.479 226.493 189.914 226.728C189.359 226.963 188.746 227.08 188.074 227.08ZM201.694 227.08C200.894 227.08 200.174 226.899 199.534 226.536C198.904 226.173 198.408 225.672 198.046 225.032C197.683 224.381 197.502 223.635 197.502 222.792C197.502 221.939 197.683 221.192 198.046 220.552C198.408 219.912 198.904 219.416 199.534 219.064C200.174 218.701 200.894 218.52 201.694 218.52C202.43 218.52 203.086 218.685 203.662 219.016C204.248 219.347 204.712 219.832 205.054 220.472C205.406 221.101 205.582 221.875 205.582 222.792C205.582 223.699 205.411 224.472 205.07 225.112C204.728 225.752 204.264 226.243 203.678 226.584C203.102 226.915 202.44 227.08 201.694 227.08ZM201.774 226.072C202.371 226.072 202.904 225.939 203.374 225.672C203.854 225.395 204.227 225.011 204.494 224.52C204.771 224.019 204.91 223.443 204.91 222.792C204.91 222.131 204.771 221.555 204.494 221.064C204.227 220.573 203.854 220.195 203.374 219.928C202.904 219.651 202.371 219.512 201.774 219.512C201.187 219.512 200.659 219.651 200.19 219.928C199.72 220.195 199.347 220.573 199.07 221.064C198.792 221.555 198.654 222.131 198.654 222.792C198.654 223.443 198.792 224.019 199.07 224.52C199.347 225.011 199.72 225.395 200.19 225.672C200.659 225.939 201.187 226.072 201.774 226.072ZM204.942 227V224.472L205.054 222.776L204.894 221.08V215.128H206.03V227H204.942ZM212.665 227.08C211.951 227.08 211.327 226.947 210.793 226.68C210.26 226.413 209.844 226.013 209.545 225.48C209.257 224.947 209.113 224.28 209.113 223.48V218.6H210.249V223.352C210.249 224.248 210.468 224.925 210.905 225.384C211.353 225.832 211.977 226.056 212.777 226.056C213.364 226.056 213.871 225.939 214.297 225.704C214.735 225.459 215.065 225.107 215.289 224.648C215.524 224.189 215.641 223.64 215.641 223V218.6H216.777V227H215.689V224.696L215.865 225.112C215.599 225.731 215.183 226.216 214.617 226.568C214.063 226.909 213.412 227.08 212.665 227.08ZM219.943 227V218.6H221.031V220.888L220.919 220.488C221.154 219.848 221.549 219.363 222.103 219.032C222.658 218.691 223.346 218.52 224.167 218.52V219.624C224.125 219.624 224.082 219.624 224.039 219.624C223.997 219.613 223.954 219.608 223.911 219.608C223.026 219.608 222.333 219.88 221.831 220.424C221.33 220.957 221.079 221.72 221.079 222.712V227H219.943Z" fill="black"/>
<circle cx="6.73077" cy="6.73077" r="8.23077" transform="matrix(-1 0 0 1 118.461 122)" stroke="#24A0ED" stroke-width="3"/>
<circle cx="5.04808" cy="5.04808" r="5.04808" transform="matrix(-1 0 0 1 116.779 123.683)" fill="#24A0ED"/>
<circle cx="6.73077" cy="6.73077" r="8.23077" transform="matrix(-1 0 0 1 118.461 169.462)" stroke="#00A6FB" stroke-width="3"/>
<circle cx="6.5" cy="6.5" r="8" transform="matrix(-1 0 0 1 119 215.923)" stroke="#00A6FB" stroke-width="3"/>
<circle cx="53" cy="310" r="13" fill="#24A0ED" stroke="#24A0ED" stroke-width="2"/>
<path d="M47 310L51.5 317L59 303" stroke="white" stroke-width="2" stroke-linecap="round" stroke-linejoin="round"/>
<path d="M98.032 321.692C96.752 321.692 95.568 321.484 94.48 321.068C93.408 320.636 92.472 320.036 91.672 319.268C90.888 318.484 90.272 317.572 89.824 316.532C89.376 315.492 89.152 314.348 89.152 313.1C89.152 311.852 89.376 310.708 89.824 309.668C90.272 308.628 90.896 307.724 91.696 306.956C92.496 306.172 93.432 305.572 94.504 305.156C95.592 304.724 96.776 304.508 98.056 304.508C99.352 304.508 100.544 304.732 101.632 305.18C102.736 305.612 103.672 306.26 104.44 307.124L102.88 308.636C102.24 307.964 101.52 307.468 100.72 307.148C99.92 306.812 99.064 306.644 98.152 306.644C97.208 306.644 96.328 306.804 95.512 307.124C94.712 307.444 94.016 307.892 93.424 308.468C92.832 309.044 92.368 309.732 92.032 310.532C91.712 311.316 91.552 312.172 91.552 313.1C91.552 314.028 91.712 314.892 92.032 315.692C92.368 316.476 92.832 317.156 93.424 317.732C94.016 318.308 94.712 318.756 95.512 319.076C96.328 319.396 97.208 319.556 98.152 319.556C99.064 319.556 99.92 319.396 100.72 319.076C101.52 318.74 102.24 318.228 102.88 317.54L104.44 319.052C103.672 319.916 102.736 320.572 101.632 321.02C100.544 321.468 99.344 321.692 98.032 321.692ZM112.437 321.644C111.157 321.644 110.021 321.364 109.029 320.804C108.037 320.244 107.253 319.476 106.677 318.5C106.101 317.508 105.813 316.388 105.813 315.14C105.813 313.876 106.101 312.756 106.677 311.78C107.253 310.804 108.037 310.044 109.029 309.5C110.021 308.94 111.157 308.66 112.437 308.66C113.701 308.66 114.829 308.94 115.821 309.5C116.829 310.044 117.613 310.804 118.173 311.78C118.749 312.74 119.037 313.86 119.037 315.14C119.037 316.404 118.749 317.524 118.173 318.5C117.613 319.476 116.829 320.244 115.821 320.804C114.829 321.364 113.701 321.644 112.437 321.644ZM112.437 319.628C113.253 319.628 113.981 319.444 114.621 319.076C115.277 318.708 115.789 318.188 116.157 317.516C116.525 316.828 116.709 316.036 116.709 315.14C116.709 314.228 116.525 313.444 116.157 312.788C115.789 312.116 115.277 311.596 114.621 311.228C113.981 310.86 113.253 310.676 112.437 310.676C111.621 310.676 110.893 310.86 110.253 311.228C109.613 311.596 109.101 312.116 108.717 312.788C108.333 313.444 108.141 314.228 108.141 315.14C108.141 316.036 108.333 316.828 108.717 317.516C109.101 318.188 109.613 318.708 110.253 319.076C110.893 319.444 111.621 319.628 112.437 319.628ZM122.223 321.5V308.78H124.431V312.236L124.215 311.372C124.567 310.492 125.159 309.82 125.991 309.356C126.823 308.892 127.847 308.66 129.063 308.66V310.892C128.967 310.876 128.871 310.868 128.775 310.868C128.695 310.868 128.615 310.868 128.535 310.868C127.303 310.868 126.327 311.236 125.607 311.972C124.887 312.708 124.527 313.772 124.527 315.164V321.5H122.223ZM131.903 321.5V308.78H134.111V312.236L133.895 311.372C134.247 310.492 134.839 309.82 135.671 309.356C136.503 308.892 137.527 308.66 138.743 308.66V310.892C138.647 310.876 138.551 310.868 138.455 310.868C138.375 310.868 138.295 310.868 138.215 310.868C136.983 310.868 136.007 311.236 135.287 311.972C134.567 312.708 134.207 313.772 134.207 315.164V321.5H131.903ZM147.129 321.644C145.769 321.644 144.569 321.364 143.529 320.804C142.505 320.244 141.705 319.476 141.129 318.5C140.569 317.524 140.289 316.404 140.289 315.14C140.289 313.876 140.561 312.756 141.105 311.78C141.665 310.804 142.425 310.044 143.385 309.5C144.361 308.94 145.457 308.66 146.673 308.66C147.905 308.66 148.993 308.932 149.937 309.476C150.881 310.02 151.617 310.788 152.145 311.78C152.689 312.756 152.961 313.9 152.961 315.212C152.961 315.308 152.953 315.42 152.937 315.548C152.937 315.676 152.929 315.796 152.913 315.908H142.089V314.252H151.713L150.777 314.828C150.793 314.012 150.625 313.284 150.273 312.644C149.921 312.004 149.433 311.508 148.809 311.156C148.201 310.788 147.489 310.604 146.673 310.604C145.873 310.604 145.161 310.788 144.537 311.156C143.913 311.508 143.425 312.012 143.073 312.668C142.721 313.308 142.545 314.044 142.545 314.876V315.26C142.545 316.108 142.737 316.868 143.121 317.54C143.521 318.196 144.073 318.708 144.777 319.076C145.481 319.444 146.289 319.628 147.201 319.628C147.953 319.628 148.633 319.5 149.241 319.244C149.865 318.988 150.409 318.604 150.873 318.092L152.145 319.58C151.569 320.252 150.849 320.764 149.985 321.116C149.137 321.468 148.185 321.644 147.129 321.644ZM161.705 321.644C160.409 321.644 159.249 321.364 158.225 320.804C157.217 320.244 156.425 319.476 155.849 318.5C155.273 317.524 154.985 316.404 154.985 315.14C154.985 313.876 155.273 312.756 155.849 311.78C156.425 310.804 157.217 310.044 158.225 309.5C159.249 308.94 160.409 308.66 161.705 308.66C162.857 308.66 163.881 308.892 164.777 309.356C165.689 309.804 166.393 310.476 166.889 311.372L165.137 312.5C164.721 311.876 164.209 311.42 163.601 311.132C163.009 310.828 162.369 310.676 161.681 310.676C160.849 310.676 160.105 310.86 159.449 311.228C158.793 311.596 158.273 312.116 157.889 312.788C157.505 313.444 157.313 314.228 157.313 315.14C157.313 316.052 157.505 316.844 157.889 317.516C158.273 318.188 158.793 318.708 159.449 319.076C160.105 319.444 160.849 319.628 161.681 319.628C162.369 319.628 163.009 319.484 163.601 319.196C164.209 318.892 164.721 318.428 165.137 317.804L166.889 318.908C166.393 319.788 165.689 320.468 164.777 320.948C163.881 321.412 162.857 321.644 161.705 321.644ZM174.404 321.644C173.124 321.644 172.132 321.3 171.428 320.612C170.724 319.924 170.372 318.94 170.372 317.66V305.996H172.676V317.564C172.676 318.252 172.844 318.78 173.18 319.148C173.532 319.516 174.028 319.7 174.668 319.7C175.388 319.7 175.988 319.5 176.468 319.1L177.188 320.756C176.836 321.06 176.412 321.284 175.916 321.428C175.436 321.572 174.932 321.644 174.404 321.644ZM168.212 310.676V308.78H176.324V310.676H168.212Z" fill="#023047"/>
<defs>
<filter id="filter0_ddddd_447_11464" x="261.212" y="316.506" width="67.2803" height="82.2802" filterUnits="userSpaceOnUse" color-interpolation-filters="sRGB">
<feFlood flood-opacity="0" result="BackgroundImageFix"/>
<feColorMatrix in="SourceAlpha" type="matrix" values="0 0 0 0 0 0 0 0 0 0 0 0 0 0 0 0 0 0 127 0" result="hardAlpha"/>
<feOffset/>
<feColorMatrix type="matrix" values="0 0 0 0 0.14902 0 0 0 0 0.176471 0 0 0 0 0.203922 0 0 0 0.1 0"/>
<feBlend mode="normal" in2="BackgroundImageFix" result="effect1_dropShadow_447_11464"/>
<feColorMatrix in="SourceAlpha" type="matrix" values="0 0 0 0 0 0 0 0 0 0 0 0 0 0 0 0 0 0 127 0" result="hardAlpha"/>
<feOffset dy="1"/>
<feGaussianBlur stdDeviation="1.5"/>
<feColorMatrix type="matrix" values="0 0 0 0 0.14902 0 0 0 0 0.176471 0 0 0 0 0.203922 0 0 0 0.1 0"/>
<feBlend mode="normal" in2="effect1_dropShadow_447_11464" result="effect2_dropShadow_447_11464"/>
<feColorMatrix in="SourceAlpha" type="matrix" values="0 0 0 0 0 0 0 0 0 0 0 0 0 0 0 0 0 0 127 0" result="hardAlpha"/>
<feOffset dy="5"/>
<feGaussianBlur stdDeviation="2.5"/>
<feColorMatrix type="matrix" values="0 0 0 0 0.14902 0 0 0 0 0.176471 0 0 0 0 0.203922 0 0 0 0.09 0"/>
<feBlend mode="normal" in2="effect2_dropShadow_447_11464" result="effect3_dropShadow_447_11464"/>
<feColorMatrix in="SourceAlpha" type="matrix" values="0 0 0 0 0 0 0 0 0 0 0 0 0 0 0 0 0 0 127 0" result="hardAlpha"/>
<feOffset dy="12"/>
<feGaussianBlur stdDeviation="3.5"/>
<feColorMatrix type="matrix" values="0 0 0 0 0.14902 0 0 0 0 0.176471 0 0 0 0 0.203922 0 0 0 0.05 0"/>
<feBlend mode="normal" in2="effect3_dropShadow_447_11464" result="effect4_dropShadow_447_11464"/>
<feColorMatrix in="SourceAlpha" type="matrix" values="0 0 0 0 0 0 0 0 0 0 0 0 0 0 0 0 0 0 127 0" result="hardAlpha"/>
<feOffset dy="21"/>
<feGaussianBlur stdDeviation="4"/>
<feColorMatrix type="matrix" values="0 0 0 0 0.14902 0 0 0 0 0.176471 0 0 0 0 0.203922 0 0 0 0.01 0"/>
<feBlend mode="normal" in2="effect4_dropShadow_447_11464" result="effect5_dropShadow_447_11464"/>
<feBlend mode="normal" in="SourceGraphic" in2="effect5_dropShadow_447_11464" result="shape"/>
</filter>
<filter id="filter1_ddddd_447_11464" x="225.572" y="294.296" width="67.2803" height="82.2802" filterUnits="userSpaceOnUse" color-interpolation-filters="sRGB">
<feFlood flood-opacity="0" result="BackgroundImageFix"/>
<feColorMatrix in="SourceAlpha" type="matrix" values="0 0 0 0 0 0 0 0 0 0 0 0 0 0 0 0 0 0 127 0" result="hardAlpha"/>
<feOffset/>
<feColorMatrix type="matrix" values="0 0 0 0 0.14902 0 0 0 0 0.176471 0 0 0 0 0.203922 0 0 0 0.1 0"/>
<feBlend mode="normal" in2="BackgroundImageFix" result="effect1_dropShadow_447_11464"/>
<feColorMatrix in="SourceAlpha" type="matrix" values="0 0 0 0 0 0 0 0 0 0 0 0 0 0 0 0 0 0 127 0" result="hardAlpha"/>
<feOffset dy="1"/>
<feGaussianBlur stdDeviation="1.5"/>
<feColorMatrix type="matrix" values="0 0 0 0 0.14902 0 0 0 0 0.176471 0 0 0 0 0.203922 0 0 0 0.1 0"/>
<feBlend mode="normal" in2="effect1_dropShadow_447_11464" result="effect2_dropShadow_447_11464"/>
<feColorMatrix in="SourceAlpha" type="matrix" values="0 0 0 0 0 0 0 0 0 0 0 0 0 0 0 0 0 0 127 0" result="hardAlpha"/>
<feOffset dy="5"/>
<feGaussianBlur stdDeviation="2.5"/>
<feColorMatrix type="matrix" values="0 0 0 0 0.14902 0 0 0 0 0.176471 0 0 0 0 0.203922 0 0 0 0.09 0"/>
<feBlend mode="normal" in2="effect2_dropShadow_447_11464" result="effect3_dropShadow_447_11464"/>
<feColorMatrix in="SourceAlpha" type="matrix" values="0 0 0 0 0 0 0 0 0 0 0 0 0 0 0 0 0 0 127 0" result="hardAlpha"/>
<feOffset dy="12"/>
<feGaussianBlur stdDeviation="3.5"/>
<feColorMatrix type="matrix" values="0 0 0 0 0.14902 0 0 0 0 0.176471 0 0 0 0 0.203922 0 0 0 0.05 0"/>
<feBlend mode="normal" in2="effect3_dropShadow_447_11464" result="effect4_dropShadow_447_11464"/>
<feColorMatrix in="SourceAlpha" type="matrix" values="0 0 0 0 0 0 0 0 0 0 0 0 0 0 0 0 0 0 127 0" result="hardAlpha"/>
<feOffset dy="21"/>
<feGaussianBlur stdDeviation="4"/>
<feColorMatrix type="matrix" values="0 0 0 0 0.14902 0 0 0 0 0.176471 0 0 0 0 0.203922 0 0 0 0.01 0"/>
<feBlend mode="normal" in2="effect4_dropShadow_447_11464" result="effect5_dropShadow_447_11464"/>
<feBlend mode="normal" in="SourceGraphic" in2="effect5_dropShadow_447_11464" result="shape"/>
</filter>
<filter id="filter2_ddddd_447_11464" x="298.923" y="295.161" width="69.2803" height="84.2802" filterUnits="userSpaceOnUse" color-interpolation-filters="sRGB">
<feFlood flood-opacity="0" result="BackgroundImageFix"/>
<feColorMatrix in="SourceAlpha" type="matrix" values="0 0 0 0 0 0 0 0 0 0 0 0 0 0 0 0 0 0 127 0" result="hardAlpha"/>
<feOffset/>
<feColorMatrix type="matrix" values="0 0 0 0 0.14902 0 0 0 0 0.176471 0 0 0 0 0.203922 0 0 0 0.1 0"/>
<feBlend mode="normal" in2="BackgroundImageFix" result="effect1_dropShadow_447_11464"/>
<feColorMatrix in="SourceAlpha" type="matrix" values="0 0 0 0 0 0 0 0 0 0 0 0 0 0 0 0 0 0 127 0" result="hardAlpha"/>
<feOffset dy="1"/>
<feGaussianBlur stdDeviation="1.5"/>
<feColorMatrix type="matrix" values="0 0 0 0 0.14902 0 0 0 0 0.176471 0 0 0 0 0.203922 0 0 0 0.1 0"/>
<feBlend mode="normal" in2="effect1_dropShadow_447_11464" result="effect2_dropShadow_447_11464"/>
<feColorMatrix in="SourceAlpha" type="matrix" values="0 0 0 0 0 0 0 0 0 0 0 0 0 0 0 0 0 0 127 0" result="hardAlpha"/>
<feOffset dy="5"/>
<feGaussianBlur stdDeviation="2.5"/>
<feColorMatrix type="matrix" values="0 0 0 0 0.14902 0 0 0 0 0.176471 0 0 0 0 0.203922 0 0 0 0.09 0"/>
<feBlend mode="normal" in2="effect2_dropShadow_447_11464" result="effect3_dropShadow_447_11464"/>
<feColorMatrix in="SourceAlpha" type="matrix" values="0 0 0 0 0 0 0 0 0 0 0 0 0 0 0 0 0 0 127 0" result="hardAlpha"/>
<feOffset dy="12"/>
<feGaussianBlur stdDeviation="3.5"/>
<feColorMatrix type="matrix" values="0 0 0 0 0.14902 0 0 0 0 0.176471 0 0 0 0 0.203922 0 0 0 0.05 0"/>
<feBlend mode="normal" in2="effect3_dropShadow_447_11464" result="effect4_dropShadow_447_11464"/>
<feColorMatrix in="SourceAlpha" type="matrix" values="0 0 0 0 0 0 0 0 0 0 0 0 0 0 0 0 0 0 127 0" result="hardAlpha"/>
<feOffset dy="22"/>
<feGaussianBlur stdDeviation="4.5"/>
<feColorMatrix type="matrix" values="0 0 0 0 0.14902 0 0 0 0 0.176471 0 0 0 0 0.203922 0 0 0 0.01 0"/>
<feBlend mode="normal" in2="effect4_dropShadow_447_11464" result="effect5_dropShadow_447_11464"/>
<feBlend mode="normal" in="SourceGraphic" in2="effect5_dropShadow_447_11464" result="shape"/>
</filter>
<filter id="filter3_ddddd_447_11464" x="334.9" y="319.286" width="67.2803" height="82.2802" filterUnits="userSpaceOnUse" color-interpolation-filters="sRGB">
<feFlood flood-opacity="0" result="BackgroundImageFix"/>
<feColorMatrix in="SourceAlpha" type="matrix" values="0 0 0 0 0 0 0 0 0 0 0 0 0 0 0 0 0 0 127 0" result="hardAlpha"/>
<feOffset/>
<feColorMatrix type="matrix" values="0 0 0 0 0.14902 0 0 0 0 0.176471 0 0 0 0 0.203922 0 0 0 0.1 0"/>
<feBlend mode="normal" in2="BackgroundImageFix" result="effect1_dropShadow_447_11464"/>
<feColorMatrix in="SourceAlpha" type="matrix" values="0 0 0 0 0 0 0 0 0 0 0 0 0 0 0 0 0 0 127 0" result="hardAlpha"/>
<feOffset dy="1"/>
<feGaussianBlur stdDeviation="1.5"/>
<feColorMatrix type="matrix" values="0 0 0 0 0.14902 0 0 0 0 0.176471 0 0 0 0 0.203922 0 0 0 0.1 0"/>
<feBlend mode="normal" in2="effect1_dropShadow_447_11464" result="effect2_dropShadow_447_11464"/>
<feColorMatrix in="SourceAlpha" type="matrix" values="0 0 0 0 0 0 0 0 0 0 0 0 0 0 0 0 0 0 127 0" result="hardAlpha"/>
<feOffset dy="5"/>
<feGaussianBlur stdDeviation="2.5"/>
<feColorMatrix type="matrix" values="0 0 0 0 0.14902 0 0 0 0 0.176471 0 0 0 0 0.203922 0 0 0 0.09 0"/>
<feBlend mode="normal" in2="effect2_dropShadow_447_11464" result="effect3_dropShadow_447_11464"/>
<feColorMatrix in="SourceAlpha" type="matrix" values="0 0 0 0 0 0 0 0 0 0 0 0 0 0 0 0 0 0 127 0" result="hardAlpha"/>
<feOffset dy="12"/>
<feGaussianBlur stdDeviation="3.5"/>
<feColorMatrix type="matrix" values="0 0 0 0 0.14902 0 0 0 0 0.176471 0 0 0 0 0.203922 0 0 0 0.05 0"/>
<feBlend mode="normal" in2="effect3_dropShadow_447_11464" result="effect4_dropShadow_447_11464"/>
<feColorMatrix in="SourceAlpha" type="matrix" values="0 0 0 0 0 0 0 0 0 0 0 0 0 0 0 0 0 0 127 0" result="hardAlpha"/>
<feOffset dy="21"/>
<feGaussianBlur stdDeviation="4"/>
<feColorMatrix type="matrix" values="0 0 0 0 0.14902 0 0 0 0 0.176471 0 0 0 0 0.203922 0 0 0 0.01 0"/>
<feBlend mode="normal" in2="effect4_dropShadow_447_11464" result="effect5_dropShadow_447_11464"/>
<feBlend mode="normal" in="SourceGraphic" in2="effect5_dropShadow_447_11464" result="shape"/>
</filter>
<filter id="filter4_ddddd_447_11464" x="0" y="0" width="390" height="91" filterUnits="userSpaceOnUse" color-interpolation-filters="sRGB">
<feFlood flood-opacity="0" result="BackgroundImageFix"/>
<feColorMatrix in="SourceAlpha" type="matrix" values="0 0 0 0 0 0 0 0 0 0 0 0 0 0 0 0 0 0 127 0" result="hardAlpha"/>
<feOffset/>
<feColorMatrix type="matrix" values="0 0 0 0 0.419608 0 0 0 0 0.501961 0 0 0 0 0.580392 0 0 0 0.1 0"/>
<feBlend mode="normal" in2="BackgroundImageFix" result="effect1_dropShadow_447_11464"/>
<feColorMatrix in="SourceAlpha" type="matrix" values="0 0 0 0 0 0 0 0 0 0 0 0 0 0 0 0 0 0 127 0" result="hardAlpha"/>
<feOffset dx="1" dy="1"/>
<feGaussianBlur stdDeviation="1"/>
<feColorMatrix type="matrix" values="0 0 0 0 0.419608 0 0 0 0 0.501961 0 0 0 0 0.580392 0 0 0 0.1 0"/>
<feBlend mode="normal" in2="effect1_dropShadow_447_11464" result="effect2_dropShadow_447_11464"/>
<feColorMatrix in="SourceAlpha" type="matrix" values="0 0 0 0 0 0 0 0 0 0 0 0 0 0 0 0 0 0 127 0" result="hardAlpha"/>
<feOffset dx="2" dy="3"/>
<feGaussianBlur stdDeviation="2"/>
<feColorMatrix type="matrix" values="0 0 0 0 0.419608 0 0 0 0 0.501961 0 0 0 0 0.580392 0 0 0 0.09 0"/>
<feBlend mode="normal" in2="effect2_dropShadow_447_11464" result="effect3_dropShadow_447_11464"/>
<feColorMatrix in="SourceAlpha" type="matrix" values="0 0 0 0 0 0 0 0 0 0 0 0 0 0 0 0 0 0 127 0" result="hardAlpha"/>
<feOffset dx="6" dy="7"/>
<feGaussianBlur stdDeviation="2.5"/>
<feColorMatrix type="matrix" values="0 0 0 0 0.419608 0 0 0 0 0.501961 0 0 0 0 0.580392 0 0 0 0.05 0"/>
<feBlend mode="normal" in2="effect3_dropShadow_447_11464" result="effect4_dropShadow_447_11464"/>
<feColorMatrix in="SourceAlpha" type="matrix" values="0 0 0 0 0 0 0 0 0 0 0 0 0 0 0 0 0 0 127 0" result="hardAlpha"/>
<feOffset dx="10" dy="12"/>
<feGaussianBlur stdDeviation="3"/>
<feColorMatrix type="matrix" values="0 0 0 0 0.419608 0 0 0 0 0.501961 0 0 0 0 0.580392 0 0 0 0.01 0"/>
<feBlend mode="normal" in2="effect4_dropShadow_447_11464" result="effect5_dropShadow_447_11464"/>
<feBlend mode="normal" in="SourceGraphic" in2="effect5_dropShadow_447_11464" result="shape"/>
</filter>
</defs>
</svg>
