<svg width="36" height="36" viewBox="0 0 36 36" fill="none" xmlns="http://www.w3.org/2000/svg">
<path d="M18 1.875C18.6213 1.875 19.125 2.37868 19.125 3V4.5C19.125 5.12132 18.6213 5.625 18 5.625C17.3787 5.625 16.875 5.12132 16.875 4.5V3C16.875 2.37868 17.3787 1.875 18 1.875Z" fill="#F8F9FA"/>
<path fill-rule="evenodd" clip-rule="evenodd" d="M9.375 18C9.375 13.2365 13.2365 9.375 18 9.375C22.7635 9.375 26.625 13.2365 26.625 18C26.625 22.7635 22.7635 26.625 18 26.625C13.2365 26.625 9.375 22.7635 9.375 18ZM18 11.625C14.4792 11.625 11.625 14.4792 11.625 18C11.625 21.5208 14.4792 24.375 18 24.375C21.5208 24.375 24.375 21.5208 24.375 18C24.375 14.4792 21.5208 11.625 18 11.625Z" fill="#F8F9FA"/>
<path d="M8.18891 6.59794C7.74957 6.1586 7.03726 6.1586 6.59792 6.59794C6.15858 7.03728 6.15858 7.74959 6.59792 8.18893L7.65858 9.24959C8.09792 9.68893 8.81024 9.68893 9.24957 9.24959C9.68891 8.81025 9.68891 8.09794 9.24957 7.6586L8.18891 6.59794Z" fill="#F8F9FA"/>
<path d="M34.125 18C34.125 18.6213 33.6213 19.125 33 19.125H31.5C30.8787 19.125 30.375 18.6213 30.375 18C30.375 17.3787 30.8787 16.875 31.5 16.875H33C33.6213 16.875 34.125 17.3787 34.125 18Z" fill="#F8F9FA"/>
<path d="M29.4021 8.18891C29.8414 7.74957 29.8414 7.03726 29.4021 6.59792C28.9627 6.15858 28.2504 6.15858 27.8111 6.59792L26.7504 7.65858C26.3111 8.09792 26.3111 8.81024 26.7504 9.24957C27.1898 9.68891 27.9021 9.68891 28.3414 9.24957L29.4021 8.18891Z" fill="#F8F9FA"/>
<path d="M18 30.375C18.6213 30.375 19.125 30.8787 19.125 31.5V33C19.125 33.6213 18.6213 34.125 18 34.125C17.3787 34.125 16.875 33.6213 16.875 33V31.5C16.875 30.8787 17.3787 30.375 18 30.375Z" fill="#F8F9FA"/>
<path d="M28.3415 26.7504C27.9022 26.3111 27.1899 26.3111 26.7505 26.7504C26.3112 27.1898 26.3112 27.9021 26.7505 28.3414L27.8112 29.4021C28.2505 29.8414 28.9628 29.8414 29.4022 29.4021C29.8415 28.9627 29.8415 28.2504 29.4022 27.8111L28.3415 26.7504Z" fill="#F8F9FA"/>
<path d="M5.625 18C5.625 18.6213 5.12132 19.125 4.5 19.125H3C2.37868 19.125 1.875 18.6213 1.875 18C1.875 17.3787 2.37868 16.875 3 16.875H4.5C5.12132 16.875 5.625 17.3787 5.625 18Z" fill="#F8F9FA"/>
<path d="M9.24947 28.3414C9.68881 27.9021 9.68881 27.1898 9.24947 26.7504C8.81013 26.3111 8.09782 26.3111 7.65848 26.7504L6.59782 27.8111C6.15848 28.2504 6.15848 28.9627 6.59782 29.4021C7.03716 29.8414 7.74947 29.8414 8.18881 29.4021L9.24947 28.3414Z" fill="#F8F9FA"/>
</svg>
