<svg width="36" height="36" viewBox="0 0 36 36" fill="none" xmlns="http://www.w3.org/2000/svg">
<path d="M15 3.375C14.3787 3.375 13.875 3.87868 13.875 4.5V5.625H7.5C6.87868 5.625 6.375 6.12868 6.375 6.75C6.375 7.37132 6.87868 7.875 7.5 7.875H28.5C29.1213 7.875 29.625 7.37132 29.625 6.75C29.625 6.12868 29.1213 5.625 28.5 5.625H22.125V4.5C22.125 3.87868 21.6213 3.375 21 3.375H15Z" fill="#00A6FB"/>
<path d="M15 15.975C15.6213 15.975 16.125 16.4787 16.125 17.1L16.125 27.6C16.125 28.2213 15.6213 28.725 15 28.725C14.3787 28.725 13.875 28.2213 13.875 27.6L13.875 17.1C13.875 16.4787 14.3787 15.975 15 15.975Z" fill="#00A6FB"/>
<path d="M22.125 17.1C22.125 16.4787 21.6213 15.975 21 15.975C20.3787 15.975 19.875 16.4787 19.875 17.1V27.6C19.875 28.2213 20.3787 28.725 21 28.725C21.6213 28.725 22.125 28.2213 22.125 27.6V17.1Z" fill="#00A6FB"/>
<path fill-rule="evenodd" clip-rule="evenodd" d="M8.98714 11.8758C9.05044 11.306 9.53201 10.875 10.1053 10.875H25.8947C26.468 10.875 26.9495 11.306 27.0128 11.8758L27.3131 14.5778C27.8573 19.4758 27.8573 24.419 27.3131 29.317L27.2835 29.583C27.0675 31.5272 25.5607 33.0775 23.6234 33.3487C19.8926 33.871 16.1073 33.871 12.3766 33.3487C10.4393 33.0775 8.93249 31.5272 8.71647 29.583L8.68691 29.317C8.14269 24.419 8.14269 19.4758 8.68691 14.5778L8.98714 11.8758ZM11.1122 13.125L10.9232 14.8263C10.3973 19.5591 10.3973 24.3356 10.9232 29.0685L10.9527 29.3345C11.0552 30.2566 11.7698 30.9918 12.6886 31.1204C16.2123 31.6138 19.7876 31.6138 23.3114 31.1204C24.2302 30.9918 24.9448 30.2566 25.0473 29.3345L25.0768 29.0685C25.6027 24.3356 25.6027 19.5591 25.0768 14.8263L24.8878 13.125H11.1122Z" fill="#00A6FB"/>
</svg>
