<svg xmlns="http://www.w3.org/2000/svg" width="30" height="30" viewBox="0 0 30 30" fill="none">
<path fill-rule="evenodd" clip-rule="evenodd" d="M27.5322 11.9675C29.5159 13.5024 29.5159 16.4974 27.5322 18.0323C21.537 22.6711 14.8427 26.3274 7.69958 28.8644L6.39463 29.3278C3.89808 30.2145 1.26106 28.5254 0.923082 25.9483C-0.0212361 18.7479 -0.0212358 11.2519 0.923083 4.05148C1.26106 1.47438 3.89809 -0.214739 6.39463 0.671942L7.69958 1.13541C14.8427 3.67237 21.537 7.32868 27.5322 11.9675ZM25.6963 15.6596C26.1279 15.3257 26.1279 14.6741 25.6963 14.3401C19.9526 9.89591 13.539 6.39296 6.69554 3.96241L5.39059 3.49894C4.74069 3.26812 3.99382 3.70803 3.89761 4.44158C2.98726 11.383 2.98726 18.6167 3.89761 25.5582C3.99381 26.2918 4.74069 26.7317 5.39058 26.5008L6.69553 26.0374C13.539 23.6068 19.9526 20.1039 25.6963 15.6596Z" fill="#F8F9FA"/>
</svg>