<svg width="37" height="37" viewBox="0 0 37 37" fill="none" xmlns="http://www.w3.org/2000/svg">
<path d="M26.2143 27.7177L29.0074 12.3561L29.0074 12.356C29.1241 11.7142 29.1824 11.3933 29.0201 11.3078C28.8577 11.2224 28.6262 11.4522 28.1632 11.9117L26.1854 13.8748L18.5002 15.4165L10.786 13.8748L8.84113 11.9263C8.37697 11.4612 8.14489 11.2287 7.98195 11.314C7.819 11.3993 7.87777 11.7225 7.9953 12.3689L10.786 27.7177C10.7898 27.7386 10.7999 27.7579 10.8149 27.7729C15.0594 32.0174 21.941 32.0174 26.1854 27.7729C26.2004 27.7579 26.2105 27.7386 26.2143 27.7177Z" fill="#7E869E" fill-opacity="0.25"/>
<ellipse cx="18.5002" cy="10.7915" rx="10.7917" ry="4.625" stroke="#222222" stroke-width="1.2" stroke-linecap="round"/>
<path d="M7.7085 10.7915L10.786 27.7177C10.7898 27.7386 10.7999 27.7579 10.8149 27.7729V27.7729C15.0594 32.0174 21.941 32.0174 26.1854 27.7729V27.7729C26.2004 27.7579 26.2105 27.7386 26.2143 27.7177L29.2918 10.7915" stroke="#222222" stroke-width="1.2" stroke-linecap="round"/>
</svg>
