<svg xmlns="http://www.w3.org/2000/svg" width="80" height="80" viewBox="0 0 80 80" fill="none">
<rect width="80" height="80" rx="40" fill="#3AEC3A"/>
<path d="M34.4327 53.5C34.1304 53.5 33.847 53.4492 33.5825 53.3477C33.318 53.2463 33.0724 53.0755 32.8457 52.8355L23.0974 42.4463C22.6817 42.0033 22.483 41.4291 22.5011 40.7236C22.5193 40.0181 22.7369 39.4447 23.154 39.0033C23.5697 38.5604 24.0987 38.3389 24.741 38.3389C25.3833 38.3389 25.9123 38.5604 26.3279 39.0033L34.4327 47.6409L53.646 27.1644C54.0616 26.7215 54.6004 26.5 55.2624 26.5C55.9244 26.5 56.4624 26.7215 56.8766 27.1644C57.2922 27.6074 57.5 28.1816 57.5 28.8871C57.5 29.5926 57.2922 30.166 56.8766 30.6074L36.0196 52.8355C35.7929 53.0771 35.5473 53.2487 35.2828 53.3502C35.0183 53.4516 34.7349 53.5016 34.4327 53.5Z" fill="#F8F9FA"/>
</svg>