<?xml version="1.0" encoding="utf-8"?>
<svg id="master-artboard" xmlns="http://www.w3.org/2000/svg" viewBox="0 0 393.6676940917969 438.4391784667969" width="393.6676940917969px" height="438.4391784667969px"><rect id="ee-background" x="0" y="0" width="393.6676940917969" height="438.4391784667969" style="fill: white; fill-opacity: 0; pointer-events: none;"/><g transform="matrix(0.41288191080093384, 0, 0, 0.41288191080093384, -106.3323031009586, 1.3001575469970703)"><path d="M583.366 93.9615L583.264 -0.992676" stroke="#00A6FB" stroke-width="6"/><path d="M497.31 803.788L497.609 1082.19" stroke="#00A6FB" stroke-width="6"/><path d="M361.384 610.254L290.547 610.178C286.129 610.173 282.551 613.751 282.556 618.169L283.055 1081.96" stroke="#00A6FB" stroke-width="6" style="stroke-opacity: 1; fill-opacity: 0;"/><path d="M805.412 101.657L805.303 -0.257568" stroke="#00A6FB" stroke-width="6"/><path d="M729.569 100.581L729.459 -1.33313" stroke="#00A6FB" stroke-width="6"/><path d="M973.3 785.406L973.372 851.978C973.377 856.396 976.962 859.982 981.38 859.986L1212.88 860.234" stroke="#00A6FB" stroke-width="6" style="fill-opacity: 0;"/><path d="M995.668 705.888L1212.72 706.12" stroke="#00A6FB" stroke-width="6"/><path d="M448.804 705.302L374.974 705.223C370.556 705.218 366.978 708.796 366.983 713.214L367.379 1081.55" stroke="#00A6FB" stroke-width="6" style="fill-opacity: 0;"/><path d="M503.194 244.012L502.931 -0.581543" stroke="#00A6FB" stroke-width="6"/><path d="M909.369 262.345L909.081 -6.11206" stroke="#00A6FB" stroke-width="6"/><path d="M439.385 298.63L384.998 298.571L384.68 2.27466" stroke="#00A6FB" stroke-width="6" style="fill-opacity: 0;"/><path d="M322.253 413.344L321.804 -4.25562" stroke="#00A6FB" stroke-width="6"/><path d="M700.015 921.33L700.184 1078.43" stroke="#00A6FB" stroke-width="6"/><path d="M779.845 917.439L779.951 1015.83C779.955 1020.25 783.541 1023.83 787.959 1023.84L1217.05 1024.3" stroke="#00A6FB" stroke-width="6" style="fill-opacity: 0;"/><path d="M615.577 815.846L615.866 1084.3" stroke="#00A6FB" stroke-width="6"/><path d="M1123.79 606.099L1213.61 606.196" stroke="#00A6FB" stroke-width="6"/><path d="M1160.16 555.43L1179.11 555.45C1183.53 555.455 1187.1 551.877 1187.1 547.459L1186.51 2.13959" stroke="#00A6FB" stroke-width="6" style="fill-opacity: 0;"/><path d="M1106.65 436.556L1106.18 0.0643311" stroke="#00A6FB" stroke-width="6"/><path d="M860.165 905.593L860.206 943.827C860.211 948.246 863.796 951.831 868.215 951.836L1214.98 952.208" stroke="#00A6FB" stroke-width="6" style="fill-opacity: 0;"/><path fill-rule="evenodd" clip-rule="evenodd" d="M809.409 122.786C806.103 122.539 804.121 129.785 795.163 174.854C792.653 187.482 789.728 198.358 788.663 199.023C787.598 199.685 774.904 200.594 760.452 201.039C746.001 201.485 733.43 202.278 732.517 202.802C731.601 203.325 731.159 212.914 731.533 224.108C732.329 247.989 731.754 252.058 727.624 251.786C725.235 251.631 724.358 242.714 723.657 211.445C723.161 189.366 722.8 162.529 722.851 151.808C722.924 136.859 722.163 131.862 719.585 130.387C715.541 128.073 715.816 121.39 716.976 193.793C717.476 224.911 717.6 250.533 717.252 250.729C716.906 250.927 702.689 250.373 685.659 249.498C662.861 248.328 654.497 247.232 653.949 245.344C653.54 243.932 652.815 220.066 652.339 192.307C651.862 164.55 650.776 141.059 649.923 140.107C646.903 136.735 595.839 109.41 593.72 110.032C588.944 111.434 590.552 115.818 596.952 118.847C600.661 120.601 612.52 127.204 623.308 133.521L642.92 145.006L644.234 169.843C645.967 202.548 646.597 246.435 645.344 247.147C644.799 247.459 642.31 247.403 639.814 247.025C635.541 246.38 635.239 244.382 634.643 212.891C633.647 160.287 632.941 149.422 630.356 147.033C623.986 141.149 586.116 120.878 583.872 122.154C581.511 123.496 583.224 124.704 603.461 135.954C607.583 138.244 614.624 142.496 619.114 145.401C627.224 150.649 627.276 150.77 627.644 165.097C628.148 184.768 627.217 240.757 626.331 244.017C625.935 245.47 623.584 246.565 621.104 246.448C535.217 242.391 483.404 243.547 470.947 249.802C463.749 253.416 455.702 263.55 447.12 279.81C438.021 297.05 438.001 297.444 441.39 399.337C442.061 419.485 442.72 438.667 442.857 441.961C442.992 445.255 442.284 448.406 441.28 448.962C439.557 449.918 382.599 451.377 366.927 450.867C360.678 450.662 357.419 448.881 344.087 438.381C326.779 424.747 325.737 424.183 324.726 427.9C324.314 429.415 330.94 435.958 340.554 443.525L357.092 456.54L383.449 455.544C397.945 454.997 417.959 454.45 427.924 454.33C437.889 454.21 446.592 453.801 447.261 453.42C449.095 452.38 452.51 457.937 451.752 460.727C451.387 462.068 448.167 462.992 444.599 462.78C441.031 462.568 419.897 462.794 397.639 463.281C375.381 463.77 355.674 463.762 353.847 463.265C352.018 462.768 343.26 456.844 334.384 450.098C319.39 438.707 317.982 438.003 314.525 440.204C311.097 442.386 312.557 443.823 333.084 458.484L355.364 474.397L379.15 473.372C398.429 472.541 421.569 471.003 440.67 469.281C442.141 469.148 443.143 472.589 443.155 477.802C443.164 482.61 443.706 497.232 444.357 510.294L445.542 534.047L434.285 533.419C412.794 532.218 368.825 530.63 367.845 531.017C367.302 531.233 367.543 532.593 368.378 534.042C369.486 535.963 381.229 536.915 411.605 537.548C434.544 538.027 454.388 539.201 455.702 540.159C461.539 544.415 456.144 547.249 442.338 547.184L428.041 547.117L406.431 574.418C389.57 595.721 384.985 602.657 385.573 605.982C386.321 610.238 386.327 610.239 388.778 606.878C393.765 600.044 417.607 570.051 423.92 562.669C428.192 557.674 432.066 555.081 435.159 555.145C437.756 555.2 441.249 555.109 442.919 554.944C445.261 554.711 445.945 559.397 445.907 575.41C445.791 624.72 446.011 634.89 448.142 679.526C451.406 747.826 458.435 777.835 475.341 795.635C482.612 803.291 484.49 804.264 499.355 808.065C521.557 813.745 586.266 817.481 654.736 817.036C675.171 816.902 692.046 817.191 692.236 817.672C692.654 818.731 691.589 882.515 690.909 897.19C690.557 904.79 691.187 907.357 693.252 906.745C695.448 906.095 696.092 897.457 696.153 867.769C696.195 846.79 696.123 825.122 695.995 819.615C695.715 807.739 697.66 799.511 700.974 798.539C702.292 798.153 704.065 799.038 704.911 800.507C706.432 803.145 706.481 845.601 705.001 880.413C704.582 890.283 704.289 899.958 704.351 901.917C704.515 907.165 708.025 907.214 708.261 901.972C708.801 889.939 710.298 821.235 710.068 819.011C709.707 815.511 767.925 813.264 769.906 816.701C770.497 817.723 770.121 861.286 769.316 885.295C769.119 891.207 772.346 894.01 772.696 888.23C775.491 842.022 775.811 830.147 774.837 808.781C774.284 796.612 776.377 792.275 781.128 795.739C783.335 797.347 783.832 803.028 784.439 833.594L784.724 847.942L794.025 852.99C831.901 873.549 847.918 881.463 849.675 880.487C850.794 879.865 850.256 878.485 848.48 877.417C846 875.928 799.391 848.719 789.07 842.737C787.254 841.684 786.283 815.237 788.032 814.476C788.504 814.269 797.981 814.252 809.091 814.435C841.711 814.975 868.204 815.081 893.208 814.77C906.086 814.609 924.284 814.458 933.648 814.436L950.674 814.393L961.924 804.197C968.111 798.589 977.165 789.185 982.042 783.301C990.043 773.65 991.394 770.763 995.853 753.78C1000.65 735.534 1000.72 733.354 998.242 682.833C996.836 654.166 995.231 625.596 994.677 619.344C993.261 603.402 992.051 580.021 992.414 575.61C992.645 572.813 994.756 571.75 1001.01 571.279C1015.98 570.15 1050.43 569.967 1054.07 570.997C1056.02 571.551 1066.86 579.924 1078.14 589.603C1095.91 604.841 1099 606.861 1101.17 604.658C1104.35 601.44 1104.45 601.542 1077.25 580.108L1055.07 562.631L1024.05 563.642C993.625 564.632 989.991 563.96 991.559 557.626C992.017 555.778 1069.45 553.693 1137.17 553.707C1139.12 553.707 1140.9 553.04 1141.12 552.223C1141.71 550.052 1080.9 549.647 1030.74 551.488C1014.95 552.068 999.746 552.473 996.94 552.389C992 552.242 991.807 551.541 990.949 530.563C990.447 518.332 990.965 508.413 992.136 507.797C994.691 506.455 1045.57 504.086 1068.66 504.234C1087.95 504.359 1085.79 505.986 1106.07 476.187C1116.02 461.563 1117.07 458.659 1112.76 457.559C1112.02 457.37 1105.22 466.251 1097.65 477.295L1083.89 497.378L1072.83 497.205C1066.75 497.11 1045.71 497.496 1026.07 498.061C989.532 499.113 987.378 498.671 989.501 490.564C990.291 487.555 1012.27 485.821 1063.46 484.726L1078.12 484.413L1088.18 470.162C1101.15 451.786 1104.17 446.432 1101.05 447.349C1099.72 447.739 1094.36 454.81 1089.13 463.066C1083.91 471.321 1078.4 478.812 1076.89 479.714C1075.39 480.615 1056.74 481.603 1035.45 481.908C1014.16 482.213 995.1 482.635 993.091 482.845C991.082 483.055 989.536 482.861 989.657 482.414C989.779 481.967 990.107 464.034 990.386 442.565C990.933 400.492 990.905 401.989 991.911 357.43C992.996 309.235 985.25 283.794 965.868 271.891C950.509 262.459 945.319 261.704 881.81 259.635C867.983 259.185 847.688 258.264 836.712 257.587C825.736 256.91 806.805 256.012 794.643 255.593C782.481 255.175 765.043 254.367 755.892 253.797L739.255 252.762L738.702 247.4C737.708 237.764 738.167 210.792 739.336 210.125C739.964 209.77 750.817 209.191 763.455 208.844C776.092 208.494 788.494 207.169 791.012 205.899C796.482 203.141 799.337 193.466 807.249 150.881C811.544 127.767 811.913 122.973 809.409 122.786ZM787.877 153.581L780.097 187.632L763.015 188.044C736.035 188.697 738.328 190.758 737.734 165.291C737.448 153.011 737.579 141.447 738.023 139.593C738.81 136.318 734.828 131.716 732.402 133.093C731.196 133.78 729.549 190.304 730.677 192.26C731.243 193.239 780.47 192.566 782.248 191.555C784.269 190.406 799.177 120.484 797.499 120.028C796.324 119.708 792.849 131.83 787.877 153.581ZM946.119 299.092C949.245 301.88 952.834 307.218 954.096 310.952C957.731 321.709 960.917 392.517 961.164 468.05C961.295 507.854 962.034 545.624 963.412 582.976C963.855 594.945 963.65 618.939 962.958 636.297C962.267 653.655 961.337 679.352 960.892 693.401C960.448 707.452 959.186 720.335 958.087 722.031C955.363 726.24 944.936 731.421 934.514 733.745C927.488 735.311 874.488 737.272 848.427 736.926C845.09 736.882 834.546 737.043 824.995 737.282C815.444 737.521 791.58 737.976 771.963 738.294C724.625 739.061 664.174 740.296 612.808 741.547C549.335 743.095 542.17 742.75 532.196 737.671C522.067 732.513 514.347 724.277 510.797 714.841C509.364 711.031 506.839 680.775 505.187 647.603C503.537 614.432 500.647 556.017 498.77 517.793C496.892 479.569 493.736 416.09 491.757 376.729C489.779 337.368 488.34 301.234 488.56 296.429C489.245 281.417 497.848 273.652 516.069 271.591C530.87 269.918 591.445 271.074 620.322 273.581C625.228 274.007 648.178 275.235 671.321 276.312C694.465 277.389 719.13 278.549 726.13 278.893C733.131 279.235 739.572 279.307 740.441 279.051C743.517 278.149 828.596 281.497 858.025 283.68C925.601 288.69 936.626 290.618 946.119 299.092ZM890.253 299.483C872.878 297.603 831.729 295.224 758.403 291.866C715.598 289.905 669.508 286.915 652.724 285.01C633.37 282.816 552.351 279.707 529.89 280.3C512.005 280.77 501.44 285.432 499.147 293.866C497.207 301.003 497.468 326.812 499.764 354.864C503.508 400.618 511.55 521.647 513.331 559.062C514.267 578.728 516.23 607.396 517.692 622.768C519.155 638.141 520.465 653.018 520.606 655.829C521.49 673.734 523.812 695.733 525.29 700.233C527.758 707.745 540.135 717.792 550.826 720.958C555.821 722.439 566.679 723.879 574.954 724.161C594.444 724.823 725.602 723.658 728.492 722.798C729.706 722.436 732.171 722.306 733.966 722.508C740.256 723.213 782.729 722.937 786.221 722.168C788.162 721.739 809.026 721.013 832.588 720.548C901.294 719.197 926.168 718.028 933.869 715.781C944.676 712.631 947.148 707.943 947.101 690.682C947.012 657.401 947.047 644.653 947.282 623.601C947.418 611.436 947.249 580.534 946.907 554.929C946.566 529.324 946.509 498.905 946.78 487.332C947.051 475.759 946.942 457.578 946.535 446.93C946.129 436.282 945.208 409.259 944.487 386.878C942.371 321.252 942.275 320.383 936.334 313.605C930.175 306.578 916.183 302.291 890.253 299.483ZM927.121 315.398C934.746 322.362 935.895 327.367 936.552 356.486C936.905 372.111 937.27 388.093 937.364 392.001C937.458 395.908 937.476 403.268 937.404 408.355C937.332 413.44 937.988 419.149 938.858 421.037C939.731 422.924 939.828 424.82 939.077 425.247C938.324 425.675 937.855 430.908 938.035 436.879C938.216 442.849 938.672 471.414 939.051 500.357C939.428 529.299 940.136 576.684 940.621 605.656C941.952 684.91 941.712 691.339 937.141 698.657C934.146 703.454 930.958 705.38 922.974 707.225C913.318 709.454 879.254 710.898 837.253 710.855C827.211 710.845 812.073 711.112 803.612 711.447C795.15 711.783 765.777 712.35 738.338 712.705C671.064 713.575 628.141 714.222 598.773 714.805C559.519 715.585 552.468 715.314 547.462 712.822C539.923 709.072 531.133 699.025 529.725 692.549C529.011 689.269 526.553 656.72 524.264 620.215C520.143 554.511 511.757 426.336 507.427 362.838C503.121 299.714 503.328 296.953 512.839 290.187C517.886 286.596 522.429 286.367 555.521 288.025C575.889 289.047 594.348 290.002 596.541 290.147C598.733 290.293 604.591 290.579 609.558 290.782C614.525 290.983 648.26 292.846 684.524 294.92C755 298.949 800.47 301.418 864.488 304.691C907.418 306.884 920.194 309.069 927.121 315.398ZM458.883 423.252C459.776 441.797 461.353 475.805 462.388 498.826C463.422 521.846 465.404 565.494 466.789 595.82C468.176 626.146 469.747 661.06 470.28 673.406C473.512 748.173 474.037 752.174 482.591 767.218C489.927 780.119 490.308 781.648 487.587 787.253C485.967 790.59 483.854 793.551 482.89 793.834C481.927 794.116 477.904 789.984 473.95 784.647C459.746 765.476 455.572 733.853 451.269 612.776C449.199 554.576 449.124 555.866 454.695 553.88C463.229 550.835 463.23 540.292 454.699 535.347C450.298 532.797 449.645 530.764 449.578 519.42C449.536 512.267 449.211 498.775 448.852 489.438C448.298 474.951 448.754 471.753 451.954 467.632C456.837 461.346 456.879 453.371 452.051 449.38C448.835 446.721 448.184 441.399 448.043 416.594C447.952 400.308 447.713 370.149 447.514 349.574C447.313 328.999 448.19 307.002 449.461 300.693C451.846 288.851 453.356 308.481 458.883 423.252ZM1107.22 562.214C1090.54 562.56 1076.27 563.191 1075.53 563.615C1073.44 564.804 1075.63 567.318 1092.53 583.121C1101.15 591.184 1108.91 597.122 1109.77 596.317C1110.64 595.511 1105.02 588.809 1097.28 581.422L1083.2 567.992L1113.08 567.952C1129.51 567.928 1142.9 566.984 1142.83 565.853C1142.61 562.077 1137.76 561.58 1107.22 562.214ZM390.73 545.234C374.001 544.737 369.924 545.262 369.174 548.019C368.307 551.21 369.268 551.4 384.959 551.153C394.148 551.007 402.724 551.175 404.018 551.527C405.588 551.954 403.251 556.179 396.987 564.237C388.571 575.066 374.935 594.001 374.56 595.379C374.48 595.674 375.163 596.118 376.079 596.367C377.657 596.796 412.788 551.796 413.81 548.036C414.409 545.833 415.56 545.973 390.73 545.234ZM959.648 789.818C955.23 794.201 938.954 806.975 936.775 807.77C931.241 809.789 932.247 807.396 940.186 799.652C944.855 795.099 950.399 790.252 952.506 788.884C956.914 786.023 962.71 786.78 959.648 789.818ZM940.881 791.774C938.221 794.1 933.328 798.881 930.007 802.395C924.033 808.715 923.722 808.779 900.922 808.258C878.752 807.75 833.054 807.767 805.982 808.294C788.39 808.636 785.903 807.74 786.062 801.109C786.22 794.55 784.532 792.273 779.464 792.219C773.276 792.148 770.629 795.116 770.735 802L770.831 808.283L756.23 808.55C748.199 808.698 734.422 809.016 725.613 809.259L709.597 809.698L709.158 803.603C708.782 798.367 707.866 797.363 702.645 796.47C697.032 795.513 696.366 796.009 693.908 802.982L691.245 810.531L679.834 809.968C673.557 809.657 657.836 809.717 644.897 810.101C615.457 810.973 590 810.451 558.471 808.325C528.726 806.32 525.775 805.663 528.21 801.591C535.75 788.985 525.985 790.251 620.006 789.703C656.334 789.492 706.653 789.132 731.825 788.904C756.997 788.676 800.464 788.328 828.418 788.131C856.371 787.935 893.445 787.592 910.804 787.37C928.162 787.146 943.119 787.095 944.041 787.255C944.964 787.413 943.54 789.448 940.881 791.774ZM782.597 858.424C782.587 861.043 782.433 869.274 782.253 876.711C782.076 884.149 782.665 890.437 783.563 890.681C785.804 891.29 785.934 890.333 786.932 865.883C787.17 860.03 788.062 860.317 817.321 875.704C830.523 882.647 841.866 888.022 842.526 887.647C843.184 887.271 842.633 886.297 841.301 885.481C832.127 879.861 822.34 874.535 806.908 866.766C797.154 861.855 787.699 856.899 785.895 855.751C783.138 853.995 782.612 854.421 782.597 858.424ZM511.54 792.354C508.994 799.822 505.186 803.901 501.675 802.926C498.828 802.136 498.428 800.876 499.923 797.408C502.725 790.907 506.24 787.718 509.601 788.632C511.217 789.072 512.088 790.747 511.54 792.354Z" fill="#00A6FB"/><path d="M 823.428028 114.087997 A 18.937 19.642599 0 0 1 804.491028 133.730597 A 18.937 19.642599 0 0 1 785.554028 114.087997 A 18.937 19.642599 0 0 1 804.491028 94.445398 A 18.937 19.642599 0 0 1 823.428028 114.087997 Z" transform="rotate(15.21 804.491 114.088)" fill="#FFF502"/><path d="M 749.650112 120.683998 A 19.726101 18.856899 0 0 1 729.924011 139.540897 A 19.726101 18.856899 0 0 1 710.19791 120.683998 A 19.726101 18.856899 0 0 1 729.924011 101.827099 A 19.726101 18.856899 0 0 1 749.650112 120.683998 Z" transform="rotate(15.21 729.924 120.684)" fill="#FFF502"/><path d="M 603.447109 111.059998 A 19.726101 19.642599 0 0 1 583.721008 130.702597 A 19.726101 19.642599 0 0 1 563.994907 111.059998 A 19.726101 19.642599 0 0 1 583.721008 91.417398 A 19.726101 19.642599 0 0 1 603.447109 111.059998 Z" transform="rotate(15.21 583.721 111.06)" fill="#FFF502"/><path d="M 345.020107 429.998993 A 19.726101 19.642599 0 0 1 325.294006 449.641592 A 19.726101 19.642599 0 0 1 305.567905 429.998993 A 19.726101 19.642599 0 0 1 325.294006 410.356394 A 19.726101 19.642599 0 0 1 345.020107 429.998993 Z" transform="rotate(15.21 325.294 429.999)" fill="#FFF502"/><path d="M 393.997097 538.578979 A 19.726101 18.856899 0 0 1 374.270996 557.435879 A 19.726101 18.856899 0 0 1 354.544895 538.578979 A 19.726101 18.856899 0 0 1 374.270996 519.72208 A 19.726101 18.856899 0 0 1 393.997097 538.578979 Z" transform="rotate(15.21 374.271 538.579)" fill="#FFF502"/><path d="M 397.921108 602.34198 A 19.726101 19.642599 0 0 1 378.195007 621.984579 A 19.726101 19.642599 0 0 1 358.468906 602.34198 A 19.726101 19.642599 0 0 1 378.195007 582.699381 A 19.726101 19.642599 0 0 1 397.921108 602.34198 Z" transform="rotate(15.21 378.195 602.342)" fill="#FFF502"/><path d="M 716.874111 908.900024 A 19.726101 19.642599 0 0 1 697.14801 928.542624 A 19.726101 19.642599 0 0 1 677.421909 908.900024 A 19.726101 19.642599 0 0 1 697.14801 889.257425 A 19.726101 19.642599 0 0 1 716.874111 908.900024 Z" transform="rotate(15.21 697.148 908.9)" fill="#FFF502"/><path d="M 796.66399 898.239014 A 18.937 19.642599 0 0 1 777.72699 917.881613 A 18.937 19.642599 0 0 1 758.789989 898.239014 A 18.937 19.642599 0 0 1 777.72699 878.596415 A 18.937 19.642599 0 0 1 796.66399 898.239014 Z" transform="rotate(15.21 777.727 898.239)" fill="#FFF502"/><path d="M 876.275013 888.129028 A 18.937 18.856899 0 0 1 857.338013 906.985928 A 18.937 18.856899 0 0 1 838.401012 888.129028 A 18.937 18.856899 0 0 1 857.338013 869.272129 A 18.937 18.856899 0 0 1 876.275013 888.129028 Z" transform="rotate(15.21 857.338 888.129)" fill="#FFF502"/><path d="M 1125.656155 602.343994 A 19.726101 18.856899 0 0 1 1105.930054 621.200893 A 19.726101 18.856899 0 0 1 1086.203953 602.343994 A 19.726101 18.856899 0 0 1 1105.930054 583.487095 A 19.726101 18.856899 0 0 1 1125.656155 602.343994 Z" transform="rotate(15.21 1105.93 602.344)" fill="#FFF502"/><path d="M 1158.156155 554.997009 A 19.726101 19.642599 0 0 1 1138.430054 574.639608 A 19.726101 19.642599 0 0 1 1118.703953 554.997009 A 19.726101 19.642599 0 0 1 1138.430054 535.35441 A 19.726101 19.642599 0 0 1 1158.156155 554.997009 Z" transform="rotate(15.21 1138.43 554.997)" fill="#FFF502"/><path d="M 1126.966091 447.179993 A 19.726101 19.642599 0 0 1 1107.23999 466.822592 A 19.726101 19.642599 0 0 1 1087.513889 447.179993 A 19.726101 19.642599 0 0 1 1107.23999 427.537394 A 19.726101 19.642599 0 0 1 1126.966091 447.179993 Z" transform="rotate(15.21 1107.24 447.18)" fill="#FFF502"/><path d="M719.244 116.152C718.887 110.969 725.183 106.578 730.45 109.723" stroke="#F8F9FA" stroke-width="2" stroke-linecap="round" style="fill-opacity: 0;"/><path d="M313.996 427.742C313.639 422.559 319.935 418.167 325.202 421.312" stroke="#F8F9FA" stroke-width="2" stroke-linecap="round" style="fill-opacity: 0;"/><path d="M813.209 103.816C815.969 103.556 820.771 109.559 818.775 118.059" stroke="#F8F9FA" stroke-width="2" stroke-linecap="round" style="fill-opacity: 0;"/><path d="M1114.32 437.194C1117.08 436.935 1121.89 442.938 1119.89 451.437" stroke="#F8F9FA" stroke-width="2" stroke-linecap="round" style="fill-opacity: 0;"/><path d="M1151.24 550.161C1153.69 551.472 1154.34 559.113 1147.95 565.07" stroke="#F8F9FA" stroke-width="2" stroke-linecap="round" style="fill-opacity: 0;"/><path d="M1112.74 592.176C1115.46 592.156 1120.63 597.264 1119.22 603.903" stroke="#F8F9FA" stroke-width="2" stroke-linecap="round" style="fill-opacity: 0;"/><path d="M593.767 99.838C596.527 99.5789 601.329 105.582 599.332 114.081" stroke="#F8F9FA" stroke-width="2" stroke-linecap="round" style="fill-opacity: 0;"/><path d="M382.635 548.387C382.227 551.119 375.233 554.303 367.431 550.305" stroke="#F8F9FA" stroke-width="2" stroke-linecap="round" style="fill-opacity: 0;"/><path d="M368.706 611.507C365.935 611.419 361.925 604.865 364.977 596.685" stroke="#F8F9FA" stroke-width="2" stroke-linecap="round" style="fill-opacity: 0;"/><path d="M688.169 920.435C685.398 920.347 681.388 913.793 684.44 905.612" stroke="#F8F9FA" stroke-width="2" stroke-linecap="round" style="fill-opacity: 0;"/><path d="M787.07 889.263C789.828 889.554 793.343 896.383 789.695 904.317" stroke="#F8F9FA" stroke-width="2" stroke-linecap="round" style="fill-opacity: 0;"/><path d="M868.363 881.083C871.12 881.374 874.636 888.203 870.987 896.136" stroke="#F8F9FA" stroke-width="2" stroke-linecap="round" style="fill-opacity: 0;"/><path d="M357.812 537.17L285.978 537.093C281.56 537.089 277.974 533.503 277.97 529.085L277.384 -15.2402" stroke="#00A6FB" stroke-width="6" transform="matrix(0.9999999999999999, 0, 0, 0.9999999999999999, -2.3688420110201918, 2.842608690261841)" style="fill-opacity: 0;"/><path d="M993.781 342.475L1048.65 342.534C1053.07 342.539 1056.65 338.961 1056.64 334.542L1056.27 -10.9258" stroke="#00A6FB" stroke-width="6" style="fill-opacity: 0;"/><path d="M 540.94384765625 131.26458740234375 L 540.94384765625 131.26458740234375" style="fill: rgb(0, 0, 0); fill-opacity: 0; stroke: rgb(248, 249, 250); stroke-opacity: 1; stroke-width: 2; paint-order: stroke;"/><path d="M 317.53826904296875 423.66094970703125 L 317.53826904296875 423.66094970703125" style="fill: rgb(0, 0, 0); fill-opacity: 0; stroke: rgb(0, 166, 251); stroke-opacity: 1; stroke-width: 6; paint-order: stroke;"/></g></svg>