<svg width="43" height="30" viewBox="0 0 43 30" fill="none" xmlns="http://www.w3.org/2000/svg">
<path fill-rule="evenodd" clip-rule="evenodd" d="M35.7224 27.159C34.9112 27.9401 33.8356 28.4424 32.6504 28.5272L29.3746 28.7616C22.4669 29.2558 15.5327 29.2558 8.62504 28.7616L5.59703 28.545C3.20497 28.3738 1.23195 26.6055 0.800915 24.2464C-0.0724139 19.4665 -0.221927 14.5826 0.357392 9.75831L0.902364 5.22008C1.22578 2.52685 3.51059 0.5 6.22316 0.5H10.8063C13.0418 0.5 14.9043 2.09692 15.3154 4.21224L31.9442 4.21224C34.5569 4.21224 36.7824 6.11066 37.1942 8.69071L37.3224 9.49358C37.3493 9.66227 37.3752 9.83109 37.4002 10H38.0722C41.017 10 43.0416 12.9597 41.9743 15.7042L39.4754 22.1299C38.6994 24.1253 37.3976 25.8603 35.7224 27.159ZM34.2317 9.16357L34.3599 9.96643C34.3616 9.97762 34.3634 9.98881 34.3652 10H15.7407C13.4693 10 11.4315 11.3963 10.6115 13.5145L5.94786 25.5624L5.81111 25.5526C4.78416 25.4791 3.93711 24.7199 3.75206 23.7071C2.93279 19.2232 2.79254 14.6416 3.33599 10.116L3.88096 5.57776C4.02333 4.39221 5.02909 3.5 6.22316 3.5H10.8063C11.6864 3.5 12.3998 4.21345 12.3998 5.09353C12.3998 6.26366 13.3484 7.21224 14.5185 7.21224H31.9442C33.0826 7.21224 34.0523 8.03941 34.2317 9.16357ZM9.07817 25.7861C15.7642 26.2532 22.475 26.2475 29.1605 25.7692L32.4363 25.5349L32.8254 25.4985L32.8227 25.4936C34.5838 24.4999 35.9465 22.9272 36.6794 21.0426L39.1783 14.6169C39.4808 13.8389 38.9069 13 38.0722 13H15.7407C14.7082 13 13.782 13.6347 13.4092 14.5975L9.07817 25.7861Z" fill="#F8F9FA"/>
</svg>
