<svg xmlns="http://www.w3.org/2000/svg" width="34" height="38" viewBox="0 0 34 38" fill="none">
<path d="M9.5 10C9.5 9.17157 10.1716 8.5 11 8.5H25C25.8284 8.5 26.5 9.17157 26.5 10C26.5 10.8284 25.8284 11.5 25 11.5H11C10.1716 11.5 9.5 10.8284 9.5 10Z" fill="#F8F9FA"/>
<path d="M11 14.5C10.1716 14.5 9.5 15.1716 9.5 16C9.5 16.8284 10.1716 17.5 11 17.5H21C21.8284 17.5 22.5 16.8284 22.5 16C22.5 15.1716 21.8284 14.5 21 14.5H11Z" fill="#F8F9FA"/>
<path fill-rule="evenodd" clip-rule="evenodd" d="M10 0.5C4.7533 0.5 0.5 4.75329 0.5 10V30C0.5 34.1421 3.85786 37.5 8 37.5H30C31.933 37.5 33.5 35.933 33.5 34V4C33.5 2.067 31.933 0.5 30 0.5H10ZM30.5 22.5V4C30.5 3.72386 30.2761 3.5 30 3.5H10C6.41015 3.5 3.5 6.41015 3.5 10V23.9995C4.75349 23.0579 6.31159 22.5 8 22.5H30.5ZM30.5 25.5H8C5.51472 25.5 3.5 27.5147 3.5 30C3.5 32.4853 5.51472 34.5 8 34.5H30C30.2761 34.5 30.5 34.2761 30.5 34V25.5Z" fill="#F8F9FA"/>
</svg>