<svg width="14" height="16" viewBox="0 0 14 16" fill="none" xmlns="http://www.w3.org/2000/svg">
<path fill-rule="evenodd" clip-rule="evenodd" d="M10.0859 0.688289C9.96654 0.567729 9.80468 0.5 9.6359 0.5C9.46713 0.5 9.30527 0.567729 9.18592 0.688289L1.38632 8.56748C1.30637 8.64824 1.24917 8.74907 1.22059 8.85958L0.372108 12.1411C0.315014 12.3619 0.378089 12.5967 0.537838 12.7581C0.697586 12.9195 0.930055 12.9832 1.14864 12.9255L4.397 12.0684C4.5064 12.0395 4.6062 11.9817 4.68615 11.901L12.4858 4.02179C12.7343 3.77074 12.7343 3.36371 12.4858 3.11265L10.0859 0.688289ZM2.40837 9.35328L9.6359 2.05199L11.1358 3.56722L3.90829 10.8685L1.87807 11.4042L2.40837 9.35328Z" fill="#252E46"/>
<path d="M0.636364 14.2143C0.28491 14.2143 0 14.5021 0 14.8571C0 15.2122 0.28491 15.5 0.636364 15.5H13.3636C13.7151 15.5 14 15.2122 14 14.8571C14 14.5021 13.7151 14.2143 13.3636 14.2143H0.636364Z" fill="#252E46"/>
</svg>
