<svg xmlns="http://www.w3.org/2000/svg" width="165" height="165" viewBox="0 0 165 165" fill="none">
<path d="M82.055 164.11C127.373 164.11 164.11 127.373 164.11 82.055C164.11 36.7373 127.373 0 82.055 0C36.7373 0 0 36.7373 0 82.055C0 127.373 36.7373 164.11 82.055 164.11Z" fill="#00A6FB"/>
<path opacity="0.8" d="M82.055 164.11C127.373 164.11 164.11 127.373 164.11 82.055C164.11 36.7373 127.373 0 82.055 0C36.7373 0 0 36.7373 0 82.055C0 127.373 36.7373 164.11 82.055 164.11Z" fill="white"/>
<path d="M99.7478 83.161C97.0017 89.1151 92.4531 94.0551 86.7454 97.2822C81.0377 100.509 74.4598 101.86 67.9422 101.143C61.4246 100.427 55.2973 97.6793 50.427 93.2892C45.5567 88.8992 42.19 83.089 40.8031 76.6805C39.4162 70.272 40.0793 63.5897 42.6986 57.5787C45.318 51.5678 49.7609 46.5326 55.399 43.1853C61.0371 39.8381 67.5849 38.3482 74.1162 38.9266C80.6475 39.5049 86.8316 42.1221 91.7938 46.408C96.9194 50.8475 100.466 56.8305 101.9 63.458C103.334 70.0855 102.579 76.9995 99.7478 83.161ZM49.3118 59.947C46.7315 65.5338 46.3653 71.8911 48.2868 77.7373C50.2083 83.5835 54.2748 88.4838 59.6664 91.4504C65.0581 94.417 71.3739 95.2293 77.3407 93.7234C83.3075 92.2176 88.4816 88.5056 91.8198 83.3358C95.1581 78.1661 96.4122 71.923 95.3295 65.8651C94.2468 59.8072 90.9077 54.385 85.9854 50.6916C81.0631 46.9983 74.9236 45.3083 68.8045 45.9626C62.6855 46.6168 57.0421 49.5665 53.0118 54.217C51.516 55.9441 50.2704 57.873 49.3118 59.947Z" fill="white"/>
<path d="M123.692 123.267C123.452 123.786 123.088 124.239 122.633 124.586C122.177 124.933 121.644 125.163 121.079 125.256C120.514 125.349 119.935 125.303 119.393 125.121C118.85 124.939 118.36 124.627 117.965 124.213L88.3002 92.9838C87.9831 92.65 87.7348 92.2569 87.5695 91.8272C87.4043 91.3974 87.3253 90.9393 87.3371 90.479C87.3489 90.0187 87.4512 89.5652 87.6383 89.1445C87.8253 88.7237 88.0934 88.3439 88.4272 88.0268C88.761 87.7096 89.1541 87.4614 89.5838 87.2961C90.0136 87.1308 90.4717 87.0519 90.932 87.0637C91.3923 87.0754 91.8458 87.1778 92.2665 87.3648C92.6873 87.5519 93.0671 87.82 93.3842 88.1538L123.047 119.383C123.531 119.891 123.851 120.533 123.966 121.226C124.081 121.918 123.986 122.629 123.692 123.267Z" fill="white"/>
</svg>