<svg width="36" height="26" viewBox="0 0 36 26" fill="none" xmlns="http://www.w3.org/2000/svg">
<g clip-path="url(#clip0_351_10095)">
<g clip-path="url(#clip1_351_10095)">
<rect width="36" height="26" rx="2" fill="white"/>
<path fill-rule="evenodd" clip-rule="evenodd" d="M0 0H15.4286V12.1333H0V0Z" fill="#1A47B8"/>
<path fill-rule="evenodd" clip-rule="evenodd" d="M15.4286 0V1.73333H36V0H15.4286ZM15.4286 3.46667V5.2H36V3.46667H15.4286ZM15.4286 6.93333V8.66667H36V6.93333H15.4286ZM15.4286 10.4V12.1333H36V10.4H15.4286ZM0 13.8667V15.6H36V13.8667H0ZM0 17.3333V19.0667H36V17.3333H0ZM0 20.8V22.5333H36V20.8H0ZM0 24.2667V26H36V24.2667H0Z" fill="#F93939"/>
<path fill-rule="evenodd" clip-rule="evenodd" d="M1.71436 1.73242V3.46576H3.42864V1.73242H1.71436ZM5.14293 1.73242V3.46576H6.85721V1.73242H5.14293ZM8.5715 1.73242V3.46576H10.2858V1.73242H8.5715ZM12.0001 1.73242V3.46576H13.7144V1.73242H12.0001ZM10.2858 3.46576V5.19909H12.0001V3.46576H10.2858ZM6.85721 3.46576V5.19909H8.5715V3.46576H6.85721ZM3.42864 3.46576V5.19909H5.14293V3.46576H3.42864ZM1.71436 5.19909V6.93242H3.42864V5.19909H1.71436ZM5.14293 5.19909V6.93242H6.85721V5.19909H5.14293ZM8.5715 5.19909V6.93242H10.2858V5.19909H8.5715ZM12.0001 5.19909V6.93242H13.7144V5.19909H12.0001ZM1.71436 8.66576V10.3991H3.42864V8.66576H1.71436ZM5.14293 8.66576V10.3991H6.85721V8.66576H5.14293ZM8.5715 8.66576V10.3991H10.2858V8.66576H8.5715ZM12.0001 8.66576V10.3991H13.7144V8.66576H12.0001ZM10.2858 6.93242V8.66576H12.0001V6.93242H10.2858ZM6.85721 6.93242V8.66576H8.5715V6.93242H6.85721ZM3.42864 6.93242V8.66576H5.14293V6.93242H3.42864Z" fill="white"/>
</g>
</g>
<defs>
<clipPath id="clip0_351_10095">
<rect width="36" height="26" fill="white"/>
</clipPath>
<clipPath id="clip1_351_10095">
<rect width="36" height="26" rx="2" fill="white"/>
</clipPath>
</defs>
</svg>
